<?xml version="1.0" encoding="utf-8"?>
<svg version="1.1" xmlns:xlink="http://www.w3.org/1999/xlink" width="97px" height="84px" xmlns="http://www.w3.org/2000/svg">
  <g transform="matrix(1 0 0 1 -110 -441 )">
    <path d="M 18.755859375 58.8536931818182  C 20.1090959821429 57.3622159090909  20.7857142857143 55.5625  20.7857142857143 53.4545454545455  C 20.7857142857143 51.3465909090909  20.1090959821429 49.546875  18.755859375 48.0553977272727  C 17.4026227678571 46.5639204545455  15.7697172619048 45.8181818181818  13.8571428571429 45.8181818181818  C 11.944568452381 45.8181818181818  10.3116629464286 46.5639204545455  8.95842633928571 48.0553977272727  C 7.60518973214286 49.546875  6.92857142857143 51.3465909090909  6.92857142857143 53.4545454545455  C 6.92857142857143 55.5625  7.60518973214286 57.3622159090909  8.95842633928571 58.8536931818182  C 10.3116629464286 60.3451704545455  11.944568452381 61.0909090909091  13.8571428571429 61.0909090909091  C 15.7697172619048 61.0909090909091  17.4026227678571 60.3451704545455  18.755859375 58.8536931818182  Z M 29.1487165178571 32.1264204545455  C 30.501953125 30.6349431818182  31.1785714285714 28.8352272727273  31.1785714285714 26.7272727272727  C 31.1785714285714 24.6193181818182  30.501953125 22.8196022727273  29.1487165178571 21.328125  C 27.7954799107143 19.8366477272727  26.1625744047619 19.0909090909091  24.25 19.0909090909091  C 22.3374255952381 19.0909090909091  20.7045200892857 19.8366477272727  19.3512834821429 21.328125  C 17.998046875 22.8196022727273  17.3214285714286 24.6193181818182  17.3214285714286 26.7272727272727  C 17.3214285714286 28.8352272727273  17.998046875 30.6349431818182  19.3512834821429 32.1264204545455  C 20.7045200892857 33.6178977272727  22.3374255952381 34.3636363636364  24.25 34.3636363636364  C 26.1625744047619 34.3636363636364  27.7954799107143 33.6178977272727  29.1487165178571 32.1264204545455  Z M 58.2433035714286 60.8522727272727  C 57.4494047619048 58.5852272727273  56.1502976190476 56.7755681818182  54.3459821428571 55.4232954545455  L 59.8130580357143 32.6335227272727  C 60.0295758928571 31.5994318181818  59.8942522321429 30.6349431818182  59.4070870535714 29.7400568181818  C 58.919921875 28.8451704545454  58.2252604166667 28.2585227272727  57.3231026785714 27.9801136363636  C 56.4209449404762 27.7017045454545  55.5548735119048 27.8309659090909  54.7248883928571 28.3678977272727  C 53.8949032738095 28.9048295454545  53.3536086309524 29.6903409090909  53.1010044642857 30.7244318181818  L 47.6339285714286 53.5142045454545  C 45.46875 53.7130681818182  43.5381324404762 54.578125  41.8420758928571 56.109375  C 40.1460193452381 57.640625  39.0093005952381 59.5994318181818  38.4319196428571 61.9857954545455  C 37.710193452381 65.0482954545455  38.0710565476191 67.9517045454545  39.5145089285714 70.6960227272727  C 40.9579613095238 73.4403409090909  43.0690104166667 75.2102272727273  45.84765625 76.0056818181818  C 48.6263020833333 76.8011363636364  51.2606026785714 76.4034090909091  53.7505580357143 74.8125  C 56.2405133928571 73.2215909090909  57.8463541666667 70.8948863636364  58.5680803571429 67.8323863636364  C 59.1454613095238 65.4460227272727  59.0372023809524 63.1193181818182  58.2433035714286 60.8522727272727  Z M 88.0415736607143 58.8536931818182  C 89.3948102678571 57.3622159090909  90.0714285714286 55.5625  90.0714285714286 53.4545454545455  C 90.0714285714286 51.3465909090909  89.3948102678571 49.546875  88.0415736607143 48.0553977272727  C 86.6883370535714 46.5639204545455  85.0554315476191 45.8181818181818  83.1428571428571 45.8181818181818  C 81.2302827380952 45.8181818181818  79.5973772321429 46.5639204545455  78.244140625 48.0553977272727  C 76.8909040178571 49.546875  76.2142857142857 51.3465909090909  76.2142857142857 53.4545454545455  C 76.2142857142857 55.5625  76.8909040178571 57.3622159090909  78.244140625 58.8536931818182  C 79.5973772321429 60.3451704545455  81.2302827380952 61.0909090909091  83.1428571428571 61.0909090909091  C 85.0554315476191 61.0909090909091  86.6883370535714 60.3451704545455  88.0415736607143 58.8536931818182  Z M 53.3987165178571 20.671875  C 54.751953125 19.1803977272727  55.4285714285714 17.3806818181818  55.4285714285714 15.2727272727273  C 55.4285714285714 13.1647727272727  54.751953125 11.3650568181818  53.3987165178571 9.87357954545455  C 52.0454799107143 8.38210227272727  50.4125744047619 7.63636363636364  48.5 7.63636363636364  C 46.5874255952381 7.63636363636364  44.9545200892857 8.38210227272727  43.6012834821429 9.87357954545455  C 42.248046875 11.3650568181818  41.5714285714286 13.1647727272727  41.5714285714286 15.2727272727273  C 41.5714285714286 17.3806818181818  42.248046875 19.1803977272727  43.6012834821429 20.671875  C 44.9545200892857 22.1633522727273  46.5874255952381 22.9090909090909  48.5 22.9090909090909  C 50.4125744047619 22.9090909090909  52.0454799107143 22.1633522727273  53.3987165178571 20.671875  Z M 77.6487165178571 32.1264204545455  C 79.001953125 30.6349431818182  79.6785714285714 28.8352272727273  79.6785714285714 26.7272727272727  C 79.6785714285714 24.6193181818182  79.001953125 22.8196022727273  77.6487165178571 21.328125  C 76.2954799107143 19.8366477272727  74.6625744047619 19.0909090909091  72.75 19.0909090909091  C 70.8374255952381 19.0909090909091  69.2045200892857 19.8366477272727  67.8512834821429 21.328125  C 66.498046875 22.8196022727273  65.8214285714286 24.6193181818182  65.8214285714286 26.7272727272727  C 65.8214285714286 28.8352272727273  66.498046875 30.6349431818182  67.8512834821429 32.1264204545455  C 69.2045200892857 33.6178977272727  70.8374255952381 34.3636363636364  72.75 34.3636363636364  C 74.6625744047619 34.3636363636364  76.2954799107143 33.6178977272727  77.6487165178571 32.1264204545455  Z M 93.1568080357143 32.6931818181818  C 95.7189360119048 39.2954545454545  97 46.2159090909091  97 53.4545454545455  C 97 63.8352272727273  94.4559151785714 73.4403409090909  89.3677455357143 82.2698863636364  C 88.6821056547619 83.4232954545455  87.7077752976191 84  86.4447544642857 84  L 10.5552455357143 84  C 9.29222470238095 84  8.3178943452381 83.4232954545455  7.63225446428571 82.2698863636364  C 2.54408482142857 73.4801136363636  0 63.875  0 53.4545454545455  C 0 46.2159090909091  1.28106398809524 39.2954545454545  3.84319196428571 32.6931818181818  C 6.40531994047619 26.0909090909091  9.8515625 20.4034090909091  14.1819196428571 15.6306818181818  C 18.5122767857143 10.8579545454545  23.6726190476191 7.05965909090909  29.6629464285714 4.23579545454545  C 35.6532738095238 1.41193181818181  41.9322916666667 0  48.5 0  C 55.0677083333333 0  61.3467261904762 1.41193181818181  67.3370535714286 4.23579545454545  C 73.327380952381 7.05965909090909  78.4877232142857 10.8579545454545  82.8180803571429 15.6306818181818  C 87.1484375 20.4034090909091  90.5946800595238 26.0909090909091  93.1568080357143 32.6931818181818  Z " fill-rule="nonzero" fill="#000000" stroke="none" transform="matrix(1 0 0 1 110 441 )" />
  </g>
</svg>