<?xml version="1.0" encoding="utf-8"?>
<svg version="1.1" xmlns:xlink="http://www.w3.org/1999/xlink" width="312px" height="270px" xmlns="http://www.w3.org/2000/svg">
  <g transform="matrix(1 0 0 1 -2292 -173 )">
    <path d="M 60.328125 189.172585227273  C 64.6808035714286 184.378551136364  66.8571428571428 178.59375  66.8571428571428 171.818181818182  C 66.8571428571428 165.042613636364  64.6808035714286 159.2578125  60.328125 154.463778409091  C 55.9754464285714 149.669744318182  50.7232142857143 147.272727272727  44.5714285714286 147.272727272727  C 38.4196428571429 147.272727272727  33.1674107142857 149.669744318182  28.8147321428571 154.463778409091  C 24.4620535714286 159.2578125  22.2857142857143 165.042613636364  22.2857142857143 171.818181818182  C 22.2857142857143 178.59375  24.4620535714286 184.378551136364  28.8147321428571 189.172585227273  C 33.1674107142857 193.966619318182  38.4196428571429 196.363636363636  44.5714285714286 196.363636363636  C 50.7232142857143 196.363636363636  55.9754464285714 193.966619318182  60.328125 189.172585227273  Z M 93.7566964285714 103.263494318182  C 98.109375 98.4694602272727  100.285714285714 92.6846590909091  100.285714285714 85.9090909090909  C 100.285714285714 79.1335227272727  98.109375 73.3487215909091  93.7566964285714 68.5546875  C 89.4040178571429 63.7606534090909  84.1517857142857 61.3636363636364  78 61.3636363636364  C 71.8482142857143 61.3636363636364  66.5959821428572 63.7606534090909  62.2433035714286 68.5546875  C 57.890625 73.3487215909091  55.7142857142857 79.1335227272727  55.7142857142857 85.9090909090909  C 55.7142857142857 92.6846590909091  57.890625 98.4694602272727  62.2433035714286 103.263494318182  C 66.5959821428572 108.057528409091  71.8482142857143 110.454545454545  78 110.454545454545  C 84.1517857142857 110.454545454545  89.4040178571429 108.057528409091  93.7566964285714 103.263494318182  Z M 187.339285714286 195.596590909091  C 184.785714285714 188.309659090909  180.607142857143 182.492897727273  174.803571428571 178.146306818182  L 192.388392857143 104.893465909091  C 193.084821428571 101.569602272727  192.649553571429 98.4694602272727  191.082589285714 95.5930397727273  C 189.515625 92.7166193181818  187.28125 90.8309659090909  184.379464285714 89.9360795454545  C 181.477678571429 89.0411931818182  178.691964285714 89.4566761363636  176.022321428571 91.1825284090909  C 173.352678571429 92.9083806818182  171.611607142857 95.4332386363636  170.799107142857 98.7571022727273  L 153.214285714286 172.009943181818  C 146.25 172.649147727273  140.040178571429 175.4296875  134.584821428571 180.3515625  C 129.129464285714 185.2734375  125.473214285714 191.569602272727  123.616071428571 199.240056818182  C 121.294642857143 209.083806818182  122.455357142857 218.416193181818  127.098214285714 227.237215909091  C 131.741071428571 236.058238636364  138.53125 241.747159090909  147.46875 244.303977272727  C 156.40625 246.860795454545  164.879464285714 245.582386363636  172.888392857143 240.46875  C 180.897321428571 235.355113636364  186.0625 227.876420454545  188.383928571429 218.032670454545  C 190.241071428571 210.362215909091  189.892857142857 202.883522727273  187.339285714286 195.596590909091  Z M 283.185267857143 189.172585227273  C 287.537946428571 184.378551136364  289.714285714286 178.59375  289.714285714286 171.818181818182  C 289.714285714286 165.042613636364  287.537946428571 159.2578125  283.185267857143 154.463778409091  C 278.832589285714 149.669744318182  273.580357142857 147.272727272727  267.428571428571 147.272727272727  C 261.276785714286 147.272727272727  256.024553571429 149.669744318182  251.671875 154.463778409091  C 247.319196428571 159.2578125  245.142857142857 165.042613636364  245.142857142857 171.818181818182  C 245.142857142857 178.59375  247.319196428571 184.378551136364  251.671875 189.172585227273  C 256.024553571429 193.966619318182  261.276785714286 196.363636363636  267.428571428571 196.363636363636  C 273.580357142857 196.363636363636  278.832589285714 193.966619318182  283.185267857143 189.172585227273  Z M 171.756696428571 66.4453125  C 176.109375 61.6512784090909  178.285714285714 55.8664772727273  178.285714285714 49.0909090909091  C 178.285714285714 42.3153409090909  176.109375 36.5305397727273  171.756696428571 31.7365056818182  C 167.404017857143 26.9424715909091  162.151785714286 24.5454545454546  156 24.5454545454546  C 149.848214285714 24.5454545454546  144.595982142857 26.9424715909091  140.243303571429 31.7365056818182  C 135.890625 36.5305397727273  133.714285714286 42.3153409090909  133.714285714286 49.0909090909091  C 133.714285714286 55.8664772727273  135.890625 61.6512784090909  140.243303571429 66.4453125  C 144.595982142857 71.2393465909091  149.848214285714 73.6363636363636  156 73.6363636363636  C 162.151785714286 73.6363636363636  167.404017857143 71.2393465909091  171.756696428571 66.4453125  Z M 249.756696428571 103.263494318182  C 254.109375 98.4694602272727  256.285714285714 92.6846590909091  256.285714285714 85.9090909090909  C 256.285714285714 79.1335227272727  254.109375 73.3487215909091  249.756696428571 68.5546875  C 245.404017857143 63.7606534090909  240.151785714286 61.3636363636364  234 61.3636363636364  C 227.848214285714 61.3636363636364  222.595982142857 63.7606534090909  218.243303571429 68.5546875  C 213.890625 73.3487215909091  211.714285714286 79.1335227272727  211.714285714286 85.9090909090909  C 211.714285714286 92.6846590909091  213.890625 98.4694602272727  218.243303571429 103.263494318182  C 222.595982142857 108.057528409091  227.848214285714 110.454545454545  234 110.454545454545  C 240.151785714286 110.454545454545  245.404017857143 108.057528409091  249.756696428571 103.263494318182  Z M 299.638392857143 105.085227272727  C 307.879464285714 126.306818181818  312 148.551136363636  312 171.818181818182  C 312 205.184659090909  303.816964285714 236.058238636364  287.450892857143 264.438920454545  C 285.245535714286 268.146306818182  282.111607142857 270  278.049107142857 270  L 33.9508928571429 270  C 29.8883928571429 270  26.7544642857143 268.146306818182  24.5491071428571 264.438920454545  C 8.18303571428572 236.186079545455  0 205.3125  0 171.818181818182  C 0 148.551136363636  4.12053571428571 126.306818181818  12.3616071428571 105.085227272727  C 20.6026785714286 83.8636363636363  31.6875 65.5823863636364  45.6160714285714 50.2414772727273  C 59.5446428571429 34.9005681818182  76.1428571428572 22.6917613636363  95.4107142857143 13.6150568181818  C 114.678571428571 4.53835227272725  134.875 0  156 0  C 177.125 0  197.321428571429 4.53835227272725  216.589285714286 13.6150568181818  C 235.857142857143 22.6917613636363  252.455357142857 34.9005681818182  266.383928571429 50.2414772727273  C 280.3125 65.5823863636364  291.397321428571 83.8636363636363  299.638392857143 105.085227272727  Z " fill-rule="nonzero" fill="#000000" stroke="none" transform="matrix(1 0 0 1 2292 173 )" />
  </g>
</svg>