<?xml version="1.0" encoding="utf-8"?>
<svg version="1.1" xmlns:xlink="http://www.w3.org/1999/xlink" width="146px" height="42px" xmlns="http://www.w3.org/2000/svg">
  <defs>
    <mask fill="white" id="clip432">
      <path d="M 0 36.75  L 0 5.25  C 0 2.31000000000005  2.29428571428552 0  5.21428571428571 0  L 60.1380952380965 0  L 140.785714285714 0  C 143.705714285714 0  146 2.31000000000005  146 5.25  L 146 36.75  C 146 39.6899999999999  143.705714285714 42  140.785714285714 42  L 5.21428571428571 42  C 2.29428571428552 42  0 39.6899999999999  0 36.75  Z " fill-rule="evenodd" />
    </mask>
  </defs>
  <g transform="matrix(1 0 0 1 -3115 -853 )">
    <path d="M 0 36.75  L 0 5.25  C 0 2.31000000000005  2.29428571428552 0  5.21428571428571 0  L 60.1380952380965 0  L 140.785714285714 0  C 143.705714285714 0  146 2.31000000000005  146 5.25  L 146 36.75  C 146 39.6899999999999  143.705714285714 42  140.785714285714 42  L 5.21428571428571 42  C 2.29428571428552 42  0 39.6899999999999  0 36.75  Z " fill-rule="nonzero" fill="#ffffff" stroke="none" transform="matrix(1 0 0 1 3115 853 )" />
    <path d="M 0 36.75  L 0 5.25  C 0 2.31000000000005  2.29428571428552 0  5.21428571428571 0  L 60.1380952380965 0  L 140.785714285714 0  C 143.705714285714 0  146 2.31000000000005  146 5.25  L 146 36.75  C 146 39.6899999999999  143.705714285714 42  140.785714285714 42  L 5.21428571428571 42  C 2.29428571428552 42  0 39.6899999999999  0 36.75  Z " stroke-width="2" stroke="#797979" fill="none" transform="matrix(1 0 0 1 3115 853 )" mask="url(#clip432)" />
  </g>
</svg>