<?xml version="1.0" encoding="utf-8"?>
<svg version="1.1" xmlns:xlink="http://www.w3.org/1999/xlink" width="247px" height="71px" xmlns="http://www.w3.org/2000/svg">
  <defs>
    <mask fill="white" id="clip209">
      <path d="M 0 62.125  L 0 8.875  C 0 3.90500000000008  3.88142857142825 0  8.82142857142857 0  L 101.740476190478 0  L 238.178571428571 0  C 243.118571428572 0  247 3.90500000000008  247 8.875  L 247 62.125  C 247 67.0949999999999  243.118571428572 71  238.178571428571 71  L 8.82142857142857 71  C 3.88142857142825 71  0 67.0949999999999  0 62.125  Z " fill-rule="evenodd" />
    </mask>
  </defs>
  <g transform="matrix(1 0 0 1 -2180 -1155 )">
    <path d="M 0 62.125  L 0 8.875  C 0 3.90500000000008  3.88142857142825 0  8.82142857142857 0  L 101.740476190478 0  L 238.178571428571 0  C 243.118571428572 0  247 3.90500000000008  247 8.875  L 247 62.125  C 247 67.0949999999999  243.118571428572 71  238.178571428571 71  L 8.82142857142857 71  C 3.88142857142825 71  0 67.0949999999999  0 62.125  Z " fill-rule="nonzero" fill="#ffffff" stroke="none" transform="matrix(1 0 0 1 2180 1155 )" />
    <path d="M 0 62.125  L 0 8.875  C 0 3.90500000000008  3.88142857142825 0  8.82142857142857 0  L 101.740476190478 0  L 238.178571428571 0  C 243.118571428572 0  247 3.90500000000008  247 8.875  L 247 62.125  C 247 67.0949999999999  243.118571428572 71  238.178571428571 71  L 8.82142857142857 71  C 3.88142857142825 71  0 67.0949999999999  0 62.125  Z " stroke-width="2" stroke="#797979" fill="none" transform="matrix(1 0 0 1 2180 1155 )" mask="url(#clip209)" />
  </g>
</svg>