<?xml version="1.0" encoding="utf-8"?>
<svg version="1.1" xmlns:xlink="http://www.w3.org/1999/xlink" width="313px" height="89px" xmlns="http://www.w3.org/2000/svg">
  <defs>
    <mask fill="white" id="clip430">
      <path d="M 0 77.875  L 0 11.125  C 0 4.8950000000001  4.91857142857102 0  11.1785714285714 0  L 128.926190476193 0  L 301.821428571429 0  C 308.081428571429 0  313 4.8950000000001  313 11.125  L 313 77.875  C 313 84.1049999999999  308.081428571429 89  301.821428571429 89  L 11.1785714285714 89  C 4.91857142857102 89  0 84.1049999999999  0 77.875  Z " fill-rule="evenodd" />
    </mask>
  </defs>
  <g transform="matrix(1 0 0 1 -2448 -1137 )">
    <path d="M 0 77.875  L 0 11.125  C 0 4.8950000000001  4.91857142857102 0  11.1785714285714 0  L 128.926190476193 0  L 301.821428571429 0  C 308.081428571429 0  313 4.8950000000001  313 11.125  L 313 77.875  C 313 84.1049999999999  308.081428571429 89  301.821428571429 89  L 11.1785714285714 89  C 4.91857142857102 89  0 84.1049999999999  0 77.875  Z " fill-rule="nonzero" fill="#ffffff" stroke="none" transform="matrix(1 0 0 1 2448 1137 )" />
    <path d="M 0 77.875  L 0 11.125  C 0 4.8950000000001  4.91857142857102 0  11.1785714285714 0  L 128.926190476193 0  L 301.821428571429 0  C 308.081428571429 0  313 4.8950000000001  313 11.125  L 313 77.875  C 313 84.1049999999999  308.081428571429 89  301.821428571429 89  L 11.1785714285714 89  C 4.91857142857102 89  0 84.1049999999999  0 77.875  Z " stroke-width="2" stroke="#797979" fill="none" transform="matrix(1 0 0 1 2448 1137 )" mask="url(#clip430)" />
  </g>
</svg>