<?xml version="1.0" encoding="utf-8"?>
<svg version="1.1" xmlns:xlink="http://www.w3.org/1999/xlink" width="386px" height="205px" xmlns="http://www.w3.org/2000/svg">
  <g transform="matrix(1 0 0 1 -120 -1080 )">
    <path d="M 120 1250.88235294118  C 120 1250.88235294118  120 1090  120 1090  C 120 1084.47715250169  124.477152501692 1080  130 1080  C 130 1080  496 1080  496 1080  C 501.522847498308 1080  506 1084.47715250169  506 1090  C 506 1090  506 1250.88235294118  506 1250.88235294118  C 506 1256.40520043948  501.522847498308 1260.88235294118  496 1260.88235294118  C 496 1260.88235294118  222.933333333333 1260.88235294118  222.933333333333 1260.88235294118  C 222.933333333333 1260.88235294118  203.633333333333 1285  203.633333333333 1285  C 203.633333333333 1285  184.333333333333 1260.88235294118  184.333333333333 1260.88235294118  C 184.333333333333 1260.88235294118  130 1260.88235294118  130 1260.88235294118  C 124.477152501692 1260.88235294118  120 1256.40520043948  120 1250.88235294118  Z " fill-rule="nonzero" fill="#f2f2f2" stroke="none" />
  </g>
</svg>