<?xml version="1.0" encoding="utf-8"?>
<svg version="1.1" xmlns:xlink="http://www.w3.org/1999/xlink" width="18px" height="30px" xmlns="http://www.w3.org/2000/svg">
  <g transform="matrix(1 0 0 1 -753 -368 )">
    <path d="M 17.6907216494845 14.3086172344689  C 17.8969072164948 14.5090180360721  18 14.7394789579158  18 15  C 18 15.2605210420842  17.8969072164948 15.4909819639279  17.6907216494845 15.6913827655311  L 3.27835051546392 29.6993987975952  C 3.07216494845361 29.8997995991984  2.83505154639175 30  2.56701030927835 30  C 2.29896907216495 30  2.06185567010309 29.8997995991984  1.85567010309278 29.6993987975952  L 0.309278350515464 28.1963927855711  C 0.103092783505155 27.9959919839679  0 27.7655310621243  0 27.5050100200401  C 0 27.2444889779559  0.103092783505155 27.0140280561122  0.309278350515464 26.813627254509  L 12.4639175257732 15  L 0.309278350515464 3.18637274549098  C 0.103092783505155 2.98597194388777  0 2.75551102204409  0 2.49498997995992  C 0 2.23446893787575  0.103092783505155 2.00400801603206  0.309278350515464 1.80360721442886  L 1.85567010309278 0.30060120240481  C 2.06185567010309 0.100200400801602  2.29896907216495 0  2.56701030927835 0  C 2.83505154639175 0  3.07216494845361 0.100200400801602  3.27835051546392 0.30060120240481  L 17.6907216494845 14.3086172344689  Z " fill-rule="nonzero" fill="#aaaaaa" stroke="none" transform="matrix(1 0 0 1 753 368 )" />
  </g>
</svg>