<?xml version="1.0" encoding="utf-8"?>
<svg version="1.1" xmlns:xlink="http://www.w3.org/1999/xlink" width="40px" height="40px" xmlns="http://www.w3.org/2000/svg">
  <g transform="matrix(1 0 0 1 -169 -322 )">
    <path d="M 189 322.5  C 199.92 322.5  208.5 331.08  208.5 342  C 208.5 352.92  199.92 361.5  189 361.5  C 178.08 361.5  169.5 352.92  169.5 342  C 169.5 331.08  178.08 322.5  189 322.5  Z " fill-rule="nonzero" fill="#f3f3f3" stroke="none" />
    <path d="M 189 322.5  C 199.92 322.5  208.5 331.08  208.5 342  C 208.5 352.92  199.92 361.5  189 361.5  C 178.08 361.5  169.5 352.92  169.5 342  C 169.5 331.08  178.08 322.5  189 322.5  Z " stroke-width="1" stroke="#000000" fill="none" stroke-opacity="0.0470588235294118" />
  </g>
</svg>