<?xml version="1.0" encoding="utf-8"?>
<svg version="1.1" xmlns:xlink="http://www.w3.org/1999/xlink" width="32px" height="32px" xmlns="http://www.w3.org/2000/svg">
  <g transform="matrix(1 0 0 1 -173 -382 )">
    <path d="M 189 382.5  C 197.68 382.5  204.5 389.32  204.5 398  C 204.5 406.68  197.68 413.5  189 413.5  C 180.32 413.5  173.5 406.68  173.5 398  C 173.5 389.32  180.32 382.5  189 382.5  Z " fill-rule="nonzero" fill="#f3f3f3" stroke="none" />
    <path d="M 189 382.5  C 197.68 382.5  204.5 389.32  204.5 398  C 204.5 406.68  197.68 413.5  189 413.5  C 180.32 413.5  173.5 406.68  173.5 398  C 173.5 389.32  180.32 382.5  189 382.5  Z " stroke-width="1" stroke="#000000" fill="none" stroke-opacity="0.0470588235294118" />
  </g>
</svg>