<?xml version="1.0" encoding="utf-8"?>
<svg version="1.1" xmlns:xlink="http://www.w3.org/1999/xlink" width="14px" height="14px" xmlns="http://www.w3.org/2000/svg">
  <g transform="matrix(1 0 0 1 -696 -393 )">
    <path d="M 703 393  C 706.92 393  710 396.08  710 400  C 710 403.92  706.92 407  703 407  C 699.08 407  696 403.92  696 400  C 696 396.08  699.08 393  703 393  Z " fill-rule="nonzero" fill="#ffffff" stroke="none" fill-opacity="0" />
    <path d="M 703 393.5  C 706.64 393.5  709.5 396.36  709.5 400  C 709.5 403.64  706.64 406.5  703 406.5  C 699.36 406.5  696.5 403.64  696.5 400  C 696.5 396.36  699.36 393.5  703 393.5  Z " stroke-width="1" stroke="#d9d9d9" fill="none" />
  </g>
</svg>