<?xml version="1.0" encoding="utf-8"?>
<svg version="1.1" xmlns:xlink="http://www.w3.org/1999/xlink" width="14px" height="14px" xmlns="http://www.w3.org/2000/svg">
  <g transform="matrix(1 0 0 1 -785 -393 )">
    <path d="M 792 393  C 795.92 393  799 396.08  799 400  C 799 403.92  795.92 407  792 407  C 788.08 407  785 403.92  785 400  C 785 396.08  788.08 393  792 393  Z " fill-rule="nonzero" fill="#ffffff" stroke="none" fill-opacity="0" />
    <path d="M 792 393.5  C 795.64 393.5  798.5 396.36  798.5 400  C 798.5 403.64  795.64 406.5  792 406.5  C 788.36 406.5  785.5 403.64  785.5 400  C 785.5 396.36  788.36 393.5  792 393.5  Z " stroke-width="1" stroke="#1890ff" fill="none" />
  </g>
</svg>