<?xml version="1.0" encoding="utf-8"?>
<svg version="1.1" xmlns:xlink="http://www.w3.org/1999/xlink" width="25px" height="25px" xmlns="http://www.w3.org/2000/svg">
  <g transform="matrix(1 0 0 1 -3726 -625 )">
    <path d="M 3738.5 625  C 3745.5 625  3751 630.5  3751 637.5  C 3751 644.5  3745.5 650  3738.5 650  C 3731.5 650  3726 644.5  3726 637.5  C 3726 630.5  3731.5 625  3738.5 625  Z " fill-rule="nonzero" fill="#ffffff" stroke="none" fill-opacity="0" />
    <path d="M 3738.5 625.5  C 3745.22 625.5  3750.5 630.78  3750.5 637.5  C 3750.5 644.22  3745.22 649.5  3738.5 649.5  C 3731.78 649.5  3726.5 644.22  3726.5 637.5  C 3726.5 630.78  3731.78 625.5  3738.5 625.5  Z " stroke-width="1" stroke="#027db4" fill="none" />
  </g>
</svg>