<?xml version="1.0" encoding="utf-8"?>
<svg version="1.1" xmlns:xlink="http://www.w3.org/1999/xlink" width="170px" height="170px" xmlns="http://www.w3.org/2000/svg">
  <g transform="matrix(1 0 0 1 -1340 -211 )">
    <path d="M 1425 211  C 1472.6 211  1510 248.4  1510 296  C 1510 343.6  1472.6 381  1425 381  C 1377.4 381  1340 343.6  1340 296  C 1340 248.4  1377.4 211  1425 211  Z " fill-rule="nonzero" fill="#ffffff" stroke="none" />
    <path d="M 1425 211.5  C 1472.32 211.5  1509.5 248.68  1509.5 296  C 1509.5 343.32  1472.32 380.5  1425 380.5  C 1377.68 380.5  1340.5 343.32  1340.5 296  C 1340.5 248.68  1377.68 211.5  1425 211.5  Z " stroke-width="1" stroke="#797979" fill="none" />
  </g>
</svg>