<?xml version="1.0" encoding="utf-8"?>
<svg version="1.1" xmlns:xlink="http://www.w3.org/1999/xlink" width="183px" height="192px" xmlns="http://www.w3.org/2000/svg">
  <g transform="matrix(1 0 0 1 -2286 -112 )">
    <path d="M 2377.5 112  C 2428.74 112  2469 154.24  2469 208  C 2469 261.76  2428.74 304  2377.5 304  C 2326.26 304  2286 261.76  2286 208  C 2286 154.24  2326.26 112  2377.5 112  Z " fill-rule="nonzero" fill="#ffffff" stroke="none" />
    <path d="M 2377.5 112.5  C 2428.46 112.5  2468.5 154.52  2468.5 208  C 2468.5 261.48  2428.46 303.5  2377.5 303.5  C 2326.54 303.5  2286.5 261.48  2286.5 208  C 2286.5 154.52  2326.54 112.5  2377.5 112.5  Z " stroke-width="1" stroke="#797979" fill="none" />
  </g>
</svg>