<?xml version="1.0" encoding="utf-8"?>
<svg version="1.1" xmlns:xlink="http://www.w3.org/1999/xlink" width="31px" height="34px" xmlns="http://www.w3.org/2000/svg">
  <g transform="matrix(1 0 0 1 -690 -1386 )">
    <path d="M 2.38461538461538 26.1071428571429  L 2.38461538461538 31.5714285714286  L 7.75 31.5714285714286  L 7.75 26.1071428571429  L 2.38461538461538 26.1071428571429  Z M 8.94230769230769 26.1071428571429  L 8.94230769230769 31.5714285714286  L 14.9038461538462 31.5714285714286  L 14.9038461538462 26.1071428571429  L 8.94230769230769 26.1071428571429  Z M 2.38461538461538 18.8214285714286  L 2.38461538461538 24.8928571428571  L 7.75 24.8928571428571  L 7.75 18.8214285714286  L 2.38461538461538 18.8214285714286  Z M 8.94230769230769 18.8214285714286  L 8.94230769230769 24.8928571428571  L 14.9038461538462 24.8928571428571  L 14.9038461538462 18.8214285714286  L 8.94230769230769 18.8214285714286  Z M 2.38461538461538 12.1428571428571  L 2.38461538461538 17.6071428571429  L 7.75 17.6071428571429  L 7.75 12.1428571428571  L 2.38461538461538 12.1428571428571  Z M 16.0961538461538 26.1071428571429  L 16.0961538461538 31.5714285714286  L 22.0576923076923 31.5714285714286  L 22.0576923076923 26.1071428571429  L 16.0961538461538 26.1071428571429  Z M 8.94230769230769 12.1428571428571  L 8.94230769230769 17.6071428571429  L 14.9038461538462 17.6071428571429  L 14.9038461538462 12.1428571428571  L 8.94230769230769 12.1428571428571  Z M 23.25 26.1071428571429  L 23.25 31.5714285714286  L 28.6153846153846 31.5714285714286  L 28.6153846153846 26.1071428571429  L 23.25 26.1071428571429  Z M 16.0961538461538 18.8214285714286  L 16.0961538461538 24.8928571428571  L 22.0576923076923 24.8928571428571  L 22.0576923076923 18.8214285714286  L 16.0961538461538 18.8214285714286  Z M 9.36147836538462 8.92689732142857  C 9.4794671474359 8.80673363095238  9.53846153846154 8.66443452380952  9.53846153846154 8.5  L 9.53846153846154 3.03571428571429  C 9.53846153846154 2.87127976190476  9.4794671474359 2.7289806547619  9.36147836538462 2.60881696428571  C 9.24348958333333 2.48865327380952  9.10376602564103 2.42857142857143  8.94230769230769 2.42857142857143  L 7.75 2.42857142857143  C 7.58854166666667 2.42857142857143  7.44881810897436 2.48865327380952  7.33082932692308 2.60881696428571  C 7.21284054487179 2.7289806547619  7.15384615384615 2.87127976190476  7.15384615384615 3.03571428571429  L 7.15384615384615 8.5  C 7.15384615384615 8.66443452380952  7.21284054487179 8.80673363095238  7.33082932692308 8.92689732142857  C 7.44881810897436 9.04706101190476  7.58854166666667 9.10714285714286  7.75 9.10714285714286  L 8.94230769230769 9.10714285714286  C 9.10376602564103 9.10714285714286  9.24348958333333 9.04706101190476  9.36147836538462 8.92689732142857  Z M 23.25 18.8214285714286  L 23.25 24.8928571428571  L 28.6153846153846 24.8928571428571  L 28.6153846153846 18.8214285714286  L 23.25 18.8214285714286  Z M 16.0961538461538 12.1428571428571  L 16.0961538461538 17.6071428571429  L 22.0576923076923 17.6071428571429  L 22.0576923076923 12.1428571428571  L 16.0961538461538 12.1428571428571  Z M 23.25 12.1428571428571  L 23.25 17.6071428571429  L 28.6153846153846 17.6071428571429  L 28.6153846153846 12.1428571428571  L 23.25 12.1428571428571  Z M 23.6691706730769 8.92689732142857  C 23.7871594551282 8.80673363095238  23.8461538461538 8.66443452380952  23.8461538461538 8.5  L 23.8461538461538 3.03571428571429  C 23.8461538461538 2.87127976190476  23.7871594551282 2.7289806547619  23.6691706730769 2.60881696428571  C 23.5511818910256 2.48865327380952  23.4114583333333 2.42857142857143  23.25 2.42857142857143  L 22.0576923076923 2.42857142857143  C 21.896233974359 2.42857142857143  21.7565104166667 2.48865327380952  21.6385216346154 2.60881696428571  C 21.5205328525641 2.7289806547619  21.4615384615385 2.87127976190476  21.4615384615385 3.03571428571429  L 21.4615384615385 8.5  C 21.4615384615385 8.66443452380952  21.5205328525641 8.80673363095238  21.6385216346154 8.92689732142857  C 21.7565104166667 9.04706101190476  21.896233974359 9.10714285714286  22.0576923076923 9.10714285714286  L 23.25 9.10714285714286  C 23.4114583333333 9.10714285714286  23.5511818910256 9.04706101190476  23.6691706730769 8.92689732142857  Z M 30.2920673076923 5.578125  C 30.7640224358974 6.05877976190476  31 6.62797619047619  31 7.28571428571429  L 31 31.5714285714286  C 31 32.2291666666667  30.7640224358974 32.7983630952381  30.2920673076923 33.2790178571429  C 29.8201121794872 33.7596726190476  29.261217948718 34  28.6153846153846 34  L 2.38461538461538 34  C 1.73878205128205 34  1.17988782051282 33.7596726190476  0.707932692307692 33.2790178571429  C 0.235977564102564 32.7983630952381  0 32.2291666666667  0 31.5714285714286  L 0 7.28571428571429  C 0 6.62797619047619  0.235977564102564 6.05877976190476  0.707932692307692 5.578125  C 1.17988782051282 5.09747023809523  1.73878205128205 4.85714285714286  2.38461538461538 4.85714285714286  L 4.76923076923077 4.85714285714286  L 4.76923076923077 3.03571428571429  C 4.76923076923077 2.20089285714286  5.06109775641026 1.48623511904762  5.64483173076923 0.891741071428573  C 6.22856570512821 0.297247023809524  6.93028846153846 0  7.75 0  L 8.94230769230769 0  C 9.76201923076923 0  10.4637419871795 0.297247023809524  11.0474759615385 0.891741071428573  C 11.6312099358974 1.48623511904762  11.9230769230769 2.20089285714286  11.9230769230769 3.03571428571429  L 11.9230769230769 4.85714285714286  L 19.0769230769231 4.85714285714286  L 19.0769230769231 3.03571428571429  C 19.0769230769231 2.20089285714286  19.3687900641026 1.48623511904762  19.9525240384615 0.891741071428573  C 20.5362580128205 0.297247023809524  21.2379807692308 0  22.0576923076923 0  L 23.25 0  C 24.0697115384615 0  24.7714342948718 0.297247023809524  25.3551682692308 0.891741071428573  C 25.9389022435897 1.48623511904762  26.2307692307692 2.20089285714286  26.2307692307692 3.03571428571429  L 26.2307692307692 4.85714285714286  L 28.6153846153846 4.85714285714286  C 29.261217948718 4.85714285714286  29.8201121794872 5.09747023809523  30.2920673076923 5.578125  Z " fill-rule="nonzero" fill="#000000" stroke="none" transform="matrix(1 0 0 1 690 1386 )" />
  </g>
</svg>