<?xml version="1.0" encoding="utf-8"?>
<svg version="1.1" xmlns:xlink="http://www.w3.org/1999/xlink" width="20px" height="20px" xmlns="http://www.w3.org/2000/svg">
  <g transform="matrix(1 0 0 1 -337 -175 )">
    <path d="M 5.38461538461538 15  C 5.38461538461538 15.1041666666667  5.34855769230769 15.1963141025641  5.27644230769231 15.2764423076923  L 2.19951923076923 18.3533653846154  C 2.11137820512821 18.4254807692308  2.01923076923077 18.4615384615385  1.92307692307692 18.4615384615385  C 1.82692307692308 18.4615384615385  1.73477564102564 18.4254807692308  1.64663461538462 18.3533653846154  C 1.57451923076923 18.2732371794872  1.53846153846154 18.1810897435897  1.53846153846154 18.0769230769231  C 1.53846153846154 17.9727564102564  1.57451923076923 17.880608974359  1.64663461538462 17.8004807692308  L 4.72355769230769 14.7235576923077  C 4.8036858974359 14.6514423076923  4.89583333333333 14.6153846153846  5 14.6153846153846  C 5.10416666666667 14.6153846153846  5.1963141025641 14.6514423076923  5.27644230769231 14.7235576923077  C 5.34855769230769 14.8036858974359  5.38461538461538 14.8958333333333  5.38461538461538 15  Z M 7.19951923076923 15.4927884615385  C 7.27163461538462 15.5649038461538  7.30769230769231 15.6570512820513  7.30769230769231 15.7692307692308  L 7.30769230769231 19.6153846153846  C 7.30769230769231 19.7275641025641  7.27163461538462 19.8197115384615  7.19951923076923 19.8918269230769  C 7.12740384615385 19.9639423076923  7.03525641025641 20  6.92307692307692 20  C 6.81089743589744 20  6.71875 19.9639423076923  6.64663461538462 19.8918269230769  C 6.57451923076923 19.8197115384615  6.53846153846154 19.7275641025641  6.53846153846154 19.6153846153846  L 6.53846153846154 15.7692307692308  C 6.53846153846154 15.6570512820513  6.57451923076923 15.5649038461538  6.64663461538462 15.4927884615385  C 6.71875 15.4206730769231  6.81089743589744 15.3846153846154  6.92307692307692 15.3846153846154  C 7.03525641025641 15.3846153846154  7.12740384615385 15.4206730769231  7.19951923076923 15.4927884615385  Z M 4.50721153846154 12.8004807692308  C 4.57932692307692 12.8725961538462  4.61538461538462 12.9647435897436  4.61538461538462 13.0769230769231  C 4.61538461538462 13.1891025641026  4.57932692307692 13.28125  4.50721153846154 13.3533653846154  C 4.43509615384615 13.4254807692308  4.34294871794872 13.4615384615385  4.23076923076923 13.4615384615385  L 0.384615384615385 13.4615384615385  C 0.272435897435897 13.4615384615385  0.180288461538462 13.4254807692308  0.108173076923077 13.3533653846154  C 0.0360576923076923 13.28125  0 13.1891025641026  0 13.0769230769231  C 0 12.9647435897436  0.0360576923076923 12.8725961538462  0.108173076923077 12.8004807692308  C 0.180288461538462 12.7283653846154  0.272435897435897 12.6923076923077  0.384615384615385 12.6923076923077  L 4.23076923076923 12.6923076923077  C 4.34294871794872 12.6923076923077  4.43509615384615 12.7283653846154  4.50721153846154 12.8004807692308  Z M 18.7980769230769 12.1634615384615  C 19.4711538461538 12.8525641025641  19.8076923076923 13.6698717948718  19.8076923076923 14.6153846153846  C 19.8076923076923 15.5769230769231  19.4671474358974 16.3902243589744  18.7860576923077 17.0552884615385  L 17.0192307692308 18.8100961538462  C 16.3541666666667 19.4751602564103  15.5408653846154 19.8076923076923  14.5793269230769 19.8076923076923  C 13.6097756410256 19.8076923076923  12.792467948718 19.4671474358974  12.1274038461538 18.7860576923077  L 8.11298076923077 14.7596153846154  C 7.94471153846154 14.5913461538462  7.77644230769231 14.3669871794872  7.60817307692308 14.0865384615385  L 10.4807692307692 13.8701923076923  L 13.7620192307692 17.1634615384615  C 13.9783653846154 17.3798076923077  14.2508012820513 17.489983974359  14.5793269230769 17.4939903846154  C 14.9078525641026 17.4979967948718  15.1802884615385 17.3918269230769  15.3966346153846 17.1754807692308  L 17.1634615384615 15.4206730769231  C 17.3878205128205 15.1963141025641  17.5 14.9278846153846  17.5 14.6153846153846  C 17.5 14.2948717948718  17.3878205128205 14.0224358974359  17.1634615384615 13.7980769230769  L 13.8701923076923 10.4927884615385  L 14.0865384615385 7.62019230769231  C 14.3669871794872 7.78846153846154  14.5913461538462 7.95673076923077  14.7596153846154 8.125  L 18.7980769230769 12.1634615384615  Z M 11.8870192307692 5.24038461538462  C 12.0552884615385 5.40865384615385  12.2235576923077 5.63301282051282  12.3918269230769 5.91346153846154  L 9.51923076923077 6.12980769230769  L 6.23798076923077 2.83653846153846  C 6.0136217948718 2.61217948717949  5.7411858974359 2.5  5.42067307692308 2.5  C 5.10817307692308 2.5  4.83573717948718 2.60817307692308  4.60336538461538 2.82451923076923  L 2.83653846153846 4.57932692307692  C 2.61217948717949 4.8036858974359  2.5 5.07211538461539  2.5 5.38461538461539  C 2.5 5.7051282051282  2.61217948717949 5.9775641025641  2.83653846153846 6.20192307692308  L 6.12980769230769 9.49519230769231  L 5.91346153846154 12.3798076923077  C 5.63301282051282 12.2115384615385  5.40865384615385 12.0432692307692  5.24038461538462 11.875  L 1.20192307692308 7.83653846153846  C 0.528846153846154 7.1474358974359  0.192307692307692 6.3301282051282  0.192307692307692 5.38461538461539  C 0.192307692307692 4.42307692307692  0.532852564102564 3.60977564102564  1.21394230769231 2.94471153846154  L 2.98076923076923 1.18990384615385  C 3.64583333333333 0.524839743589742  4.45913461538462 0.192307692307692  5.42067307692308 0.192307692307692  C 6.39022435897436 0.192307692307692  7.20753205128205 0.532852564102564  7.87259615384615 1.21394230769231  L 11.8870192307692 5.24038461538462  Z M 19.8918269230769 6.64663461538462  C 19.9639423076923 6.71875  20 6.81089743589743  20 6.92307692307692  C 20 7.03525641025641  19.9639423076923 7.12740384615385  19.8918269230769 7.19951923076923  C 19.8197115384615 7.27163461538462  19.7275641025641 7.30769230769231  19.6153846153846 7.30769230769231  L 15.7692307692308 7.30769230769231  C 15.6570512820513 7.30769230769231  15.5649038461538 7.27163461538462  15.4927884615385 7.19951923076923  C 15.4206730769231 7.12740384615385  15.3846153846154 7.03525641025641  15.3846153846154 6.92307692307692  C 15.3846153846154 6.81089743589743  15.4206730769231 6.71875  15.4927884615385 6.64663461538462  C 15.5649038461538 6.57451923076923  15.6570512820513 6.53846153846154  15.7692307692308 6.53846153846154  L 19.6153846153846 6.53846153846154  C 19.7275641025641 6.53846153846154  19.8197115384615 6.57451923076923  19.8918269230769 6.64663461538462  Z M 13.3533653846154 0.108173076923077  C 13.4254807692308 0.180288461538463  13.4615384615385 0.272435897435896  13.4615384615385 0.384615384615385  L 13.4615384615385 4.23076923076923  C 13.4615384615385 4.34294871794872  13.4254807692308 4.43509615384615  13.3533653846154 4.50721153846154  C 13.28125 4.57932692307692  13.1891025641026 4.61538461538462  13.0769230769231 4.61538461538462  C 12.9647435897436 4.61538461538462  12.8725961538462 4.57932692307692  12.8004807692308 4.50721153846154  C 12.7283653846154 4.43509615384615  12.6923076923077 4.34294871794872  12.6923076923077 4.23076923076923  L 12.6923076923077 0.384615384615385  C 12.6923076923077 0.272435897435896  12.7283653846154 0.180288461538463  12.8004807692308 0.108173076923077  C 12.8725961538462 0.0360576923076916  12.9647435897436 0  13.0769230769231 0  C 13.1891025641026 0  13.28125 0.0360576923076916  13.3533653846154 0.108173076923077  Z M 18.4615384615385 1.92307692307692  C 18.4615384615385 2.02724358974359  18.4254807692308 2.11939102564102  18.3533653846154 2.19951923076923  L 15.2764423076923 5.27644230769231  C 15.1883012820513 5.34855769230769  15.0961538461538 5.38461538461539  15 5.38461538461539  C 14.9038461538462 5.38461538461539  14.8116987179487 5.34855769230769  14.7235576923077 5.27644230769231  C 14.6514423076923 5.1963141025641  14.6153846153846 5.10416666666667  14.6153846153846 5  C 14.6153846153846 4.89583333333333  14.6514423076923 4.8036858974359  14.7235576923077 4.72355769230769  L 17.8004807692308 1.64663461538461  C 17.880608974359 1.57451923076923  17.9727564102564 1.53846153846154  18.0769230769231 1.53846153846154  C 18.1810897435897 1.53846153846154  18.2732371794872 1.57451923076923  18.3533653846154 1.64663461538461  C 18.4254807692308 1.72676282051282  18.4615384615385 1.81891025641026  18.4615384615385 1.92307692307692  Z " fill-rule="nonzero" fill="#000000" stroke="none" transform="matrix(1 0 0 1 337 175 )" />
  </g>
</svg>