<?xml version="1.0" encoding="utf-8"?>
<svg version="1.1" xmlns:xlink="http://www.w3.org/1999/xlink" width="100px" height="87px" xmlns="http://www.w3.org/2000/svg">
  <g transform="matrix(1 0 0 1 -75 -420 )">
    <path d="M 19.3359375 60.9556107954545  C 20.7310267857143 59.4108664772727  21.4285714285714 57.546875  21.4285714285714 55.3636363636364  C 21.4285714285714 53.1803977272727  20.7310267857143 51.31640625  19.3359375 49.7716619318182  C 17.9408482142857 48.2269176136364  16.2574404761905 47.4545454545455  14.2857142857143 47.4545454545455  C 12.3139880952381 47.4545454545455  10.6305803571429 48.2269176136364  9.23549107142857 49.7716619318182  C 7.84040178571429 51.31640625  7.14285714285714 53.1803977272727  7.14285714285714 55.3636363636364  C 7.14285714285714 57.546875  7.84040178571429 59.4108664772727  9.23549107142857 60.9556107954545  C 10.6305803571429 62.5003551136364  12.3139880952381 63.2727272727273  14.2857142857143 63.2727272727273  C 16.2574404761905 63.2727272727273  17.9408482142857 62.5003551136364  19.3359375 60.9556107954545  Z M 30.0502232142857 33.2737926136364  C 31.4453125 31.7290482954546  32.1428571428571 29.8650568181818  32.1428571428571 27.6818181818182  C 32.1428571428571 25.4985795454545  31.4453125 23.6345880681818  30.0502232142857 22.08984375  C 28.6551339285714 20.5450994318182  26.9717261904762 19.7727272727273  25 19.7727272727273  C 23.0282738095238 19.7727272727273  21.3448660714286 20.5450994318182  19.9497767857143 22.08984375  C 18.5546875 23.6345880681818  17.8571428571429 25.4985795454545  17.8571428571429 27.6818181818182  C 17.8571428571429 29.8650568181818  18.5546875 31.7290482954546  19.9497767857143 33.2737926136364  C 21.3448660714286 34.8185369318182  23.0282738095238 35.5909090909091  25 35.5909090909091  C 26.9717261904762 35.5909090909091  28.6551339285714 34.8185369318182  30.0502232142857 33.2737926136364  Z M 60.0446428571429 63.0255681818182  C 59.2261904761905 60.6775568181818  57.8869047619048 58.8032670454545  56.0267857142857 57.4026988636364  L 61.6629464285714 33.7990056818182  C 61.8861607142857 32.7279829545454  61.7466517857143 31.7290482954546  61.2444196428571 30.8022017045455  C 60.7421875 29.8753551136364  60.0260416666667 29.2677556818182  59.0959821428571 28.9794034090909  C 58.1659226190476 28.6910511363636  57.2730654761905 28.8249289772727  56.4174107142857 29.3810369318182  C 55.561755952381 29.9371448863636  55.0037202380952 30.7507102272727  54.7433035714286 31.8217329545455  L 49.1071428571429 55.4254261363636  C 46.875 55.6313920454545  44.8846726190476 56.52734375  43.1361607142857 58.11328125  C 41.3876488095238 59.69921875  40.2157738095238 61.7279829545455  39.6205357142857 64.1995738636364  C 38.8764880952381 67.3714488636364  39.2485119047619 70.3785511363636  40.7366071428571 73.2208806818182  C 42.2247023809524 76.0632102272727  44.4010416666667 77.8963068181818  47.265625 78.7201704545455  C 50.1302083333333 79.5440340909091  52.8459821428572 79.1321022727273  55.4129464285714 77.484375  C 57.9799107142857 75.8366477272727  59.6354166666667 73.4268465909091  60.3794642857143 70.2549715909091  C 60.9747023809524 67.7833806818182  60.8630952380952 65.3735795454545  60.0446428571429 63.0255681818182  Z M 90.7645089285714 60.9556107954545  C 92.1595982142857 59.4108664772727  92.8571428571429 57.546875  92.8571428571429 55.3636363636364  C 92.8571428571429 53.1803977272727  92.1595982142857 51.31640625  90.7645089285714 49.7716619318182  C 89.3694196428571 48.2269176136364  87.6860119047619 47.4545454545455  85.7142857142857 47.4545454545455  C 83.7425595238095 47.4545454545455  82.0591517857143 48.2269176136364  80.6640625 49.7716619318182  C 79.2689732142857 51.31640625  78.5714285714286 53.1803977272727  78.5714285714286 55.3636363636364  C 78.5714285714286 57.546875  79.2689732142857 59.4108664772727  80.6640625 60.9556107954545  C 82.0591517857143 62.5003551136364  83.7425595238095 63.2727272727273  85.7142857142857 63.2727272727273  C 87.6860119047619 63.2727272727273  89.3694196428571 62.5003551136364  90.7645089285714 60.9556107954545  Z M 55.0502232142857 21.41015625  C 56.4453125 19.8654119318182  57.1428571428571 18.0014204545455  57.1428571428571 15.8181818181818  C 57.1428571428571 13.6349431818182  56.4453125 11.7709517045455  55.0502232142857 10.2262073863636  C 53.6551339285714 8.68146306818181  51.9717261904762 7.90909090909091  50 7.90909090909091  C 48.0282738095238 7.90909090909091  46.3448660714286 8.68146306818181  44.9497767857143 10.2262073863636  C 43.5546875 11.7709517045455  42.8571428571429 13.6349431818182  42.8571428571429 15.8181818181818  C 42.8571428571429 18.0014204545455  43.5546875 19.8654119318182  44.9497767857143 21.41015625  C 46.3448660714286 22.9549005681818  48.0282738095238 23.7272727272727  50 23.7272727272727  C 51.9717261904762 23.7272727272727  53.6551339285714 22.9549005681818  55.0502232142857 21.41015625  Z M 80.0502232142857 33.2737926136364  C 81.4453125 31.7290482954546  82.1428571428571 29.8650568181818  82.1428571428571 27.6818181818182  C 82.1428571428571 25.4985795454545  81.4453125 23.6345880681818  80.0502232142857 22.08984375  C 78.6551339285714 20.5450994318182  76.9717261904762 19.7727272727273  75 19.7727272727273  C 73.0282738095238 19.7727272727273  71.3448660714286 20.5450994318182  69.9497767857143 22.08984375  C 68.5546875 23.6345880681818  67.8571428571429 25.4985795454545  67.8571428571429 27.6818181818182  C 67.8571428571429 29.8650568181818  68.5546875 31.7290482954546  69.9497767857143 33.2737926136364  C 71.3448660714286 34.8185369318182  73.0282738095238 35.5909090909091  75 35.5909090909091  C 76.9717261904762 35.5909090909091  78.6551339285714 34.8185369318182  80.0502232142857 33.2737926136364  Z M 96.0379464285714 33.8607954545455  C 98.6793154761905 40.6988636363636  100 47.8664772727273  100 55.3636363636364  C 100 66.1150568181818  97.3772321428571 76.0632102272727  92.1316964285714 85.2080965909091  C 91.4248511904762 86.4026988636364  90.4203869047619 87  89.1183035714286 87  L 10.8816964285714 87  C 9.5796130952381 87  8.57514880952381 86.4026988636364  7.86830357142857 85.2080965909091  C 2.62276785714286 76.1044034090909  0 66.15625  0 55.3636363636364  C 0 47.8664772727273  1.32068452380952 40.6988636363636  3.96205357142857 33.8607954545455  C 6.60342261904762 27.0227272727273  10.15625 21.1321022727273  14.6205357142857 16.1889204545455  C 19.0848214285714 11.2457386363636  24.4047619047619 7.31178977272727  30.5803571428571 4.38707386363636  C 36.7559523809524 1.46235795454545  43.2291666666667 0  50 0  C 56.7708333333333 0  63.2440476190476 1.46235795454545  69.4196428571429 4.38707386363636  C 75.5952380952381 7.31178977272727  80.9151785714286 11.2457386363636  85.3794642857143 16.1889204545455  C 89.84375 21.1321022727273  93.3965773809524 27.0227272727273  96.0379464285714 33.8607954545455  Z " fill-rule="nonzero" fill="#000000" stroke="none" transform="matrix(1 0 0 1 75 420 )" />
  </g>
</svg>