<?xml version="1.0" encoding="utf-8"?>
<svg version="1.1" xmlns:xlink="http://www.w3.org/1999/xlink" width="35px" height="35px" xmlns="http://www.w3.org/2000/svg">
  <g transform="matrix(1 0 0 1 -2190 -345 )">
    <path d="M 2207.5 345  C 2217.3 345  2225 352.7  2225 362.5  C 2225 372.3  2217.3 380  2207.5 380  C 2197.7 380  2190 372.3  2190 362.5  C 2190 352.7  2197.7 345  2207.5 345  Z " fill-rule="nonzero" fill="#d7d7d7" stroke="none" />
    <path d="M 2207.5 345.5  C 2217.02 345.5  2224.5 352.98  2224.5 362.5  C 2224.5 372.02  2217.02 379.5  2207.5 379.5  C 2197.98 379.5  2190.5 372.02  2190.5 362.5  C 2190.5 352.98  2197.98 345.5  2207.5 345.5  Z " stroke-width="1" stroke="#797979" fill="none" />
  </g>
</svg>