<?xml version="1.0" encoding="utf-8"?>
<svg version="1.1" xmlns:xlink="http://www.w3.org/1999/xlink" width="33px" height="33px" xmlns="http://www.w3.org/2000/svg">
  <g transform="matrix(1 0 0 1 -535 -390 )">
    <path d="M 551.5 390  C 560.74 390  568 397.26  568 406.5  C 568 415.74  560.74 423  551.5 423  C 542.26 423  535 415.74  535 406.5  C 535 397.26  542.26 390  551.5 390  Z " fill-rule="nonzero" fill="#02a7f0" stroke="none" />
    <path d="M 551.5 390.5  C 560.46 390.5  567.5 397.54  567.5 406.5  C 567.5 415.46  560.46 422.5  551.5 422.5  C 542.54 422.5  535.5 415.46  535.5 406.5  C 535.5 397.54  542.54 390.5  551.5 390.5  Z " stroke-width="1" stroke="#ffff80" fill="none" />
  </g>
</svg>