<?xml version="1.0" encoding="utf-8"?>
<svg version="1.1" xmlns:xlink="http://www.w3.org/1999/xlink" width="80px" height="80px" xmlns="http://www.w3.org/2000/svg">
  <g transform="matrix(1 0 0 1 -847 -2365 )">
    <path d="M 887 2365.5  C 909.12 2365.5  926.5 2382.88  926.5 2405  C 926.5 2427.12  909.12 2444.5  887 2444.5  C 864.88 2444.5  847.5 2427.12  847.5 2405  C 847.5 2382.88  864.88 2365.5  887 2365.5  Z " fill-rule="nonzero" fill="#f3f3f3" stroke="none" />
    <path d="M 887 2365.5  C 909.12 2365.5  926.5 2382.88  926.5 2405  C 926.5 2427.12  909.12 2444.5  887 2444.5  C 864.88 2444.5  847.5 2427.12  847.5 2405  C 847.5 2382.88  864.88 2365.5  887 2365.5  Z " stroke-width="1" stroke="#000000" fill="none" stroke-opacity="0.0470588235294118" />
  </g>
</svg>