<?xml version="1.0" encoding="utf-8"?>
<svg version="1.1" xmlns:xlink="http://www.w3.org/1999/xlink" width="25px" height="25px" xmlns="http://www.w3.org/2000/svg">
  <g transform="matrix(1 0 0 1 -1500 -2505 )">
    <path d="M 17.1875 0  L 23.9583333333333 0  C 24.2404513888889 0  24.4845920138889 0.103081597222221  24.6907552083333 0.309244791666666  C 24.8969184027778 0.515407986111108  25 0.759548611111108  25 1.04166666666667  L 25 7.8125  C 25 7.96440972222222  24.951171875 8.08919270833333  24.853515625 8.18684895833333  C 24.755859375 8.28450520833333  24.6310763888889 8.33333333333333  24.4791666666667 8.33333333333333  L 23.4375 8.33333333333333  C 23.2855902777778 8.33333333333333  23.1608072916667 8.28450520833333  23.0631510416667 8.18684895833333  C 22.9654947916667 8.08919270833333  22.9166666666667 7.96440972222222  22.9166666666667 7.8125  L 22.9166666666667 3.54817708333333  L 16.69921875 9.78190104166667  C 18.06640625 11.474609375  18.75 13.4223090277778  18.75 15.625  C 18.75 16.89453125  18.5031467013889 18.1070963541667  18.0094401041667 19.2626953125  C 17.5157335069444 20.4182942708333  16.8484157986111 21.4165581597222  16.0074869791667 22.2574869791667  C 15.1665581597222 23.0984157986111  14.1682942708333 23.7657335069444  13.0126953125 24.2594401041667  C 11.8570963541667 24.7531467013889  10.64453125 25  9.375 25  C 8.10546875 25  6.89290364583333 24.7531467013889  5.7373046875 24.2594401041667  C 4.58170572916667 23.7657335069444  3.58344184027778 23.0984157986111  2.74251302083333 22.2574869791667  C 1.90158420138889 21.4165581597222  1.23426649305556 20.4182942708333  0.740559895833333 19.2626953125  C 0.246853298611111 18.1070963541667  0 16.89453125  0 15.625  C 0 14.35546875  0.246853298611111 13.1429036458333  0.740559895833333 11.9873046875  C 1.23426649305556 10.8317057291667  1.90158420138889 9.83344184027778  2.74251302083333 8.99251302083333  C 3.58344184027778 8.15158420138889  4.58170572916667 7.48426649305556  5.7373046875 6.99055989583333  C 6.89290364583333 6.49685329861111  8.10546875 6.25  9.375 6.25  C 11.5776909722222 6.25  13.525390625 6.93359375  15.2180989583333 8.30078125  L 21.435546875 2.08333333333333  L 17.1875 2.08333333333333  C 17.0355902777778 2.08333333333333  16.9108072916667 2.03450520833333  16.8131510416667 1.93684895833333  C 16.7154947916667 1.83919270833333  16.6666666666667 1.71440972222222  16.6666666666667 1.5625  L 16.6666666666667 0.520833333333334  C 16.6666666666667 0.368923611111108  16.7154947916667 0.244140625  16.8131510416667 0.146484375  C 16.9108072916667 0.048828125  17.0355902777778 0  17.1875 0  Z M 4.2236328125 20.7763671875  C 5.65049913194444 22.2032335069444  7.36762152777778 22.9166666666667  9.375 22.9166666666667  C 11.3823784722222 22.9166666666667  13.0995008680556 22.2032335069444  14.5263671875 20.7763671875  C 15.9532335069444 19.3495008680556  16.6666666666667 17.6323784722222  16.6666666666667 15.625  C 16.6666666666667 13.6176215277778  15.9532335069444 11.9004991319444  14.5263671875 10.4736328125  C 13.0995008680556 9.04676649305556  11.3823784722222 8.33333333333333  9.375 8.33333333333333  C 7.36762152777778 8.33333333333333  5.65049913194444 9.04676649305556  4.2236328125 10.4736328125  C 2.79676649305556 11.9004991319444  2.08333333333333 13.6176215277778  2.08333333333333 15.625  C 2.08333333333333 17.6323784722222  2.79676649305556 19.3495008680556  4.2236328125 20.7763671875  Z " fill-rule="nonzero" fill="#000000" stroke="none" transform="matrix(1 0 0 1 1500 2505 )" />
  </g>
</svg>