<?xml version="1.0" encoding="utf-8"?>
<svg version="1.1" xmlns:xlink="http://www.w3.org/1999/xlink" width="29px" height="35px" xmlns="http://www.w3.org/2000/svg">
  <g transform="matrix(1 0 0 1 -66 -998 )">
    <path d="M 8.05555555555556 11.1363636363636  L 8.05555555555556 16  L 20.9444444444444 16  L 20.9444444444444 11.1363636363636  C 20.9444444444444 9.37973484848485  20.3151041666667 7.87997159090909  19.0564236111111 6.63707386363636  C 17.7977430555556 5.39417613636364  16.2789351851852 4.77272727272727  14.5 4.77272727272727  C 12.7210648148148 4.77272727272727  11.2022569444444 5.39417613636364  9.94357638888889 6.63707386363636  C 8.68489583333333 7.87997159090909  8.05555555555556 9.37973484848485  8.05555555555556 11.1363636363636  Z M 28.2951388888889 16.6051136363636  C 28.7650462962963 17.0691287878788  29 17.6325757575758  29 18.2954545454545  L 29 32.6136363636364  C 29 33.2765151515152  28.7650462962963 33.8399621212121  28.2951388888889 34.3039772727273  C 27.8252314814815 34.7679924242424  27.2546296296296 35  26.5833333333333 35  L 2.41666666666667 35  C 1.74537037037037 35  1.17476851851852 34.7679924242424  0.704861111111111 34.3039772727273  C 0.234953703703704 33.8399621212121  0 33.2765151515152  0 32.6136363636364  L 0 18.2954545454545  C 0 17.6325757575758  0.234953703703704 17.0691287878788  0.704861111111111 16.6051136363636  C 1.17476851851852 16.1410984848485  1.74537037037037 15.9090909090909  2.41666666666667 15.9090909090909  L 3.22222222222222 15.9090909090909  L 3.22222222222222 11.1363636363636  C 3.22222222222222 8.08712121212121  4.32986111111111 5.46875  6.54513888888889 3.28125  C 8.76041666666667 1.09375  11.412037037037 0  14.5 0  C 17.587962962963 0  20.2395833333333 1.09375  22.4548611111111 3.28125  C 24.6701388888889 5.46875  25.7777777777778 8.08712121212121  25.7777777777778 11.1363636363636  L 25.7777777777778 15.9090909090909  L 26.5833333333333 15.9090909090909  C 27.2546296296296 15.9090909090909  27.8252314814815 16.1410984848485  28.2951388888889 16.6051136363636  Z " fill-rule="nonzero" fill="#008080" stroke="none" transform="matrix(1 0 0 1 66 998 )" />
  </g>
</svg>