<?xml version="1.0" encoding="utf-8"?>
<svg version="1.1" xmlns:xlink="http://www.w3.org/1999/xlink" width="25px" height="25px" xmlns="http://www.w3.org/2000/svg">
  <g transform="matrix(1 0 0 1 -1182 -973 )">
    <path d="M 17.5618489583333 17.5618489583333  C 17.6595052083333 17.4641927083333  17.7083333333333 17.3394097222222  17.7083333333333 17.1875  L 17.7083333333333 7.8125  C 17.7083333333333 7.66059027777778  17.6595052083333 7.53580729166667  17.5618489583333 7.43815104166667  C 17.4641927083333 7.34049479166667  17.3394097222222 7.29166666666667  17.1875 7.29166666666667  L 7.8125 7.29166666666667  C 7.66059027777778 7.29166666666667  7.53580729166667 7.34049479166667  7.43815104166667 7.43815104166667  C 7.34049479166667 7.53580729166667  7.29166666666667 7.66059027777778  7.29166666666667 7.8125  L 7.29166666666667 17.1875  C 7.29166666666667 17.3394097222222  7.34049479166667 17.4641927083333  7.43815104166667 17.5618489583333  C 7.53580729166667 17.6595052083333  7.66059027777778 17.7083333333333  7.8125 17.7083333333333  L 17.1875 17.7083333333333  C 17.3394097222222 17.7083333333333  17.4641927083333 17.6595052083333  17.5618489583333 17.5618489583333  Z M 23.3235677083333 6.2255859375  C 24.4411892361111 8.14073350694444  25 10.2322048611111  25 12.5  C 25 14.7677951388889  24.4411892361111 16.8592664930556  23.3235677083333 18.7744140625  C 22.2059461805556 20.6895616319444  20.6895616319444 22.2059461805556  18.7744140625 23.3235677083333  C 16.8592664930556 24.4411892361111  14.7677951388889 25  12.5 25  C 10.2322048611111 25  8.14073350694444 24.4411892361111  6.2255859375 23.3235677083333  C 4.31043836805556 22.2059461805556  2.79405381944444 20.6895616319444  1.67643229166667 18.7744140625  C 0.558810763888889 16.8592664930556  0 14.7677951388889  0 12.5  C 0 10.2322048611111  0.558810763888889 8.14073350694444  1.67643229166667 6.2255859375  C 2.79405381944444 4.31043836805556  4.31043836805556 2.79405381944444  6.2255859375 1.67643229166667  C 8.14073350694444 0.558810763888887  10.2322048611111 0  12.5 0  C 14.7677951388889 0  16.8592664930556 0.558810763888887  18.7744140625 1.67643229166667  C 20.6895616319444 2.79405381944444  22.2059461805556 4.31043836805556  23.3235677083333 6.2255859375  Z " fill-rule="nonzero" fill="#00ffff" stroke="none" transform="matrix(1 0 0 1 1182 973 )" />
  </g>
</svg>