<?xml version="1.0" encoding="utf-8"?>
<svg version="1.1" xmlns:xlink="http://www.w3.org/1999/xlink" width="32px" height="35px" xmlns="http://www.w3.org/2000/svg">
  <g transform="matrix(1 0 0 1 -667 -1015 )">
    <path d="M 31.4166666666667 0.588942307692309  C 31.8055555555556 0.981570512820509  32 1.45833333333333  32 2.01923076923077  L 32 25.5769230769231  C 32 26.2780448717949  31.7638888888889 26.9020432692308  31.2916666666667 27.4489182692308  C 30.8194444444444 27.9957932692308  30.2222222222222 28.4199719551282  29.5 28.7214543269231  C 28.7777777777778 29.0229366987179  28.0590277777778 29.2472956730769  27.34375 29.39453125  C 26.6284722222222 29.5417668269231  25.9583333333333 29.6153846153846  25.3333333333333 29.6153846153846  C 24.7083333333333 29.6153846153846  24.0381944444444 29.5417668269231  23.3229166666667 29.39453125  C 22.6076388888889 29.2472956730769  21.8888888888889 29.0229366987179  21.1666666666667 28.7214543269231  C 20.4444444444444 28.4199719551282  19.8472222222222 27.9957932692308  19.375 27.4489182692308  C 18.9027777777778 26.9020432692308  18.6666666666667 26.2780448717949  18.6666666666667 25.5769230769231  C 18.6666666666667 24.8758012820513  18.9027777777778 24.2518028846154  19.375 23.7049278846154  C 19.8472222222222 23.1580528846154  20.4444444444444 22.7338741987179  21.1666666666667 22.4323918269231  C 21.8888888888889 22.1309094551282  22.6076388888889 21.9065504807692  23.3229166666667 21.7593149038462  C 24.0381944444444 21.6120793269231  24.7083333333333 21.5384615384615  25.3333333333333 21.5384615384615  C 26.7916666666667 21.5384615384615  28.125 21.8118990384615  29 22.3587740384615  L 29 11.0637019230769  L 13.3333333333333 16.0486778846154  L 13.3333333333333 30.9615384615385  C 13.3333333333333 31.6626602564103  13.0972222222222 32.2866586538462  12.625 32.8335336538462  C 12.1527777777778 33.3804086538462  11.5555555555556 33.8045873397436  10.8333333333333 34.1060697115385  C 10.1111111111111 34.4075520833333  9.39236111111111 34.6319110576923  8.67708333333333 34.7791466346154  C 7.96180555555556 34.9263822115385  7.29166666666667 35  6.66666666666667 35  C 6.04166666666667 35  5.37152777777778 34.9263822115385  4.65625 34.7791466346154  C 3.94097222222222 34.6319110576923  3.22222222222222 34.4075520833333  2.5 34.1060697115385  C 1.77777777777778 33.8045873397436  1.18055555555556 33.3804086538462  0.708333333333333 32.8335336538462  C 0.236111111111111 32.2866586538462  0 31.6626602564103  0 30.9615384615385  C 0 30.2604166666667  0.236111111111111 29.6364182692308  0.708333333333333 29.0895432692308  C 1.18055555555556 28.5426682692308  1.77777777777778 28.1184895833333  2.5 27.8170072115385  C 3.22222222222222 27.5155248397436  3.94097222222222 27.2911658653846  4.65625 27.1439302884615  C 5.37152777777778 26.9966947115385  6.04166666666667 26.9230769230769  6.66666666666667 26.9230769230769  C 8.125 26.9230769230769  9.45833333333333 27.1965144230769  11 27.7433894230769  L 11 7.40384615384616  C 10.6666666666667 6.96915064102564  10.7986111111111 6.57301682692308  11.0625 6.21544471153846  C 11.3263888888889 5.85787259615384  11.6666666666667 5.60897435897435  12.0833333333333 5.46875  L 29.4166666666667 0.0841346153846151  C 29.5833333333333 0.0280448717948717  29.7777777777778 0  30 0  C 30.5555555555556 0  31.0277777777778 0.196314102564102  31.4166666666667 0.588942307692309  Z " fill-rule="nonzero" fill="#008080" stroke="none" transform="matrix(1 0 0 1 667 1015 )" />
  </g>
</svg>