<?xml version="1.0" encoding="utf-8"?>
<svg version="1.1" xmlns:xlink="http://www.w3.org/1999/xlink" width="27px" height="35px" xmlns="http://www.w3.org/2000/svg">
  <g transform="matrix(1 0 0 1 -458 -1175 )">
    <path d="M 7.5 17  L 24.75 17  C 25.375 17.5  25.90625 17.7126736111111  26.34375 18.1380208333333  C 26.78125 18.5633680555556  27 19.0798611111111  27 19.6875  L 27 32.8125  C 27 33.4201388888889  26.78125 33.9366319444444  26.34375 34.3619791666667  C 25.90625 34.7873263888889  25.375 35  24.75 35  L 2.25 35  C 1.625 35  1.09375 34.7873263888889  0.65625 34.3619791666667  C 0.21875 33.9366319444444  0 33.4201388888889  0 32.8125  L 0 19.6875  C 0 19.0798611111111  0.21875 18.5633680555556  0.65625 18.1380208333333  C 1.09375 17.7126736111111  1.625 17.5  2.25 17.5  L 3 17.5  L 3 10.2083333333333  C 3 7.39800347222222  4.02734375 4.99403211805555  6.08203125 2.99641927083333  C 8.13671875 0.998806423611113  10.609375 0  13.5 0  C 16.390625 0  18.86328125 0.998806423611113  20.91796875 2.99641927083333  C 22.97265625 4.99403211805555  24 7.39800347222222  24 10.2083333333333  C 24 10.6032986111111  23.8515625 10.9450954861111  23.5546875 11.2337239583333  C 23.2578125 11.5223524305556  22.90625 11.6666666666667  22.5 11.6666666666667  L 21 11.6666666666667  C 20.59375 11.6666666666667  20.2421875 11.5223524305556  19.9453125 11.2337239583333  C 19.6484375 10.9450954861111  19.5 10.6032986111111  19.5 10.2083333333333  C 19.5 8.59809027777778  18.9140625 7.22330729166667  17.7421875 6.083984375  C 16.5703125 4.94466145833333  15.15625 4.375  13.5 4.375  C 11.84375 4.375  10.4296875 4.94466145833333  9.2578125 6.083984375  C 8.0859375 7.22330729166667  7.5 8.59809027777778  7.5 10.2083333333333  L 7.5 17  Z " fill-rule="nonzero" fill="#008080" stroke="none" transform="matrix(1 0 0 1 458 1175 )" />
  </g>
</svg>