<?xml version="1.0" encoding="utf-8"?>
<svg version="1.1" xmlns:xlink="http://www.w3.org/1999/xlink" width="80px" height="80px" xmlns="http://www.w3.org/2000/svg">
  <g transform="matrix(1 0 0 1 -59 -241 )">
    <path d="M 99 241.5  C 121.12 241.5  138.5 258.88  138.5 281  C 138.5 303.12  121.12 320.5  99 320.5  C 76.88 320.5  59.5 303.12  59.5 281  C 59.5 258.88  76.88 241.5  99 241.5  Z " fill-rule="nonzero" fill="#f3f3f3" stroke="none" />
    <path d="M 99 241.5  C 121.12 241.5  138.5 258.88  138.5 281  C 138.5 303.12  121.12 320.5  99 320.5  C 76.88 320.5  59.5 303.12  59.5 281  C 59.5 258.88  76.88 241.5  99 241.5  Z " stroke-width="1" stroke="#000000" fill="none" stroke-opacity="0.0470588235294118" />
  </g>
</svg>