<?xml version="1.0" encoding="utf-8"?>
<svg version="1.1" xmlns:xlink="http://www.w3.org/1999/xlink" width="51px" height="51px" xmlns="http://www.w3.org/2000/svg">
  <g transform="matrix(1 0 0 1 -2149 -214 )">
    <path d="M 41.869140625 29.119140625  C 42.2897135416667 28.6985677083333  42.5 28.2005208333333  42.5 27.625  L 42.5 23.375  C 42.5 22.7994791666667  42.2897135416667 22.3014322916667  41.869140625 21.880859375  C 41.4485677083333 21.4602864583333  40.9505208333333 21.25  40.375 22  L 29 22  L 29 10.625  C 29.75 10.0494791666667  29.5397135416667 9.55143229166666  29.119140625 9.130859375  C 28.6985677083333 8.71028645833333  28.2005208333333 8.5  27.625 8.5  L 23.375 8.5  C 22.7994791666667 8.5  22.3014322916667 8.71028645833333  21.880859375 9.130859375  C 21.4602864583333 9.55143229166666  21.25 10.0494791666667  22 10.625  L 22 22  L 10.625 22  C 10.0494791666667 21.25  9.55143229166667 21.4602864583333  9.130859375 21.880859375  C 8.71028645833333 22.3014322916667  8.5 22.7994791666667  8.5 23.375  L 8.5 27.625  C 8.5 28.2005208333333  8.71028645833333 28.6985677083333  9.130859375 29.119140625  C 9.55143229166667 29.5397135416667  10.0494791666667 29.75  10.625 29  L 22 29  L 22 40.375  C 21.25 40.9505208333333  21.4602864583333 41.4485677083333  21.880859375 41.869140625  C 22.3014322916667 42.2897135416667  22.7994791666667 42.5  23.375 42.5  L 27.625 42.5  C 28.2005208333333 42.5  28.6985677083333 42.2897135416667  29.119140625 41.869140625  C 29.5397135416667 41.4485677083333  29.75 40.9505208333333  29 40.375  L 29 29  L 40.375 29  C 40.9505208333333 29.75  41.4485677083333 29.5397135416667  41.869140625 29.119140625  Z M 48.1943359375 2.8056640625  C 50.0647786458333 4.67610677083333  51 6.92838541666666  51 9.5625  L 51 41.4375  C 51 44.0716145833333  50.0647786458333 46.3238932291667  48.1943359375 48.1943359375  C 46.3238932291667 50.0647786458333  44.0716145833333 51  41.4375 51  L 9.5625 51  C 6.92838541666667 51  4.67610677083333 50.0647786458333  2.8056640625 48.1943359375  C 0.935221354166667 46.3238932291667  0 44.0716145833333  0 41.4375  L 0 9.5625  C 0 6.92838541666666  0.935221354166667 4.67610677083333  2.8056640625 2.8056640625  C 4.67610677083333 0.935221354166664  6.92838541666667 0  9.5625 0  L 41.4375 0  C 44.0716145833333 0  46.3238932291667 0.935221354166664  48.1943359375 2.8056640625  Z " fill-rule="nonzero" fill="#000000" stroke="none" transform="matrix(1 0 0 1 2149 214 )" />
  </g>
</svg>