<?xml version="1.0" encoding="utf-8"?>
<svg version="1.1" xmlns:xlink="http://www.w3.org/1999/xlink" width="124px" height="97px" xmlns="http://www.w3.org/2000/svg">
  <g transform="matrix(1 0 0 1 -3213 -457 )">
    <path d="M 23.9765625 67.9620028409091  C 25.7064732142857 66.2397017045455  26.5714285714286 64.1614583333333  26.5714285714286 61.7272727272727  C 26.5714285714286 59.2930871212121  25.7064732142857 57.21484375  23.9765625 55.4925426136364  C 22.2466517857143 53.7702414772727  20.1592261904762 52.9090909090909  17.7142857142857 52.9090909090909  C 15.2693452380952 52.9090909090909  13.1819196428571 53.7702414772727  11.4520089285714 55.4925426136364  C 9.72209821428572 57.21484375  8.85714285714286 59.2930871212121  8.85714285714286 61.7272727272727  C 8.85714285714286 64.1614583333333  9.72209821428572 66.2397017045455  11.4520089285714 67.9620028409091  C 13.1819196428571 69.6843039772727  15.2693452380952 70.5454545454545  17.7142857142857 70.5454545454545  C 20.1592261904762 70.5454545454545  22.2466517857143 69.6843039772727  23.9765625 67.9620028409091  Z M 37.2622767857143 37.0983664772727  C 38.9921875 35.3760653409091  39.8571428571429 33.297821969697  39.8571428571429 30.8636363636364  C 39.8571428571429 28.4294507575757  38.9921875 26.3512073863636  37.2622767857143 24.62890625  C 35.5323660714286 22.9066051136364  33.4449404761905 22.0454545454545  31 22.0454545454545  C 28.5550595238095 22.0454545454545  26.4676339285714 22.9066051136364  24.7377232142857 24.62890625  C 23.0078125 26.3512073863636  22.1428571428571 28.4294507575757  22.1428571428571 30.8636363636364  C 22.1428571428571 33.297821969697  23.0078125 35.3760653409091  24.7377232142857 37.0983664772727  C 26.4676339285714 38.8206676136364  28.5550595238095 39.6818181818182  31 39.6818181818182  C 33.4449404761905 39.6818181818182  35.5323660714286 38.8206676136364  37.2622767857143 37.0983664772727  Z M 74.4553571428572 70.2698863636364  C 73.4404761904762 67.6519886363636  71.7797619047619 65.5622632575758  69.4732142857143 64.0007102272727  L 76.4620535714286 37.6839488636364  C 76.7388392857143 36.4898200757576  76.5658482142857 35.3760653409091  75.9430803571428 34.3426846590909  C 75.3203125 33.3093039772727  74.4322916666667 32.631865530303  73.2790178571428 32.3103693181818  C 72.1257440476191 31.9888731060606  71.0186011904762 32.1381392045455  69.9575892857143 32.7581676136364  C 68.8965773809524 33.3781960227273  68.2046130952381 34.2852746212121  67.8816964285714 35.4794034090909  L 60.8928571428571 61.7961647727273  C 58.125 62.0258049242424  55.6569940476191 63.0247395833333  53.4888392857143 64.79296875  C 51.3206845238095 66.5611979166667  49.8675595238095 68.8231534090909  49.1294642857143 71.5788352272727  C 48.2068452380952 75.115293560606  48.6681547619048 78.4680397727273  50.5133928571429 81.6370738636364  C 52.358630952381 84.8061079545455  55.0572916666667 86.8499053030303  58.609375 87.7684659090909  C 62.1614583333333 88.6870265151515  65.5290178571429 88.2277462121212  68.7120535714286 86.390625  C 71.8950892857143 84.5535037878788  73.9479166666667 81.8667140151515  74.8705357142857 78.3302556818182  C 75.6086309523809 75.5745738636364  75.4702380952381 72.8877840909091  74.4553571428572 70.2698863636364  Z M 112.547991071429 67.9620028409091  C 114.277901785714 66.2397017045455  115.142857142857 64.1614583333333  115.142857142857 61.7272727272727  C 115.142857142857 59.2930871212121  114.277901785714 57.21484375  112.547991071429 55.4925426136364  C 110.818080357143 53.7702414772727  108.730654761905 52.9090909090909  106.285714285714 52.9090909090909  C 103.840773809524 52.9090909090909  101.753348214286 53.7702414772727  100.0234375 55.4925426136364  C 98.2935267857143 57.21484375  97.4285714285714 59.2930871212121  97.4285714285714 61.7272727272727  C 97.4285714285714 64.1614583333333  98.2935267857143 66.2397017045455  100.0234375 67.9620028409091  C 101.753348214286 69.6843039772727  103.840773809524 70.5454545454545  106.285714285714 70.5454545454545  C 108.730654761905 70.5454545454545  110.818080357143 69.6843039772727  112.547991071429 67.9620028409091  Z M 68.2622767857143 23.87109375  C 69.9921875 22.1487926136364  70.8571428571428 20.0705492424242  70.8571428571428 17.6363636363636  C 70.8571428571428 15.202178030303  69.9921875 13.1239346590909  68.2622767857143 11.4016335227273  C 66.5323660714286 9.67933238636363  64.4449404761905 8.81818181818182  62 8.81818181818182  C 59.5550595238095 8.81818181818182  57.4676339285714 9.67933238636363  55.7377232142857 11.4016335227273  C 54.0078125 13.1239346590909  53.1428571428571 15.202178030303  53.1428571428571 17.6363636363636  C 53.1428571428571 20.0705492424242  54.0078125 22.1487926136364  55.7377232142857 23.87109375  C 57.4676339285714 25.5933948863636  59.5550595238095 26.4545454545455  62 26.4545454545455  C 64.4449404761905 26.4545454545455  66.5323660714286 25.5933948863636  68.2622767857143 23.87109375  Z M 99.2622767857143 37.0983664772727  C 100.9921875 35.3760653409091  101.857142857143 33.297821969697  101.857142857143 30.8636363636364  C 101.857142857143 28.4294507575757  100.9921875 26.3512073863636  99.2622767857143 24.62890625  C 97.5323660714286 22.9066051136364  95.4449404761905 22.0454545454545  93 22.0454545454545  C 90.5550595238095 22.0454545454545  88.4676339285714 22.9066051136364  86.7377232142857 24.62890625  C 85.0078125 26.3512073863636  84.1428571428572 28.4294507575757  84.1428571428572 30.8636363636364  C 84.1428571428572 33.297821969697  85.0078125 35.3760653409091  86.7377232142857 37.0983664772727  C 88.4676339285714 38.8206676136364  90.5550595238095 39.6818181818182  93 39.6818181818182  C 95.4449404761905 39.6818181818182  97.5323660714286 38.8206676136364  99.2622767857143 37.0983664772727  Z M 119.087053571429 37.7528409090909  C 122.362351190476 45.3768939393939  124 53.3683712121212  124 61.7272727272727  C 124 73.7144886363636  120.747767857143 84.8061079545455  114.243303571429 95.0021306818182  C 113.36681547619 96.334043560606  112.121279761905 97  110.506696428571 97  L 13.4933035714286 97  C 11.8787202380952 97  10.6331845238095 96.334043560606  9.75669642857143 95.0021306818182  C 3.25223214285714 84.8520359848485  0 73.7604166666667  0 61.7272727272727  C 0 53.3683712121212  1.63764880952381 45.3768939393939  4.91294642857143 37.7528409090909  C 8.18824404761905 30.1287878787879  12.59375 23.5610795454545  18.1294642857143 18.0497159090909  C 23.6651785714286 12.5383522727273  30.2619047619048 8.15222537878787  37.9196428571429 4.89133522727273  C 45.577380952381 1.63044507575757  53.6041666666667 0  62 0  C 70.3958333333333 0  78.4226190476191 1.63044507575757  86.0803571428572 4.89133522727273  C 93.7380952380953 8.15222537878787  100.334821428571 12.5383522727273  105.870535714286 18.0497159090909  C 111.40625 23.5610795454545  115.811755952381 30.1287878787879  119.087053571429 37.7528409090909  Z " fill-rule="nonzero" fill="#000000" stroke="none" transform="matrix(1 0 0 1 3213 457 )" />
  </g>
</svg>