<?xml version="1.0" encoding="utf-8"?>
<svg version="1.1" xmlns:xlink="http://www.w3.org/1999/xlink" width="98px" height="96px" xmlns="http://www.w3.org/2000/svg">
  <g transform="matrix(1 0 0 1 -88 -1144 )">
    <path d="M 88 1144  L 186 1144  L 186 1240  L 88 1240  L 88 1144  " fill-rule="nonzero" fill="#cccccc" stroke="none" />
    <path d="M 95 1151  L 179 1151  L 179 1233  L 95 1233  L 95 1151  " fill-rule="nonzero" fill="#ffffff" stroke="none" />
    <path d="M 146.16 1172.8  C 142.128 1172.8  138.96 1169.632  138.96 1165.6  C 138.96 1161.568  142.128 1158.4  146.16 1158.4  C 150.192 1158.4  153.36 1161.568  153.36 1165.6  C 153.36 1169.632  150.192 1172.8  146.16 1172.8  " fill-rule="nonzero" fill="#cccccc" stroke="none" />
    <path d="M 98 1231  L 98 1188.65  L 117.75 1169.4  L 145.4 1185.74285714286  L 161.2 1180.95  L 177 1185.74285714286  L 177 1231  L 98 1231  " fill-rule="nonzero" fill="#169bd5" stroke="none" />
  </g>
</svg>