<?xml version="1.0" encoding="utf-8"?>
<svg version="1.1" xmlns:xlink="http://www.w3.org/1999/xlink" width="85px" height="81px" xmlns="http://www.w3.org/2000/svg">
  <g transform="matrix(1 0 0 1 -280 -1159 )">
    <path d="M 280 1159  L 365 1159  L 365 1240  L 280 1240  L 280 1159  " fill-rule="nonzero" fill="#cccccc" stroke="none" />
    <path d="M 286 1165  L 359 1165  L 359 1234  L 286 1234  L 286 1165  " fill-rule="nonzero" fill="#ffffff" stroke="none" />
    <path d="M 330.275 1183.3  C 326.873 1183.3  324.2 1180.627  324.2 1177.225  C 324.2 1173.823  326.873 1171.15  330.275 1171.15  C 333.677 1171.15  336.35 1173.823  336.35 1177.225  C 336.35 1180.627  333.677 1183.3  330.275 1183.3  " fill-rule="nonzero" fill="#cccccc" stroke="none" />
    <path d="M 288 1232  L 288 1196.25  L 305.25 1180  L 329.4 1194.83529411765  L 343.2 1189.75  L 357 1194.83529411765  L 357 1232  L 288 1232  " fill-rule="nonzero" fill="#169bd5" stroke="none" />
  </g>
</svg>