<?xml version="1.0" encoding="utf-8"?>
<svg version="1.1" xmlns:xlink="http://www.w3.org/1999/xlink" width="87px" height="81px" xmlns="http://www.w3.org/2000/svg">
  <g transform="matrix(1 0 0 1 -856 -1159 )">
    <path d="M 856 1159  L 943 1159  L 943 1240  L 856 1240  L 856 1159  " fill-rule="nonzero" fill="#cccccc" stroke="none" />
    <path d="M 862 1165  L 937 1165  L 937 1234  L 862 1234  L 862 1165  " fill-rule="nonzero" fill="#ffffff" stroke="none" />
    <path d="M 907.315 1183.3  C 903.913 1183.3  901.24 1180.627  901.24 1177.225  C 901.24 1173.823  903.913 1171.15  907.315 1171.15  C 910.717 1171.15  913.39 1173.823  913.39 1177.225  C 913.39 1180.627  910.717 1183.3  907.315 1183.3  " fill-rule="nonzero" fill="#cccccc" stroke="none" />
    <path d="M 864 1232  L 864 1196.25  L 881.75 1180  L 906.6 1195.68965517241  L 920.8 1189.75  L 935 1195.68965517241  L 935 1232  L 864 1232  " fill-rule="nonzero" fill="#169bd5" stroke="none" />
  </g>
</svg>