<?xml version="1.0" encoding="utf-8"?>
<svg version="1.1" xmlns:xlink="http://www.w3.org/1999/xlink" width="104px" height="96px" xmlns="http://www.w3.org/2000/svg">
  <g transform="matrix(1 0 0 1 -1043 -1144 )">
    <path d="M 1043 1144  L 1147 1144  L 1147 1240  L 1043 1240  L 1043 1144  " fill-rule="nonzero" fill="#cccccc" stroke="none" />
    <path d="M 1050 1151  L 1140 1151  L 1140 1233  L 1050 1233  L 1050 1151  " fill-rule="nonzero" fill="#ffffff" stroke="none" />
    <path d="M 1104.28 1172.8  C 1100.248 1172.8  1097.08 1169.632  1097.08 1165.6  C 1097.08 1161.568  1100.248 1158.4  1104.28 1158.4  C 1108.312 1158.4  1111.48 1161.568  1111.48 1165.6  C 1111.48 1169.632  1108.312 1172.8  1104.28 1172.8  " fill-rule="nonzero" fill="#cccccc" stroke="none" />
    <path d="M 1053 1231  L 1053 1188.65  L 1074.25 1169.4  L 1104 1188.35384615385  L 1121 1180.95  L 1138 1188.35384615385  L 1138 1231  L 1053 1231  " fill-rule="nonzero" fill="#169bd5" stroke="none" />
  </g>
</svg>