<?xml version="1.0" encoding="utf-8"?>
<svg version="1.1" xmlns:xlink="http://www.w3.org/1999/xlink" width="110px" height="107px" xmlns="http://www.w3.org/2000/svg">
  <g transform="matrix(1 0 0 1 -1985 -1133 )">
    <path d="M 1985 1133  L 2095 1133  L 2095 1240  L 1985 1240  L 1985 1133  " fill-rule="nonzero" fill="#cccccc" stroke="none" />
    <path d="M 1992 1140  L 2088 1140  L 2088 1233  L 1992 1233  L 1992 1140  " fill-rule="nonzero" fill="#ffffff" stroke="none" />
    <path d="M 2050.225 1165.1  C 2045.731 1165.1  2042.2 1161.569  2042.2 1157.075  C 2042.2 1152.581  2045.731 1149.05  2050.225 1149.05  C 2054.719 1149.05  2058.25 1152.581  2058.25 1157.075  C 2058.25 1161.569  2054.719 1165.1  2050.225 1165.1  " fill-rule="nonzero" fill="#cccccc" stroke="none" />
    <path d="M 1995 1231  L 1995 1182.6  L 2017.75 1160.6  L 2049.6 1179.64  L 2067.8 1173.8  L 2086 1179.64  L 2086 1231  L 1995 1231  " fill-rule="nonzero" fill="#169bd5" stroke="none" />
  </g>
</svg>