<?xml version="1.0" encoding="utf-8"?>
<svg version="1.1" xmlns:xlink="http://www.w3.org/1999/xlink" width="98px" height="107px" xmlns="http://www.w3.org/2000/svg">
  <g transform="matrix(1 0 0 1 -2934 -1133 )">
    <path d="M 2934 1133  L 3032 1133  L 3032 1240  L 2934 1240  L 2934 1133  " fill-rule="nonzero" fill="#cccccc" stroke="none" />
    <path d="M 2941 1140  L 3025 1140  L 3025 1233  L 2941 1233  L 2941 1140  " fill-rule="nonzero" fill="#ffffff" stroke="none" />
    <path d="M 2992.31 1163.75  C 2988.194 1163.75  2984.96 1160.516  2984.96 1156.4  C 2984.96 1152.284  2988.194 1149.05  2992.31 1149.05  C 2996.426 1149.05  2999.66 1152.284  2999.66 1156.4  C 2999.66 1160.516  2996.426 1163.75  2992.31 1163.75  " fill-rule="nonzero" fill="#cccccc" stroke="none" />
    <path d="M 2944 1231  L 2944 1182.6  L 2963.75 1160.6  L 2991.4 1178.2  L 3007.2 1173.8  L 3023 1178.2  L 3023 1231  L 2944 1231  " fill-rule="nonzero" fill="#169bd5" stroke="none" />
  </g>
</svg>