<?xml version="1.0" encoding="utf-8"?>
<svg version="1.1" xmlns:xlink="http://www.w3.org/1999/xlink" width="80px" height="80px" xmlns="http://www.w3.org/2000/svg">
  <g transform="matrix(1 0 0 1 -840 -284 )">
    <path d="M 880 284  C 902.4 284  920 301.6  920 324  C 920 346.4  902.4 364  880 364  C 857.6 364  840 346.4  840 324  C 840 301.6  857.6 284  880 284  Z " fill-rule="nonzero" fill="#ffffff" stroke="none" />
    <path d="M 880 284.5  C 902.12 284.5  919.5 301.88  919.5 324  C 919.5 346.12  902.12 363.5  880 363.5  C 857.88 363.5  840.5 346.12  840.5 324  C 840.5 301.88  857.88 284.5  880 284.5  Z " stroke-width="1" stroke="#797979" fill="none" />
  </g>
</svg>