<?xml version="1.0" encoding="utf-8"?>
<svg version="1.1" xmlns:xlink="http://www.w3.org/1999/xlink" width="30px" height="35px" xmlns="http://www.w3.org/2000/svg">
  <g transform="matrix(1 0 0 1 -395 -338 )">
    <path d="M 22.578125 1.328125  L 28.671875 7.421875  C 29.0364583333333 7.78645833333333  29.3489583333333 8.28125  29.609375 8.90625  C 29.8697916666667 9.53125  30 10.1041666666667  30 10.625  L 30 33.125  C 30 33.6458333333333  29.8177083333333 34.0885416666667  29.453125 34.453125  C 29.0885416666667 34.8177083333333  28.6458333333333 35  28.125 35  L 1.875 35  C 1.35416666666667 35  0.911458333333333 34.8177083333333  0.546875 34.453125  C 0.182291666666667 34.0885416666667  0 33.6458333333333  0 33.125  L 0 1.875  C 0 1.35416666666667  0.182291666666667 0.911458333333332  0.546875 0.546875  C 0.911458333333333 0.182291666666668  1.35416666666667 0  1.875 0  L 19.375 0  C 19.8958333333333 0  20.46875 0.130208333333335  21.09375 0.390625000000001  C 21.71875 0.651041666666666  22.2135416666667 0.963541666666665  22.578125 1.328125  Z M 20.80078125 3.0859375  C 20.64453125 2.9296875  20.3776041666667 2.78645833333333  20 2.65625  L 20 10  L 27.34375 10  C 27.2135416666667 9.62239583333333  27.0703125 9.35546875  26.9140625 9.19921875  L 20.80078125 3.0859375  Z M 3 32  L 27 32  L 27 12.5  L 19.375 12.5  C 18.8541666666667 12.5  18.4114583333333 12.3177083333333  18.046875 11.953125  C 17.6822916666667 11.5885416666667  17.5 11.1458333333333  17.5 10.625  L 17.5 3  L 3 3  L 3 32  Z M 18.75 17.5  L 25 23.75  L 25 30  L 5 30  L 5 26.25  L 8.75 22.5  L 11.25 25  L 18.75 17.5  Z M 11.40625 18.90625  C 10.6770833333333 19.6354166666667  9.79166666666667 20  8.75 20  C 7.70833333333333 20  6.82291666666667 19.6354166666667  6.09375 18.90625  C 5.36458333333333 18.1770833333333  5 17.2916666666667  5 16.25  C 5 15.2083333333333  5.36458333333333 14.3229166666667  6.09375 13.59375  C 6.82291666666667 12.8645833333333  7.70833333333333 12.5  8.75 12.5  C 9.79166666666667 12.5  10.6770833333333 12.8645833333333  11.40625 13.59375  C 12.1354166666667 14.3229166666667  12.5 15.2083333333333  12.5 16.25  C 12.5 17.2916666666667  12.1354166666667 18.1770833333333  11.40625 18.90625  Z " fill-rule="nonzero" fill="#d9d5d5" stroke="none" transform="matrix(1 0 0 1 395 338 )" />
  </g>
</svg>