<?xml version="1.0" encoding="utf-8"?>
<svg version="1.1" xmlns:xlink="http://www.w3.org/1999/xlink" width="10px" height="10px" xmlns="http://www.w3.org/2000/svg">
  <g transform="matrix(1 0 0 1 -1067 -1494 )">
    <path d="M 1072 1494  C 1074.8 1494  1077 1496.2  1077 1499  C 1077 1501.8  1074.8 1504  1072 1504  C 1069.2 1504  1067 1501.8  1067 1499  C 1067 1496.2  1069.2 1494  1072 1494  Z " fill-rule="nonzero" fill="#ffffff" stroke="none" />
    <path d="M 1072 1494.5  C 1074.52 1494.5  1076.5 1496.48  1076.5 1499  C 1076.5 1501.52  1074.52 1503.5  1072 1503.5  C 1069.48 1503.5  1067.5 1501.52  1067.5 1499  C 1067.5 1496.48  1069.48 1494.5  1072 1494.5  Z " stroke-width="1" stroke="#db0ea1" fill="none" />
  </g>
</svg>