<?xml version="1.0" encoding="utf-8"?>
<svg version="1.1" xmlns:xlink="http://www.w3.org/1999/xlink" width="153px" height="60px" xmlns="http://www.w3.org/2000/svg">
  <defs>
    <mask fill="white" id="clip736">
      <path d="M 0.352534562211982 48.4883720930233  C 0.352534562211982 48.4883720930233  1.05760368663594 47.093023255814  1.05760368663594 47.093023255814  C 1.05760368663594 47.093023255814  2.46774193548387 44.3023255813954  2.46774193548387 44.3023255813954  C 2.46774193548387 44.3023255813954  0.352534562211982 41.5116279069767  0.352534562211982 41.5116279069767  C 0.352534562211982 41.5116279069767  2.46774193548387 39.4186046511628  2.46774193548387 39.4186046511628  C 2.46774193548387 39.4186046511628  3.17281105990783 35.2325581395349  3.17281105990783 35.2325581395349  C 3.17281105990783 35.2325581395349  5.99308755760369 32.4418604651163  5.99308755760369 32.4418604651163  C 5.99308755760369 32.4418604651163  7.40322580645161 32.4418604651163  7.40322580645161 32.4418604651163  C 7.40322580645161 32.4418604651163  7.40322580645161 31.046511627907  7.40322580645161 31.046511627907  C 7.40322580645161 31.046511627907  12.3387096774194 30.3488372093023  12.3387096774194 30.3488372093023  C 12.3387096774194 30.3488372093023  14.4539170506912 28.2558139534884  14.4539170506912 28.2558139534884  C 14.4539170506912 28.2558139534884  18.684331797235 31.7441860465116  18.684331797235 31.7441860465116  C 18.684331797235 31.7441860465116  20.7995391705069 31.7441860465116  20.7995391705069 31.7441860465116  C 20.7995391705069 31.7441860465116  22.2096774193548 33.8372093023256  22.2096774193548 33.8372093023256  C 22.2096774193548 33.8372093023256  25.0299539170507 30.3488372093023  25.0299539170507 30.3488372093023  C 25.0299539170507 30.3488372093023  25.7350230414747 31.046511627907  25.7350230414747 31.046511627907  C 25.7350230414747 31.046511627907  26.4400921658986 28.953488372093  26.4400921658986 28.953488372093  C 26.4400921658986 28.953488372093  27.8502304147465 28.953488372093  27.8502304147465 28.953488372093  C 27.8502304147465 28.953488372093  27.1451612903226 27.5581395348837  27.1451612903226 27.5581395348837  C 27.1451612903226 27.5581395348837  29.2603686635945 28.2558139534884  29.2603686635945 28.2558139534884  C 29.2603686635945 28.2558139534884  34.9009216589862 25.4651162790698  34.9009216589862 25.4651162790698  C 34.9009216589862 25.4651162790698  39.13133640553 25.4651162790698  39.13133640553 25.4651162790698  C 39.13133640553 25.4651162790698  41.2465437788018 24.0697674418605  41.2465437788018 24.0697674418605  C 41.2465437788018 24.0697674418605  42.6566820276498 24.7674418604651  42.6566820276498 24.7674418604651  C 42.6566820276498 24.7674418604651  44.7718894009217 19.1860465116279  44.7718894009217 19.1860465116279  C 44.7718894009217 19.1860465116279  50.4124423963134 10.8139534883721  50.4124423963134 10.8139534883721  C 50.4124423963134 10.8139534883721  51.1175115207373 10.1162790697674  51.1175115207373 10.1162790697674  C 51.1175115207373 10.1162790697674  54.6428571428571 11.5116279069767  54.6428571428571 11.5116279069767  C 54.6428571428571 11.5116279069767  58.168202764977 8.02325581395349  58.168202764977 8.02325581395349  C 58.168202764977 8.02325581395349  57.463133640553 9.41860465116279  57.463133640553 9.41860465116279  C 57.463133640553 9.41860465116279  58.8732718894009 10.8139534883721  58.8732718894009 10.8139534883721  C 58.8732718894009 10.8139534883721  59.5783410138249 10.1162790697674  59.5783410138249 10.1162790697674  C 59.5783410138249 10.1162790697674  63.1036866359447 12.2093023255814  63.1036866359447 12.2093023255814  C 63.1036866359447 12.2093023255814  63.1036866359447 10.8139534883721  63.1036866359447 10.8139534883721  C 63.1036866359447 10.8139534883721  64.5138248847926 10.1162790697674  64.5138248847926 10.1162790697674  C 64.5138248847926 10.1162790697674  67.3341013824885 11.5116279069767  67.3341013824885 11.5116279069767  C 67.3341013824885 11.5116279069767  70.1543778801843 10.1162790697674  70.1543778801843 10.1162790697674  C 70.1543778801843 10.1162790697674  68.7442396313364 13.6046511627907  68.7442396313364 13.6046511627907  C 68.7442396313364 13.6046511627907  70.8594470046083 15  70.8594470046083 15  C 70.8594470046083 15  77.205069124424 10.1162790697674  77.205069124424 10.1162790697674  C 77.205069124424 10.1162790697674  77.205069124424 11.5116279069767  77.205069124424 11.5116279069767  C 77.205069124424 11.5116279069767  82.1405529953917 14.3023255813953  82.1405529953917 14.3023255813953  C 82.1405529953917 14.3023255813953  84.9608294930876 8.02325581395349  84.9608294930876 8.02325581395349  C 84.9608294930876 8.02325581395349  83.5506912442396 5.23255813953488  83.5506912442396 5.23255813953488  C 83.5506912442396 5.23255813953488  85.6658986175115 3.13953488372093  85.6658986175115 3.13953488372093  C 85.6658986175115 3.13953488372093  85.6658986175115 1.74418604651163  85.6658986175115 1.74418604651163  C 85.6658986175115 1.74418604651163  87.0760368663595 1.74418604651163  87.0760368663595 1.74418604651163  C 87.0760368663595 1.74418604651163  87.0760368663595 0.348837209302326  87.0760368663595 0.348837209302326  C 87.0760368663595 0.348837209302326  88.4861751152074 3.13953488372093  88.4861751152074 3.13953488372093  C 88.4861751152074 3.13953488372093  89.8963133640553 1.74418604651163  89.8963133640553 1.74418604651163  C 89.8963133640553 1.74418604651163  92.0115207373272 2.44186046511628  92.0115207373272 2.44186046511628  C 92.0115207373272 2.44186046511628  92.7165898617511 3.83720930232558  92.7165898617511 3.83720930232558  C 92.7165898617511 3.83720930232558  94.1267281105991 3.83720930232558  94.1267281105991 3.83720930232558  C 94.1267281105991 3.83720930232558  96.241935483871 1.74418604651163  96.241935483871 1.74418604651163  C 96.241935483871 1.74418604651163  98.3571428571429 2.44186046511628  98.3571428571429 2.44186046511628  C 98.3571428571429 2.44186046511628  99.0622119815668 6.62790697674419  99.0622119815668 6.62790697674419  C 99.0622119815668 6.62790697674419  99.7672811059908 5.23255813953488  99.7672811059908 5.23255813953488  C 99.7672811059908 5.23255813953488  101.177419354839 5.23255813953488  101.177419354839 5.23255813953488  C 101.177419354839 5.23255813953488  103.292626728111 6.62790697674419  103.292626728111 6.62790697674419  C 103.292626728111 6.62790697674419  104.702764976959 9.41860465116279  104.702764976959 9.41860465116279  C 104.702764976959 9.41860465116279  108.933179723502 9.41860465116279  108.933179723502 9.41860465116279  C 108.933179723502 9.41860465116279  114.573732718894 15  114.573732718894 15  C 114.573732718894 15  113.86866359447 15.6976744186047  113.86866359447 15.6976744186047  C 113.86866359447 15.6976744186047  117.39400921659 17.7906976744186  117.39400921659 17.7906976744186  C 117.39400921659 17.7906976744186  118.804147465438 16.3953488372093  118.804147465438 16.3953488372093  C 118.804147465438 16.3953488372093  123.739631336406 15  123.739631336406 15  C 123.739631336406 15  125.854838709677 10.1162790697674  125.854838709677 10.1162790697674  C 125.854838709677 10.1162790697674  127.264976958525 9.41860465116279  127.264976958525 9.41860465116279  C 127.264976958525 9.41860465116279  127.970046082949 10.8139534883721  127.970046082949 10.8139534883721  C 127.970046082949 10.8139534883721  132.200460829493 10.1162790697674  132.200460829493 10.1162790697674  C 132.200460829493 10.1162790697674  134.315668202765 7.32558139534884  134.315668202765 7.32558139534884  C 134.315668202765 7.32558139534884  137.841013824885 8.72093023255814  137.841013824885 8.72093023255814  C 137.841013824885 8.72093023255814  141.366359447005 8.02325581395349  141.366359447005 8.02325581395349  C 141.366359447005 8.02325581395349  149.827188940092 13.6046511627907  149.827188940092 13.6046511627907  C 149.827188940092 13.6046511627907  147.006912442396 17.093023255814  147.006912442396 17.093023255814  C 147.006912442396 17.093023255814  148.417050691244 17.093023255814  148.417050691244 17.093023255814  C 148.417050691244 17.093023255814  150.532258064516 19.8837209302326  150.532258064516 19.8837209302326  C 150.532258064516 19.8837209302326  152.647465437788 19.8837209302326  152.647465437788 19.8837209302326  C 152.647465437788 19.8837209302326  152.647465437788 24.7674418604651  152.647465437788 24.7674418604651  C 152.647465437788 24.7674418604651  147.71198156682 28.953488372093  147.71198156682 28.953488372093  C 147.71198156682 28.953488372093  147.71198156682 31.046511627907  147.71198156682 31.046511627907  C 147.71198156682 31.046511627907  145.596774193548 31.046511627907  145.596774193548 31.046511627907  C 145.596774193548 31.046511627907  142.776497695853 35.9302325581395  142.776497695853 35.9302325581395  C 142.776497695853 35.9302325581395  137.135944700461 35.9302325581395  137.135944700461 35.9302325581395  C 137.135944700461 35.9302325581395  135.725806451613 37.3255813953488  135.725806451613 37.3255813953488  C 135.725806451613 37.3255813953488  137.841013824885 42.2093023255814  137.841013824885 42.2093023255814  C 137.841013824885 42.2093023255814  137.135944700461 42.906976744186  137.135944700461 42.906976744186  C 137.135944700461 42.906976744186  138.546082949309 42.906976744186  138.546082949309 42.906976744186  C 138.546082949309 42.906976744186  139.251152073733 44.3023255813954  139.251152073733 44.3023255813954  C 139.251152073733 44.3023255813954  137.841013824885 45.6976744186046  137.841013824885 45.6976744186046  C 137.841013824885 45.6976744186046  134.315668202765 45.6976744186046  134.315668202765 45.6976744186046  C 134.315668202765 45.6976744186046  133.610599078341 47.7906976744186  133.610599078341 47.7906976744186  C 133.610599078341 47.7906976744186  129.380184331797 49.8837209302326  129.380184331797 49.8837209302326  C 129.380184331797 49.8837209302326  127.264976958525 48.4883720930233  127.264976958525 48.4883720930233  C 127.264976958525 48.4883720930233  125.854838709677 50.5813953488372  125.854838709677 50.5813953488372  C 125.854838709677 50.5813953488372  124.444700460829 49.8837209302326  124.444700460829 49.8837209302326  C 124.444700460829 49.8837209302326  120.214285714286 53.3720930232558  120.214285714286 53.3720930232558  C 120.214285714286 53.3720930232558  118.804147465438 56.8604651162791  118.804147465438 56.8604651162791  C 118.804147465438 56.8604651162791  116.688940092166 58.2558139534884  116.688940092166 58.2558139534884  C 116.688940092166 58.2558139534884  114.573732718894 56.8604651162791  114.573732718894 56.8604651162791  C 114.573732718894 56.8604651162791  113.86866359447 57.5581395348837  113.86866359447 57.5581395348837  C 113.86866359447 57.5581395348837  110.34331797235 54.7674418604651  110.34331797235 54.7674418604651  C 110.34331797235 54.7674418604651  109.638248847926 56.8604651162791  109.638248847926 56.8604651162791  C 109.638248847926 56.8604651162791  108.228110599078 51.2790697674419  108.228110599078 51.2790697674419  C 108.228110599078 51.2790697674419  105.407834101382 51.9767441860465  105.407834101382 51.9767441860465  C 105.407834101382 51.9767441860465  104.702764976959 53.3720930232558  104.702764976959 53.3720930232558  C 104.702764976959 53.3720930232558  99.0622119815668 56.1627906976744  99.0622119815668 56.1627906976744  C 99.0622119815668 56.1627906976744  97.6520737327189 59.6511627906977  97.6520737327189 59.6511627906977  C 97.6520737327189 59.6511627906977  94.831797235023 59.6511627906977  94.831797235023 59.6511627906977  C 94.831797235023 59.6511627906977  91.3064516129032 57.5581395348837  91.3064516129032 57.5581395348837  C 91.3064516129032 57.5581395348837  89.8963133640553 58.953488372093  89.8963133640553 58.953488372093  C 89.8963133640553 58.953488372093  90.6013824884793 55.4651162790698  90.6013824884793 55.4651162790698  C 90.6013824884793 55.4651162790698  89.1912442396313 54.7674418604651  89.1912442396313 54.7674418604651  C 89.1912442396313 54.7674418604651  88.4861751152074 52.6744186046512  88.4861751152074 52.6744186046512  C 88.4861751152074 52.6744186046512  89.8963133640553 50.5813953488372  89.8963133640553 50.5813953488372  C 89.8963133640553 50.5813953488372  89.1912442396313 47.7906976744186  89.1912442396313 47.7906976744186  C 89.1912442396313 47.7906976744186  88.4861751152074 49.1860465116279  88.4861751152074 49.1860465116279  C 88.4861751152074 49.1860465116279  87.7811059907834 47.093023255814  87.7811059907834 47.093023255814  C 87.7811059907834 47.093023255814  82.1405529953917 48.4883720930233  82.1405529953917 48.4883720930233  C 82.1405529953917 48.4883720930233  82.1405529953917 51.2790697674419  82.1405529953917 51.2790697674419  C 82.1405529953917 51.2790697674419  80.0253456221198 54.7674418604651  80.0253456221198 54.7674418604651  C 80.0253456221198 54.7674418604651  77.205069124424 52.6744186046512  77.205069124424 52.6744186046512  C 77.205069124424 52.6744186046512  77.9101382488479 51.2790697674419  77.9101382488479 51.2790697674419  C 77.9101382488479 51.2790697674419  75.794930875576 50.5813953488372  75.794930875576 50.5813953488372  C 75.794930875576 50.5813953488372  77.9101382488479 49.1860465116279  77.9101382488479 49.1860465116279  C 77.9101382488479 49.1860465116279  75.794930875576 47.7906976744186  75.794930875576 47.7906976744186  C 75.794930875576 47.7906976744186  73.6797235023042 48.4883720930233  73.6797235023042 48.4883720930233  C 73.6797235023042 48.4883720930233  73.6797235023042 50.5813953488372  73.6797235023042 50.5813953488372  C 73.6797235023042 50.5813953488372  72.9746543778802 49.8837209302326  72.9746543778802 49.8837209302326  C 72.9746543778802 49.8837209302326  71.5645161290323 51.2790697674419  71.5645161290323 51.2790697674419  C 71.5645161290323 51.2790697674419  68.0391705069124 47.7906976744186  68.0391705069124 47.7906976744186  C 68.0391705069124 47.7906976744186  66.6290322580645 47.7906976744186  66.6290322580645 47.7906976744186  C 66.6290322580645 47.7906976744186  66.6290322580645 50.5813953488372  66.6290322580645 50.5813953488372  C 66.6290322580645 50.5813953488372  63.8087557603687 50.5813953488372  63.8087557603687 50.5813953488372  C 63.8087557603687 50.5813953488372  64.5138248847926 49.1860465116279  64.5138248847926 49.1860465116279  C 64.5138248847926 49.1860465116279  63.1036866359447 48.4883720930233  63.1036866359447 48.4883720930233  C 63.1036866359447 48.4883720930233  62.3986175115207 49.8837209302326  62.3986175115207 49.8837209302326  C 62.3986175115207 49.8837209302326  61.6935483870968 47.093023255814  61.6935483870968 47.093023255814  C 61.6935483870968 47.093023255814  60.2834101382488 47.093023255814  60.2834101382488 47.093023255814  C 60.2834101382488 47.093023255814  59.5783410138249 44.3023255813954  59.5783410138249 44.3023255813954  C 59.5783410138249 44.3023255813954  58.168202764977 43.6046511627907  58.168202764977 43.6046511627907  C 58.168202764977 43.6046511627907  56.758064516129 44.3023255813954  56.758064516129 44.3023255813954  C 56.758064516129 44.3023255813954  58.8732718894009 46.3953488372093  58.8732718894009 46.3953488372093  C 58.8732718894009 46.3953488372093  56.758064516129 47.093023255814  56.758064516129 47.093023255814  C 56.758064516129 47.093023255814  56.0529953917051 51.2790697674419  56.0529953917051 51.2790697674419  C 56.0529953917051 51.2790697674419  53.9377880184332 54.0697674418605  53.9377880184332 54.0697674418605  C 53.9377880184332 54.0697674418605  51.1175115207373 54.7674418604651  51.1175115207373 54.7674418604651  C 51.1175115207373 54.7674418604651  49.0023041474654 52.6744186046512  49.0023041474654 52.6744186046512  C 49.0023041474654 52.6744186046512  49.0023041474654 57.5581395348837  49.0023041474654 57.5581395348837  C 49.0023041474654 57.5581395348837  47.5921658986175 57.5581395348837  47.5921658986175 57.5581395348837  C 47.5921658986175 57.5581395348837  45.4769585253456 51.9767441860465  45.4769585253456 51.9767441860465  C 45.4769585253456 51.9767441860465  44.0668202764977 51.9767441860465  44.0668202764977 51.9767441860465  C 44.0668202764977 51.9767441860465  43.3617511520737 49.8837209302326  43.3617511520737 49.8837209302326  C 43.3617511520737 49.8837209302326  42.6566820276498 50.5813953488372  42.6566820276498 50.5813953488372  C 42.6566820276498 50.5813953488372  39.8364055299539 49.1860465116279  39.8364055299539 49.1860465116279  C 39.8364055299539 49.1860465116279  39.8364055299539 47.093023255814  39.8364055299539 47.093023255814  C 39.8364055299539 47.093023255814  37.0161290322581 44.3023255813954  37.0161290322581 44.3023255813954  C 37.0161290322581 44.3023255813954  33.4907834101382 45.6976744186046  33.4907834101382 45.6976744186046  C 33.4907834101382 45.6976744186046  33.4907834101382 51.2790697674419  33.4907834101382 51.2790697674419  C 33.4907834101382 51.2790697674419  20.0944700460829 51.2790697674419  20.0944700460829 51.2790697674419  C 20.0944700460829 51.2790697674419  16.5691244239631 55.4651162790698  16.5691244239631 55.4651162790698  C 16.5691244239631 55.4651162790698  14.4539170506912 56.1627906976744  14.4539170506912 56.1627906976744  C 14.4539170506912 56.1627906976744  10.9285714285714 54.7674418604651  10.9285714285714 54.7674418604651  C 10.9285714285714 54.7674418604651  6.69815668202765 55.4651162790698  6.69815668202765 55.4651162790698  C 6.69815668202765 55.4651162790698  5.99308755760369 51.9767441860465  5.99308755760369 51.9767441860465  C 5.99308755760369 51.9767441860465  3.17281105990783 49.1860465116279  3.17281105990783 49.1860465116279  C 3.17281105990783 49.1860465116279  1.76267281105991 50.5813953488372  1.76267281105991 50.5813953488372  C 1.76267281105991 50.5813953488372  0.352534562211982 49.8837209302326  0.352534562211982 49.8837209302326  C 0.352534562211982 49.8837209302326  0.352534562211982 48.4883720930233  0.352534562211982 48.4883720930233  Z " fill-rule="evenodd" />
    </mask>
  </defs>
  <g transform="matrix(1 0 0 1 -220 -280 )">
    <path d="M 0.352534562211982 48.4883720930233  C 0.352534562211982 48.4883720930233  1.05760368663594 47.093023255814  1.05760368663594 47.093023255814  C 1.05760368663594 47.093023255814  2.46774193548387 44.3023255813954  2.46774193548387 44.3023255813954  C 2.46774193548387 44.3023255813954  0.352534562211982 41.5116279069767  0.352534562211982 41.5116279069767  C 0.352534562211982 41.5116279069767  2.46774193548387 39.4186046511628  2.46774193548387 39.4186046511628  C 2.46774193548387 39.4186046511628  3.17281105990783 35.2325581395349  3.17281105990783 35.2325581395349  C 3.17281105990783 35.2325581395349  5.99308755760369 32.4418604651163  5.99308755760369 32.4418604651163  C 5.99308755760369 32.4418604651163  7.40322580645161 32.4418604651163  7.40322580645161 32.4418604651163  C 7.40322580645161 32.4418604651163  7.40322580645161 31.046511627907  7.40322580645161 31.046511627907  C 7.40322580645161 31.046511627907  12.3387096774194 30.3488372093023  12.3387096774194 30.3488372093023  C 12.3387096774194 30.3488372093023  14.4539170506912 28.2558139534884  14.4539170506912 28.2558139534884  C 14.4539170506912 28.2558139534884  18.684331797235 31.7441860465116  18.684331797235 31.7441860465116  C 18.684331797235 31.7441860465116  20.7995391705069 31.7441860465116  20.7995391705069 31.7441860465116  C 20.7995391705069 31.7441860465116  22.2096774193548 33.8372093023256  22.2096774193548 33.8372093023256  C 22.2096774193548 33.8372093023256  25.0299539170507 30.3488372093023  25.0299539170507 30.3488372093023  C 25.0299539170507 30.3488372093023  25.7350230414747 31.046511627907  25.7350230414747 31.046511627907  C 25.7350230414747 31.046511627907  26.4400921658986 28.953488372093  26.4400921658986 28.953488372093  C 26.4400921658986 28.953488372093  27.8502304147465 28.953488372093  27.8502304147465 28.953488372093  C 27.8502304147465 28.953488372093  27.1451612903226 27.5581395348837  27.1451612903226 27.5581395348837  C 27.1451612903226 27.5581395348837  29.2603686635945 28.2558139534884  29.2603686635945 28.2558139534884  C 29.2603686635945 28.2558139534884  34.9009216589862 25.4651162790698  34.9009216589862 25.4651162790698  C 34.9009216589862 25.4651162790698  39.13133640553 25.4651162790698  39.13133640553 25.4651162790698  C 39.13133640553 25.4651162790698  41.2465437788018 24.0697674418605  41.2465437788018 24.0697674418605  C 41.2465437788018 24.0697674418605  42.6566820276498 24.7674418604651  42.6566820276498 24.7674418604651  C 42.6566820276498 24.7674418604651  44.7718894009217 19.1860465116279  44.7718894009217 19.1860465116279  C 44.7718894009217 19.1860465116279  50.4124423963134 10.8139534883721  50.4124423963134 10.8139534883721  C 50.4124423963134 10.8139534883721  51.1175115207373 10.1162790697674  51.1175115207373 10.1162790697674  C 51.1175115207373 10.1162790697674  54.6428571428571 11.5116279069767  54.6428571428571 11.5116279069767  C 54.6428571428571 11.5116279069767  58.168202764977 8.02325581395349  58.168202764977 8.02325581395349  C 58.168202764977 8.02325581395349  57.463133640553 9.41860465116279  57.463133640553 9.41860465116279  C 57.463133640553 9.41860465116279  58.8732718894009 10.8139534883721  58.8732718894009 10.8139534883721  C 58.8732718894009 10.8139534883721  59.5783410138249 10.1162790697674  59.5783410138249 10.1162790697674  C 59.5783410138249 10.1162790697674  63.1036866359447 12.2093023255814  63.1036866359447 12.2093023255814  C 63.1036866359447 12.2093023255814  63.1036866359447 10.8139534883721  63.1036866359447 10.8139534883721  C 63.1036866359447 10.8139534883721  64.5138248847926 10.1162790697674  64.5138248847926 10.1162790697674  C 64.5138248847926 10.1162790697674  67.3341013824885 11.5116279069767  67.3341013824885 11.5116279069767  C 67.3341013824885 11.5116279069767  70.1543778801843 10.1162790697674  70.1543778801843 10.1162790697674  C 70.1543778801843 10.1162790697674  68.7442396313364 13.6046511627907  68.7442396313364 13.6046511627907  C 68.7442396313364 13.6046511627907  70.8594470046083 15  70.8594470046083 15  C 70.8594470046083 15  77.205069124424 10.1162790697674  77.205069124424 10.1162790697674  C 77.205069124424 10.1162790697674  77.205069124424 11.5116279069767  77.205069124424 11.5116279069767  C 77.205069124424 11.5116279069767  82.1405529953917 14.3023255813953  82.1405529953917 14.3023255813953  C 82.1405529953917 14.3023255813953  84.9608294930876 8.02325581395349  84.9608294930876 8.02325581395349  C 84.9608294930876 8.02325581395349  83.5506912442396 5.23255813953488  83.5506912442396 5.23255813953488  C 83.5506912442396 5.23255813953488  85.6658986175115 3.13953488372093  85.6658986175115 3.13953488372093  C 85.6658986175115 3.13953488372093  85.6658986175115 1.74418604651163  85.6658986175115 1.74418604651163  C 85.6658986175115 1.74418604651163  87.0760368663595 1.74418604651163  87.0760368663595 1.74418604651163  C 87.0760368663595 1.74418604651163  87.0760368663595 0.348837209302326  87.0760368663595 0.348837209302326  C 87.0760368663595 0.348837209302326  88.4861751152074 3.13953488372093  88.4861751152074 3.13953488372093  C 88.4861751152074 3.13953488372093  89.8963133640553 1.74418604651163  89.8963133640553 1.74418604651163  C 89.8963133640553 1.74418604651163  92.0115207373272 2.44186046511628  92.0115207373272 2.44186046511628  C 92.0115207373272 2.44186046511628  92.7165898617511 3.83720930232558  92.7165898617511 3.83720930232558  C 92.7165898617511 3.83720930232558  94.1267281105991 3.83720930232558  94.1267281105991 3.83720930232558  C 94.1267281105991 3.83720930232558  96.241935483871 1.74418604651163  96.241935483871 1.74418604651163  C 96.241935483871 1.74418604651163  98.3571428571429 2.44186046511628  98.3571428571429 2.44186046511628  C 98.3571428571429 2.44186046511628  99.0622119815668 6.62790697674419  99.0622119815668 6.62790697674419  C 99.0622119815668 6.62790697674419  99.7672811059908 5.23255813953488  99.7672811059908 5.23255813953488  C 99.7672811059908 5.23255813953488  101.177419354839 5.23255813953488  101.177419354839 5.23255813953488  C 101.177419354839 5.23255813953488  103.292626728111 6.62790697674419  103.292626728111 6.62790697674419  C 103.292626728111 6.62790697674419  104.702764976959 9.41860465116279  104.702764976959 9.41860465116279  C 104.702764976959 9.41860465116279  108.933179723502 9.41860465116279  108.933179723502 9.41860465116279  C 108.933179723502 9.41860465116279  114.573732718894 15  114.573732718894 15  C 114.573732718894 15  113.86866359447 15.6976744186047  113.86866359447 15.6976744186047  C 113.86866359447 15.6976744186047  117.39400921659 17.7906976744186  117.39400921659 17.7906976744186  C 117.39400921659 17.7906976744186  118.804147465438 16.3953488372093  118.804147465438 16.3953488372093  C 118.804147465438 16.3953488372093  123.739631336406 15  123.739631336406 15  C 123.739631336406 15  125.854838709677 10.1162790697674  125.854838709677 10.1162790697674  C 125.854838709677 10.1162790697674  127.264976958525 9.41860465116279  127.264976958525 9.41860465116279  C 127.264976958525 9.41860465116279  127.970046082949 10.8139534883721  127.970046082949 10.8139534883721  C 127.970046082949 10.8139534883721  132.200460829493 10.1162790697674  132.200460829493 10.1162790697674  C 132.200460829493 10.1162790697674  134.315668202765 7.32558139534884  134.315668202765 7.32558139534884  C 134.315668202765 7.32558139534884  137.841013824885 8.72093023255814  137.841013824885 8.72093023255814  C 137.841013824885 8.72093023255814  141.366359447005 8.02325581395349  141.366359447005 8.02325581395349  C 141.366359447005 8.02325581395349  149.827188940092 13.6046511627907  149.827188940092 13.6046511627907  C 149.827188940092 13.6046511627907  147.006912442396 17.093023255814  147.006912442396 17.093023255814  C 147.006912442396 17.093023255814  148.417050691244 17.093023255814  148.417050691244 17.093023255814  C 148.417050691244 17.093023255814  150.532258064516 19.8837209302326  150.532258064516 19.8837209302326  C 150.532258064516 19.8837209302326  152.647465437788 19.8837209302326  152.647465437788 19.8837209302326  C 152.647465437788 19.8837209302326  152.647465437788 24.7674418604651  152.647465437788 24.7674418604651  C 152.647465437788 24.7674418604651  147.71198156682 28.953488372093  147.71198156682 28.953488372093  C 147.71198156682 28.953488372093  147.71198156682 31.046511627907  147.71198156682 31.046511627907  C 147.71198156682 31.046511627907  145.596774193548 31.046511627907  145.596774193548 31.046511627907  C 145.596774193548 31.046511627907  142.776497695853 35.9302325581395  142.776497695853 35.9302325581395  C 142.776497695853 35.9302325581395  137.135944700461 35.9302325581395  137.135944700461 35.9302325581395  C 137.135944700461 35.9302325581395  135.725806451613 37.3255813953488  135.725806451613 37.3255813953488  C 135.725806451613 37.3255813953488  137.841013824885 42.2093023255814  137.841013824885 42.2093023255814  C 137.841013824885 42.2093023255814  137.135944700461 42.906976744186  137.135944700461 42.906976744186  C 137.135944700461 42.906976744186  138.546082949309 42.906976744186  138.546082949309 42.906976744186  C 138.546082949309 42.906976744186  139.251152073733 44.3023255813954  139.251152073733 44.3023255813954  C 139.251152073733 44.3023255813954  137.841013824885 45.6976744186046  137.841013824885 45.6976744186046  C 137.841013824885 45.6976744186046  134.315668202765 45.6976744186046  134.315668202765 45.6976744186046  C 134.315668202765 45.6976744186046  133.610599078341 47.7906976744186  133.610599078341 47.7906976744186  C 133.610599078341 47.7906976744186  129.380184331797 49.8837209302326  129.380184331797 49.8837209302326  C 129.380184331797 49.8837209302326  127.264976958525 48.4883720930233  127.264976958525 48.4883720930233  C 127.264976958525 48.4883720930233  125.854838709677 50.5813953488372  125.854838709677 50.5813953488372  C 125.854838709677 50.5813953488372  124.444700460829 49.8837209302326  124.444700460829 49.8837209302326  C 124.444700460829 49.8837209302326  120.214285714286 53.3720930232558  120.214285714286 53.3720930232558  C 120.214285714286 53.3720930232558  118.804147465438 56.8604651162791  118.804147465438 56.8604651162791  C 118.804147465438 56.8604651162791  116.688940092166 58.2558139534884  116.688940092166 58.2558139534884  C 116.688940092166 58.2558139534884  114.573732718894 56.8604651162791  114.573732718894 56.8604651162791  C 114.573732718894 56.8604651162791  113.86866359447 57.5581395348837  113.86866359447 57.5581395348837  C 113.86866359447 57.5581395348837  110.34331797235 54.7674418604651  110.34331797235 54.7674418604651  C 110.34331797235 54.7674418604651  109.638248847926 56.8604651162791  109.638248847926 56.8604651162791  C 109.638248847926 56.8604651162791  108.228110599078 51.2790697674419  108.228110599078 51.2790697674419  C 108.228110599078 51.2790697674419  105.407834101382 51.9767441860465  105.407834101382 51.9767441860465  C 105.407834101382 51.9767441860465  104.702764976959 53.3720930232558  104.702764976959 53.3720930232558  C 104.702764976959 53.3720930232558  99.0622119815668 56.1627906976744  99.0622119815668 56.1627906976744  C 99.0622119815668 56.1627906976744  97.6520737327189 59.6511627906977  97.6520737327189 59.6511627906977  C 97.6520737327189 59.6511627906977  94.831797235023 59.6511627906977  94.831797235023 59.6511627906977  C 94.831797235023 59.6511627906977  91.3064516129032 57.5581395348837  91.3064516129032 57.5581395348837  C 91.3064516129032 57.5581395348837  89.8963133640553 58.953488372093  89.8963133640553 58.953488372093  C 89.8963133640553 58.953488372093  90.6013824884793 55.4651162790698  90.6013824884793 55.4651162790698  C 90.6013824884793 55.4651162790698  89.1912442396313 54.7674418604651  89.1912442396313 54.7674418604651  C 89.1912442396313 54.7674418604651  88.4861751152074 52.6744186046512  88.4861751152074 52.6744186046512  C 88.4861751152074 52.6744186046512  89.8963133640553 50.5813953488372  89.8963133640553 50.5813953488372  C 89.8963133640553 50.5813953488372  89.1912442396313 47.7906976744186  89.1912442396313 47.7906976744186  C 89.1912442396313 47.7906976744186  88.4861751152074 49.1860465116279  88.4861751152074 49.1860465116279  C 88.4861751152074 49.1860465116279  87.7811059907834 47.093023255814  87.7811059907834 47.093023255814  C 87.7811059907834 47.093023255814  82.1405529953917 48.4883720930233  82.1405529953917 48.4883720930233  C 82.1405529953917 48.4883720930233  82.1405529953917 51.2790697674419  82.1405529953917 51.2790697674419  C 82.1405529953917 51.2790697674419  80.0253456221198 54.7674418604651  80.0253456221198 54.7674418604651  C 80.0253456221198 54.7674418604651  77.205069124424 52.6744186046512  77.205069124424 52.6744186046512  C 77.205069124424 52.6744186046512  77.9101382488479 51.2790697674419  77.9101382488479 51.2790697674419  C 77.9101382488479 51.2790697674419  75.794930875576 50.5813953488372  75.794930875576 50.5813953488372  C 75.794930875576 50.5813953488372  77.9101382488479 49.1860465116279  77.9101382488479 49.1860465116279  C 77.9101382488479 49.1860465116279  75.794930875576 47.7906976744186  75.794930875576 47.7906976744186  C 75.794930875576 47.7906976744186  73.6797235023042 48.4883720930233  73.6797235023042 48.4883720930233  C 73.6797235023042 48.4883720930233  73.6797235023042 50.5813953488372  73.6797235023042 50.5813953488372  C 73.6797235023042 50.5813953488372  72.9746543778802 49.8837209302326  72.9746543778802 49.8837209302326  C 72.9746543778802 49.8837209302326  71.5645161290323 51.2790697674419  71.5645161290323 51.2790697674419  C 71.5645161290323 51.2790697674419  68.0391705069124 47.7906976744186  68.0391705069124 47.7906976744186  C 68.0391705069124 47.7906976744186  66.6290322580645 47.7906976744186  66.6290322580645 47.7906976744186  C 66.6290322580645 47.7906976744186  66.6290322580645 50.5813953488372  66.6290322580645 50.5813953488372  C 66.6290322580645 50.5813953488372  63.8087557603687 50.5813953488372  63.8087557603687 50.5813953488372  C 63.8087557603687 50.5813953488372  64.5138248847926 49.1860465116279  64.5138248847926 49.1860465116279  C 64.5138248847926 49.1860465116279  63.1036866359447 48.4883720930233  63.1036866359447 48.4883720930233  C 63.1036866359447 48.4883720930233  62.3986175115207 49.8837209302326  62.3986175115207 49.8837209302326  C 62.3986175115207 49.8837209302326  61.6935483870968 47.093023255814  61.6935483870968 47.093023255814  C 61.6935483870968 47.093023255814  60.2834101382488 47.093023255814  60.2834101382488 47.093023255814  C 60.2834101382488 47.093023255814  59.5783410138249 44.3023255813954  59.5783410138249 44.3023255813954  C 59.5783410138249 44.3023255813954  58.168202764977 43.6046511627907  58.168202764977 43.6046511627907  C 58.168202764977 43.6046511627907  56.758064516129 44.3023255813954  56.758064516129 44.3023255813954  C 56.758064516129 44.3023255813954  58.8732718894009 46.3953488372093  58.8732718894009 46.3953488372093  C 58.8732718894009 46.3953488372093  56.758064516129 47.093023255814  56.758064516129 47.093023255814  C 56.758064516129 47.093023255814  56.0529953917051 51.2790697674419  56.0529953917051 51.2790697674419  C 56.0529953917051 51.2790697674419  53.9377880184332 54.0697674418605  53.9377880184332 54.0697674418605  C 53.9377880184332 54.0697674418605  51.1175115207373 54.7674418604651  51.1175115207373 54.7674418604651  C 51.1175115207373 54.7674418604651  49.0023041474654 52.6744186046512  49.0023041474654 52.6744186046512  C 49.0023041474654 52.6744186046512  49.0023041474654 57.5581395348837  49.0023041474654 57.5581395348837  C 49.0023041474654 57.5581395348837  47.5921658986175 57.5581395348837  47.5921658986175 57.5581395348837  C 47.5921658986175 57.5581395348837  45.4769585253456 51.9767441860465  45.4769585253456 51.9767441860465  C 45.4769585253456 51.9767441860465  44.0668202764977 51.9767441860465  44.0668202764977 51.9767441860465  C 44.0668202764977 51.9767441860465  43.3617511520737 49.8837209302326  43.3617511520737 49.8837209302326  C 43.3617511520737 49.8837209302326  42.6566820276498 50.5813953488372  42.6566820276498 50.5813953488372  C 42.6566820276498 50.5813953488372  39.8364055299539 49.1860465116279  39.8364055299539 49.1860465116279  C 39.8364055299539 49.1860465116279  39.8364055299539 47.093023255814  39.8364055299539 47.093023255814  C 39.8364055299539 47.093023255814  37.0161290322581 44.3023255813954  37.0161290322581 44.3023255813954  C 37.0161290322581 44.3023255813954  33.4907834101382 45.6976744186046  33.4907834101382 45.6976744186046  C 33.4907834101382 45.6976744186046  33.4907834101382 51.2790697674419  33.4907834101382 51.2790697674419  C 33.4907834101382 51.2790697674419  20.0944700460829 51.2790697674419  20.0944700460829 51.2790697674419  C 20.0944700460829 51.2790697674419  16.5691244239631 55.4651162790698  16.5691244239631 55.4651162790698  C 16.5691244239631 55.4651162790698  14.4539170506912 56.1627906976744  14.4539170506912 56.1627906976744  C 14.4539170506912 56.1627906976744  10.9285714285714 54.7674418604651  10.9285714285714 54.7674418604651  C 10.9285714285714 54.7674418604651  6.69815668202765 55.4651162790698  6.69815668202765 55.4651162790698  C 6.69815668202765 55.4651162790698  5.99308755760369 51.9767441860465  5.99308755760369 51.9767441860465  C 5.99308755760369 51.9767441860465  3.17281105990783 49.1860465116279  3.17281105990783 49.1860465116279  C 3.17281105990783 49.1860465116279  1.76267281105991 50.5813953488372  1.76267281105991 50.5813953488372  C 1.76267281105991 50.5813953488372  0.352534562211982 49.8837209302326  0.352534562211982 49.8837209302326  C 0.352534562211982 49.8837209302326  0.352534562211982 48.4883720930233  0.352534562211982 48.4883720930233  Z " fill-rule="nonzero" fill="#00ffff" stroke="none" transform="matrix(1 0 0 1 220 280 )" />
    <path d="M 0.352534562211982 48.4883720930233  C 0.352534562211982 48.4883720930233  1.05760368663594 47.093023255814  1.05760368663594 47.093023255814  C 1.05760368663594 47.093023255814  2.46774193548387 44.3023255813954  2.46774193548387 44.3023255813954  C 2.46774193548387 44.3023255813954  0.352534562211982 41.5116279069767  0.352534562211982 41.5116279069767  C 0.352534562211982 41.5116279069767  2.46774193548387 39.4186046511628  2.46774193548387 39.4186046511628  C 2.46774193548387 39.4186046511628  3.17281105990783 35.2325581395349  3.17281105990783 35.2325581395349  C 3.17281105990783 35.2325581395349  5.99308755760369 32.4418604651163  5.99308755760369 32.4418604651163  C 5.99308755760369 32.4418604651163  7.40322580645161 32.4418604651163  7.40322580645161 32.4418604651163  C 7.40322580645161 32.4418604651163  7.40322580645161 31.046511627907  7.40322580645161 31.046511627907  C 7.40322580645161 31.046511627907  12.3387096774194 30.3488372093023  12.3387096774194 30.3488372093023  C 12.3387096774194 30.3488372093023  14.4539170506912 28.2558139534884  14.4539170506912 28.2558139534884  C 14.4539170506912 28.2558139534884  18.684331797235 31.7441860465116  18.684331797235 31.7441860465116  C 18.684331797235 31.7441860465116  20.7995391705069 31.7441860465116  20.7995391705069 31.7441860465116  C 20.7995391705069 31.7441860465116  22.2096774193548 33.8372093023256  22.2096774193548 33.8372093023256  C 22.2096774193548 33.8372093023256  25.0299539170507 30.3488372093023  25.0299539170507 30.3488372093023  C 25.0299539170507 30.3488372093023  25.7350230414747 31.046511627907  25.7350230414747 31.046511627907  C 25.7350230414747 31.046511627907  26.4400921658986 28.953488372093  26.4400921658986 28.953488372093  C 26.4400921658986 28.953488372093  27.8502304147465 28.953488372093  27.8502304147465 28.953488372093  C 27.8502304147465 28.953488372093  27.1451612903226 27.5581395348837  27.1451612903226 27.5581395348837  C 27.1451612903226 27.5581395348837  29.2603686635945 28.2558139534884  29.2603686635945 28.2558139534884  C 29.2603686635945 28.2558139534884  34.9009216589862 25.4651162790698  34.9009216589862 25.4651162790698  C 34.9009216589862 25.4651162790698  39.13133640553 25.4651162790698  39.13133640553 25.4651162790698  C 39.13133640553 25.4651162790698  41.2465437788018 24.0697674418605  41.2465437788018 24.0697674418605  C 41.2465437788018 24.0697674418605  42.6566820276498 24.7674418604651  42.6566820276498 24.7674418604651  C 42.6566820276498 24.7674418604651  44.7718894009217 19.1860465116279  44.7718894009217 19.1860465116279  C 44.7718894009217 19.1860465116279  50.4124423963134 10.8139534883721  50.4124423963134 10.8139534883721  C 50.4124423963134 10.8139534883721  51.1175115207373 10.1162790697674  51.1175115207373 10.1162790697674  C 51.1175115207373 10.1162790697674  54.6428571428571 11.5116279069767  54.6428571428571 11.5116279069767  C 54.6428571428571 11.5116279069767  58.168202764977 8.02325581395349  58.168202764977 8.02325581395349  C 58.168202764977 8.02325581395349  57.463133640553 9.41860465116279  57.463133640553 9.41860465116279  C 57.463133640553 9.41860465116279  58.8732718894009 10.8139534883721  58.8732718894009 10.8139534883721  C 58.8732718894009 10.8139534883721  59.5783410138249 10.1162790697674  59.5783410138249 10.1162790697674  C 59.5783410138249 10.1162790697674  63.1036866359447 12.2093023255814  63.1036866359447 12.2093023255814  C 63.1036866359447 12.2093023255814  63.1036866359447 10.8139534883721  63.1036866359447 10.8139534883721  C 63.1036866359447 10.8139534883721  64.5138248847926 10.1162790697674  64.5138248847926 10.1162790697674  C 64.5138248847926 10.1162790697674  67.3341013824885 11.5116279069767  67.3341013824885 11.5116279069767  C 67.3341013824885 11.5116279069767  70.1543778801843 10.1162790697674  70.1543778801843 10.1162790697674  C 70.1543778801843 10.1162790697674  68.7442396313364 13.6046511627907  68.7442396313364 13.6046511627907  C 68.7442396313364 13.6046511627907  70.8594470046083 15  70.8594470046083 15  C 70.8594470046083 15  77.205069124424 10.1162790697674  77.205069124424 10.1162790697674  C 77.205069124424 10.1162790697674  77.205069124424 11.5116279069767  77.205069124424 11.5116279069767  C 77.205069124424 11.5116279069767  82.1405529953917 14.3023255813953  82.1405529953917 14.3023255813953  C 82.1405529953917 14.3023255813953  84.9608294930876 8.02325581395349  84.9608294930876 8.02325581395349  C 84.9608294930876 8.02325581395349  83.5506912442396 5.23255813953488  83.5506912442396 5.23255813953488  C 83.5506912442396 5.23255813953488  85.6658986175115 3.13953488372093  85.6658986175115 3.13953488372093  C 85.6658986175115 3.13953488372093  85.6658986175115 1.74418604651163  85.6658986175115 1.74418604651163  C 85.6658986175115 1.74418604651163  87.0760368663595 1.74418604651163  87.0760368663595 1.74418604651163  C 87.0760368663595 1.74418604651163  87.0760368663595 0.348837209302326  87.0760368663595 0.348837209302326  C 87.0760368663595 0.348837209302326  88.4861751152074 3.13953488372093  88.4861751152074 3.13953488372093  C 88.4861751152074 3.13953488372093  89.8963133640553 1.74418604651163  89.8963133640553 1.74418604651163  C 89.8963133640553 1.74418604651163  92.0115207373272 2.44186046511628  92.0115207373272 2.44186046511628  C 92.0115207373272 2.44186046511628  92.7165898617511 3.83720930232558  92.7165898617511 3.83720930232558  C 92.7165898617511 3.83720930232558  94.1267281105991 3.83720930232558  94.1267281105991 3.83720930232558  C 94.1267281105991 3.83720930232558  96.241935483871 1.74418604651163  96.241935483871 1.74418604651163  C 96.241935483871 1.74418604651163  98.3571428571429 2.44186046511628  98.3571428571429 2.44186046511628  C 98.3571428571429 2.44186046511628  99.0622119815668 6.62790697674419  99.0622119815668 6.62790697674419  C 99.0622119815668 6.62790697674419  99.7672811059908 5.23255813953488  99.7672811059908 5.23255813953488  C 99.7672811059908 5.23255813953488  101.177419354839 5.23255813953488  101.177419354839 5.23255813953488  C 101.177419354839 5.23255813953488  103.292626728111 6.62790697674419  103.292626728111 6.62790697674419  C 103.292626728111 6.62790697674419  104.702764976959 9.41860465116279  104.702764976959 9.41860465116279  C 104.702764976959 9.41860465116279  108.933179723502 9.41860465116279  108.933179723502 9.41860465116279  C 108.933179723502 9.41860465116279  114.573732718894 15  114.573732718894 15  C 114.573732718894 15  113.86866359447 15.6976744186047  113.86866359447 15.6976744186047  C 113.86866359447 15.6976744186047  117.39400921659 17.7906976744186  117.39400921659 17.7906976744186  C 117.39400921659 17.7906976744186  118.804147465438 16.3953488372093  118.804147465438 16.3953488372093  C 118.804147465438 16.3953488372093  123.739631336406 15  123.739631336406 15  C 123.739631336406 15  125.854838709677 10.1162790697674  125.854838709677 10.1162790697674  C 125.854838709677 10.1162790697674  127.264976958525 9.41860465116279  127.264976958525 9.41860465116279  C 127.264976958525 9.41860465116279  127.970046082949 10.8139534883721  127.970046082949 10.8139534883721  C 127.970046082949 10.8139534883721  132.200460829493 10.1162790697674  132.200460829493 10.1162790697674  C 132.200460829493 10.1162790697674  134.315668202765 7.32558139534884  134.315668202765 7.32558139534884  C 134.315668202765 7.32558139534884  137.841013824885 8.72093023255814  137.841013824885 8.72093023255814  C 137.841013824885 8.72093023255814  141.366359447005 8.02325581395349  141.366359447005 8.02325581395349  C 141.366359447005 8.02325581395349  149.827188940092 13.6046511627907  149.827188940092 13.6046511627907  C 149.827188940092 13.6046511627907  147.006912442396 17.093023255814  147.006912442396 17.093023255814  C 147.006912442396 17.093023255814  148.417050691244 17.093023255814  148.417050691244 17.093023255814  C 148.417050691244 17.093023255814  150.532258064516 19.8837209302326  150.532258064516 19.8837209302326  C 150.532258064516 19.8837209302326  152.647465437788 19.8837209302326  152.647465437788 19.8837209302326  C 152.647465437788 19.8837209302326  152.647465437788 24.7674418604651  152.647465437788 24.7674418604651  C 152.647465437788 24.7674418604651  147.71198156682 28.953488372093  147.71198156682 28.953488372093  C 147.71198156682 28.953488372093  147.71198156682 31.046511627907  147.71198156682 31.046511627907  C 147.71198156682 31.046511627907  145.596774193548 31.046511627907  145.596774193548 31.046511627907  C 145.596774193548 31.046511627907  142.776497695853 35.9302325581395  142.776497695853 35.9302325581395  C 142.776497695853 35.9302325581395  137.135944700461 35.9302325581395  137.135944700461 35.9302325581395  C 137.135944700461 35.9302325581395  135.725806451613 37.3255813953488  135.725806451613 37.3255813953488  C 135.725806451613 37.3255813953488  137.841013824885 42.2093023255814  137.841013824885 42.2093023255814  C 137.841013824885 42.2093023255814  137.135944700461 42.906976744186  137.135944700461 42.906976744186  C 137.135944700461 42.906976744186  138.546082949309 42.906976744186  138.546082949309 42.906976744186  C 138.546082949309 42.906976744186  139.251152073733 44.3023255813954  139.251152073733 44.3023255813954  C 139.251152073733 44.3023255813954  137.841013824885 45.6976744186046  137.841013824885 45.6976744186046  C 137.841013824885 45.6976744186046  134.315668202765 45.6976744186046  134.315668202765 45.6976744186046  C 134.315668202765 45.6976744186046  133.610599078341 47.7906976744186  133.610599078341 47.7906976744186  C 133.610599078341 47.7906976744186  129.380184331797 49.8837209302326  129.380184331797 49.8837209302326  C 129.380184331797 49.8837209302326  127.264976958525 48.4883720930233  127.264976958525 48.4883720930233  C 127.264976958525 48.4883720930233  125.854838709677 50.5813953488372  125.854838709677 50.5813953488372  C 125.854838709677 50.5813953488372  124.444700460829 49.8837209302326  124.444700460829 49.8837209302326  C 124.444700460829 49.8837209302326  120.214285714286 53.3720930232558  120.214285714286 53.3720930232558  C 120.214285714286 53.3720930232558  118.804147465438 56.8604651162791  118.804147465438 56.8604651162791  C 118.804147465438 56.8604651162791  116.688940092166 58.2558139534884  116.688940092166 58.2558139534884  C 116.688940092166 58.2558139534884  114.573732718894 56.8604651162791  114.573732718894 56.8604651162791  C 114.573732718894 56.8604651162791  113.86866359447 57.5581395348837  113.86866359447 57.5581395348837  C 113.86866359447 57.5581395348837  110.34331797235 54.7674418604651  110.34331797235 54.7674418604651  C 110.34331797235 54.7674418604651  109.638248847926 56.8604651162791  109.638248847926 56.8604651162791  C 109.638248847926 56.8604651162791  108.228110599078 51.2790697674419  108.228110599078 51.2790697674419  C 108.228110599078 51.2790697674419  105.407834101382 51.9767441860465  105.407834101382 51.9767441860465  C 105.407834101382 51.9767441860465  104.702764976959 53.3720930232558  104.702764976959 53.3720930232558  C 104.702764976959 53.3720930232558  99.0622119815668 56.1627906976744  99.0622119815668 56.1627906976744  C 99.0622119815668 56.1627906976744  97.6520737327189 59.6511627906977  97.6520737327189 59.6511627906977  C 97.6520737327189 59.6511627906977  94.831797235023 59.6511627906977  94.831797235023 59.6511627906977  C 94.831797235023 59.6511627906977  91.3064516129032 57.5581395348837  91.3064516129032 57.5581395348837  C 91.3064516129032 57.5581395348837  89.8963133640553 58.953488372093  89.8963133640553 58.953488372093  C 89.8963133640553 58.953488372093  90.6013824884793 55.4651162790698  90.6013824884793 55.4651162790698  C 90.6013824884793 55.4651162790698  89.1912442396313 54.7674418604651  89.1912442396313 54.7674418604651  C 89.1912442396313 54.7674418604651  88.4861751152074 52.6744186046512  88.4861751152074 52.6744186046512  C 88.4861751152074 52.6744186046512  89.8963133640553 50.5813953488372  89.8963133640553 50.5813953488372  C 89.8963133640553 50.5813953488372  89.1912442396313 47.7906976744186  89.1912442396313 47.7906976744186  C 89.1912442396313 47.7906976744186  88.4861751152074 49.1860465116279  88.4861751152074 49.1860465116279  C 88.4861751152074 49.1860465116279  87.7811059907834 47.093023255814  87.7811059907834 47.093023255814  C 87.7811059907834 47.093023255814  82.1405529953917 48.4883720930233  82.1405529953917 48.4883720930233  C 82.1405529953917 48.4883720930233  82.1405529953917 51.2790697674419  82.1405529953917 51.2790697674419  C 82.1405529953917 51.2790697674419  80.0253456221198 54.7674418604651  80.0253456221198 54.7674418604651  C 80.0253456221198 54.7674418604651  77.205069124424 52.6744186046512  77.205069124424 52.6744186046512  C 77.205069124424 52.6744186046512  77.9101382488479 51.2790697674419  77.9101382488479 51.2790697674419  C 77.9101382488479 51.2790697674419  75.794930875576 50.5813953488372  75.794930875576 50.5813953488372  C 75.794930875576 50.5813953488372  77.9101382488479 49.1860465116279  77.9101382488479 49.1860465116279  C 77.9101382488479 49.1860465116279  75.794930875576 47.7906976744186  75.794930875576 47.7906976744186  C 75.794930875576 47.7906976744186  73.6797235023042 48.4883720930233  73.6797235023042 48.4883720930233  C 73.6797235023042 48.4883720930233  73.6797235023042 50.5813953488372  73.6797235023042 50.5813953488372  C 73.6797235023042 50.5813953488372  72.9746543778802 49.8837209302326  72.9746543778802 49.8837209302326  C 72.9746543778802 49.8837209302326  71.5645161290323 51.2790697674419  71.5645161290323 51.2790697674419  C 71.5645161290323 51.2790697674419  68.0391705069124 47.7906976744186  68.0391705069124 47.7906976744186  C 68.0391705069124 47.7906976744186  66.6290322580645 47.7906976744186  66.6290322580645 47.7906976744186  C 66.6290322580645 47.7906976744186  66.6290322580645 50.5813953488372  66.6290322580645 50.5813953488372  C 66.6290322580645 50.5813953488372  63.8087557603687 50.5813953488372  63.8087557603687 50.5813953488372  C 63.8087557603687 50.5813953488372  64.5138248847926 49.1860465116279  64.5138248847926 49.1860465116279  C 64.5138248847926 49.1860465116279  63.1036866359447 48.4883720930233  63.1036866359447 48.4883720930233  C 63.1036866359447 48.4883720930233  62.3986175115207 49.8837209302326  62.3986175115207 49.8837209302326  C 62.3986175115207 49.8837209302326  61.6935483870968 47.093023255814  61.6935483870968 47.093023255814  C 61.6935483870968 47.093023255814  60.2834101382488 47.093023255814  60.2834101382488 47.093023255814  C 60.2834101382488 47.093023255814  59.5783410138249 44.3023255813954  59.5783410138249 44.3023255813954  C 59.5783410138249 44.3023255813954  58.168202764977 43.6046511627907  58.168202764977 43.6046511627907  C 58.168202764977 43.6046511627907  56.758064516129 44.3023255813954  56.758064516129 44.3023255813954  C 56.758064516129 44.3023255813954  58.8732718894009 46.3953488372093  58.8732718894009 46.3953488372093  C 58.8732718894009 46.3953488372093  56.758064516129 47.093023255814  56.758064516129 47.093023255814  C 56.758064516129 47.093023255814  56.0529953917051 51.2790697674419  56.0529953917051 51.2790697674419  C 56.0529953917051 51.2790697674419  53.9377880184332 54.0697674418605  53.9377880184332 54.0697674418605  C 53.9377880184332 54.0697674418605  51.1175115207373 54.7674418604651  51.1175115207373 54.7674418604651  C 51.1175115207373 54.7674418604651  49.0023041474654 52.6744186046512  49.0023041474654 52.6744186046512  C 49.0023041474654 52.6744186046512  49.0023041474654 57.5581395348837  49.0023041474654 57.5581395348837  C 49.0023041474654 57.5581395348837  47.5921658986175 57.5581395348837  47.5921658986175 57.5581395348837  C 47.5921658986175 57.5581395348837  45.4769585253456 51.9767441860465  45.4769585253456 51.9767441860465  C 45.4769585253456 51.9767441860465  44.0668202764977 51.9767441860465  44.0668202764977 51.9767441860465  C 44.0668202764977 51.9767441860465  43.3617511520737 49.8837209302326  43.3617511520737 49.8837209302326  C 43.3617511520737 49.8837209302326  42.6566820276498 50.5813953488372  42.6566820276498 50.5813953488372  C 42.6566820276498 50.5813953488372  39.8364055299539 49.1860465116279  39.8364055299539 49.1860465116279  C 39.8364055299539 49.1860465116279  39.8364055299539 47.093023255814  39.8364055299539 47.093023255814  C 39.8364055299539 47.093023255814  37.0161290322581 44.3023255813954  37.0161290322581 44.3023255813954  C 37.0161290322581 44.3023255813954  33.4907834101382 45.6976744186046  33.4907834101382 45.6976744186046  C 33.4907834101382 45.6976744186046  33.4907834101382 51.2790697674419  33.4907834101382 51.2790697674419  C 33.4907834101382 51.2790697674419  20.0944700460829 51.2790697674419  20.0944700460829 51.2790697674419  C 20.0944700460829 51.2790697674419  16.5691244239631 55.4651162790698  16.5691244239631 55.4651162790698  C 16.5691244239631 55.4651162790698  14.4539170506912 56.1627906976744  14.4539170506912 56.1627906976744  C 14.4539170506912 56.1627906976744  10.9285714285714 54.7674418604651  10.9285714285714 54.7674418604651  C 10.9285714285714 54.7674418604651  6.69815668202765 55.4651162790698  6.69815668202765 55.4651162790698  C 6.69815668202765 55.4651162790698  5.99308755760369 51.9767441860465  5.99308755760369 51.9767441860465  C 5.99308755760369 51.9767441860465  3.17281105990783 49.1860465116279  3.17281105990783 49.1860465116279  C 3.17281105990783 49.1860465116279  1.76267281105991 50.5813953488372  1.76267281105991 50.5813953488372  C 1.76267281105991 50.5813953488372  0.352534562211982 49.8837209302326  0.352534562211982 49.8837209302326  C 0.352534562211982 49.8837209302326  0.352534562211982 48.4883720930233  0.352534562211982 48.4883720930233  Z " stroke-width="2" stroke-dasharray="1,1" stroke="#999999" fill="none" transform="matrix(1 0 0 1 220 280 )" mask="url(#clip736)" />
  </g>
</svg>