<?xml version="1.0" encoding="utf-8"?>
<svg version="1.1" xmlns:xlink="http://www.w3.org/1999/xlink" width="74px" height="144px" xmlns="http://www.w3.org/2000/svg">
  <defs>
    <mask fill="white" id="clip737">
      <path d="M 48.5188679245283 10.1853658536585  C 48.5188679245283 10.1853658536585  49.2169811320755 10.1853658536585  49.2169811320755 10.1853658536585  C 49.2169811320755 10.1853658536585  49.2169811320755 11.590243902439  49.2169811320755 11.590243902439  C 49.2169811320755 11.590243902439  51.311320754717 13.6975609756098  51.311320754717 13.6975609756098  C 51.311320754717 13.6975609756098  51.311320754717 16.5073170731707  51.311320754717 16.5073170731707  C 51.311320754717 16.5073170731707  47.122641509434 20.7219512195122  47.122641509434 20.7219512195122  C 47.122641509434 20.7219512195122  45.0283018867925 25.6390243902439  45.0283018867925 25.6390243902439  C 45.0283018867925 25.6390243902439  42.2358490566038 27.7463414634146  42.2358490566038 27.7463414634146  C 42.2358490566038 27.7463414634146  39.4433962264151 34.7707317073171  39.4433962264151 34.7707317073171  C 39.4433962264151 34.7707317073171  42.9339622641509 37.580487804878  42.9339622641509 37.580487804878  C 42.9339622641509 37.580487804878  40.1415094339623 40.390243902439  40.1415094339623 40.390243902439  C 40.1415094339623 40.390243902439  40.8396226415094 43.2  40.8396226415094 43.2  C 40.8396226415094 43.2  42.9339622641509 45.3073170731707  42.9339622641509 45.3073170731707  C 42.9339622641509 45.3073170731707  40.8396226415094 46.7121951219512  40.8396226415094 46.7121951219512  C 40.8396226415094 46.7121951219512  42.2358490566038 49.5219512195122  42.2358490566038 49.5219512195122  C 42.2358490566038 49.5219512195122  43.6320754716981 48.819512195122  43.6320754716981 48.819512195122  C 43.6320754716981 48.819512195122  45.7264150943396 50.2243902439024  45.7264150943396 50.2243902439024  C 45.7264150943396 50.2243902439024  58.2924528301887 46.7121951219512  58.2924528301887 46.7121951219512  C 58.2924528301887 46.7121951219512  56.8962264150943 52.3317073170732  56.8962264150943 52.3317073170732  C 56.8962264150943 52.3317073170732  58.2924528301887 53.0341463414634  58.2924528301887 53.0341463414634  C 58.2924528301887 53.0341463414634  56.8962264150943 57.2487804878049  56.8962264150943 57.2487804878049  C 56.8962264150943 57.2487804878049  52.0094339622642 64.2731707317073  52.0094339622642 64.2731707317073  C 52.0094339622642 64.2731707317073  52.0094339622642 67.0829268292683  52.0094339622642 67.0829268292683  C 52.0094339622642 67.0829268292683  54.1037735849057 67.0829268292683  54.1037735849057 67.0829268292683  C 54.1037735849057 67.0829268292683  54.8018867924528 70.5951219512195  54.8018867924528 70.5951219512195  C 54.8018867924528 70.5951219512195  59.688679245283 77.619512195122  59.688679245283 77.619512195122  C 59.688679245283 77.619512195122  61.7830188679245 78.3219512195122  61.7830188679245 78.3219512195122  C 61.7830188679245 78.3219512195122  59.688679245283 81.8341463414634  59.688679245283 81.8341463414634  C 59.688679245283 81.8341463414634  59.688679245283 84.6439024390244  59.688679245283 84.6439024390244  C 59.688679245283 84.6439024390244  58.2924528301887 84.6439024390244  58.2924528301887 84.6439024390244  C 58.2924528301887 84.6439024390244  56.1981132075472 88.8585365853659  56.1981132075472 88.8585365853659  C 56.1981132075472 88.8585365853659  57.5943396226415 98.6926829268293  57.5943396226415 98.6926829268293  C 57.5943396226415 98.6926829268293  62.4811320754717 102.907317073171  62.4811320754717 102.907317073171  C 62.4811320754717 102.907317073171  65.2735849056604 102.20487804878  65.2735849056604 102.20487804878  C 65.2735849056604 102.20487804878  70.1603773584906 105.014634146341  70.1603773584906 105.014634146341  C 70.1603773584906 105.014634146341  72.9528301886792 105.014634146341  72.9528301886792 105.014634146341  C 72.9528301886792 105.014634146341  70.8584905660377 112.039024390244  70.8584905660377 112.039024390244  C 70.8584905660377 112.039024390244  73.6509433962264 112.039024390244  73.6509433962264 112.039024390244  C 73.6509433962264 112.039024390244  71.5566037735849 114.848780487805  71.5566037735849 114.848780487805  C 71.5566037735849 114.848780487805  71.5566037735849 117.658536585366  71.5566037735849 117.658536585366  C 71.5566037735849 117.658536585366  70.8584905660377 116.956097560976  70.8584905660377 116.956097560976  C 70.8584905660377 116.956097560976  68.0660377358491 119.765853658537  68.0660377358491 119.765853658537  C 68.0660377358491 119.765853658537  69.4622641509434 122.575609756098  69.4622641509434 122.575609756098  C 69.4622641509434 122.575609756098  67.3679245283019 126.087804878049  67.3679245283019 126.087804878049  C 67.3679245283019 126.087804878049  68.0660377358491 127.492682926829  68.0660377358491 127.492682926829  C 68.0660377358491 127.492682926829  55.5 140.136585365854  55.5 140.136585365854  C 55.5 140.136585365854  54.1037735849057 140.136585365854  54.1037735849057 140.136585365854  C 54.1037735849057 140.136585365854  53.4056603773585 138.731707317073  53.4056603773585 138.731707317073  C 53.4056603773585 138.731707317073  52.7075471698113 141.541463414634  52.7075471698113 141.541463414634  C 52.7075471698113 141.541463414634  50.6132075471698 143.648780487805  50.6132075471698 143.648780487805  C 50.6132075471698 143.648780487805  47.8207547169811 141.541463414634  47.8207547169811 141.541463414634  C 47.8207547169811 141.541463414634  47.122641509434 139.434146341463  47.122641509434 139.434146341463  C 47.122641509434 139.434146341463  47.122641509434 137.326829268293  47.122641509434 137.326829268293  C 47.122641509434 137.326829268293  49.9150943396226 135.219512195122  49.9150943396226 135.219512195122  C 49.9150943396226 135.219512195122  49.2169811320755 130.30243902439  49.2169811320755 130.30243902439  C 49.2169811320755 130.30243902439  45.7264150943396 128.89756097561  45.7264150943396 128.89756097561  C 45.7264150943396 128.89756097561  44.3301886792453 126.790243902439  44.3301886792453 126.790243902439  C 44.3301886792453 126.790243902439  43.6320754716981 127.492682926829  43.6320754716981 127.492682926829  C 43.6320754716981 127.492682926829  42.2358490566038 126.087804878049  42.2358490566038 126.087804878049  C 42.2358490566038 126.087804878049  42.2358490566038 123.980487804878  42.2358490566038 123.980487804878  C 42.2358490566038 123.980487804878  40.8396226415094 123.278048780488  40.8396226415094 123.278048780488  C 40.8396226415094 123.278048780488  40.8396226415094 109.931707317073  40.8396226415094 109.931707317073  C 40.8396226415094 109.931707317073  38.0471698113208 107.121951219512  38.0471698113208 107.121951219512  C 38.0471698113208 107.121951219512  38.7452830188679 105.014634146341  38.7452830188679 105.014634146341  C 38.7452830188679 105.014634146341  35.2547169811321 103.609756097561  35.2547169811321 103.609756097561  C 35.2547169811321 103.609756097561  32.4622641509434 106.419512195122  32.4622641509434 106.419512195122  C 32.4622641509434 106.419512195122  29.6698113207547 106.419512195122  29.6698113207547 106.419512195122  C 29.6698113207547 106.419512195122  27.5754716981132 103.609756097561  27.5754716981132 103.609756097561  C 27.5754716981132 103.609756097561  28.9716981132075 101.50243902439  28.9716981132075 101.50243902439  C 28.9716981132075 101.50243902439  26.1792452830189 96.5853658536585  26.1792452830189 96.5853658536585  C 26.1792452830189 96.5853658536585  28.2735849056604 94.4780487804878  28.2735849056604 94.4780487804878  C 28.2735849056604 94.4780487804878  28.2735849056604 90.2634146341463  28.2735849056604 90.2634146341463  C 28.2735849056604 90.2634146341463  26.877358490566 88.8585365853659  26.877358490566 88.8585365853659  C 26.877358490566 88.8585365853659  23.3867924528302 88.1560975609756  23.3867924528302 88.1560975609756  C 23.3867924528302 88.1560975609756  21.2924528301887 90.9658536585366  21.2924528301887 90.9658536585366  C 21.2924528301887 90.9658536585366  19.8962264150943 90.9658536585366  19.8962264150943 90.9658536585366  C 19.8962264150943 90.9658536585366  19.8962264150943 87.4536585365854  19.8962264150943 87.4536585365854  C 19.8962264150943 87.4536585365854  18.5 87.4536585365854  18.5 87.4536585365854  C 18.5 87.4536585365854  16.4056603773585 83.9414634146341  16.4056603773585 83.9414634146341  C 16.4056603773585 83.9414634146341  19.8962264150943 79.7268292682927  19.8962264150943 79.7268292682927  C 19.8962264150943 79.7268292682927  17.1037735849057 78.3219512195122  17.1037735849057 78.3219512195122  C 17.1037735849057 78.3219512195122  15.7075471698113 74.809756097561  15.7075471698113 74.809756097561  C 15.7075471698113 74.809756097561  17.1037735849057 73.4048780487805  17.1037735849057 73.4048780487805  C 17.1037735849057 73.4048780487805  12.2169811320755 67.0829268292683  12.2169811320755 67.0829268292683  C 12.2169811320755 67.0829268292683  12.9150943396226 64.9756097560976  12.9150943396226 64.9756097560976  C 12.9150943396226 64.9756097560976  15.7075471698113 64.9756097560976  15.7075471698113 64.9756097560976  C 15.7075471698113 64.9756097560976  17.1037735849057 63.5707317073171  17.1037735849057 63.5707317073171  C 17.1037735849057 63.5707317073171  17.8018867924528 64.2731707317073  17.8018867924528 64.2731707317073  C 17.8018867924528 64.2731707317073  18.5 61.4634146341463  18.5 61.4634146341463  C 18.5 61.4634146341463  19.8962264150943 62.1658536585366  19.8962264150943 62.1658536585366  C 19.8962264150943 62.1658536585366  19.1981132075472 59.3560975609756  19.1981132075472 59.3560975609756  C 19.1981132075472 59.3560975609756  17.8018867924528 57.2487804878049  17.8018867924528 57.2487804878049  C 17.8018867924528 57.2487804878049  12.9150943396226 57.2487804878049  12.9150943396226 57.2487804878049  C 12.9150943396226 57.2487804878049  11.5188679245283 55.8439024390244  11.5188679245283 55.8439024390244  C 11.5188679245283 55.8439024390244  10.122641509434 59.3560975609756  10.122641509434 59.3560975609756  C 10.122641509434 59.3560975609756  8.02830188679245 57.2487804878049  8.02830188679245 57.2487804878049  C 8.02830188679245 57.2487804878049  6.63207547169811 53.7365853658537  6.63207547169811 53.7365853658537  C 6.63207547169811 53.7365853658537  5.23584905660377 53.7365853658537  5.23584905660377 53.7365853658537  C 5.23584905660377 53.7365853658537  5.23584905660377 50.9268292682927  5.23584905660377 50.9268292682927  C 5.23584905660377 50.9268292682927  3.83962264150943 50.2243902439024  3.83962264150943 50.2243902439024  C 3.83962264150943 50.2243902439024  4.5377358490566 49.5219512195122  4.5377358490566 49.5219512195122  C 4.5377358490566 49.5219512195122  0.349056603773585 39.6878048780488  0.349056603773585 39.6878048780488  C 0.349056603773585 39.6878048780488  0.349056603773585 34.0682926829268  0.349056603773585 34.0682926829268  C 0.349056603773585 34.0682926829268  2.44339622641509 31.2585365853659  2.44339622641509 31.2585365853659  C 2.44339622641509 31.2585365853659  2.44339622641509 29.1512195121951  2.44339622641509 29.1512195121951  C 2.44339622641509 29.1512195121951  4.5377358490566 29.1512195121951  4.5377358490566 29.1512195121951  C 4.5377358490566 29.1512195121951  3.14150943396226 26.3414634146341  3.14150943396226 26.3414634146341  C 3.14150943396226 26.3414634146341  1.74528301886792 26.3414634146341  1.74528301886792 26.3414634146341  C 1.74528301886792 26.3414634146341  3.83962264150943 22.8292682926829  3.83962264150943 22.8292682926829  C 3.83962264150943 22.8292682926829  5.93396226415094 22.1268292682927  5.93396226415094 22.1268292682927  C 5.93396226415094 22.1268292682927  3.83962264150943 20.7219512195122  3.83962264150943 20.7219512195122  C 3.83962264150943 20.7219512195122  4.5377358490566 19.3170731707317  4.5377358490566 19.3170731707317  C 4.5377358490566 19.3170731707317  3.83962264150943 17.209756097561  3.83962264150943 17.209756097561  C 3.83962264150943 17.209756097561  2.44339622641509 16.5073170731707  2.44339622641509 16.5073170731707  C 2.44339622641509 16.5073170731707  5.23584905660377 12.9951219512195  5.23584905660377 12.9951219512195  C 5.23584905660377 12.9951219512195  4.5377358490566 11.590243902439  4.5377358490566 11.590243902439  C 4.5377358490566 11.590243902439  6.63207547169811 6.67317073170732  6.63207547169811 6.67317073170732  C 6.63207547169811 6.67317073170732  7.33018867924528 5.97073170731707  7.33018867924528 5.97073170731707  C 7.33018867924528 5.97073170731707  10.122641509434 8.0780487804878  10.122641509434 8.0780487804878  C 10.122641509434 8.0780487804878  10.122641509434 5.97073170731707  10.122641509434 5.97073170731707  C 10.122641509434 5.97073170731707  12.2169811320755 4.56585365853659  12.2169811320755 4.56585365853659  C 12.2169811320755 4.56585365853659  11.5188679245283 3.1609756097561  11.5188679245283 3.1609756097561  C 11.5188679245283 3.1609756097561  13.6132075471698 1.05365853658537  13.6132075471698 1.05365853658537  C 13.6132075471698 1.05365853658537  16.4056603773585 0.351219512195122  16.4056603773585 0.351219512195122  C 16.4056603773585 0.351219512195122  18.5 2.45853658536585  18.5 2.45853658536585  C 18.5 2.45853658536585  19.1981132075472 1.05365853658537  19.1981132075472 1.05365853658537  C 19.1981132075472 1.05365853658537  19.1981132075472 8.0780487804878  19.1981132075472 8.0780487804878  C 19.1981132075472 8.0780487804878  20.5943396226415 8.0780487804878  20.5943396226415 8.0780487804878  C 20.5943396226415 8.0780487804878  19.8962264150943 12.2926829268293  19.8962264150943 12.2926829268293  C 19.8962264150943 12.2926829268293  21.2924528301887 10.8878048780488  21.2924528301887 10.8878048780488  C 21.2924528301887 10.8878048780488  24.7830188679245 12.9951219512195  24.7830188679245 12.9951219512195  C 24.7830188679245 12.9951219512195  27.5754716981132 12.9951219512195  27.5754716981132 12.9951219512195  C 27.5754716981132 12.9951219512195  28.9716981132075 9.48292682926829  28.9716981132075 9.48292682926829  C 28.9716981132075 9.48292682926829  30.3679245283019 9.48292682926829  30.3679245283019 9.48292682926829  C 30.3679245283019 9.48292682926829  38.0471698113208 4.56585365853659  38.0471698113208 4.56585365853659  C 38.0471698113208 4.56585365853659  39.4433962264151 5.26829268292683  39.4433962264151 5.26829268292683  C 39.4433962264151 5.26829268292683  38.7452830188679 7.37560975609756  38.7452830188679 7.37560975609756  C 38.7452830188679 7.37560975609756  40.1415094339623 10.1853658536585  40.1415094339623 10.1853658536585  C 40.1415094339623 10.1853658536585  40.8396226415094 8.78048780487805  40.8396226415094 8.78048780487805  C 40.8396226415094 8.78048780487805  42.9339622641509 9.48292682926829  42.9339622641509 9.48292682926829  C 42.9339622641509 9.48292682926829  43.6320754716981 10.8878048780488  43.6320754716981 10.8878048780488  C 43.6320754716981 10.8878048780488  45.0283018867925 10.1853658536585  45.0283018867925 10.1853658536585  C 45.0283018867925 10.1853658536585  47.122641509434 11.590243902439  47.122641509434 11.590243902439  C 47.122641509434 11.590243902439  48.5188679245283 10.1853658536585  48.5188679245283 10.1853658536585  Z " fill-rule="evenodd" />
    </mask>
  </defs>
  <g transform="matrix(1 0 0 1 -289 -326 )">
    <path d="M 48.5188679245283 10.1853658536585  C 48.5188679245283 10.1853658536585  49.2169811320755 10.1853658536585  49.2169811320755 10.1853658536585  C 49.2169811320755 10.1853658536585  49.2169811320755 11.590243902439  49.2169811320755 11.590243902439  C 49.2169811320755 11.590243902439  51.311320754717 13.6975609756098  51.311320754717 13.6975609756098  C 51.311320754717 13.6975609756098  51.311320754717 16.5073170731707  51.311320754717 16.5073170731707  C 51.311320754717 16.5073170731707  47.122641509434 20.7219512195122  47.122641509434 20.7219512195122  C 47.122641509434 20.7219512195122  45.0283018867925 25.6390243902439  45.0283018867925 25.6390243902439  C 45.0283018867925 25.6390243902439  42.2358490566038 27.7463414634146  42.2358490566038 27.7463414634146  C 42.2358490566038 27.7463414634146  39.4433962264151 34.7707317073171  39.4433962264151 34.7707317073171  C 39.4433962264151 34.7707317073171  42.9339622641509 37.580487804878  42.9339622641509 37.580487804878  C 42.9339622641509 37.580487804878  40.1415094339623 40.390243902439  40.1415094339623 40.390243902439  C 40.1415094339623 40.390243902439  40.8396226415094 43.2  40.8396226415094 43.2  C 40.8396226415094 43.2  42.9339622641509 45.3073170731707  42.9339622641509 45.3073170731707  C 42.9339622641509 45.3073170731707  40.8396226415094 46.7121951219512  40.8396226415094 46.7121951219512  C 40.8396226415094 46.7121951219512  42.2358490566038 49.5219512195122  42.2358490566038 49.5219512195122  C 42.2358490566038 49.5219512195122  43.6320754716981 48.819512195122  43.6320754716981 48.819512195122  C 43.6320754716981 48.819512195122  45.7264150943396 50.2243902439024  45.7264150943396 50.2243902439024  C 45.7264150943396 50.2243902439024  58.2924528301887 46.7121951219512  58.2924528301887 46.7121951219512  C 58.2924528301887 46.7121951219512  56.8962264150943 52.3317073170732  56.8962264150943 52.3317073170732  C 56.8962264150943 52.3317073170732  58.2924528301887 53.0341463414634  58.2924528301887 53.0341463414634  C 58.2924528301887 53.0341463414634  56.8962264150943 57.2487804878049  56.8962264150943 57.2487804878049  C 56.8962264150943 57.2487804878049  52.0094339622642 64.2731707317073  52.0094339622642 64.2731707317073  C 52.0094339622642 64.2731707317073  52.0094339622642 67.0829268292683  52.0094339622642 67.0829268292683  C 52.0094339622642 67.0829268292683  54.1037735849057 67.0829268292683  54.1037735849057 67.0829268292683  C 54.1037735849057 67.0829268292683  54.8018867924528 70.5951219512195  54.8018867924528 70.5951219512195  C 54.8018867924528 70.5951219512195  59.688679245283 77.619512195122  59.688679245283 77.619512195122  C 59.688679245283 77.619512195122  61.7830188679245 78.3219512195122  61.7830188679245 78.3219512195122  C 61.7830188679245 78.3219512195122  59.688679245283 81.8341463414634  59.688679245283 81.8341463414634  C 59.688679245283 81.8341463414634  59.688679245283 84.6439024390244  59.688679245283 84.6439024390244  C 59.688679245283 84.6439024390244  58.2924528301887 84.6439024390244  58.2924528301887 84.6439024390244  C 58.2924528301887 84.6439024390244  56.1981132075472 88.8585365853659  56.1981132075472 88.8585365853659  C 56.1981132075472 88.8585365853659  57.5943396226415 98.6926829268293  57.5943396226415 98.6926829268293  C 57.5943396226415 98.6926829268293  62.4811320754717 102.907317073171  62.4811320754717 102.907317073171  C 62.4811320754717 102.907317073171  65.2735849056604 102.20487804878  65.2735849056604 102.20487804878  C 65.2735849056604 102.20487804878  70.1603773584906 105.014634146341  70.1603773584906 105.014634146341  C 70.1603773584906 105.014634146341  72.9528301886792 105.014634146341  72.9528301886792 105.014634146341  C 72.9528301886792 105.014634146341  70.8584905660377 112.039024390244  70.8584905660377 112.039024390244  C 70.8584905660377 112.039024390244  73.6509433962264 112.039024390244  73.6509433962264 112.039024390244  C 73.6509433962264 112.039024390244  71.5566037735849 114.848780487805  71.5566037735849 114.848780487805  C 71.5566037735849 114.848780487805  71.5566037735849 117.658536585366  71.5566037735849 117.658536585366  C 71.5566037735849 117.658536585366  70.8584905660377 116.956097560976  70.8584905660377 116.956097560976  C 70.8584905660377 116.956097560976  68.0660377358491 119.765853658537  68.0660377358491 119.765853658537  C 68.0660377358491 119.765853658537  69.4622641509434 122.575609756098  69.4622641509434 122.575609756098  C 69.4622641509434 122.575609756098  67.3679245283019 126.087804878049  67.3679245283019 126.087804878049  C 67.3679245283019 126.087804878049  68.0660377358491 127.492682926829  68.0660377358491 127.492682926829  C 68.0660377358491 127.492682926829  55.5 140.136585365854  55.5 140.136585365854  C 55.5 140.136585365854  54.1037735849057 140.136585365854  54.1037735849057 140.136585365854  C 54.1037735849057 140.136585365854  53.4056603773585 138.731707317073  53.4056603773585 138.731707317073  C 53.4056603773585 138.731707317073  52.7075471698113 141.541463414634  52.7075471698113 141.541463414634  C 52.7075471698113 141.541463414634  50.6132075471698 143.648780487805  50.6132075471698 143.648780487805  C 50.6132075471698 143.648780487805  47.8207547169811 141.541463414634  47.8207547169811 141.541463414634  C 47.8207547169811 141.541463414634  47.122641509434 139.434146341463  47.122641509434 139.434146341463  C 47.122641509434 139.434146341463  47.122641509434 137.326829268293  47.122641509434 137.326829268293  C 47.122641509434 137.326829268293  49.9150943396226 135.219512195122  49.9150943396226 135.219512195122  C 49.9150943396226 135.219512195122  49.2169811320755 130.30243902439  49.2169811320755 130.30243902439  C 49.2169811320755 130.30243902439  45.7264150943396 128.89756097561  45.7264150943396 128.89756097561  C 45.7264150943396 128.89756097561  44.3301886792453 126.790243902439  44.3301886792453 126.790243902439  C 44.3301886792453 126.790243902439  43.6320754716981 127.492682926829  43.6320754716981 127.492682926829  C 43.6320754716981 127.492682926829  42.2358490566038 126.087804878049  42.2358490566038 126.087804878049  C 42.2358490566038 126.087804878049  42.2358490566038 123.980487804878  42.2358490566038 123.980487804878  C 42.2358490566038 123.980487804878  40.8396226415094 123.278048780488  40.8396226415094 123.278048780488  C 40.8396226415094 123.278048780488  40.8396226415094 109.931707317073  40.8396226415094 109.931707317073  C 40.8396226415094 109.931707317073  38.0471698113208 107.121951219512  38.0471698113208 107.121951219512  C 38.0471698113208 107.121951219512  38.7452830188679 105.014634146341  38.7452830188679 105.014634146341  C 38.7452830188679 105.014634146341  35.2547169811321 103.609756097561  35.2547169811321 103.609756097561  C 35.2547169811321 103.609756097561  32.4622641509434 106.419512195122  32.4622641509434 106.419512195122  C 32.4622641509434 106.419512195122  29.6698113207547 106.419512195122  29.6698113207547 106.419512195122  C 29.6698113207547 106.419512195122  27.5754716981132 103.609756097561  27.5754716981132 103.609756097561  C 27.5754716981132 103.609756097561  28.9716981132075 101.50243902439  28.9716981132075 101.50243902439  C 28.9716981132075 101.50243902439  26.1792452830189 96.5853658536585  26.1792452830189 96.5853658536585  C 26.1792452830189 96.5853658536585  28.2735849056604 94.4780487804878  28.2735849056604 94.4780487804878  C 28.2735849056604 94.4780487804878  28.2735849056604 90.2634146341463  28.2735849056604 90.2634146341463  C 28.2735849056604 90.2634146341463  26.877358490566 88.8585365853659  26.877358490566 88.8585365853659  C 26.877358490566 88.8585365853659  23.3867924528302 88.1560975609756  23.3867924528302 88.1560975609756  C 23.3867924528302 88.1560975609756  21.2924528301887 90.9658536585366  21.2924528301887 90.9658536585366  C 21.2924528301887 90.9658536585366  19.8962264150943 90.9658536585366  19.8962264150943 90.9658536585366  C 19.8962264150943 90.9658536585366  19.8962264150943 87.4536585365854  19.8962264150943 87.4536585365854  C 19.8962264150943 87.4536585365854  18.5 87.4536585365854  18.5 87.4536585365854  C 18.5 87.4536585365854  16.4056603773585 83.9414634146341  16.4056603773585 83.9414634146341  C 16.4056603773585 83.9414634146341  19.8962264150943 79.7268292682927  19.8962264150943 79.7268292682927  C 19.8962264150943 79.7268292682927  17.1037735849057 78.3219512195122  17.1037735849057 78.3219512195122  C 17.1037735849057 78.3219512195122  15.7075471698113 74.809756097561  15.7075471698113 74.809756097561  C 15.7075471698113 74.809756097561  17.1037735849057 73.4048780487805  17.1037735849057 73.4048780487805  C 17.1037735849057 73.4048780487805  12.2169811320755 67.0829268292683  12.2169811320755 67.0829268292683  C 12.2169811320755 67.0829268292683  12.9150943396226 64.9756097560976  12.9150943396226 64.9756097560976  C 12.9150943396226 64.9756097560976  15.7075471698113 64.9756097560976  15.7075471698113 64.9756097560976  C 15.7075471698113 64.9756097560976  17.1037735849057 63.5707317073171  17.1037735849057 63.5707317073171  C 17.1037735849057 63.5707317073171  17.8018867924528 64.2731707317073  17.8018867924528 64.2731707317073  C 17.8018867924528 64.2731707317073  18.5 61.4634146341463  18.5 61.4634146341463  C 18.5 61.4634146341463  19.8962264150943 62.1658536585366  19.8962264150943 62.1658536585366  C 19.8962264150943 62.1658536585366  19.1981132075472 59.3560975609756  19.1981132075472 59.3560975609756  C 19.1981132075472 59.3560975609756  17.8018867924528 57.2487804878049  17.8018867924528 57.2487804878049  C 17.8018867924528 57.2487804878049  12.9150943396226 57.2487804878049  12.9150943396226 57.2487804878049  C 12.9150943396226 57.2487804878049  11.5188679245283 55.8439024390244  11.5188679245283 55.8439024390244  C 11.5188679245283 55.8439024390244  10.122641509434 59.3560975609756  10.122641509434 59.3560975609756  C 10.122641509434 59.3560975609756  8.02830188679245 57.2487804878049  8.02830188679245 57.2487804878049  C 8.02830188679245 57.2487804878049  6.63207547169811 53.7365853658537  6.63207547169811 53.7365853658537  C 6.63207547169811 53.7365853658537  5.23584905660377 53.7365853658537  5.23584905660377 53.7365853658537  C 5.23584905660377 53.7365853658537  5.23584905660377 50.9268292682927  5.23584905660377 50.9268292682927  C 5.23584905660377 50.9268292682927  3.83962264150943 50.2243902439024  3.83962264150943 50.2243902439024  C 3.83962264150943 50.2243902439024  4.5377358490566 49.5219512195122  4.5377358490566 49.5219512195122  C 4.5377358490566 49.5219512195122  0.349056603773585 39.6878048780488  0.349056603773585 39.6878048780488  C 0.349056603773585 39.6878048780488  0.349056603773585 34.0682926829268  0.349056603773585 34.0682926829268  C 0.349056603773585 34.0682926829268  2.44339622641509 31.2585365853659  2.44339622641509 31.2585365853659  C 2.44339622641509 31.2585365853659  2.44339622641509 29.1512195121951  2.44339622641509 29.1512195121951  C 2.44339622641509 29.1512195121951  4.5377358490566 29.1512195121951  4.5377358490566 29.1512195121951  C 4.5377358490566 29.1512195121951  3.14150943396226 26.3414634146341  3.14150943396226 26.3414634146341  C 3.14150943396226 26.3414634146341  1.74528301886792 26.3414634146341  1.74528301886792 26.3414634146341  C 1.74528301886792 26.3414634146341  3.83962264150943 22.8292682926829  3.83962264150943 22.8292682926829  C 3.83962264150943 22.8292682926829  5.93396226415094 22.1268292682927  5.93396226415094 22.1268292682927  C 5.93396226415094 22.1268292682927  3.83962264150943 20.7219512195122  3.83962264150943 20.7219512195122  C 3.83962264150943 20.7219512195122  4.5377358490566 19.3170731707317  4.5377358490566 19.3170731707317  C 4.5377358490566 19.3170731707317  3.83962264150943 17.209756097561  3.83962264150943 17.209756097561  C 3.83962264150943 17.209756097561  2.44339622641509 16.5073170731707  2.44339622641509 16.5073170731707  C 2.44339622641509 16.5073170731707  5.23584905660377 12.9951219512195  5.23584905660377 12.9951219512195  C 5.23584905660377 12.9951219512195  4.5377358490566 11.590243902439  4.5377358490566 11.590243902439  C 4.5377358490566 11.590243902439  6.63207547169811 6.67317073170732  6.63207547169811 6.67317073170732  C 6.63207547169811 6.67317073170732  7.33018867924528 5.97073170731707  7.33018867924528 5.97073170731707  C 7.33018867924528 5.97073170731707  10.122641509434 8.0780487804878  10.122641509434 8.0780487804878  C 10.122641509434 8.0780487804878  10.122641509434 5.97073170731707  10.122641509434 5.97073170731707  C 10.122641509434 5.97073170731707  12.2169811320755 4.56585365853659  12.2169811320755 4.56585365853659  C 12.2169811320755 4.56585365853659  11.5188679245283 3.1609756097561  11.5188679245283 3.1609756097561  C 11.5188679245283 3.1609756097561  13.6132075471698 1.05365853658537  13.6132075471698 1.05365853658537  C 13.6132075471698 1.05365853658537  16.4056603773585 0.351219512195122  16.4056603773585 0.351219512195122  C 16.4056603773585 0.351219512195122  18.5 2.45853658536585  18.5 2.45853658536585  C 18.5 2.45853658536585  19.1981132075472 1.05365853658537  19.1981132075472 1.05365853658537  C 19.1981132075472 1.05365853658537  19.1981132075472 8.0780487804878  19.1981132075472 8.0780487804878  C 19.1981132075472 8.0780487804878  20.5943396226415 8.0780487804878  20.5943396226415 8.0780487804878  C 20.5943396226415 8.0780487804878  19.8962264150943 12.2926829268293  19.8962264150943 12.2926829268293  C 19.8962264150943 12.2926829268293  21.2924528301887 10.8878048780488  21.2924528301887 10.8878048780488  C 21.2924528301887 10.8878048780488  24.7830188679245 12.9951219512195  24.7830188679245 12.9951219512195  C 24.7830188679245 12.9951219512195  27.5754716981132 12.9951219512195  27.5754716981132 12.9951219512195  C 27.5754716981132 12.9951219512195  28.9716981132075 9.48292682926829  28.9716981132075 9.48292682926829  C 28.9716981132075 9.48292682926829  30.3679245283019 9.48292682926829  30.3679245283019 9.48292682926829  C 30.3679245283019 9.48292682926829  38.0471698113208 4.56585365853659  38.0471698113208 4.56585365853659  C 38.0471698113208 4.56585365853659  39.4433962264151 5.26829268292683  39.4433962264151 5.26829268292683  C 39.4433962264151 5.26829268292683  38.7452830188679 7.37560975609756  38.7452830188679 7.37560975609756  C 38.7452830188679 7.37560975609756  40.1415094339623 10.1853658536585  40.1415094339623 10.1853658536585  C 40.1415094339623 10.1853658536585  40.8396226415094 8.78048780487805  40.8396226415094 8.78048780487805  C 40.8396226415094 8.78048780487805  42.9339622641509 9.48292682926829  42.9339622641509 9.48292682926829  C 42.9339622641509 9.48292682926829  43.6320754716981 10.8878048780488  43.6320754716981 10.8878048780488  C 43.6320754716981 10.8878048780488  45.0283018867925 10.1853658536585  45.0283018867925 10.1853658536585  C 45.0283018867925 10.1853658536585  47.122641509434 11.590243902439  47.122641509434 11.590243902439  C 47.122641509434 11.590243902439  48.5188679245283 10.1853658536585  48.5188679245283 10.1853658536585  Z " fill-rule="nonzero" fill="#8080ff" stroke="none" transform="matrix(1 0 0 1 289 326 )" />
    <path d="M 48.5188679245283 10.1853658536585  C 48.5188679245283 10.1853658536585  49.2169811320755 10.1853658536585  49.2169811320755 10.1853658536585  C 49.2169811320755 10.1853658536585  49.2169811320755 11.590243902439  49.2169811320755 11.590243902439  C 49.2169811320755 11.590243902439  51.311320754717 13.6975609756098  51.311320754717 13.6975609756098  C 51.311320754717 13.6975609756098  51.311320754717 16.5073170731707  51.311320754717 16.5073170731707  C 51.311320754717 16.5073170731707  47.122641509434 20.7219512195122  47.122641509434 20.7219512195122  C 47.122641509434 20.7219512195122  45.0283018867925 25.6390243902439  45.0283018867925 25.6390243902439  C 45.0283018867925 25.6390243902439  42.2358490566038 27.7463414634146  42.2358490566038 27.7463414634146  C 42.2358490566038 27.7463414634146  39.4433962264151 34.7707317073171  39.4433962264151 34.7707317073171  C 39.4433962264151 34.7707317073171  42.9339622641509 37.580487804878  42.9339622641509 37.580487804878  C 42.9339622641509 37.580487804878  40.1415094339623 40.390243902439  40.1415094339623 40.390243902439  C 40.1415094339623 40.390243902439  40.8396226415094 43.2  40.8396226415094 43.2  C 40.8396226415094 43.2  42.9339622641509 45.3073170731707  42.9339622641509 45.3073170731707  C 42.9339622641509 45.3073170731707  40.8396226415094 46.7121951219512  40.8396226415094 46.7121951219512  C 40.8396226415094 46.7121951219512  42.2358490566038 49.5219512195122  42.2358490566038 49.5219512195122  C 42.2358490566038 49.5219512195122  43.6320754716981 48.819512195122  43.6320754716981 48.819512195122  C 43.6320754716981 48.819512195122  45.7264150943396 50.2243902439024  45.7264150943396 50.2243902439024  C 45.7264150943396 50.2243902439024  58.2924528301887 46.7121951219512  58.2924528301887 46.7121951219512  C 58.2924528301887 46.7121951219512  56.8962264150943 52.3317073170732  56.8962264150943 52.3317073170732  C 56.8962264150943 52.3317073170732  58.2924528301887 53.0341463414634  58.2924528301887 53.0341463414634  C 58.2924528301887 53.0341463414634  56.8962264150943 57.2487804878049  56.8962264150943 57.2487804878049  C 56.8962264150943 57.2487804878049  52.0094339622642 64.2731707317073  52.0094339622642 64.2731707317073  C 52.0094339622642 64.2731707317073  52.0094339622642 67.0829268292683  52.0094339622642 67.0829268292683  C 52.0094339622642 67.0829268292683  54.1037735849057 67.0829268292683  54.1037735849057 67.0829268292683  C 54.1037735849057 67.0829268292683  54.8018867924528 70.5951219512195  54.8018867924528 70.5951219512195  C 54.8018867924528 70.5951219512195  59.688679245283 77.619512195122  59.688679245283 77.619512195122  C 59.688679245283 77.619512195122  61.7830188679245 78.3219512195122  61.7830188679245 78.3219512195122  C 61.7830188679245 78.3219512195122  59.688679245283 81.8341463414634  59.688679245283 81.8341463414634  C 59.688679245283 81.8341463414634  59.688679245283 84.6439024390244  59.688679245283 84.6439024390244  C 59.688679245283 84.6439024390244  58.2924528301887 84.6439024390244  58.2924528301887 84.6439024390244  C 58.2924528301887 84.6439024390244  56.1981132075472 88.8585365853659  56.1981132075472 88.8585365853659  C 56.1981132075472 88.8585365853659  57.5943396226415 98.6926829268293  57.5943396226415 98.6926829268293  C 57.5943396226415 98.6926829268293  62.4811320754717 102.907317073171  62.4811320754717 102.907317073171  C 62.4811320754717 102.907317073171  65.2735849056604 102.20487804878  65.2735849056604 102.20487804878  C 65.2735849056604 102.20487804878  70.1603773584906 105.014634146341  70.1603773584906 105.014634146341  C 70.1603773584906 105.014634146341  72.9528301886792 105.014634146341  72.9528301886792 105.014634146341  C 72.9528301886792 105.014634146341  70.8584905660377 112.039024390244  70.8584905660377 112.039024390244  C 70.8584905660377 112.039024390244  73.6509433962264 112.039024390244  73.6509433962264 112.039024390244  C 73.6509433962264 112.039024390244  71.5566037735849 114.848780487805  71.5566037735849 114.848780487805  C 71.5566037735849 114.848780487805  71.5566037735849 117.658536585366  71.5566037735849 117.658536585366  C 71.5566037735849 117.658536585366  70.8584905660377 116.956097560976  70.8584905660377 116.956097560976  C 70.8584905660377 116.956097560976  68.0660377358491 119.765853658537  68.0660377358491 119.765853658537  C 68.0660377358491 119.765853658537  69.4622641509434 122.575609756098  69.4622641509434 122.575609756098  C 69.4622641509434 122.575609756098  67.3679245283019 126.087804878049  67.3679245283019 126.087804878049  C 67.3679245283019 126.087804878049  68.0660377358491 127.492682926829  68.0660377358491 127.492682926829  C 68.0660377358491 127.492682926829  55.5 140.136585365854  55.5 140.136585365854  C 55.5 140.136585365854  54.1037735849057 140.136585365854  54.1037735849057 140.136585365854  C 54.1037735849057 140.136585365854  53.4056603773585 138.731707317073  53.4056603773585 138.731707317073  C 53.4056603773585 138.731707317073  52.7075471698113 141.541463414634  52.7075471698113 141.541463414634  C 52.7075471698113 141.541463414634  50.6132075471698 143.648780487805  50.6132075471698 143.648780487805  C 50.6132075471698 143.648780487805  47.8207547169811 141.541463414634  47.8207547169811 141.541463414634  C 47.8207547169811 141.541463414634  47.122641509434 139.434146341463  47.122641509434 139.434146341463  C 47.122641509434 139.434146341463  47.122641509434 137.326829268293  47.122641509434 137.326829268293  C 47.122641509434 137.326829268293  49.9150943396226 135.219512195122  49.9150943396226 135.219512195122  C 49.9150943396226 135.219512195122  49.2169811320755 130.30243902439  49.2169811320755 130.30243902439  C 49.2169811320755 130.30243902439  45.7264150943396 128.89756097561  45.7264150943396 128.89756097561  C 45.7264150943396 128.89756097561  44.3301886792453 126.790243902439  44.3301886792453 126.790243902439  C 44.3301886792453 126.790243902439  43.6320754716981 127.492682926829  43.6320754716981 127.492682926829  C 43.6320754716981 127.492682926829  42.2358490566038 126.087804878049  42.2358490566038 126.087804878049  C 42.2358490566038 126.087804878049  42.2358490566038 123.980487804878  42.2358490566038 123.980487804878  C 42.2358490566038 123.980487804878  40.8396226415094 123.278048780488  40.8396226415094 123.278048780488  C 40.8396226415094 123.278048780488  40.8396226415094 109.931707317073  40.8396226415094 109.931707317073  C 40.8396226415094 109.931707317073  38.0471698113208 107.121951219512  38.0471698113208 107.121951219512  C 38.0471698113208 107.121951219512  38.7452830188679 105.014634146341  38.7452830188679 105.014634146341  C 38.7452830188679 105.014634146341  35.2547169811321 103.609756097561  35.2547169811321 103.609756097561  C 35.2547169811321 103.609756097561  32.4622641509434 106.419512195122  32.4622641509434 106.419512195122  C 32.4622641509434 106.419512195122  29.6698113207547 106.419512195122  29.6698113207547 106.419512195122  C 29.6698113207547 106.419512195122  27.5754716981132 103.609756097561  27.5754716981132 103.609756097561  C 27.5754716981132 103.609756097561  28.9716981132075 101.50243902439  28.9716981132075 101.50243902439  C 28.9716981132075 101.50243902439  26.1792452830189 96.5853658536585  26.1792452830189 96.5853658536585  C 26.1792452830189 96.5853658536585  28.2735849056604 94.4780487804878  28.2735849056604 94.4780487804878  C 28.2735849056604 94.4780487804878  28.2735849056604 90.2634146341463  28.2735849056604 90.2634146341463  C 28.2735849056604 90.2634146341463  26.877358490566 88.8585365853659  26.877358490566 88.8585365853659  C 26.877358490566 88.8585365853659  23.3867924528302 88.1560975609756  23.3867924528302 88.1560975609756  C 23.3867924528302 88.1560975609756  21.2924528301887 90.9658536585366  21.2924528301887 90.9658536585366  C 21.2924528301887 90.9658536585366  19.8962264150943 90.9658536585366  19.8962264150943 90.9658536585366  C 19.8962264150943 90.9658536585366  19.8962264150943 87.4536585365854  19.8962264150943 87.4536585365854  C 19.8962264150943 87.4536585365854  18.5 87.4536585365854  18.5 87.4536585365854  C 18.5 87.4536585365854  16.4056603773585 83.9414634146341  16.4056603773585 83.9414634146341  C 16.4056603773585 83.9414634146341  19.8962264150943 79.7268292682927  19.8962264150943 79.7268292682927  C 19.8962264150943 79.7268292682927  17.1037735849057 78.3219512195122  17.1037735849057 78.3219512195122  C 17.1037735849057 78.3219512195122  15.7075471698113 74.809756097561  15.7075471698113 74.809756097561  C 15.7075471698113 74.809756097561  17.1037735849057 73.4048780487805  17.1037735849057 73.4048780487805  C 17.1037735849057 73.4048780487805  12.2169811320755 67.0829268292683  12.2169811320755 67.0829268292683  C 12.2169811320755 67.0829268292683  12.9150943396226 64.9756097560976  12.9150943396226 64.9756097560976  C 12.9150943396226 64.9756097560976  15.7075471698113 64.9756097560976  15.7075471698113 64.9756097560976  C 15.7075471698113 64.9756097560976  17.1037735849057 63.5707317073171  17.1037735849057 63.5707317073171  C 17.1037735849057 63.5707317073171  17.8018867924528 64.2731707317073  17.8018867924528 64.2731707317073  C 17.8018867924528 64.2731707317073  18.5 61.4634146341463  18.5 61.4634146341463  C 18.5 61.4634146341463  19.8962264150943 62.1658536585366  19.8962264150943 62.1658536585366  C 19.8962264150943 62.1658536585366  19.1981132075472 59.3560975609756  19.1981132075472 59.3560975609756  C 19.1981132075472 59.3560975609756  17.8018867924528 57.2487804878049  17.8018867924528 57.2487804878049  C 17.8018867924528 57.2487804878049  12.9150943396226 57.2487804878049  12.9150943396226 57.2487804878049  C 12.9150943396226 57.2487804878049  11.5188679245283 55.8439024390244  11.5188679245283 55.8439024390244  C 11.5188679245283 55.8439024390244  10.122641509434 59.3560975609756  10.122641509434 59.3560975609756  C 10.122641509434 59.3560975609756  8.02830188679245 57.2487804878049  8.02830188679245 57.2487804878049  C 8.02830188679245 57.2487804878049  6.63207547169811 53.7365853658537  6.63207547169811 53.7365853658537  C 6.63207547169811 53.7365853658537  5.23584905660377 53.7365853658537  5.23584905660377 53.7365853658537  C 5.23584905660377 53.7365853658537  5.23584905660377 50.9268292682927  5.23584905660377 50.9268292682927  C 5.23584905660377 50.9268292682927  3.83962264150943 50.2243902439024  3.83962264150943 50.2243902439024  C 3.83962264150943 50.2243902439024  4.5377358490566 49.5219512195122  4.5377358490566 49.5219512195122  C 4.5377358490566 49.5219512195122  0.349056603773585 39.6878048780488  0.349056603773585 39.6878048780488  C 0.349056603773585 39.6878048780488  0.349056603773585 34.0682926829268  0.349056603773585 34.0682926829268  C 0.349056603773585 34.0682926829268  2.44339622641509 31.2585365853659  2.44339622641509 31.2585365853659  C 2.44339622641509 31.2585365853659  2.44339622641509 29.1512195121951  2.44339622641509 29.1512195121951  C 2.44339622641509 29.1512195121951  4.5377358490566 29.1512195121951  4.5377358490566 29.1512195121951  C 4.5377358490566 29.1512195121951  3.14150943396226 26.3414634146341  3.14150943396226 26.3414634146341  C 3.14150943396226 26.3414634146341  1.74528301886792 26.3414634146341  1.74528301886792 26.3414634146341  C 1.74528301886792 26.3414634146341  3.83962264150943 22.8292682926829  3.83962264150943 22.8292682926829  C 3.83962264150943 22.8292682926829  5.93396226415094 22.1268292682927  5.93396226415094 22.1268292682927  C 5.93396226415094 22.1268292682927  3.83962264150943 20.7219512195122  3.83962264150943 20.7219512195122  C 3.83962264150943 20.7219512195122  4.5377358490566 19.3170731707317  4.5377358490566 19.3170731707317  C 4.5377358490566 19.3170731707317  3.83962264150943 17.209756097561  3.83962264150943 17.209756097561  C 3.83962264150943 17.209756097561  2.44339622641509 16.5073170731707  2.44339622641509 16.5073170731707  C 2.44339622641509 16.5073170731707  5.23584905660377 12.9951219512195  5.23584905660377 12.9951219512195  C 5.23584905660377 12.9951219512195  4.5377358490566 11.590243902439  4.5377358490566 11.590243902439  C 4.5377358490566 11.590243902439  6.63207547169811 6.67317073170732  6.63207547169811 6.67317073170732  C 6.63207547169811 6.67317073170732  7.33018867924528 5.97073170731707  7.33018867924528 5.97073170731707  C 7.33018867924528 5.97073170731707  10.122641509434 8.0780487804878  10.122641509434 8.0780487804878  C 10.122641509434 8.0780487804878  10.122641509434 5.97073170731707  10.122641509434 5.97073170731707  C 10.122641509434 5.97073170731707  12.2169811320755 4.56585365853659  12.2169811320755 4.56585365853659  C 12.2169811320755 4.56585365853659  11.5188679245283 3.1609756097561  11.5188679245283 3.1609756097561  C 11.5188679245283 3.1609756097561  13.6132075471698 1.05365853658537  13.6132075471698 1.05365853658537  C 13.6132075471698 1.05365853658537  16.4056603773585 0.351219512195122  16.4056603773585 0.351219512195122  C 16.4056603773585 0.351219512195122  18.5 2.45853658536585  18.5 2.45853658536585  C 18.5 2.45853658536585  19.1981132075472 1.05365853658537  19.1981132075472 1.05365853658537  C 19.1981132075472 1.05365853658537  19.1981132075472 8.0780487804878  19.1981132075472 8.0780487804878  C 19.1981132075472 8.0780487804878  20.5943396226415 8.0780487804878  20.5943396226415 8.0780487804878  C 20.5943396226415 8.0780487804878  19.8962264150943 12.2926829268293  19.8962264150943 12.2926829268293  C 19.8962264150943 12.2926829268293  21.2924528301887 10.8878048780488  21.2924528301887 10.8878048780488  C 21.2924528301887 10.8878048780488  24.7830188679245 12.9951219512195  24.7830188679245 12.9951219512195  C 24.7830188679245 12.9951219512195  27.5754716981132 12.9951219512195  27.5754716981132 12.9951219512195  C 27.5754716981132 12.9951219512195  28.9716981132075 9.48292682926829  28.9716981132075 9.48292682926829  C 28.9716981132075 9.48292682926829  30.3679245283019 9.48292682926829  30.3679245283019 9.48292682926829  C 30.3679245283019 9.48292682926829  38.0471698113208 4.56585365853659  38.0471698113208 4.56585365853659  C 38.0471698113208 4.56585365853659  39.4433962264151 5.26829268292683  39.4433962264151 5.26829268292683  C 39.4433962264151 5.26829268292683  38.7452830188679 7.37560975609756  38.7452830188679 7.37560975609756  C 38.7452830188679 7.37560975609756  40.1415094339623 10.1853658536585  40.1415094339623 10.1853658536585  C 40.1415094339623 10.1853658536585  40.8396226415094 8.78048780487805  40.8396226415094 8.78048780487805  C 40.8396226415094 8.78048780487805  42.9339622641509 9.48292682926829  42.9339622641509 9.48292682926829  C 42.9339622641509 9.48292682926829  43.6320754716981 10.8878048780488  43.6320754716981 10.8878048780488  C 43.6320754716981 10.8878048780488  45.0283018867925 10.1853658536585  45.0283018867925 10.1853658536585  C 45.0283018867925 10.1853658536585  47.122641509434 11.590243902439  47.122641509434 11.590243902439  C 47.122641509434 11.590243902439  48.5188679245283 10.1853658536585  48.5188679245283 10.1853658536585  Z " stroke-width="2" stroke-dasharray="1,1" stroke="#999999" fill="none" transform="matrix(1 0 0 1 289 326 )" mask="url(#clip737)" />
  </g>
</svg>