<?xml version="1.0" encoding="utf-8"?>
<svg version="1.1" xmlns:xlink="http://www.w3.org/1999/xlink" width="72px" height="54px" xmlns="http://www.w3.org/2000/svg">
  <defs>
    <mask fill="white" id="clip738">
      <path d="M 1.76470588235294 14.3766233766234  C 1.76470588235294 14.3766233766234  0.352941176470588 12.2727272727273  0.352941176470588 12.2727272727273  C 0.352941176470588 12.2727272727273  3.88235294117647 11.5714285714286  3.88235294117647 11.5714285714286  C 3.88235294117647 11.5714285714286  8.11764705882353 12.974025974026  8.11764705882353 12.974025974026  C 8.11764705882353 12.974025974026  10.2352941176471 12.2727272727273  10.2352941176471 12.2727272727273  C 10.2352941176471 12.2727272727273  15.1764705882353 7.36363636363636  15.1764705882353 7.36363636363636  C 15.1764705882353 7.36363636363636  17.2941176470588 8.76623376623377  17.2941176470588 8.76623376623377  C 17.2941176470588 8.76623376623377  20.1176470588235 7.36363636363636  20.1176470588235 7.36363636363636  C 20.1176470588235 7.36363636363636  20.8235294117647 8.76623376623377  20.8235294117647 8.76623376623377  C 20.8235294117647 8.76623376623377  26.4705882352941 8.06493506493506  26.4705882352941 8.06493506493506  C 26.4705882352941 8.06493506493506  27.8823529411765 1.75324675324675  27.8823529411765 1.75324675324675  C 27.8823529411765 1.75324675324675  30.7058823529412 1.05194805194805  30.7058823529412 1.05194805194805  C 30.7058823529412 1.05194805194805  36.3529411764706 7.36363636363636  36.3529411764706 7.36363636363636  C 36.3529411764706 7.36363636363636  37.7647058823529 6.66233766233766  37.7647058823529 6.66233766233766  C 37.7647058823529 6.66233766233766  39.8823529411765 8.76623376623377  39.8823529411765 8.76623376623377  C 39.8823529411765 8.76623376623377  40.5882352941176 12.974025974026  40.5882352941176 12.974025974026  C 40.5882352941176 12.974025974026  43.4117647058823 14.3766233766234  43.4117647058823 14.3766233766234  C 43.4117647058823 14.3766233766234  43.4117647058823 9.46753246753247  43.4117647058823 9.46753246753247  C 43.4117647058823 9.46753246753247  48.3529411764706 11.5714285714286  48.3529411764706 11.5714285714286  C 48.3529411764706 11.5714285714286  50.4705882352941 8.06493506493506  50.4705882352941 8.06493506493506  C 50.4705882352941 8.06493506493506  51.1764705882353 3.15584415584416  51.1764705882353 3.15584415584416  C 51.1764705882353 3.15584415584416  53.2941176470588 3.15584415584416  53.2941176470588 3.15584415584416  C 53.2941176470588 3.15584415584416  51.1764705882353 1.05194805194805  51.1764705882353 1.05194805194805  C 51.1764705882353 1.05194805194805  51.8823529411765 0.350649350649351  51.8823529411765 0.350649350649351  C 51.8823529411765 0.350649350649351  54 0.350649350649351  54 0.350649350649351  C 54 0.350649350649351  54.7058823529412 3.85714285714286  54.7058823529412 3.85714285714286  C 54.7058823529412 3.85714285714286  56.1176470588235 3.85714285714286  56.1176470588235 3.85714285714286  C 56.1176470588235 3.85714285714286  56.8235294117647 6.66233766233766  56.8235294117647 6.66233766233766  C 56.8235294117647 6.66233766233766  58.9411764705882 5.96103896103896  58.9411764705882 5.96103896103896  C 58.9411764705882 5.96103896103896  58.2352941176471 7.36363636363636  58.2352941176471 7.36363636363636  C 58.2352941176471 7.36363636363636  61.0588235294118 7.36363636363636  61.0588235294118 7.36363636363636  C 61.0588235294118 7.36363636363636  61.0588235294118 4.55844155844156  61.0588235294118 4.55844155844156  C 61.0588235294118 4.55844155844156  62.4705882352941 4.55844155844156  62.4705882352941 4.55844155844156  C 62.4705882352941 4.55844155844156  66 8.06493506493506  66 8.06493506493506  C 66 8.06493506493506  67.4117647058823 7.36363636363636  67.4117647058823 7.36363636363636  C 67.4117647058823 7.36363636363636  68.1176470588235 5.25974025974026  68.1176470588235 5.25974025974026  C 68.1176470588235 5.25974025974026  70.2352941176471 4.55844155844156  70.2352941176471 4.55844155844156  C 70.2352941176471 4.55844155844156  71.6470588235294 5.96103896103896  71.6470588235294 5.96103896103896  C 71.6470588235294 5.96103896103896  70.2352941176471 7.36363636363636  70.2352941176471 7.36363636363636  C 70.2352941176471 7.36363636363636  70.9411764705882 9.46753246753247  70.9411764705882 9.46753246753247  C 70.9411764705882 9.46753246753247  68.1176470588235 15.0779220779221  68.1176470588235 15.0779220779221  C 68.1176470588235 15.0779220779221  68.8235294117647 16.4805194805195  68.8235294117647 16.4805194805195  C 68.8235294117647 16.4805194805195  66 19.2857142857143  66 19.2857142857143  C 66 19.2857142857143  68.1176470588235 22.0909090909091  68.1176470588235 22.0909090909091  C 68.1176470588235 22.0909090909091  67.4117647058823 23.4935064935065  67.4117647058823 23.4935064935065  C 67.4117647058823 23.4935064935065  69.5294117647059 25.5974025974026  69.5294117647059 25.5974025974026  C 69.5294117647059 25.5974025974026  67.4117647058823 26.2987012987013  67.4117647058823 26.2987012987013  C 67.4117647058823 26.2987012987013  65.2941176470588 29.8051948051948  65.2941176470588 29.8051948051948  C 65.2941176470588 29.8051948051948  68.1176470588235 32.6103896103896  68.1176470588235 32.6103896103896  C 68.1176470588235 32.6103896103896  65.2941176470588 34.012987012987  65.2941176470588 34.012987012987  C 65.2941176470588 34.012987012987  66 35.4155844155844  66 35.4155844155844  C 66 35.4155844155844  63.8823529411765 37.5194805194805  63.8823529411765 37.5194805194805  C 63.8823529411765 37.5194805194805  63.8823529411765 43.8311688311688  63.8823529411765 43.8311688311688  C 63.8823529411765 43.8311688311688  65.2941176470588 45.9350649350649  65.2941176470588 45.9350649350649  C 65.2941176470588 45.9350649350649  60.3529411764706 48.7402597402597  60.3529411764706 48.7402597402597  C 60.3529411764706 48.7402597402597  60.3529411764706 52.9480519480519  60.3529411764706 52.9480519480519  C 60.3529411764706 52.9480519480519  59.6470588235294 52.2467532467533  59.6470588235294 52.2467532467533  C 59.6470588235294 52.2467532467533  52.5882352941176 53.6493506493507  52.5882352941176 53.6493506493507  C 52.5882352941176 53.6493506493507  53.2941176470588 52.9480519480519  53.2941176470588 52.9480519480519  C 53.2941176470588 52.9480519480519  51.1764705882353 51.5454545454545  51.1764705882353 51.5454545454545  C 51.1764705882353 51.5454545454545  50.4705882352941 49.4415584415584  50.4705882352941 49.4415584415584  C 50.4705882352941 49.4415584415584  45.5294117647059 49.4415584415584  45.5294117647059 49.4415584415584  C 45.5294117647059 49.4415584415584  44.8235294117647 45.2337662337662  44.8235294117647 45.2337662337662  C 44.8235294117647 45.2337662337662  44.1176470588235 45.9350649350649  44.1176470588235 45.9350649350649  C 44.1176470588235 45.9350649350649  42.7058823529412 44.5324675324675  42.7058823529412 44.5324675324675  C 42.7058823529412 44.5324675324675  40.5882352941176 44.5324675324675  40.5882352941176 44.5324675324675  C 40.5882352941176 44.5324675324675  39.1764705882353 45.2337662337662  39.1764705882353 45.2337662337662  C 39.1764705882353 45.2337662337662  38.4705882352941 47.3376623376623  38.4705882352941 47.3376623376623  C 38.4705882352941 47.3376623376623  37.7647058823529 46.6363636363636  37.7647058823529 46.6363636363636  C 37.7647058823529 46.6363636363636  36.3529411764706 48.038961038961  36.3529411764706 48.038961038961  C 36.3529411764706 48.038961038961  31.4117647058824 45.9350649350649  31.4117647058824 45.9350649350649  C 31.4117647058824 45.9350649350649  27.8823529411765 40.3246753246753  27.8823529411765 40.3246753246753  C 27.8823529411765 40.3246753246753  26.4705882352941 40.3246753246753  26.4705882352941 40.3246753246753  C 26.4705882352941 40.3246753246753  26.4705882352941 41.7272727272727  26.4705882352941 41.7272727272727  C 26.4705882352941 41.7272727272727  24.3529411764706 43.8311688311688  24.3529411764706 43.8311688311688  C 24.3529411764706 43.8311688311688  22.2352941176471 42.4285714285714  22.2352941176471 42.4285714285714  C 22.2352941176471 42.4285714285714  20.1176470588235 43.1298701298701  20.1176470588235 43.1298701298701  C 20.1176470588235 43.1298701298701  22.2352941176471 34.7142857142857  22.2352941176471 34.7142857142857  C 22.2352941176471 34.7142857142857  18.7058823529412 32.6103896103896  18.7058823529412 32.6103896103896  C 18.7058823529412 32.6103896103896  21.5294117647059 29.8051948051948  21.5294117647059 29.8051948051948  C 21.5294117647059 29.8051948051948  19.4117647058824 27.7012987012987  19.4117647058824 27.7012987012987  C 19.4117647058824 27.7012987012987  16.5882352941176 27.7012987012987  16.5882352941176 27.7012987012987  C 16.5882352941176 27.7012987012987  13.7647058823529 31.2077922077922  13.7647058823529 31.2077922077922  C 13.7647058823529 31.2077922077922  5.29411764705882 31.2077922077922  5.29411764705882 31.2077922077922  C 5.29411764705882 31.2077922077922  5.29411764705882 29.8051948051948  5.29411764705882 29.8051948051948  C 5.29411764705882 29.8051948051948  3.88235294117647 29.8051948051948  3.88235294117647 29.8051948051948  C 3.88235294117647 29.8051948051948  3.88235294117647 26.2987012987013  3.88235294117647 26.2987012987013  C 3.88235294117647 26.2987012987013  6 26.2987012987013  6 26.2987012987013  C 6 26.2987012987013  6 24.8961038961039  6 24.8961038961039  C 6 24.8961038961039  7.41176470588235 24.8961038961039  7.41176470588235 24.8961038961039  C 7.41176470588235 24.8961038961039  7.41176470588235 26.2987012987013  7.41176470588235 26.2987012987013  C 7.41176470588235 26.2987012987013  8.8235294117647 23.4935064935065  8.8235294117647 23.4935064935065  C 8.8235294117647 23.4935064935065  6.70588235294118 22.7922077922078  6.70588235294118 22.7922077922078  C 6.70588235294118 22.7922077922078  7.41176470588235 19.2857142857143  7.41176470588235 19.2857142857143  C 7.41176470588235 19.2857142857143  5.29411764705882 19.987012987013  5.29411764705882 19.987012987013  C 5.29411764705882 19.987012987013  1.76470588235294 16.4805194805195  1.76470588235294 16.4805194805195  C 1.76470588235294 16.4805194805195  1.76470588235294 14.3766233766234  1.76470588235294 14.3766233766234  Z " fill-rule="evenodd" />
    </mask>
  </defs>
  <g transform="matrix(1 0 0 1 -227 -322 )">
    <path d="M 1.76470588235294 14.3766233766234  C 1.76470588235294 14.3766233766234  0.352941176470588 12.2727272727273  0.352941176470588 12.2727272727273  C 0.352941176470588 12.2727272727273  3.88235294117647 11.5714285714286  3.88235294117647 11.5714285714286  C 3.88235294117647 11.5714285714286  8.11764705882353 12.974025974026  8.11764705882353 12.974025974026  C 8.11764705882353 12.974025974026  10.2352941176471 12.2727272727273  10.2352941176471 12.2727272727273  C 10.2352941176471 12.2727272727273  15.1764705882353 7.36363636363636  15.1764705882353 7.36363636363636  C 15.1764705882353 7.36363636363636  17.2941176470588 8.76623376623377  17.2941176470588 8.76623376623377  C 17.2941176470588 8.76623376623377  20.1176470588235 7.36363636363636  20.1176470588235 7.36363636363636  C 20.1176470588235 7.36363636363636  20.8235294117647 8.76623376623377  20.8235294117647 8.76623376623377  C 20.8235294117647 8.76623376623377  26.4705882352941 8.06493506493506  26.4705882352941 8.06493506493506  C 26.4705882352941 8.06493506493506  27.8823529411765 1.75324675324675  27.8823529411765 1.75324675324675  C 27.8823529411765 1.75324675324675  30.7058823529412 1.05194805194805  30.7058823529412 1.05194805194805  C 30.7058823529412 1.05194805194805  36.3529411764706 7.36363636363636  36.3529411764706 7.36363636363636  C 36.3529411764706 7.36363636363636  37.7647058823529 6.66233766233766  37.7647058823529 6.66233766233766  C 37.7647058823529 6.66233766233766  39.8823529411765 8.76623376623377  39.8823529411765 8.76623376623377  C 39.8823529411765 8.76623376623377  40.5882352941176 12.974025974026  40.5882352941176 12.974025974026  C 40.5882352941176 12.974025974026  43.4117647058823 14.3766233766234  43.4117647058823 14.3766233766234  C 43.4117647058823 14.3766233766234  43.4117647058823 9.46753246753247  43.4117647058823 9.46753246753247  C 43.4117647058823 9.46753246753247  48.3529411764706 11.5714285714286  48.3529411764706 11.5714285714286  C 48.3529411764706 11.5714285714286  50.4705882352941 8.06493506493506  50.4705882352941 8.06493506493506  C 50.4705882352941 8.06493506493506  51.1764705882353 3.15584415584416  51.1764705882353 3.15584415584416  C 51.1764705882353 3.15584415584416  53.2941176470588 3.15584415584416  53.2941176470588 3.15584415584416  C 53.2941176470588 3.15584415584416  51.1764705882353 1.05194805194805  51.1764705882353 1.05194805194805  C 51.1764705882353 1.05194805194805  51.8823529411765 0.350649350649351  51.8823529411765 0.350649350649351  C 51.8823529411765 0.350649350649351  54 0.350649350649351  54 0.350649350649351  C 54 0.350649350649351  54.7058823529412 3.85714285714286  54.7058823529412 3.85714285714286  C 54.7058823529412 3.85714285714286  56.1176470588235 3.85714285714286  56.1176470588235 3.85714285714286  C 56.1176470588235 3.85714285714286  56.8235294117647 6.66233766233766  56.8235294117647 6.66233766233766  C 56.8235294117647 6.66233766233766  58.9411764705882 5.96103896103896  58.9411764705882 5.96103896103896  C 58.9411764705882 5.96103896103896  58.2352941176471 7.36363636363636  58.2352941176471 7.36363636363636  C 58.2352941176471 7.36363636363636  61.0588235294118 7.36363636363636  61.0588235294118 7.36363636363636  C 61.0588235294118 7.36363636363636  61.0588235294118 4.55844155844156  61.0588235294118 4.55844155844156  C 61.0588235294118 4.55844155844156  62.4705882352941 4.55844155844156  62.4705882352941 4.55844155844156  C 62.4705882352941 4.55844155844156  66 8.06493506493506  66 8.06493506493506  C 66 8.06493506493506  67.4117647058823 7.36363636363636  67.4117647058823 7.36363636363636  C 67.4117647058823 7.36363636363636  68.1176470588235 5.25974025974026  68.1176470588235 5.25974025974026  C 68.1176470588235 5.25974025974026  70.2352941176471 4.55844155844156  70.2352941176471 4.55844155844156  C 70.2352941176471 4.55844155844156  71.6470588235294 5.96103896103896  71.6470588235294 5.96103896103896  C 71.6470588235294 5.96103896103896  70.2352941176471 7.36363636363636  70.2352941176471 7.36363636363636  C 70.2352941176471 7.36363636363636  70.9411764705882 9.46753246753247  70.9411764705882 9.46753246753247  C 70.9411764705882 9.46753246753247  68.1176470588235 15.0779220779221  68.1176470588235 15.0779220779221  C 68.1176470588235 15.0779220779221  68.8235294117647 16.4805194805195  68.8235294117647 16.4805194805195  C 68.8235294117647 16.4805194805195  66 19.2857142857143  66 19.2857142857143  C 66 19.2857142857143  68.1176470588235 22.0909090909091  68.1176470588235 22.0909090909091  C 68.1176470588235 22.0909090909091  67.4117647058823 23.4935064935065  67.4117647058823 23.4935064935065  C 67.4117647058823 23.4935064935065  69.5294117647059 25.5974025974026  69.5294117647059 25.5974025974026  C 69.5294117647059 25.5974025974026  67.4117647058823 26.2987012987013  67.4117647058823 26.2987012987013  C 67.4117647058823 26.2987012987013  65.2941176470588 29.8051948051948  65.2941176470588 29.8051948051948  C 65.2941176470588 29.8051948051948  68.1176470588235 32.6103896103896  68.1176470588235 32.6103896103896  C 68.1176470588235 32.6103896103896  65.2941176470588 34.012987012987  65.2941176470588 34.012987012987  C 65.2941176470588 34.012987012987  66 35.4155844155844  66 35.4155844155844  C 66 35.4155844155844  63.8823529411765 37.5194805194805  63.8823529411765 37.5194805194805  C 63.8823529411765 37.5194805194805  63.8823529411765 43.8311688311688  63.8823529411765 43.8311688311688  C 63.8823529411765 43.8311688311688  65.2941176470588 45.9350649350649  65.2941176470588 45.9350649350649  C 65.2941176470588 45.9350649350649  60.3529411764706 48.7402597402597  60.3529411764706 48.7402597402597  C 60.3529411764706 48.7402597402597  60.3529411764706 52.9480519480519  60.3529411764706 52.9480519480519  C 60.3529411764706 52.9480519480519  59.6470588235294 52.2467532467533  59.6470588235294 52.2467532467533  C 59.6470588235294 52.2467532467533  52.5882352941176 53.6493506493507  52.5882352941176 53.6493506493507  C 52.5882352941176 53.6493506493507  53.2941176470588 52.9480519480519  53.2941176470588 52.9480519480519  C 53.2941176470588 52.9480519480519  51.1764705882353 51.5454545454545  51.1764705882353 51.5454545454545  C 51.1764705882353 51.5454545454545  50.4705882352941 49.4415584415584  50.4705882352941 49.4415584415584  C 50.4705882352941 49.4415584415584  45.5294117647059 49.4415584415584  45.5294117647059 49.4415584415584  C 45.5294117647059 49.4415584415584  44.8235294117647 45.2337662337662  44.8235294117647 45.2337662337662  C 44.8235294117647 45.2337662337662  44.1176470588235 45.9350649350649  44.1176470588235 45.9350649350649  C 44.1176470588235 45.9350649350649  42.7058823529412 44.5324675324675  42.7058823529412 44.5324675324675  C 42.7058823529412 44.5324675324675  40.5882352941176 44.5324675324675  40.5882352941176 44.5324675324675  C 40.5882352941176 44.5324675324675  39.1764705882353 45.2337662337662  39.1764705882353 45.2337662337662  C 39.1764705882353 45.2337662337662  38.4705882352941 47.3376623376623  38.4705882352941 47.3376623376623  C 38.4705882352941 47.3376623376623  37.7647058823529 46.6363636363636  37.7647058823529 46.6363636363636  C 37.7647058823529 46.6363636363636  36.3529411764706 48.038961038961  36.3529411764706 48.038961038961  C 36.3529411764706 48.038961038961  31.4117647058824 45.9350649350649  31.4117647058824 45.9350649350649  C 31.4117647058824 45.9350649350649  27.8823529411765 40.3246753246753  27.8823529411765 40.3246753246753  C 27.8823529411765 40.3246753246753  26.4705882352941 40.3246753246753  26.4705882352941 40.3246753246753  C 26.4705882352941 40.3246753246753  26.4705882352941 41.7272727272727  26.4705882352941 41.7272727272727  C 26.4705882352941 41.7272727272727  24.3529411764706 43.8311688311688  24.3529411764706 43.8311688311688  C 24.3529411764706 43.8311688311688  22.2352941176471 42.4285714285714  22.2352941176471 42.4285714285714  C 22.2352941176471 42.4285714285714  20.1176470588235 43.1298701298701  20.1176470588235 43.1298701298701  C 20.1176470588235 43.1298701298701  22.2352941176471 34.7142857142857  22.2352941176471 34.7142857142857  C 22.2352941176471 34.7142857142857  18.7058823529412 32.6103896103896  18.7058823529412 32.6103896103896  C 18.7058823529412 32.6103896103896  21.5294117647059 29.8051948051948  21.5294117647059 29.8051948051948  C 21.5294117647059 29.8051948051948  19.4117647058824 27.7012987012987  19.4117647058824 27.7012987012987  C 19.4117647058824 27.7012987012987  16.5882352941176 27.7012987012987  16.5882352941176 27.7012987012987  C 16.5882352941176 27.7012987012987  13.7647058823529 31.2077922077922  13.7647058823529 31.2077922077922  C 13.7647058823529 31.2077922077922  5.29411764705882 31.2077922077922  5.29411764705882 31.2077922077922  C 5.29411764705882 31.2077922077922  5.29411764705882 29.8051948051948  5.29411764705882 29.8051948051948  C 5.29411764705882 29.8051948051948  3.88235294117647 29.8051948051948  3.88235294117647 29.8051948051948  C 3.88235294117647 29.8051948051948  3.88235294117647 26.2987012987013  3.88235294117647 26.2987012987013  C 3.88235294117647 26.2987012987013  6 26.2987012987013  6 26.2987012987013  C 6 26.2987012987013  6 24.8961038961039  6 24.8961038961039  C 6 24.8961038961039  7.41176470588235 24.8961038961039  7.41176470588235 24.8961038961039  C 7.41176470588235 24.8961038961039  7.41176470588235 26.2987012987013  7.41176470588235 26.2987012987013  C 7.41176470588235 26.2987012987013  8.8235294117647 23.4935064935065  8.8235294117647 23.4935064935065  C 8.8235294117647 23.4935064935065  6.70588235294118 22.7922077922078  6.70588235294118 22.7922077922078  C 6.70588235294118 22.7922077922078  7.41176470588235 19.2857142857143  7.41176470588235 19.2857142857143  C 7.41176470588235 19.2857142857143  5.29411764705882 19.987012987013  5.29411764705882 19.987012987013  C 5.29411764705882 19.987012987013  1.76470588235294 16.4805194805195  1.76470588235294 16.4805194805195  C 1.76470588235294 16.4805194805195  1.76470588235294 14.3766233766234  1.76470588235294 14.3766233766234  Z " fill-rule="nonzero" fill="#95f204" stroke="none" transform="matrix(1 0 0 1 227 322 )" />
    <path d="M 1.76470588235294 14.3766233766234  C 1.76470588235294 14.3766233766234  0.352941176470588 12.2727272727273  0.352941176470588 12.2727272727273  C 0.352941176470588 12.2727272727273  3.88235294117647 11.5714285714286  3.88235294117647 11.5714285714286  C 3.88235294117647 11.5714285714286  8.11764705882353 12.974025974026  8.11764705882353 12.974025974026  C 8.11764705882353 12.974025974026  10.2352941176471 12.2727272727273  10.2352941176471 12.2727272727273  C 10.2352941176471 12.2727272727273  15.1764705882353 7.36363636363636  15.1764705882353 7.36363636363636  C 15.1764705882353 7.36363636363636  17.2941176470588 8.76623376623377  17.2941176470588 8.76623376623377  C 17.2941176470588 8.76623376623377  20.1176470588235 7.36363636363636  20.1176470588235 7.36363636363636  C 20.1176470588235 7.36363636363636  20.8235294117647 8.76623376623377  20.8235294117647 8.76623376623377  C 20.8235294117647 8.76623376623377  26.4705882352941 8.06493506493506  26.4705882352941 8.06493506493506  C 26.4705882352941 8.06493506493506  27.8823529411765 1.75324675324675  27.8823529411765 1.75324675324675  C 27.8823529411765 1.75324675324675  30.7058823529412 1.05194805194805  30.7058823529412 1.05194805194805  C 30.7058823529412 1.05194805194805  36.3529411764706 7.36363636363636  36.3529411764706 7.36363636363636  C 36.3529411764706 7.36363636363636  37.7647058823529 6.66233766233766  37.7647058823529 6.66233766233766  C 37.7647058823529 6.66233766233766  39.8823529411765 8.76623376623377  39.8823529411765 8.76623376623377  C 39.8823529411765 8.76623376623377  40.5882352941176 12.974025974026  40.5882352941176 12.974025974026  C 40.5882352941176 12.974025974026  43.4117647058823 14.3766233766234  43.4117647058823 14.3766233766234  C 43.4117647058823 14.3766233766234  43.4117647058823 9.46753246753247  43.4117647058823 9.46753246753247  C 43.4117647058823 9.46753246753247  48.3529411764706 11.5714285714286  48.3529411764706 11.5714285714286  C 48.3529411764706 11.5714285714286  50.4705882352941 8.06493506493506  50.4705882352941 8.06493506493506  C 50.4705882352941 8.06493506493506  51.1764705882353 3.15584415584416  51.1764705882353 3.15584415584416  C 51.1764705882353 3.15584415584416  53.2941176470588 3.15584415584416  53.2941176470588 3.15584415584416  C 53.2941176470588 3.15584415584416  51.1764705882353 1.05194805194805  51.1764705882353 1.05194805194805  C 51.1764705882353 1.05194805194805  51.8823529411765 0.350649350649351  51.8823529411765 0.350649350649351  C 51.8823529411765 0.350649350649351  54 0.350649350649351  54 0.350649350649351  C 54 0.350649350649351  54.7058823529412 3.85714285714286  54.7058823529412 3.85714285714286  C 54.7058823529412 3.85714285714286  56.1176470588235 3.85714285714286  56.1176470588235 3.85714285714286  C 56.1176470588235 3.85714285714286  56.8235294117647 6.66233766233766  56.8235294117647 6.66233766233766  C 56.8235294117647 6.66233766233766  58.9411764705882 5.96103896103896  58.9411764705882 5.96103896103896  C 58.9411764705882 5.96103896103896  58.2352941176471 7.36363636363636  58.2352941176471 7.36363636363636  C 58.2352941176471 7.36363636363636  61.0588235294118 7.36363636363636  61.0588235294118 7.36363636363636  C 61.0588235294118 7.36363636363636  61.0588235294118 4.55844155844156  61.0588235294118 4.55844155844156  C 61.0588235294118 4.55844155844156  62.4705882352941 4.55844155844156  62.4705882352941 4.55844155844156  C 62.4705882352941 4.55844155844156  66 8.06493506493506  66 8.06493506493506  C 66 8.06493506493506  67.4117647058823 7.36363636363636  67.4117647058823 7.36363636363636  C 67.4117647058823 7.36363636363636  68.1176470588235 5.25974025974026  68.1176470588235 5.25974025974026  C 68.1176470588235 5.25974025974026  70.2352941176471 4.55844155844156  70.2352941176471 4.55844155844156  C 70.2352941176471 4.55844155844156  71.6470588235294 5.96103896103896  71.6470588235294 5.96103896103896  C 71.6470588235294 5.96103896103896  70.2352941176471 7.36363636363636  70.2352941176471 7.36363636363636  C 70.2352941176471 7.36363636363636  70.9411764705882 9.46753246753247  70.9411764705882 9.46753246753247  C 70.9411764705882 9.46753246753247  68.1176470588235 15.0779220779221  68.1176470588235 15.0779220779221  C 68.1176470588235 15.0779220779221  68.8235294117647 16.4805194805195  68.8235294117647 16.4805194805195  C 68.8235294117647 16.4805194805195  66 19.2857142857143  66 19.2857142857143  C 66 19.2857142857143  68.1176470588235 22.0909090909091  68.1176470588235 22.0909090909091  C 68.1176470588235 22.0909090909091  67.4117647058823 23.4935064935065  67.4117647058823 23.4935064935065  C 67.4117647058823 23.4935064935065  69.5294117647059 25.5974025974026  69.5294117647059 25.5974025974026  C 69.5294117647059 25.5974025974026  67.4117647058823 26.2987012987013  67.4117647058823 26.2987012987013  C 67.4117647058823 26.2987012987013  65.2941176470588 29.8051948051948  65.2941176470588 29.8051948051948  C 65.2941176470588 29.8051948051948  68.1176470588235 32.6103896103896  68.1176470588235 32.6103896103896  C 68.1176470588235 32.6103896103896  65.2941176470588 34.012987012987  65.2941176470588 34.012987012987  C 65.2941176470588 34.012987012987  66 35.4155844155844  66 35.4155844155844  C 66 35.4155844155844  63.8823529411765 37.5194805194805  63.8823529411765 37.5194805194805  C 63.8823529411765 37.5194805194805  63.8823529411765 43.8311688311688  63.8823529411765 43.8311688311688  C 63.8823529411765 43.8311688311688  65.2941176470588 45.9350649350649  65.2941176470588 45.9350649350649  C 65.2941176470588 45.9350649350649  60.3529411764706 48.7402597402597  60.3529411764706 48.7402597402597  C 60.3529411764706 48.7402597402597  60.3529411764706 52.9480519480519  60.3529411764706 52.9480519480519  C 60.3529411764706 52.9480519480519  59.6470588235294 52.2467532467533  59.6470588235294 52.2467532467533  C 59.6470588235294 52.2467532467533  52.5882352941176 53.6493506493507  52.5882352941176 53.6493506493507  C 52.5882352941176 53.6493506493507  53.2941176470588 52.9480519480519  53.2941176470588 52.9480519480519  C 53.2941176470588 52.9480519480519  51.1764705882353 51.5454545454545  51.1764705882353 51.5454545454545  C 51.1764705882353 51.5454545454545  50.4705882352941 49.4415584415584  50.4705882352941 49.4415584415584  C 50.4705882352941 49.4415584415584  45.5294117647059 49.4415584415584  45.5294117647059 49.4415584415584  C 45.5294117647059 49.4415584415584  44.8235294117647 45.2337662337662  44.8235294117647 45.2337662337662  C 44.8235294117647 45.2337662337662  44.1176470588235 45.9350649350649  44.1176470588235 45.9350649350649  C 44.1176470588235 45.9350649350649  42.7058823529412 44.5324675324675  42.7058823529412 44.5324675324675  C 42.7058823529412 44.5324675324675  40.5882352941176 44.5324675324675  40.5882352941176 44.5324675324675  C 40.5882352941176 44.5324675324675  39.1764705882353 45.2337662337662  39.1764705882353 45.2337662337662  C 39.1764705882353 45.2337662337662  38.4705882352941 47.3376623376623  38.4705882352941 47.3376623376623  C 38.4705882352941 47.3376623376623  37.7647058823529 46.6363636363636  37.7647058823529 46.6363636363636  C 37.7647058823529 46.6363636363636  36.3529411764706 48.038961038961  36.3529411764706 48.038961038961  C 36.3529411764706 48.038961038961  31.4117647058824 45.9350649350649  31.4117647058824 45.9350649350649  C 31.4117647058824 45.9350649350649  27.8823529411765 40.3246753246753  27.8823529411765 40.3246753246753  C 27.8823529411765 40.3246753246753  26.4705882352941 40.3246753246753  26.4705882352941 40.3246753246753  C 26.4705882352941 40.3246753246753  26.4705882352941 41.7272727272727  26.4705882352941 41.7272727272727  C 26.4705882352941 41.7272727272727  24.3529411764706 43.8311688311688  24.3529411764706 43.8311688311688  C 24.3529411764706 43.8311688311688  22.2352941176471 42.4285714285714  22.2352941176471 42.4285714285714  C 22.2352941176471 42.4285714285714  20.1176470588235 43.1298701298701  20.1176470588235 43.1298701298701  C 20.1176470588235 43.1298701298701  22.2352941176471 34.7142857142857  22.2352941176471 34.7142857142857  C 22.2352941176471 34.7142857142857  18.7058823529412 32.6103896103896  18.7058823529412 32.6103896103896  C 18.7058823529412 32.6103896103896  21.5294117647059 29.8051948051948  21.5294117647059 29.8051948051948  C 21.5294117647059 29.8051948051948  19.4117647058824 27.7012987012987  19.4117647058824 27.7012987012987  C 19.4117647058824 27.7012987012987  16.5882352941176 27.7012987012987  16.5882352941176 27.7012987012987  C 16.5882352941176 27.7012987012987  13.7647058823529 31.2077922077922  13.7647058823529 31.2077922077922  C 13.7647058823529 31.2077922077922  5.29411764705882 31.2077922077922  5.29411764705882 31.2077922077922  C 5.29411764705882 31.2077922077922  5.29411764705882 29.8051948051948  5.29411764705882 29.8051948051948  C 5.29411764705882 29.8051948051948  3.88235294117647 29.8051948051948  3.88235294117647 29.8051948051948  C 3.88235294117647 29.8051948051948  3.88235294117647 26.2987012987013  3.88235294117647 26.2987012987013  C 3.88235294117647 26.2987012987013  6 26.2987012987013  6 26.2987012987013  C 6 26.2987012987013  6 24.8961038961039  6 24.8961038961039  C 6 24.8961038961039  7.41176470588235 24.8961038961039  7.41176470588235 24.8961038961039  C 7.41176470588235 24.8961038961039  7.41176470588235 26.2987012987013  7.41176470588235 26.2987012987013  C 7.41176470588235 26.2987012987013  8.8235294117647 23.4935064935065  8.8235294117647 23.4935064935065  C 8.8235294117647 23.4935064935065  6.70588235294118 22.7922077922078  6.70588235294118 22.7922077922078  C 6.70588235294118 22.7922077922078  7.41176470588235 19.2857142857143  7.41176470588235 19.2857142857143  C 7.41176470588235 19.2857142857143  5.29411764705882 19.987012987013  5.29411764705882 19.987012987013  C 5.29411764705882 19.987012987013  1.76470588235294 16.4805194805195  1.76470588235294 16.4805194805195  C 1.76470588235294 16.4805194805195  1.76470588235294 14.3766233766234  1.76470588235294 14.3766233766234  Z " stroke-width="2" stroke-dasharray="1,1" stroke="#999999" fill="none" transform="matrix(1 0 0 1 227 322 )" mask="url(#clip738)" />
  </g>
</svg>