<?xml version="1.0" encoding="utf-8"?>
<svg version="1.1" xmlns:xlink="http://www.w3.org/1999/xlink" width="79px" height="141px" xmlns="http://www.w3.org/2000/svg">
  <defs>
    <mask fill="white" id="clip750">
      <path d="M 15.7300884955752 139.2375  C 15.7300884955752 139.2375  15.7300884955752 140.6475  15.7300884955752 140.6475  C 15.7300884955752 140.6475  12.2345132743363 140.6475  12.2345132743363 140.6475  C 12.2345132743363 140.6475  12.9336283185841 139.2375  12.9336283185841 139.2375  C 12.9336283185841 139.2375  11.5353982300885 139.2375  11.5353982300885 139.2375  C 11.5353982300885 139.2375  12.2345132743363 137.8275  12.2345132743363 137.8275  C 12.2345132743363 137.8275  10.1371681415929 136.4175  10.1371681415929 136.4175  C 10.1371681415929 136.4175  10.8362831858407 132.1875  10.8362831858407 132.1875  C 10.8362831858407 132.1875  9.43805309734513 130.7775  9.43805309734513 130.7775  C 9.43805309734513 130.7775  10.1371681415929 130.0725  10.1371681415929 130.0725  C 10.1371681415929 130.0725  8.73893805309735 128.6625  8.73893805309735 128.6625  C 8.73893805309735 128.6625  9.43805309734513 127.9575  9.43805309734513 127.9575  C 9.43805309734513 127.9575  8.03982300884956 123.7275  8.03982300884956 123.7275  C 8.03982300884956 123.7275  9.43805309734513 120.9075  9.43805309734513 120.9075  C 9.43805309734513 120.9075  12.2345132743363 120.2025  12.2345132743363 120.2025  C 12.2345132743363 120.2025  12.9336283185841 118.0875  12.9336283185841 118.0875  C 12.9336283185841 118.0875  10.8362831858407 115.9725  10.8362831858407 115.9725  C 10.8362831858407 115.9725  8.73893805309735 118.0875  8.73893805309735 118.0875  C 8.73893805309735 118.0875  8.03982300884956 115.2675  8.03982300884956 115.2675  C 8.03982300884956 115.2675  10.8362831858407 108.2175  10.8362831858407 108.2175  C 10.8362831858407 108.2175  10.1371681415929 106.8075  10.1371681415929 106.8075  C 10.1371681415929 106.8075  13.6327433628319 101.1675  13.6327433628319 101.1675  C 13.6327433628319 101.1675  11.5353982300885 101.1675  11.5353982300885 101.1675  C 11.5353982300885 101.1675  11.5353982300885 99.7575  11.5353982300885 99.7575  C 11.5353982300885 99.7575  10.1371681415929 99.0525  10.1371681415929 99.0525  C 10.1371681415929 99.0525  7.34070796460177 100.4625  7.34070796460177 100.4625  C 7.34070796460177 100.4625  8.03982300884956 99.0525  8.03982300884956 99.0525  C 8.03982300884956 99.0525  5.94247787610619 97.6425  5.94247787610619 97.6425  C 5.94247787610619 97.6425  7.34070796460177 94.1175  7.34070796460177 94.1175  C 7.34070796460177 94.1175  5.24336283185841 91.2975  5.24336283185841 91.2975  C 5.24336283185841 91.2975  5.94247787610619 81.4275  5.94247787610619 81.4275  C 5.94247787610619 81.4275  9.43805309734513 77.9025  9.43805309734513 77.9025  C 9.43805309734513 77.9025  8.03982300884956 75.0825  8.03982300884956 75.0825  C 8.03982300884956 75.0825  5.24336283185841 76.4925  5.24336283185841 76.4925  C 5.24336283185841 76.4925  3.84513274336283 75.0825  3.84513274336283 75.0825  C 3.84513274336283 75.0825  1.74778761061947 77.1975  1.74778761061947 77.1975  C 1.74778761061947 77.1975  0.349557522123894 75.7875  0.349557522123894 75.7875  C 0.349557522123894 75.7875  1.74778761061947 73.6725  1.74778761061947 73.6725  C 1.74778761061947 73.6725  5.94247787610619 71.5575  5.94247787610619 71.5575  C 5.94247787610619 71.5575  4.54424778761062 69.4425  4.54424778761062 69.4425  C 4.54424778761062 69.4425  8.03982300884956 65.9175  8.03982300884956 65.9175  C 8.03982300884956 65.9175  3.84513274336283 63.0975  3.84513274336283 63.0975  C 3.84513274336283 63.0975  3.84513274336283 55.3425  3.84513274336283 55.3425  C 3.84513274336283 55.3425  5.24336283185841 53.2275  5.24336283185841 53.2275  C 5.24336283185841 53.2275  5.24336283185841 50.4075  5.24336283185841 50.4075  C 5.24336283185841 50.4075  7.34070796460177 47.5875  7.34070796460177 47.5875  C 7.34070796460177 47.5875  7.34070796460177 45.4725  7.34070796460177 45.4725  C 7.34070796460177 45.4725  9.43805309734513 43.3575  9.43805309734513 43.3575  C 9.43805309734513 43.3575  8.03982300884956 41.2425  8.03982300884956 41.2425  C 8.03982300884956 41.2425  3.84513274336283 40.5375  3.84513274336283 40.5375  C 3.84513274336283 40.5375  3.14601769911504 38.4225  3.14601769911504 38.4225  C 3.14601769911504 38.4225  6.64159292035398 37.0125  6.64159292035398 37.0125  C 6.64159292035398 37.0125  5.24336283185841 36.3075  5.24336283185841 36.3075  C 5.24336283185841 36.3075  6.64159292035398 32.0775  6.64159292035398 32.0775  C 6.64159292035398 32.0775  5.24336283185841 30.6675  5.24336283185841 30.6675  C 5.24336283185841 30.6675  8.73893805309735 28.5525  8.73893805309735 28.5525  C 8.73893805309735 28.5525  10.8362831858407 25.7325  10.8362831858407 25.7325  C 10.8362831858407 25.7325  10.8362831858407 19.3875  10.8362831858407 19.3875  C 10.8362831858407 19.3875  12.9336283185841 19.3875  12.9336283185841 19.3875  C 12.9336283185841 19.3875  12.2345132743363 16.5675  12.2345132743363 16.5675  C 12.2345132743363 16.5675  13.6327433628319 14.4525  13.6327433628319 14.4525  C 13.6327433628319 14.4525  14.3318584070796 15.1575  14.3318584070796 15.1575  C 14.3318584070796 15.1575  15.0309734513274 10.9275  15.0309734513274 10.9275  C 15.0309734513274 10.9275  17.1283185840708 10.2225  17.1283185840708 10.2225  C 17.1283185840708 10.2225  16.429203539823 8.1075  16.429203539823 8.1075  C 16.429203539823 8.1075  18.5265486725664 8.8125  18.5265486725664 8.8125  C 18.5265486725664 8.8125  17.8274336283186 5.9925  17.8274336283186 5.9925  C 17.8274336283186 5.9925  20.6238938053097 5.2875  20.6238938053097 5.2875  C 20.6238938053097 5.2875  20.6238938053097 3.1725  20.6238938053097 3.1725  C 20.6238938053097 3.1725  22.0221238938053 1.7625  22.0221238938053 1.7625  C 22.0221238938053 1.7625  21.3230088495575 1.0575  21.3230088495575 1.0575  C 21.3230088495575 1.0575  22.7212389380531 0.3525  22.7212389380531 0.3525  C 22.7212389380531 0.3525  22.7212389380531 1.7625  22.7212389380531 1.7625  C 22.7212389380531 1.7625  24.1194690265487 1.7625  24.1194690265487 1.7625  C 24.1194690265487 1.7625  27.6150442477876 0.3525  27.6150442477876 0.3525  C 27.6150442477876 0.3525  30.4115044247788 1.0575  30.4115044247788 1.0575  C 30.4115044247788 1.0575  31.1106194690265 2.4675  31.1106194690265 2.4675  C 31.1106194690265 2.4675  37.4026548672566 1.7625  37.4026548672566 1.7625  C 37.4026548672566 1.7625  38.8008849557522 4.5825  38.8008849557522 4.5825  C 38.8008849557522 4.5825  36.7035398230088 6.6975  36.7035398230088 6.6975  C 36.7035398230088 6.6975  35.3053097345133 6.6975  35.3053097345133 6.6975  C 35.3053097345133 6.6975  42.2964601769912 19.3875  42.2964601769912 19.3875  C 42.2964601769912 19.3875  48.5884955752212 13.7475  48.5884955752212 13.7475  C 48.5884955752212 13.7475  49.9867256637168 18.6825  49.9867256637168 18.6825  C 49.9867256637168 18.6825  49.287610619469 19.3875  49.287610619469 19.3875  C 49.287610619469 19.3875  50.6858407079646 21.5025  50.6858407079646 21.5025  C 50.6858407079646 21.5025  49.287610619469 22.9125  49.287610619469 22.9125  C 49.287610619469 22.9125  51.3849557522124 25.0275  51.3849557522124 25.0275  C 51.3849557522124 25.0275  54.1814159292035 25.7325  54.1814159292035 25.7325  C 54.1814159292035 25.7325  57.6769911504425 22.9125  57.6769911504425 22.9125  C 57.6769911504425 22.9125  60.4734513274336 25.7325  60.4734513274336 25.7325  C 60.4734513274336 25.7325  57.6769911504425 31.3725  57.6769911504425 31.3725  C 57.6769911504425 31.3725  59.0752212389381 35.6025  59.0752212389381 35.6025  C 59.0752212389381 35.6025  61.1725663716814 37.0125  61.1725663716814 37.0125  C 61.1725663716814 37.0125  63.2699115044248 34.8975  63.2699115044248 34.8975  C 63.2699115044248 34.8975  65.3672566371681 34.8975  65.3672566371681 34.8975  C 65.3672566371681 34.8975  66.7654867256637 37.0125  66.7654867256637 37.0125  C 66.7654867256637 37.0125  69.5619469026549 37.7175  69.5619469026549 37.7175  C 69.5619469026549 37.7175  69.5619469026549 41.9475  69.5619469026549 41.9475  C 69.5619469026549 41.9475  72.358407079646 39.8325  72.358407079646 39.8325  C 72.358407079646 39.8325  72.358407079646 44.0625  72.358407079646 44.0625  C 72.358407079646 44.0625  75.1548672566372 44.7675  75.1548672566372 44.7675  C 75.1548672566372 44.7675  72.358407079646 51.1125  72.358407079646 51.1125  C 72.358407079646 51.1125  75.853982300885 51.8175  75.853982300885 51.8175  C 75.853982300885 51.8175  75.853982300885 54.6375  75.853982300885 54.6375  C 75.853982300885 54.6375  78.6504424778761 56.7525  78.6504424778761 56.7525  C 78.6504424778761 56.7525  75.1548672566372 59.5725  75.1548672566372 59.5725  C 75.1548672566372 59.5725  75.1548672566372 63.0975  75.1548672566372 63.0975  C 75.1548672566372 63.0975  70.9601769911504 64.5075  70.9601769911504 64.5075  C 70.9601769911504 64.5075  70.2610619469027 71.5575  70.2610619469027 71.5575  C 70.2610619469027 71.5575  68.8628318584071 72.2625  68.8628318584071 72.2625  C 68.8628318584071 72.2625  68.8628318584071 73.6725  68.8628318584071 73.6725  C 68.8628318584071 73.6725  66.7654867256637 73.6725  66.7654867256637 73.6725  C 66.7654867256637 73.6725  68.1637168141593 78.6075  68.1637168141593 78.6075  C 68.1637168141593 78.6075  67.4646017699115 79.3125  67.4646017699115 79.3125  C 67.4646017699115 79.3125  64.6681415929204 77.9025  64.6681415929204 77.9025  C 64.6681415929204 77.9025  63.9690265486726 81.4275  63.9690265486726 81.4275  C 63.9690265486726 81.4275  62.570796460177 82.1325  62.570796460177 82.1325  C 62.570796460177 82.1325  63.2699115044248 86.3625  63.2699115044248 86.3625  C 63.2699115044248 86.3625  61.1725663716814 87.7725  61.1725663716814 87.7725  C 61.1725663716814 87.7725  59.7743362831858 87.0675  59.7743362831858 87.0675  C 59.7743362831858 87.0675  59.7743362831858 89.1825  59.7743362831858 89.1825  C 59.7743362831858 89.1825  61.8716814159292 92.7075  61.8716814159292 92.7075  C 61.8716814159292 92.7075  63.9690265486726 92.7075  63.9690265486726 92.7075  C 63.9690265486726 92.7075  66.7654867256637 95.5275  66.7654867256637 95.5275  C 66.7654867256637 95.5275  64.6681415929204 96.2325  64.6681415929204 96.2325  C 64.6681415929204 96.2325  64.6681415929204 101.8725  64.6681415929204 101.8725  C 64.6681415929204 101.8725  66.0663716814159 101.8725  66.0663716814159 101.8725  C 66.0663716814159 101.8725  68.8628318584071 105.3975  68.8628318584071 105.3975  C 68.8628318584071 105.3975  65.3672566371681 106.1025  65.3672566371681 106.1025  C 65.3672566371681 106.1025  65.3672566371681 108.2175  65.3672566371681 108.2175  C 65.3672566371681 108.2175  63.9690265486726 108.2175  63.9690265486726 108.2175  C 63.9690265486726 108.2175  64.6681415929204 111.0375  64.6681415929204 111.0375  C 64.6681415929204 111.0375  63.2699115044248 111.0375  63.2699115044248 111.0375  C 63.2699115044248 111.0375  62.570796460177 111.7425  62.570796460177 111.7425  C 62.570796460177 111.7425  63.9690265486726 112.4475  63.9690265486726 112.4475  C 63.9690265486726 112.4475  60.4734513274336 115.2675  60.4734513274336 115.2675  C 60.4734513274336 115.2675  61.8716814159292 117.3825  61.8716814159292 117.3825  C 61.8716814159292 117.3825  59.7743362831858 121.6125  59.7743362831858 121.6125  C 59.7743362831858 121.6125  54.1814159292035 127.2525  54.1814159292035 127.2525  C 54.1814159292035 127.2525  52.783185840708 126.5475  52.783185840708 126.5475  C 52.783185840708 126.5475  53.4823008849558 125.1375  53.4823008849558 125.1375  C 53.4823008849558 125.1375  51.3849557522124 125.1375  51.3849557522124 125.1375  C 51.3849557522124 125.1375  50.6858407079646 123.0225  50.6858407079646 123.0225  C 50.6858407079646 123.0225  49.9867256637168 124.4325  49.9867256637168 124.4325  C 49.9867256637168 124.4325  48.5884955752212 123.7275  48.5884955752212 123.7275  C 48.5884955752212 123.7275  47.1902654867257 125.1375  47.1902654867257 125.1375  C 47.1902654867257 125.1375  42.9955752212389 121.6125  42.9955752212389 121.6125  C 42.9955752212389 121.6125  40.1991150442478 122.3175  40.1991150442478 122.3175  C 40.1991150442478 122.3175  38.1017699115044 120.9075  38.1017699115044 120.9075  C 38.1017699115044 120.9075  38.8008849557522 118.7925  38.8008849557522 118.7925  C 38.8008849557522 118.7925  35.3053097345133 118.7925  35.3053097345133 118.7925  C 35.3053097345133 118.7925  35.3053097345133 121.6125  35.3053097345133 121.6125  C 35.3053097345133 121.6125  33.9070796460177 123.0225  33.9070796460177 123.0225  C 33.9070796460177 123.0225  34.6061946902655 123.7275  34.6061946902655 123.7275  C 34.6061946902655 123.7275  28.3141592920354 127.9575  28.3141592920354 127.9575  C 28.3141592920354 127.9575  29.712389380531 132.1875  29.712389380531 132.1875  C 29.712389380531 132.1875  26.9159292035398 135.0075  26.9159292035398 135.0075  C 26.9159292035398 135.0075  17.8274336283186 135.0075  17.8274336283186 135.0075  C 17.8274336283186 135.0075  17.8274336283186 137.1225  17.8274336283186 137.1225  C 17.8274336283186 137.1225  15.7300884955752 139.2375  15.7300884955752 139.2375  Z " fill-rule="evenodd" />
    </mask>
  </defs>
  <g transform="matrix(1 0 0 1 -47 -209 )">
    <path d="M 15.7300884955752 139.2375  C 15.7300884955752 139.2375  15.7300884955752 140.6475  15.7300884955752 140.6475  C 15.7300884955752 140.6475  12.2345132743363 140.6475  12.2345132743363 140.6475  C 12.2345132743363 140.6475  12.9336283185841 139.2375  12.9336283185841 139.2375  C 12.9336283185841 139.2375  11.5353982300885 139.2375  11.5353982300885 139.2375  C 11.5353982300885 139.2375  12.2345132743363 137.8275  12.2345132743363 137.8275  C 12.2345132743363 137.8275  10.1371681415929 136.4175  10.1371681415929 136.4175  C 10.1371681415929 136.4175  10.8362831858407 132.1875  10.8362831858407 132.1875  C 10.8362831858407 132.1875  9.43805309734513 130.7775  9.43805309734513 130.7775  C 9.43805309734513 130.7775  10.1371681415929 130.0725  10.1371681415929 130.0725  C 10.1371681415929 130.0725  8.73893805309735 128.6625  8.73893805309735 128.6625  C 8.73893805309735 128.6625  9.43805309734513 127.9575  9.43805309734513 127.9575  C 9.43805309734513 127.9575  8.03982300884956 123.7275  8.03982300884956 123.7275  C 8.03982300884956 123.7275  9.43805309734513 120.9075  9.43805309734513 120.9075  C 9.43805309734513 120.9075  12.2345132743363 120.2025  12.2345132743363 120.2025  C 12.2345132743363 120.2025  12.9336283185841 118.0875  12.9336283185841 118.0875  C 12.9336283185841 118.0875  10.8362831858407 115.9725  10.8362831858407 115.9725  C 10.8362831858407 115.9725  8.73893805309735 118.0875  8.73893805309735 118.0875  C 8.73893805309735 118.0875  8.03982300884956 115.2675  8.03982300884956 115.2675  C 8.03982300884956 115.2675  10.8362831858407 108.2175  10.8362831858407 108.2175  C 10.8362831858407 108.2175  10.1371681415929 106.8075  10.1371681415929 106.8075  C 10.1371681415929 106.8075  13.6327433628319 101.1675  13.6327433628319 101.1675  C 13.6327433628319 101.1675  11.5353982300885 101.1675  11.5353982300885 101.1675  C 11.5353982300885 101.1675  11.5353982300885 99.7575  11.5353982300885 99.7575  C 11.5353982300885 99.7575  10.1371681415929 99.0525  10.1371681415929 99.0525  C 10.1371681415929 99.0525  7.34070796460177 100.4625  7.34070796460177 100.4625  C 7.34070796460177 100.4625  8.03982300884956 99.0525  8.03982300884956 99.0525  C 8.03982300884956 99.0525  5.94247787610619 97.6425  5.94247787610619 97.6425  C 5.94247787610619 97.6425  7.34070796460177 94.1175  7.34070796460177 94.1175  C 7.34070796460177 94.1175  5.24336283185841 91.2975  5.24336283185841 91.2975  C 5.24336283185841 91.2975  5.94247787610619 81.4275  5.94247787610619 81.4275  C 5.94247787610619 81.4275  9.43805309734513 77.9025  9.43805309734513 77.9025  C 9.43805309734513 77.9025  8.03982300884956 75.0825  8.03982300884956 75.0825  C 8.03982300884956 75.0825  5.24336283185841 76.4925  5.24336283185841 76.4925  C 5.24336283185841 76.4925  3.84513274336283 75.0825  3.84513274336283 75.0825  C 3.84513274336283 75.0825  1.74778761061947 77.1975  1.74778761061947 77.1975  C 1.74778761061947 77.1975  0.349557522123894 75.7875  0.349557522123894 75.7875  C 0.349557522123894 75.7875  1.74778761061947 73.6725  1.74778761061947 73.6725  C 1.74778761061947 73.6725  5.94247787610619 71.5575  5.94247787610619 71.5575  C 5.94247787610619 71.5575  4.54424778761062 69.4425  4.54424778761062 69.4425  C 4.54424778761062 69.4425  8.03982300884956 65.9175  8.03982300884956 65.9175  C 8.03982300884956 65.9175  3.84513274336283 63.0975  3.84513274336283 63.0975  C 3.84513274336283 63.0975  3.84513274336283 55.3425  3.84513274336283 55.3425  C 3.84513274336283 55.3425  5.24336283185841 53.2275  5.24336283185841 53.2275  C 5.24336283185841 53.2275  5.24336283185841 50.4075  5.24336283185841 50.4075  C 5.24336283185841 50.4075  7.34070796460177 47.5875  7.34070796460177 47.5875  C 7.34070796460177 47.5875  7.34070796460177 45.4725  7.34070796460177 45.4725  C 7.34070796460177 45.4725  9.43805309734513 43.3575  9.43805309734513 43.3575  C 9.43805309734513 43.3575  8.03982300884956 41.2425  8.03982300884956 41.2425  C 8.03982300884956 41.2425  3.84513274336283 40.5375  3.84513274336283 40.5375  C 3.84513274336283 40.5375  3.14601769911504 38.4225  3.14601769911504 38.4225  C 3.14601769911504 38.4225  6.64159292035398 37.0125  6.64159292035398 37.0125  C 6.64159292035398 37.0125  5.24336283185841 36.3075  5.24336283185841 36.3075  C 5.24336283185841 36.3075  6.64159292035398 32.0775  6.64159292035398 32.0775  C 6.64159292035398 32.0775  5.24336283185841 30.6675  5.24336283185841 30.6675  C 5.24336283185841 30.6675  8.73893805309735 28.5525  8.73893805309735 28.5525  C 8.73893805309735 28.5525  10.8362831858407 25.7325  10.8362831858407 25.7325  C 10.8362831858407 25.7325  10.8362831858407 19.3875  10.8362831858407 19.3875  C 10.8362831858407 19.3875  12.9336283185841 19.3875  12.9336283185841 19.3875  C 12.9336283185841 19.3875  12.2345132743363 16.5675  12.2345132743363 16.5675  C 12.2345132743363 16.5675  13.6327433628319 14.4525  13.6327433628319 14.4525  C 13.6327433628319 14.4525  14.3318584070796 15.1575  14.3318584070796 15.1575  C 14.3318584070796 15.1575  15.0309734513274 10.9275  15.0309734513274 10.9275  C 15.0309734513274 10.9275  17.1283185840708 10.2225  17.1283185840708 10.2225  C 17.1283185840708 10.2225  16.429203539823 8.1075  16.429203539823 8.1075  C 16.429203539823 8.1075  18.5265486725664 8.8125  18.5265486725664 8.8125  C 18.5265486725664 8.8125  17.8274336283186 5.9925  17.8274336283186 5.9925  C 17.8274336283186 5.9925  20.6238938053097 5.2875  20.6238938053097 5.2875  C 20.6238938053097 5.2875  20.6238938053097 3.1725  20.6238938053097 3.1725  C 20.6238938053097 3.1725  22.0221238938053 1.7625  22.0221238938053 1.7625  C 22.0221238938053 1.7625  21.3230088495575 1.0575  21.3230088495575 1.0575  C 21.3230088495575 1.0575  22.7212389380531 0.3525  22.7212389380531 0.3525  C 22.7212389380531 0.3525  22.7212389380531 1.7625  22.7212389380531 1.7625  C 22.7212389380531 1.7625  24.1194690265487 1.7625  24.1194690265487 1.7625  C 24.1194690265487 1.7625  27.6150442477876 0.3525  27.6150442477876 0.3525  C 27.6150442477876 0.3525  30.4115044247788 1.0575  30.4115044247788 1.0575  C 30.4115044247788 1.0575  31.1106194690265 2.4675  31.1106194690265 2.4675  C 31.1106194690265 2.4675  37.4026548672566 1.7625  37.4026548672566 1.7625  C 37.4026548672566 1.7625  38.8008849557522 4.5825  38.8008849557522 4.5825  C 38.8008849557522 4.5825  36.7035398230088 6.6975  36.7035398230088 6.6975  C 36.7035398230088 6.6975  35.3053097345133 6.6975  35.3053097345133 6.6975  C 35.3053097345133 6.6975  42.2964601769912 19.3875  42.2964601769912 19.3875  C 42.2964601769912 19.3875  48.5884955752212 13.7475  48.5884955752212 13.7475  C 48.5884955752212 13.7475  49.9867256637168 18.6825  49.9867256637168 18.6825  C 49.9867256637168 18.6825  49.287610619469 19.3875  49.287610619469 19.3875  C 49.287610619469 19.3875  50.6858407079646 21.5025  50.6858407079646 21.5025  C 50.6858407079646 21.5025  49.287610619469 22.9125  49.287610619469 22.9125  C 49.287610619469 22.9125  51.3849557522124 25.0275  51.3849557522124 25.0275  C 51.3849557522124 25.0275  54.1814159292035 25.7325  54.1814159292035 25.7325  C 54.1814159292035 25.7325  57.6769911504425 22.9125  57.6769911504425 22.9125  C 57.6769911504425 22.9125  60.4734513274336 25.7325  60.4734513274336 25.7325  C 60.4734513274336 25.7325  57.6769911504425 31.3725  57.6769911504425 31.3725  C 57.6769911504425 31.3725  59.0752212389381 35.6025  59.0752212389381 35.6025  C 59.0752212389381 35.6025  61.1725663716814 37.0125  61.1725663716814 37.0125  C 61.1725663716814 37.0125  63.2699115044248 34.8975  63.2699115044248 34.8975  C 63.2699115044248 34.8975  65.3672566371681 34.8975  65.3672566371681 34.8975  C 65.3672566371681 34.8975  66.7654867256637 37.0125  66.7654867256637 37.0125  C 66.7654867256637 37.0125  69.5619469026549 37.7175  69.5619469026549 37.7175  C 69.5619469026549 37.7175  69.5619469026549 41.9475  69.5619469026549 41.9475  C 69.5619469026549 41.9475  72.358407079646 39.8325  72.358407079646 39.8325  C 72.358407079646 39.8325  72.358407079646 44.0625  72.358407079646 44.0625  C 72.358407079646 44.0625  75.1548672566372 44.7675  75.1548672566372 44.7675  C 75.1548672566372 44.7675  72.358407079646 51.1125  72.358407079646 51.1125  C 72.358407079646 51.1125  75.853982300885 51.8175  75.853982300885 51.8175  C 75.853982300885 51.8175  75.853982300885 54.6375  75.853982300885 54.6375  C 75.853982300885 54.6375  78.6504424778761 56.7525  78.6504424778761 56.7525  C 78.6504424778761 56.7525  75.1548672566372 59.5725  75.1548672566372 59.5725  C 75.1548672566372 59.5725  75.1548672566372 63.0975  75.1548672566372 63.0975  C 75.1548672566372 63.0975  70.9601769911504 64.5075  70.9601769911504 64.5075  C 70.9601769911504 64.5075  70.2610619469027 71.5575  70.2610619469027 71.5575  C 70.2610619469027 71.5575  68.8628318584071 72.2625  68.8628318584071 72.2625  C 68.8628318584071 72.2625  68.8628318584071 73.6725  68.8628318584071 73.6725  C 68.8628318584071 73.6725  66.7654867256637 73.6725  66.7654867256637 73.6725  C 66.7654867256637 73.6725  68.1637168141593 78.6075  68.1637168141593 78.6075  C 68.1637168141593 78.6075  67.4646017699115 79.3125  67.4646017699115 79.3125  C 67.4646017699115 79.3125  64.6681415929204 77.9025  64.6681415929204 77.9025  C 64.6681415929204 77.9025  63.9690265486726 81.4275  63.9690265486726 81.4275  C 63.9690265486726 81.4275  62.570796460177 82.1325  62.570796460177 82.1325  C 62.570796460177 82.1325  63.2699115044248 86.3625  63.2699115044248 86.3625  C 63.2699115044248 86.3625  61.1725663716814 87.7725  61.1725663716814 87.7725  C 61.1725663716814 87.7725  59.7743362831858 87.0675  59.7743362831858 87.0675  C 59.7743362831858 87.0675  59.7743362831858 89.1825  59.7743362831858 89.1825  C 59.7743362831858 89.1825  61.8716814159292 92.7075  61.8716814159292 92.7075  C 61.8716814159292 92.7075  63.9690265486726 92.7075  63.9690265486726 92.7075  C 63.9690265486726 92.7075  66.7654867256637 95.5275  66.7654867256637 95.5275  C 66.7654867256637 95.5275  64.6681415929204 96.2325  64.6681415929204 96.2325  C 64.6681415929204 96.2325  64.6681415929204 101.8725  64.6681415929204 101.8725  C 64.6681415929204 101.8725  66.0663716814159 101.8725  66.0663716814159 101.8725  C 66.0663716814159 101.8725  68.8628318584071 105.3975  68.8628318584071 105.3975  C 68.8628318584071 105.3975  65.3672566371681 106.1025  65.3672566371681 106.1025  C 65.3672566371681 106.1025  65.3672566371681 108.2175  65.3672566371681 108.2175  C 65.3672566371681 108.2175  63.9690265486726 108.2175  63.9690265486726 108.2175  C 63.9690265486726 108.2175  64.6681415929204 111.0375  64.6681415929204 111.0375  C 64.6681415929204 111.0375  63.2699115044248 111.0375  63.2699115044248 111.0375  C 63.2699115044248 111.0375  62.570796460177 111.7425  62.570796460177 111.7425  C 62.570796460177 111.7425  63.9690265486726 112.4475  63.9690265486726 112.4475  C 63.9690265486726 112.4475  60.4734513274336 115.2675  60.4734513274336 115.2675  C 60.4734513274336 115.2675  61.8716814159292 117.3825  61.8716814159292 117.3825  C 61.8716814159292 117.3825  59.7743362831858 121.6125  59.7743362831858 121.6125  C 59.7743362831858 121.6125  54.1814159292035 127.2525  54.1814159292035 127.2525  C 54.1814159292035 127.2525  52.783185840708 126.5475  52.783185840708 126.5475  C 52.783185840708 126.5475  53.4823008849558 125.1375  53.4823008849558 125.1375  C 53.4823008849558 125.1375  51.3849557522124 125.1375  51.3849557522124 125.1375  C 51.3849557522124 125.1375  50.6858407079646 123.0225  50.6858407079646 123.0225  C 50.6858407079646 123.0225  49.9867256637168 124.4325  49.9867256637168 124.4325  C 49.9867256637168 124.4325  48.5884955752212 123.7275  48.5884955752212 123.7275  C 48.5884955752212 123.7275  47.1902654867257 125.1375  47.1902654867257 125.1375  C 47.1902654867257 125.1375  42.9955752212389 121.6125  42.9955752212389 121.6125  C 42.9955752212389 121.6125  40.1991150442478 122.3175  40.1991150442478 122.3175  C 40.1991150442478 122.3175  38.1017699115044 120.9075  38.1017699115044 120.9075  C 38.1017699115044 120.9075  38.8008849557522 118.7925  38.8008849557522 118.7925  C 38.8008849557522 118.7925  35.3053097345133 118.7925  35.3053097345133 118.7925  C 35.3053097345133 118.7925  35.3053097345133 121.6125  35.3053097345133 121.6125  C 35.3053097345133 121.6125  33.9070796460177 123.0225  33.9070796460177 123.0225  C 33.9070796460177 123.0225  34.6061946902655 123.7275  34.6061946902655 123.7275  C 34.6061946902655 123.7275  28.3141592920354 127.9575  28.3141592920354 127.9575  C 28.3141592920354 127.9575  29.712389380531 132.1875  29.712389380531 132.1875  C 29.712389380531 132.1875  26.9159292035398 135.0075  26.9159292035398 135.0075  C 26.9159292035398 135.0075  17.8274336283186 135.0075  17.8274336283186 135.0075  C 17.8274336283186 135.0075  17.8274336283186 137.1225  17.8274336283186 137.1225  C 17.8274336283186 137.1225  15.7300884955752 139.2375  15.7300884955752 139.2375  Z " fill-rule="nonzero" fill="#80ffff" stroke="none" transform="matrix(1 0 0 1 47 209 )" />
    <path d="M 15.7300884955752 139.2375  C 15.7300884955752 139.2375  15.7300884955752 140.6475  15.7300884955752 140.6475  C 15.7300884955752 140.6475  12.2345132743363 140.6475  12.2345132743363 140.6475  C 12.2345132743363 140.6475  12.9336283185841 139.2375  12.9336283185841 139.2375  C 12.9336283185841 139.2375  11.5353982300885 139.2375  11.5353982300885 139.2375  C 11.5353982300885 139.2375  12.2345132743363 137.8275  12.2345132743363 137.8275  C 12.2345132743363 137.8275  10.1371681415929 136.4175  10.1371681415929 136.4175  C 10.1371681415929 136.4175  10.8362831858407 132.1875  10.8362831858407 132.1875  C 10.8362831858407 132.1875  9.43805309734513 130.7775  9.43805309734513 130.7775  C 9.43805309734513 130.7775  10.1371681415929 130.0725  10.1371681415929 130.0725  C 10.1371681415929 130.0725  8.73893805309735 128.6625  8.73893805309735 128.6625  C 8.73893805309735 128.6625  9.43805309734513 127.9575  9.43805309734513 127.9575  C 9.43805309734513 127.9575  8.03982300884956 123.7275  8.03982300884956 123.7275  C 8.03982300884956 123.7275  9.43805309734513 120.9075  9.43805309734513 120.9075  C 9.43805309734513 120.9075  12.2345132743363 120.2025  12.2345132743363 120.2025  C 12.2345132743363 120.2025  12.9336283185841 118.0875  12.9336283185841 118.0875  C 12.9336283185841 118.0875  10.8362831858407 115.9725  10.8362831858407 115.9725  C 10.8362831858407 115.9725  8.73893805309735 118.0875  8.73893805309735 118.0875  C 8.73893805309735 118.0875  8.03982300884956 115.2675  8.03982300884956 115.2675  C 8.03982300884956 115.2675  10.8362831858407 108.2175  10.8362831858407 108.2175  C 10.8362831858407 108.2175  10.1371681415929 106.8075  10.1371681415929 106.8075  C 10.1371681415929 106.8075  13.6327433628319 101.1675  13.6327433628319 101.1675  C 13.6327433628319 101.1675  11.5353982300885 101.1675  11.5353982300885 101.1675  C 11.5353982300885 101.1675  11.5353982300885 99.7575  11.5353982300885 99.7575  C 11.5353982300885 99.7575  10.1371681415929 99.0525  10.1371681415929 99.0525  C 10.1371681415929 99.0525  7.34070796460177 100.4625  7.34070796460177 100.4625  C 7.34070796460177 100.4625  8.03982300884956 99.0525  8.03982300884956 99.0525  C 8.03982300884956 99.0525  5.94247787610619 97.6425  5.94247787610619 97.6425  C 5.94247787610619 97.6425  7.34070796460177 94.1175  7.34070796460177 94.1175  C 7.34070796460177 94.1175  5.24336283185841 91.2975  5.24336283185841 91.2975  C 5.24336283185841 91.2975  5.94247787610619 81.4275  5.94247787610619 81.4275  C 5.94247787610619 81.4275  9.43805309734513 77.9025  9.43805309734513 77.9025  C 9.43805309734513 77.9025  8.03982300884956 75.0825  8.03982300884956 75.0825  C 8.03982300884956 75.0825  5.24336283185841 76.4925  5.24336283185841 76.4925  C 5.24336283185841 76.4925  3.84513274336283 75.0825  3.84513274336283 75.0825  C 3.84513274336283 75.0825  1.74778761061947 77.1975  1.74778761061947 77.1975  C 1.74778761061947 77.1975  0.349557522123894 75.7875  0.349557522123894 75.7875  C 0.349557522123894 75.7875  1.74778761061947 73.6725  1.74778761061947 73.6725  C 1.74778761061947 73.6725  5.94247787610619 71.5575  5.94247787610619 71.5575  C 5.94247787610619 71.5575  4.54424778761062 69.4425  4.54424778761062 69.4425  C 4.54424778761062 69.4425  8.03982300884956 65.9175  8.03982300884956 65.9175  C 8.03982300884956 65.9175  3.84513274336283 63.0975  3.84513274336283 63.0975  C 3.84513274336283 63.0975  3.84513274336283 55.3425  3.84513274336283 55.3425  C 3.84513274336283 55.3425  5.24336283185841 53.2275  5.24336283185841 53.2275  C 5.24336283185841 53.2275  5.24336283185841 50.4075  5.24336283185841 50.4075  C 5.24336283185841 50.4075  7.34070796460177 47.5875  7.34070796460177 47.5875  C 7.34070796460177 47.5875  7.34070796460177 45.4725  7.34070796460177 45.4725  C 7.34070796460177 45.4725  9.43805309734513 43.3575  9.43805309734513 43.3575  C 9.43805309734513 43.3575  8.03982300884956 41.2425  8.03982300884956 41.2425  C 8.03982300884956 41.2425  3.84513274336283 40.5375  3.84513274336283 40.5375  C 3.84513274336283 40.5375  3.14601769911504 38.4225  3.14601769911504 38.4225  C 3.14601769911504 38.4225  6.64159292035398 37.0125  6.64159292035398 37.0125  C 6.64159292035398 37.0125  5.24336283185841 36.3075  5.24336283185841 36.3075  C 5.24336283185841 36.3075  6.64159292035398 32.0775  6.64159292035398 32.0775  C 6.64159292035398 32.0775  5.24336283185841 30.6675  5.24336283185841 30.6675  C 5.24336283185841 30.6675  8.73893805309735 28.5525  8.73893805309735 28.5525  C 8.73893805309735 28.5525  10.8362831858407 25.7325  10.8362831858407 25.7325  C 10.8362831858407 25.7325  10.8362831858407 19.3875  10.8362831858407 19.3875  C 10.8362831858407 19.3875  12.9336283185841 19.3875  12.9336283185841 19.3875  C 12.9336283185841 19.3875  12.2345132743363 16.5675  12.2345132743363 16.5675  C 12.2345132743363 16.5675  13.6327433628319 14.4525  13.6327433628319 14.4525  C 13.6327433628319 14.4525  14.3318584070796 15.1575  14.3318584070796 15.1575  C 14.3318584070796 15.1575  15.0309734513274 10.9275  15.0309734513274 10.9275  C 15.0309734513274 10.9275  17.1283185840708 10.2225  17.1283185840708 10.2225  C 17.1283185840708 10.2225  16.429203539823 8.1075  16.429203539823 8.1075  C 16.429203539823 8.1075  18.5265486725664 8.8125  18.5265486725664 8.8125  C 18.5265486725664 8.8125  17.8274336283186 5.9925  17.8274336283186 5.9925  C 17.8274336283186 5.9925  20.6238938053097 5.2875  20.6238938053097 5.2875  C 20.6238938053097 5.2875  20.6238938053097 3.1725  20.6238938053097 3.1725  C 20.6238938053097 3.1725  22.0221238938053 1.7625  22.0221238938053 1.7625  C 22.0221238938053 1.7625  21.3230088495575 1.0575  21.3230088495575 1.0575  C 21.3230088495575 1.0575  22.7212389380531 0.3525  22.7212389380531 0.3525  C 22.7212389380531 0.3525  22.7212389380531 1.7625  22.7212389380531 1.7625  C 22.7212389380531 1.7625  24.1194690265487 1.7625  24.1194690265487 1.7625  C 24.1194690265487 1.7625  27.6150442477876 0.3525  27.6150442477876 0.3525  C 27.6150442477876 0.3525  30.4115044247788 1.0575  30.4115044247788 1.0575  C 30.4115044247788 1.0575  31.1106194690265 2.4675  31.1106194690265 2.4675  C 31.1106194690265 2.4675  37.4026548672566 1.7625  37.4026548672566 1.7625  C 37.4026548672566 1.7625  38.8008849557522 4.5825  38.8008849557522 4.5825  C 38.8008849557522 4.5825  36.7035398230088 6.6975  36.7035398230088 6.6975  C 36.7035398230088 6.6975  35.3053097345133 6.6975  35.3053097345133 6.6975  C 35.3053097345133 6.6975  42.2964601769912 19.3875  42.2964601769912 19.3875  C 42.2964601769912 19.3875  48.5884955752212 13.7475  48.5884955752212 13.7475  C 48.5884955752212 13.7475  49.9867256637168 18.6825  49.9867256637168 18.6825  C 49.9867256637168 18.6825  49.287610619469 19.3875  49.287610619469 19.3875  C 49.287610619469 19.3875  50.6858407079646 21.5025  50.6858407079646 21.5025  C 50.6858407079646 21.5025  49.287610619469 22.9125  49.287610619469 22.9125  C 49.287610619469 22.9125  51.3849557522124 25.0275  51.3849557522124 25.0275  C 51.3849557522124 25.0275  54.1814159292035 25.7325  54.1814159292035 25.7325  C 54.1814159292035 25.7325  57.6769911504425 22.9125  57.6769911504425 22.9125  C 57.6769911504425 22.9125  60.4734513274336 25.7325  60.4734513274336 25.7325  C 60.4734513274336 25.7325  57.6769911504425 31.3725  57.6769911504425 31.3725  C 57.6769911504425 31.3725  59.0752212389381 35.6025  59.0752212389381 35.6025  C 59.0752212389381 35.6025  61.1725663716814 37.0125  61.1725663716814 37.0125  C 61.1725663716814 37.0125  63.2699115044248 34.8975  63.2699115044248 34.8975  C 63.2699115044248 34.8975  65.3672566371681 34.8975  65.3672566371681 34.8975  C 65.3672566371681 34.8975  66.7654867256637 37.0125  66.7654867256637 37.0125  C 66.7654867256637 37.0125  69.5619469026549 37.7175  69.5619469026549 37.7175  C 69.5619469026549 37.7175  69.5619469026549 41.9475  69.5619469026549 41.9475  C 69.5619469026549 41.9475  72.358407079646 39.8325  72.358407079646 39.8325  C 72.358407079646 39.8325  72.358407079646 44.0625  72.358407079646 44.0625  C 72.358407079646 44.0625  75.1548672566372 44.7675  75.1548672566372 44.7675  C 75.1548672566372 44.7675  72.358407079646 51.1125  72.358407079646 51.1125  C 72.358407079646 51.1125  75.853982300885 51.8175  75.853982300885 51.8175  C 75.853982300885 51.8175  75.853982300885 54.6375  75.853982300885 54.6375  C 75.853982300885 54.6375  78.6504424778761 56.7525  78.6504424778761 56.7525  C 78.6504424778761 56.7525  75.1548672566372 59.5725  75.1548672566372 59.5725  C 75.1548672566372 59.5725  75.1548672566372 63.0975  75.1548672566372 63.0975  C 75.1548672566372 63.0975  70.9601769911504 64.5075  70.9601769911504 64.5075  C 70.9601769911504 64.5075  70.2610619469027 71.5575  70.2610619469027 71.5575  C 70.2610619469027 71.5575  68.8628318584071 72.2625  68.8628318584071 72.2625  C 68.8628318584071 72.2625  68.8628318584071 73.6725  68.8628318584071 73.6725  C 68.8628318584071 73.6725  66.7654867256637 73.6725  66.7654867256637 73.6725  C 66.7654867256637 73.6725  68.1637168141593 78.6075  68.1637168141593 78.6075  C 68.1637168141593 78.6075  67.4646017699115 79.3125  67.4646017699115 79.3125  C 67.4646017699115 79.3125  64.6681415929204 77.9025  64.6681415929204 77.9025  C 64.6681415929204 77.9025  63.9690265486726 81.4275  63.9690265486726 81.4275  C 63.9690265486726 81.4275  62.570796460177 82.1325  62.570796460177 82.1325  C 62.570796460177 82.1325  63.2699115044248 86.3625  63.2699115044248 86.3625  C 63.2699115044248 86.3625  61.1725663716814 87.7725  61.1725663716814 87.7725  C 61.1725663716814 87.7725  59.7743362831858 87.0675  59.7743362831858 87.0675  C 59.7743362831858 87.0675  59.7743362831858 89.1825  59.7743362831858 89.1825  C 59.7743362831858 89.1825  61.8716814159292 92.7075  61.8716814159292 92.7075  C 61.8716814159292 92.7075  63.9690265486726 92.7075  63.9690265486726 92.7075  C 63.9690265486726 92.7075  66.7654867256637 95.5275  66.7654867256637 95.5275  C 66.7654867256637 95.5275  64.6681415929204 96.2325  64.6681415929204 96.2325  C 64.6681415929204 96.2325  64.6681415929204 101.8725  64.6681415929204 101.8725  C 64.6681415929204 101.8725  66.0663716814159 101.8725  66.0663716814159 101.8725  C 66.0663716814159 101.8725  68.8628318584071 105.3975  68.8628318584071 105.3975  C 68.8628318584071 105.3975  65.3672566371681 106.1025  65.3672566371681 106.1025  C 65.3672566371681 106.1025  65.3672566371681 108.2175  65.3672566371681 108.2175  C 65.3672566371681 108.2175  63.9690265486726 108.2175  63.9690265486726 108.2175  C 63.9690265486726 108.2175  64.6681415929204 111.0375  64.6681415929204 111.0375  C 64.6681415929204 111.0375  63.2699115044248 111.0375  63.2699115044248 111.0375  C 63.2699115044248 111.0375  62.570796460177 111.7425  62.570796460177 111.7425  C 62.570796460177 111.7425  63.9690265486726 112.4475  63.9690265486726 112.4475  C 63.9690265486726 112.4475  60.4734513274336 115.2675  60.4734513274336 115.2675  C 60.4734513274336 115.2675  61.8716814159292 117.3825  61.8716814159292 117.3825  C 61.8716814159292 117.3825  59.7743362831858 121.6125  59.7743362831858 121.6125  C 59.7743362831858 121.6125  54.1814159292035 127.2525  54.1814159292035 127.2525  C 54.1814159292035 127.2525  52.783185840708 126.5475  52.783185840708 126.5475  C 52.783185840708 126.5475  53.4823008849558 125.1375  53.4823008849558 125.1375  C 53.4823008849558 125.1375  51.3849557522124 125.1375  51.3849557522124 125.1375  C 51.3849557522124 125.1375  50.6858407079646 123.0225  50.6858407079646 123.0225  C 50.6858407079646 123.0225  49.9867256637168 124.4325  49.9867256637168 124.4325  C 49.9867256637168 124.4325  48.5884955752212 123.7275  48.5884955752212 123.7275  C 48.5884955752212 123.7275  47.1902654867257 125.1375  47.1902654867257 125.1375  C 47.1902654867257 125.1375  42.9955752212389 121.6125  42.9955752212389 121.6125  C 42.9955752212389 121.6125  40.1991150442478 122.3175  40.1991150442478 122.3175  C 40.1991150442478 122.3175  38.1017699115044 120.9075  38.1017699115044 120.9075  C 38.1017699115044 120.9075  38.8008849557522 118.7925  38.8008849557522 118.7925  C 38.8008849557522 118.7925  35.3053097345133 118.7925  35.3053097345133 118.7925  C 35.3053097345133 118.7925  35.3053097345133 121.6125  35.3053097345133 121.6125  C 35.3053097345133 121.6125  33.9070796460177 123.0225  33.9070796460177 123.0225  C 33.9070796460177 123.0225  34.6061946902655 123.7275  34.6061946902655 123.7275  C 34.6061946902655 123.7275  28.3141592920354 127.9575  28.3141592920354 127.9575  C 28.3141592920354 127.9575  29.712389380531 132.1875  29.712389380531 132.1875  C 29.712389380531 132.1875  26.9159292035398 135.0075  26.9159292035398 135.0075  C 26.9159292035398 135.0075  17.8274336283186 135.0075  17.8274336283186 135.0075  C 17.8274336283186 135.0075  17.8274336283186 137.1225  17.8274336283186 137.1225  C 17.8274336283186 137.1225  15.7300884955752 139.2375  15.7300884955752 139.2375  Z " stroke-width="2" stroke-dasharray="1,1" stroke="#999999" fill="none" transform="matrix(1 0 0 1 47 209 )" mask="url(#clip750)" />
  </g>
</svg>