<?xml version="1.0" encoding="utf-8"?>
<svg version="1.1" xmlns:xlink="http://www.w3.org/1999/xlink" width="25px" height="19px" xmlns="http://www.w3.org/2000/svg">
  <g transform="matrix(1 0 0 1 -2990 -380 )">
    <path d="M 1.78571428571429 9.5  C 3.33891369047619 11.9315476190476  5.32459077380952 13.6986607142857  7.74274553571429 14.8013392857143  L 8.83091517857143 12.8080357142857  C 8.02176339285714 12.2142857142857  7.38932291666667 11.4650297619048  6.93359375 10.5602678571429  C 6.47786458333333 9.65550595238095  6.25 8.69890873015873  6.25 7.69047619047619  C 6.25 6.55009920634921  6.53366815476191 5.48983134920635  7.10100446428571 4.50967261904762  C 4.97116815476191 5.61235119047619  3.19940476190476 7.27579365079365  1.78571428571429 9.5  Z M 12.9743303571429 4.55208333333333  C 13.1045386904762 4.42013888888889  13.1696428571429 4.25992063492063  13.1696428571429 4.07142857142857  C 13.1696428571429 3.88293650793651  13.1045386904762 3.72271825396825  12.9743303571429 3.59077380952381  C 12.8441220238095 3.45882936507936  12.6860119047619 3.39285714285714  12.5 3.39285714285714  C 11.3374255952381 3.39285714285714  10.3399367559524 3.81460813492063  9.50753348214286 4.65811011904762  C 8.67513020833333 5.5016121031746  8.25892857142857 6.51240079365079  8.25892857142857 7.69047619047619  C 8.25892857142857 7.87896825396825  8.32403273809524 8.03918650793651  8.45424107142857 8.17113095238095  C 8.58444940476191 8.3030753968254  8.74255952380953 8.36904761904762  8.92857142857143 8.36904761904762  C 9.11458333333333 8.36904761904762  9.27269345238095 8.3030753968254  9.40290178571429 8.17113095238095  C 9.53311011904762 8.03918650793651  9.59821428571429 7.87896825396825  9.59821428571429 7.69047619047619  C 9.59821428571429 6.87996031746032  9.88188244047619 6.18725198412698  10.44921875 5.61235119047619  C 11.0165550595238 5.03745039682539  11.7001488095238 4.75  12.5 4.75  C 12.6860119047619 4.75  12.8441220238095 4.68402777777778  12.9743303571429 4.55208333333333  Z M 18.0106026785714 0.989583333333334  C 18.159412202381 1.08382936507936  18.2338169642857 1.21106150793651  18.2338169642857 1.37127976190476  C 18.2338169642857 1.43725198412698  18.2291666666667 1.4796626984127  18.2198660714286 1.49851190476191  C 17.2340029761905 3.27976190476191  15.7645089285714 5.95163690476191  13.8113839285714 9.51413690476191  C 11.8582589285714 13.0766369047619  10.3934151785714 15.7437996031746  9.41685267857143 17.515625  L 8.73325892857143 18.7738095238095  C 8.64025297619048 18.9246031746032  8.51004464285714 19  8.34263392857143 19  C 8.23102678571429 19  7.60788690476191 18.6701388888889  6.47321428571429 18.0104166666667  C 6.32440476190476 17.9161706349206  6.25 17.7842261904762  6.25 17.6145833333333  C 6.25 17.5014880952381  6.4546130952381 17.0915178571429  6.86383928571429 16.3846726190476  C 5.53385416666667 15.7720734126984  4.30850074404762 14.9568452380952  3.18777901785714 13.9389880952381  C 2.06705729166667 12.921130952381  1.09747023809524 11.7666170634921  0.279017857142857 10.4754464285714  C 0.0930059523809524 10.1832837301587  0 9.85813492063492  0 9.5  C 0 9.14186507936508  0.0930059523809524 8.81671626984127  0.279017857142857 8.52455357142857  C 1.70200892857143 6.30977182539683  3.46912202380952 4.56150793650794  5.58035714285714 3.27976190476191  C 7.69159226190476 1.99801587301587  9.99813988095238 1.35714285714286  12.5 1.35714285714286  C 13.3277529761905 1.35714285714286  14.164806547619 1.43725198412698  15.0111607142857 1.59747023809524  L 15.7645089285714 0.226190476190475  C 15.8575148809524 0.0753968253968251  15.9877232142857 0  16.1551339285714 0  C 16.2016369047619 0  16.2853422619048 0.0282738095238094  16.40625 0.0848214285714283  C 16.5271577380952 0.141369047619047  16.6713169642857 0.21440972222222  16.8387276785714 0.303943452380953  C 17.0061383928571 0.393477182539682  17.1595982142857 0.480654761904762  17.2991071428571 0.565476190476191  C 17.4386160714286 0.650297619047619  17.5851004464286 0.737475198412695  17.7385602678571 0.827008928571428  C 17.8920200892857 0.916542658730157  17.9827008928571 0.970734126984126  18.0106026785714 0.989583333333334  Z M 18.6383928571429 6.50297619047619  C 18.7127976190476 6.92708333333333  18.75 7.32291666666667  18.75 7.69047619047619  C 18.75 9.00049603174603  18.3826264880952 10.195064484127  17.6478794642857 11.274181547619  C 16.9131324404762 12.3532986111111  15.9412202380952 13.1284722222222  14.7321428571429 13.5997023809524  L 18.6383928571429 6.50297619047619  Z M 24.7209821428571 8.52455357142857  C 24.9069940476191 8.84499007936508  25 9.17013888888889  25 9.5  C 25 9.82986111111111  24.9069940476191 10.1550099206349  24.7209821428571 10.4754464285714  C 24.3582589285714 11.078621031746  23.8513764880952 11.7619047619048  23.2003348214286 12.5252976190476  C 21.8052455357143 14.1463293650794  20.1892671130952 15.4045138888889  18.3523995535714 16.2998511904762  C 16.5155319940476 17.1951884920635  14.5647321428571 17.6428571428571  12.5 17.6428571428571  L 13.5323660714286 15.7767857142857  C 15.5040922619048 15.6071428571429  17.329334077381 14.9615575396825  19.0080915178571 13.8400297619048  C 20.6868489583333 12.718501984127  22.0889136904762 11.2718253968254  23.2142857142857 9.5  C 22.1447172619048 7.81299603174603  20.8333333333333 6.42757936507937  19.2801339285714 5.34375  L 20.1590401785714 3.76041666666667  C 21.0425967261905 4.36359126984127  21.8912760416667 5.08457341269841  22.705078125 5.92336309523809  C 23.5188802083333 6.76215277777778  24.1908482142857 7.62921626984127  24.7209821428571 8.52455357142857  Z " fill-rule="nonzero" fill="#000000" stroke="none" transform="matrix(1 0 0 1 2990 380 )" />
  </g>
</svg>