<?xml version="1.0" encoding="utf-8"?>
<svg version="1.1" xmlns:xlink="http://www.w3.org/1999/xlink" width="11px" height="25px" xmlns="http://www.w3.org/2000/svg">
  <g transform="matrix(1 0 0 1 -720 -501 )">
    <path d="M 10.5285714285714 18.5185185185185  C 10.7285714285714 18.5185185185185  10.8666666666667 18.6101466049383  10.9428571428571 18.7934027777778  C 11.0190476190476 18.9766589506173  10.9952380952381 19.1454475308642  10.8714285714286 19.2997685185185  L 5.87142857142857 24.8553240740741  C 5.77619047619048 24.951774691358  5.66666666666667 25  5.54285714285714 25  C 5.40952380952381 25  5.2952380952381 24.951774691358  5.2 24.8553240740741  L 0.128571428571429 19.2997685185185  C 0.00476190476190475 19.1454475308642  -0.0190476190476191 18.9766589506173  0.0571428571428571 18.7934027777778  C 0.142857142857143 18.6101466049383  0.280952380952381 18.5185185185185  0.471428571428571 18.5185185185185  L 3.67142857142857 18.5185185185185  L 3.67142857142857 0.462962962962962  C 3.67142857142857 0.327932098765429  3.71428571428571 0.21701388888889  3.8 0.130208333333334  C 3.88571428571429 0.043402777777779  3.9952380952381 0  4.12857142857143 0  L 6.87142857142857 0  C 7.0047619047619 0  7.11428571428571 0.043402777777779  7.2 0.130208333333334  C 7.28571428571429 0.21701388888889  7.32857142857143 0.327932098765429  7.32857142857143 0.462962962962962  L 7.32857142857143 18.5185185185185  L 10.5285714285714 18.5185185185185  Z " fill-rule="nonzero" fill="#000000" stroke="none" transform="matrix(1 0 0 1 720 501 )" />
  </g>
</svg>