<?xml version="1.0" encoding="utf-8"?>
<svg version="1.1" xmlns:xlink="http://www.w3.org/1999/xlink" width="35px" height="35px" xmlns="http://www.w3.org/2000/svg">
  <g transform="matrix(1 0 0 1 -820 -515 )">
    <path d="M 837.5 531.935028842544  C 834 524.5  830.5 524.5  828.75 524.5  C 829.05 524.5  829.5 524.724137931035  829.5 525.15  C 829.5 532.8035867432  837.5 538.403772165053  837.5 538.403772165053  C 837.5 538.403772165053  845.5 532.8035867432  845.5 525.15  C 845.5 524.724137931035  845.95 524.5  846.25 524.5  C 844.5 524.5  841 524.5  837.5 531.935028842544  Z " fill-rule="nonzero" fill="#ffffff" stroke="none" fill-opacity="0" />
    <path d="M 837.5 518.5  C 834 515  830.5 515  828.75 515  C 825.25 515  820 518.5  820 525.15  C 820 539.5  837.5 550  837.5 550  C 837.5 550  855 539.5  855 525.15  C 855 518.5  849.75 515  846.25 515  C 844.5 515  841 515  837.5 518.5  Z M 837.5 532.642135623731  C 841 525  844.5 525  846.25 525  C 845.75 525  845 525.051724137931  845 525.15  C 845 532.45114394021  837.5 537.793444384266  837.5 537.793444384266  C 837.5 537.793444384266  830 532.45114394021  830 525.15  C 830 525.051724137931  829.25 525  828.75 525  C 830.5 525  834 525  837.5 532.642135623731  Z " fill-rule="nonzero" fill="#f6370b" stroke="none" />
  </g>
</svg>