<?xml version="1.0" encoding="utf-8"?>
<svg version="1.1" xmlns:xlink="http://www.w3.org/1999/xlink" width="35px" height="35px" xmlns="http://www.w3.org/2000/svg">
  <g transform="matrix(1 0 0 1 -820 -453 )">
    <path d="M 837.5 470.642135623731  C 834 463  830.5 463  828.75 463  C 829.25 463  830 463.051724137931  830 463.15  C 830 470.45114394021  837.5 475.793444384266  837.5 475.793444384266  C 837.5 475.793444384266  845 470.45114394021  845 463.15  C 845 463.051724137931  845.75 463  846.25 463  C 844.5 463  841 463  837.5 470.642135623731  Z " fill-rule="nonzero" fill="#ffffff" stroke="none" fill-opacity="0" />
    <path d="M 837.5 456.5  C 834 453  830.5 453  828.75 453  C 825.25 453  820 456.5  820 463.15  C 820 477.5  837.5 488  837.5 488  C 837.5 488  855 477.5  855 463.15  C 855 456.5  849.75 453  846.25 453  C 844.5 453  841 453  837.5 456.5  Z M 837.5 470.642135623731  C 841 463  844.5 463  846.25 463  C 845.75 463  845 463.051724137931  845 463.15  C 845 470.45114394021  837.5 475.793444384266  837.5 475.793444384266  C 837.5 475.793444384266  830 470.45114394021  830 463.15  C 830 463.051724137931  829.25 463  828.75 463  C 830.5 463  834 463  837.5 470.642135623731  Z " fill-rule="nonzero" fill="#f6370b" stroke="none" fill-opacity="0.847058823529412" />
  </g>
</svg>