<?xml version="1.0" encoding="utf-8"?>
<svg version="1.1" xmlns:xlink="http://www.w3.org/1999/xlink" width="35px" height="35px" xmlns="http://www.w3.org/2000/svg">
  <g transform="matrix(1 0 0 1 -820 -390 )">
    <path d="M 837.5 407.642135623731  C 834 400  830.5 400  828.75 400  C 829.25 400  830 400.051724137931  830 400.15  C 830 407.45114394021  837.5 412.793444384266  837.5 412.793444384266  C 837.5 412.793444384266  845 407.45114394021  845 400.15  C 845 400.051724137931  845.75 400  846.25 400  C 844.5 400  841 400  837.5 407.642135623731  Z " fill-rule="nonzero" fill="#ffffff" stroke="none" fill-opacity="0" />
    <path d="M 837.5 393.5  C 834 390  830.5 390  828.75 390  C 825.25 390  820 393.5  820 400.15  C 820 414.5  837.5 425  837.5 425  C 837.5 425  855 414.5  855 400.15  C 855 393.5  849.75 390  846.25 390  C 844.5 390  841 390  837.5 393.5  Z M 837.5 407.642135623731  C 841 400  844.5 400  846.25 400  C 845.75 400  845 400.051724137931  845 400.15  C 845 407.45114394021  837.5 412.793444384266  837.5 412.793444384266  C 837.5 412.793444384266  830 407.45114394021  830 400.15  C 830 400.051724137931  829.25 400  828.75 400  C 830.5 400  834 400  837.5 407.642135623731  Z " fill-rule="nonzero" fill="#f6370b" stroke="none" fill-opacity="0.698039215686274" />
  </g>
</svg>