<?xml version="1.0" encoding="utf-8"?>
<svg version="1.1" xmlns:xlink="http://www.w3.org/1999/xlink" width="35px" height="35px" xmlns="http://www.w3.org/2000/svg">
  <g transform="matrix(1 0 0 1 -820 -265 )">
    <path d="M 837.5 282.642135623731  C 834 275  830.5 275  828.75 275  C 829.25 275  830 275.051724137931  830 275.15  C 830 282.45114394021  837.5 287.793444384266  837.5 287.793444384266  C 837.5 287.793444384266  845 282.45114394021  845 275.15  C 845 275.051724137931  845.75 275  846.25 275  C 844.5 275  841 275  837.5 282.642135623731  Z " fill-rule="nonzero" fill="#ffffff" stroke="none" fill-opacity="0" />
    <path d="M 837.5 268.5  C 834 265  830.5 265  828.75 265  C 825.25 265  820 268.5  820 275.15  C 820 289.5  837.5 300  837.5 300  C 837.5 300  855 289.5  855 275.15  C 855 268.5  849.75 265  846.25 265  C 844.5 265  841 265  837.5 268.5  Z M 837.5 282.642135623731  C 841 275  844.5 275  846.25 275  C 845.75 275  845 275.051724137931  845 275.15  C 845 282.45114394021  837.5 287.793444384266  837.5 287.793444384266  C 837.5 287.793444384266  830 282.45114394021  830 275.15  C 830 275.051724137931  829.25 275  828.75 275  C 830.5 275  834 275  837.5 282.642135623731  Z " fill-rule="nonzero" fill="#f6370b" stroke="none" fill-opacity="0.4" />
  </g>
</svg>