<?xml version="1.0" encoding="utf-8"?>
<svg version="1.1" xmlns:xlink="http://www.w3.org/1999/xlink" width="35px" height="35px" xmlns="http://www.w3.org/2000/svg">
  <g transform="matrix(1 0 0 1 -820 -328 )">
    <path d="M 837.5 345.642135623731  C 834 338  830.5 338  828.75 338  C 829.25 338  830 338.051724137931  830 338.15  C 830 345.45114394021  837.5 350.793444384266  837.5 350.793444384266  C 837.5 350.793444384266  845 345.45114394021  845 338.15  C 845 338.051724137931  845.75 338  846.25 338  C 844.5 338  841 338  837.5 345.642135623731  Z " fill-rule="nonzero" fill="#ffffff" stroke="none" fill-opacity="0" />
    <path d="M 837.5 331.5  C 834 328  830.5 328  828.75 328  C 825.25 328  820 331.5  820 338.15  C 820 352.5  837.5 363  837.5 363  C 837.5 363  855 352.5  855 338.15  C 855 331.5  849.75 328  846.25 328  C 844.5 328  841 328  837.5 331.5  Z M 837.5 345.642135623731  C 841 338  844.5 338  846.25 338  C 845.75 338  845 338.051724137931  845 338.15  C 845 345.45114394021  837.5 350.793444384266  837.5 350.793444384266  C 837.5 350.793444384266  830 345.45114394021  830 338.15  C 830 338.051724137931  829.25 338  828.75 338  C 830.5 338  834 338  837.5 345.642135623731  Z " fill-rule="nonzero" fill="#f6370b" stroke="none" fill-opacity="0.549019607843137" />
  </g>
</svg>