<?xml version="1.0" encoding="utf-8"?>
<svg version="1.1" xmlns:xlink="http://www.w3.org/1999/xlink" width="12px" height="12px" viewBox="30 1071.5  12 12" xmlns="http://www.w3.org/2000/svg">
  <path d="M 36 1071.5  C 39.36 1071.5  42 1074.14  42 1077.5  C 42 1080.86  39.36 1083.5  36 1083.5  C 32.64 1083.5  30 1080.86  30 1077.5  C 30 1074.14  32.64 1071.5  36 1071.5  Z " fill-rule="nonzero" fill="#ffffff" stroke="none" />
  <path d="M 36 1072  C 39.08 1072  41.5 1074.42  41.5 1077.5  C 41.5 1080.58  39.08 1083  36 1083  C 32.92 1083  30.5 1080.58  30.5 1077.5  C 30.5 1074.42  32.92 1072  36 1072  Z " stroke-width="1" stroke="#797979" fill="none" />
  <path d="M 36 1080.5  C 34.32 1080.5  33 1079.18  33 1077.5  C 33 1075.82  34.32 1074.5  36 1074.5  C 37.68 1074.5  39 1075.82  39 1077.5  C 39 1079.18  37.68 1080.5  36 1080.5  " fill-rule="nonzero" fill="#797979" stroke="none" />
</svg>