<?xml version="1.0" encoding="utf-8"?>
<svg version="1.1" xmlns:xlink="http://www.w3.org/1999/xlink" width="93px" height="86px" xmlns="http://www.w3.org/2000/svg">
  <g transform="matrix(1 0 0 1 -331 -739 )">
    <path d="M 12.4353966346154 35.9453125  C 15.9564302884615 39.0807291666667  20.34375 41.1896701388889  25.5973557692308 42.2721354166667  C 22.8401442307692 36.2252604166667  21.4615384615385 29.3012152777778  21.4615384615385 22  L 7.15384615384615 22  L 7.15384615384615 26.875  C 7.15384615384615 29.7864583333333  8.91436298076923 32.8098958333333  12.4353966346154 35.9453125  Z M 80.5646033653846 35.9453125  C 84.0856370192308 32.8098958333333  85.8461538461539 29.7864583333333  85.8461538461539 26.875  L 85.8461538461539 22  L 71.5384615384615 22  C 71.5384615384615 29.3012152777778  70.1598557692308 36.2252604166667  67.4026442307692 42.2721354166667  C 72.65625 41.1896701388889  77.0435697115385 39.0807291666667  80.5646033653846 35.9453125  Z M 91.4350961538461 15.9010416666667  C 92.4783653846154 16.9461805555556  93 18.2152777777778  93 19.7083333333333  L 93 26.875  C 93 29.5251736111111  92.2268629807692 32.1940104166667  90.6805889423077 34.8815104166667  C 89.1343149038462 37.5690104166667  87.0477764423077 39.9952256944444  84.4209735576923 42.16015625  C 81.7941706730769 44.3250868055556  78.5712139423077 46.1447482638889  74.7521033653846 47.619140625  C 70.9329927884615 49.0935329861111  66.9182692307692 49.9240451388889  62.7079326923077 50.1106770833333  C 61.1430288461539 52.1263020833333  59.3731971153846 53.8993055555555  57.3984375 55.4296875  C 55.9825721153846 56.6987847222222  55.0045072115385 58.0518663194445  54.4642427884615 59.4889322916667  C 53.9239783653846 60.9259982638889  53.6538461538462 62.5963541666667  53.6538461538461 64.5  C 53.6538461538462 66.515625  54.2220552884615 68.2139756944444  55.3584735576923 69.5950520833333  C 56.4948918269231 70.9761284722222  58.3112980769231 71.6666666666667  60.8076923076923 71.6666666666667  C 63.6021634615385 71.6666666666667  66.0892427884615 72.5158420138889  68.2689302884615 74.2141927083333  C 70.4486177884615 75.9125434027778  71.5384615384615 78.0494791666667  71.5384615384615 80.625  L 71.5384615384615 84.2083333333333  C 71.5384615384615 84.7309027777778  71.3707932692308 85.16015625  71.0354567307692 85.49609375  C 70.7001201923077 85.83203125  70.2716346153846 86  69.75 86  L 23.25 86  C 22.7283653846154 86  22.2998798076923 85.83203125  21.9645432692308 85.49609375  C 21.6292067307692 85.16015625  21.4615384615385 84.7309027777778  21.4615384615385 84.2083333333333  L 21.4615384615385 80.625  C 21.4615384615385 78.0494791666667  22.5513822115385 75.9125434027778  24.7310697115385 74.2141927083333  C 26.9107572115385 72.5158420138889  29.3978365384615 71.6666666666667  32.1923076923077 71.6666666666667  C 34.6887019230769 71.6666666666667  36.5051081730769 70.9761284722222  37.6415264423077 69.5950520833333  C 38.7779447115385 68.2139756944444  39.3461538461538 66.515625  39.3461538461538 64.5  C 39.3461538461538 62.5963541666667  39.0760216346154 60.9259982638889  38.5357572115385 59.4889322916667  C 37.9954927884615 58.0518663194445  37.0174278846154 56.6987847222222  35.6015625 55.4296875  C 33.6268028846154 53.8993055555555  31.8569711538462 52.1263020833333  30.2920673076923 50.1106770833333  C 26.0817307692308 49.9240451388889  22.0670072115385 49.0935329861111  18.2478966346154 47.619140625  C 14.4287860576923 46.1447482638889  11.2058293269231 44.3250868055556  8.57902644230769 42.16015625  C 5.95222355769231 39.9952256944444  3.86568509615385 37.5690104166667  2.31941105769231 34.8815104166667  C 0.773137019230769 32.1940104166667  0 29.5251736111111  0 26.875  L 0 19.7083333333333  C 0 18.2152777777778  0.521634615384615 16.9461805555556  1.56490384615385 15.9010416666667  C 2.60817307692308 14.8559027777778  3.875 14.3333333333333  5.36538461538462 15  L 21.4615384615385 15  L 21.4615384615385 8.95833333333333  C 21.4615384615385 6.49479166666667  22.3371394230769 4.38585069444444  24.0883413461538 2.63151041666667  C 25.8395432692308 0.87717013888888  27.9447115384615 0  30.4038461538462 0  L 62.5961538461539 0  C 65.0552884615385 0  67.1604567307692 0.87717013888888  68.9116586538461 2.63151041666667  C 70.6628605769231 4.38585069444444  71.5384615384615 6.49479166666667  71.5384615384615 8.95833333333333  L 71.5384615384615 15  L 87.6346153846154 15  C 89.125 14.3333333333333  90.3918269230769 14.8559027777778  91.4350961538461 15.9010416666667  Z " fill-rule="nonzero" fill="#bfbf00" stroke="none" transform="matrix(1 0 0 1 331 739 )" />
  </g>
</svg>