<?xml version="1.0" encoding="utf-8"?>
<svg version="1.1" xmlns:xlink="http://www.w3.org/1999/xlink" width="20px" height="31px" xmlns="http://www.w3.org/2000/svg">
  <g transform="matrix(1 0 0 1 -721 -841 )">
    <path d="M 19.6563573883161 14.7855711422846  C 19.8854524627721 14.9926519706079  20 15.2307949231797  20 15.5  C 20 15.7692050768203  19.8854524627721 16.0073480293921  19.6563573883161 16.2144288577154  L 3.6426116838488 30.689378757515  C 3.4135166093929 30.8964595858383  3.15005727376861 31  2.85223367697594 31  C 2.55441008018328 31  2.29095074455899 30.8964595858383  2.06185567010309 30.689378757515  L 0.343642611683849 29.1362725450902  C 0.11454753722795 28.9291917167669  0 28.6910487641951  0 28.4218436873748  C 0 28.1526386105544  0.11454753722795 27.9144956579826  0.343642611683849 27.7074148296593  L 13.8487972508591 15.5  L 0.343642611683849 3.29258517034068  C 0.11454753722795 3.08550434201737  0 2.84736138944556  0 2.57815631262525  C 0 2.30895123580494  0.11454753722795 2.07080828323313  0.343642611683849 1.86372745490982  L 2.06185567010309 0.31062124248497  C 2.29095074455899 0.103540414161656  2.55441008018328 0  2.85223367697594 0  C 3.15005727376861 0  3.4135166093929 0.103540414161656  3.6426116838488 0.31062124248497  L 19.6563573883161 14.7855711422846  Z " fill-rule="nonzero" fill="#000000" stroke="none" transform="matrix(1 0 0 1 721 841 )" />
  </g>
</svg>