<?xml version="1.0" encoding="utf-8"?>
<svg version="1.1" xmlns:xlink="http://www.w3.org/1999/xlink" width="171px" height="171px" xmlns="http://www.w3.org/2000/svg">
  <g transform="matrix(1 0 0 1 -495 -618 )">
    <path d="M 580.5 632  C 620.54 632  652 663.46  652 703.5  C 652 743.54  620.54 775  580.5 775  C 540.46 775  509 743.54  509 703.5  C 509 663.46  540.46 632  580.5 632  Z " fill-rule="nonzero" fill="#ffffff" stroke="none" />
    <path d="M 580.5 625.5  C 624.18 625.5  658.5 659.82  658.5 703.5  C 658.5 747.18  624.18 781.5  580.5 781.5  C 536.82 781.5  502.5 747.18  502.5 703.5  C 502.5 659.82  536.82 625.5  580.5 625.5  Z " stroke-width="15" stroke="#ffff00" fill="none" />
  </g>
</svg>