<?xml version="1.0" encoding="utf-8"?>
<svg version="1.1" xmlns:xlink="http://www.w3.org/1999/xlink" width="156px" height="156px" xmlns="http://www.w3.org/2000/svg">
  <g transform="matrix(1 0 0 1 -502 -626 )">
    <path d="M 580 640  C 615.84 640  644 668.16  644 704  C 644 739.84  615.84 768  580 768  C 544.16 768  516 739.84  516 704  C 516 668.16  544.16 640  580 640  Z " fill-rule="nonzero" fill="#ffffff" stroke="none" />
    <path d="M 580 633.5  C 619.48 633.5  650.5 664.52  650.5 704  C 650.5 743.48  619.48 774.5  580 774.5  C 540.52 774.5  509.5 743.48  509.5 704  C 509.5 664.52  540.52 633.5  580 633.5  Z " stroke-width="15" stroke="#f59a23" fill="none" />
  </g>
</svg>