<?xml version="1.0" encoding="utf-8"?>
<svg version="1.1" xmlns:xlink="http://www.w3.org/1999/xlink" width="92px" height="31px" xmlns="http://www.w3.org/2000/svg">
  <defs>
    <mask fill="white" id="clip114">
      <path d="M 0 31  L 0 0  L 36.3333333333321 0  L 39 0  L 51 0  L 61.6666666666642 0  L 92 0  L 92 31  L 0 31  Z " fill-rule="evenodd" />
    </mask>
  </defs>
  <g transform="matrix(1 0 0 1 -1127 -602 )">
    <path d="M 0 31  L 0 0  L 36.3333333333321 0  L 39 0  L 51 0  L 61.6666666666642 0  L 92 0  L 92 31  L 0 31  Z " fill-rule="nonzero" fill="#ffffff" stroke="none" transform="matrix(1 0 0 1 1127 602 )" />
    <path d="M 0 31  L 0 0  L 36.3333333333321 0  L 39 0  L 51 0  L 61.6666666666642 0  L 92 0  L 92 31  L 0 31  Z " stroke-width="2" stroke="#797979" fill="none" transform="matrix(1 0 0 1 1127 602 )" mask="url(#clip114)" />
  </g>
</svg>