<?xml version="1.0" encoding="utf-8"?>
<svg version="1.1" xmlns:xlink="http://www.w3.org/1999/xlink" width="124px" height="124px" xmlns="http://www.w3.org/2000/svg">
  <g transform="matrix(1 0 0 1 -518 -642 )">
    <path d="M 580 656  C 606.88 656  628 677.12  628 704  C 628 730.88  606.88 752  580 752  C 553.12 752  532 730.88  532 704  C 532 677.12  553.12 656  580 656  Z " fill-rule="nonzero" fill="#ffffff" stroke="none" />
    <path d="M 580 649.5  C 610.52 649.5  634.5 673.48  634.5 704  C 634.5 734.52  610.52 758.5  580 758.5  C 549.48 758.5  525.5 734.52  525.5 704  C 525.5 673.48  549.48 649.5  580 649.5  Z " stroke-width="15" stroke="#81d3f8" fill="none" />
  </g>
</svg>