<?xml version="1.0" encoding="utf-8"?>
<svg version="1.1" xmlns:xlink="http://www.w3.org/1999/xlink" width="18px" height="18px" xmlns="http://www.w3.org/2000/svg">
  <defs>
    <mask fill="white" id="clip680">
      <path d="M 11.25 15.75  C 11.25 15.75  2.25 15.75  2.25 15.75  C 2.25 15.75  2.25 2.25  2.25 2.25  C 2.25 2.25  15.75 11.25  15.75 11.25  C 15.75 11.25  11.25 15.75  11.25 15.75  Z " fill-rule="evenodd" />
    </mask>
  </defs>
  <g transform="matrix(1 0 0 1 -357 -399 )">
    <path d="M 11.25 15.75  C 11.25 15.75  2.25 15.75  2.25 15.75  C 2.25 15.75  2.25 2.25  2.25 2.25  C 2.25 2.25  15.75 11.25  15.75 11.25  C 15.75 11.25  11.25 15.75  11.25 15.75  Z " fill-rule="nonzero" fill="#0000ff" stroke="none" transform="matrix(1 0 0 1 357 399 )" />
    <path d="M 11.25 15.75  C 11.25 15.75  2.25 15.75  2.25 15.75  C 2.25 15.75  2.25 2.25  2.25 2.25  C 2.25 2.25  15.75 11.25  15.75 11.25  C 15.75 11.25  11.25 15.75  11.25 15.75  Z " stroke-width="2" stroke="#999999" fill="none" transform="matrix(1 0 0 1 357 399 )" mask="url(#clip680)" />
  </g>
</svg>