<?xml version="1.0" encoding="utf-8"?>
<svg version="1.1" xmlns:xlink="http://www.w3.org/1999/xlink" width="20px" height="18px" xmlns="http://www.w3.org/2000/svg">
  <defs>
    <mask fill="white" id="clip685">
      <path d="M 18 15.75  C 18 15.75  14 15.75  14 15.75  C 14 15.75  2 11.25  2 11.25  C 2 11.25  6 2.25  6 2.25  C 6 2.25  18 15.75  18 15.75  Z " fill-rule="evenodd" />
    </mask>
  </defs>
  <g transform="matrix(1 0 0 1 -36 -419 )">
    <path d="M 18 15.75  C 18 15.75  14 15.75  14 15.75  C 14 15.75  2 11.25  2 11.25  C 2 11.25  6 2.25  6 2.25  C 6 2.25  18 15.75  18 15.75  Z " fill-rule="nonzero" fill="#0000ff" stroke="none" transform="matrix(1 0 0 1 36 419 )" />
    <path d="M 18 15.75  C 18 15.75  14 15.75  14 15.75  C 14 15.75  2 11.25  2 11.25  C 2 11.25  6 2.25  6 2.25  C 6 2.25  18 15.75  18 15.75  Z " stroke-width="2" stroke-dasharray="1,1" stroke="#999999" fill="none" transform="matrix(1 0 0 1 36 419 )" mask="url(#clip685)" />
  </g>
</svg>