<?xml version="1.0" encoding="utf-8"?>
<svg version="1.1" xmlns:xlink="http://www.w3.org/1999/xlink" width="87px" height="40px" xmlns="http://www.w3.org/2000/svg">
  <defs>
    <mask fill="white" id="clip213">
      <path d="M 7.33333333333337 39.7058823529412  L 0 39.7058823529412  L 0 0  L 80 0  L 80 12.6272189349113  L 86.5917159763313 18.1005917159764  L 80 22.9822485207101  L 80 39.7058823529412  L 27.3333333333334 39.7058823529412  L 16.9523809523811 39.7058823529412  L 7.33333333333337 39.7058823529412  Z " fill-rule="evenodd" />
    </mask>
  </defs>
  <g transform="matrix(1 0 0 1 -469 -687 )">
    <path d="M 7.33333333333337 39.7058823529412  L 0 39.7058823529412  L 0 0  L 80 0  L 80 12.6272189349113  L 86.5917159763313 18.1005917159764  L 80 22.9822485207101  L 80 39.7058823529412  L 27.3333333333334 39.7058823529412  L 16.9523809523811 39.7058823529412  L 7.33333333333337 39.7058823529412  Z " fill-rule="nonzero" fill="#5b8ff9" stroke="none" fill-opacity="0.4" transform="matrix(1 0 0 1 469 687 )" />
    <path d="M 7.33333333333337 39.7058823529412  L 0 39.7058823529412  L 0 0  L 80 0  L 80 12.6272189349113  L 86.5917159763313 18.1005917159764  L 80 22.9822485207101  L 80 39.7058823529412  L 27.3333333333334 39.7058823529412  L 16.9523809523811 39.7058823529412  L 7.33333333333337 39.7058823529412  Z " stroke-width="2" stroke="#f9f9f9" fill="none" transform="matrix(1 0 0 1 469 687 )" mask="url(#clip213)" />
  </g>
</svg>