<?xml version="1.0" encoding="utf-8"?>
<svg version="1.1" xmlns:xlink="http://www.w3.org/1999/xlink" width="735px" height="70px" xmlns="http://www.w3.org/2000/svg">
  <g transform="matrix(1 0 0 1 -40 -438 )">
    <path d="M 41 448  A 9 9 0 0 1 50 439 L 765 439  A 9 9 0 0 1 774 448 L 774 498  A 9 9 0 0 1 765 507 L 50 507  A 9 9 0 0 1 41 498 L 41 448  Z " fill-rule="nonzero" fill="#ffffff" stroke="none" />
    <path d="M 40.5 448  A 9.5 9.5 0 0 1 50 438.5 L 765 438.5  A 9.5 9.5 0 0 1 774.5 448 L 774.5 498  A 9.5 9.5 0 0 1 765 507.5 L 50 507.5  A 9.5 9.5 0 0 1 40.5 498 L 40.5 448  Z " stroke-width="1" stroke="#353535" fill="none" stroke-opacity="0.4" />
  </g>
</svg>