<?xml version="1.0" encoding="utf-8"?>
<svg version="1.1" xmlns:xlink="http://www.w3.org/1999/xlink" width="167px" height="167px" xmlns="http://www.w3.org/2000/svg">
  <g transform="matrix(1 0 0 1 -326 -342 )">
    <path d="M 409.5 357.5  C 447.58 357.5  477.5 387.42  477.5 425.5  C 477.5 463.58  447.58 493.5  409.5 493.5  C 371.42 493.5  341.5 463.58  341.5 425.5  C 341.5 387.42  371.42 357.5  409.5 357.5  Z " fill-rule="nonzero" fill="#ffffff" stroke="none" fill-opacity="0" />
    <path d="M 409.5 350  C 451.78 350  485 383.22  485 425.5  C 485 467.78  451.78 501  409.5 501  C 367.22 501  334 467.78  334 425.5  C 334 383.22  367.22 350  409.5 350  Z " stroke-width="16" stroke-dasharray="48,16" stroke="#c0b8b9" fill="none" />
  </g>
</svg>