<?xml version="1.0" encoding="utf-8"?>
<svg version="1.1" xmlns:xlink="http://www.w3.org/1999/xlink" width="126px" height="126px" xmlns="http://www.w3.org/2000/svg">
  <g transform="matrix(1 0 0 1 -346 -362 )">
    <path d="M 409 377.5  C 435.6 377.5  456.5 398.4  456.5 425  C 456.5 451.6  435.6 472.5  409 472.5  C 382.4 472.5  361.5 451.6  361.5 425  C 361.5 398.4  382.4 377.5  409 377.5  Z " fill-rule="nonzero" fill="#ffffff" stroke="none" fill-opacity="0" />
    <path d="M 409 370  C 439.8 370  464 394.2  464 425  C 464 455.8  439.8 480  409 480  C 378.2 480  354 455.8  354 425  C 354 394.2  378.2 370  409 370  Z " stroke-width="16" stroke-dasharray="48,16" stroke="#6f6a66" fill="none" />
  </g>
</svg>