<?xml version="1.0" encoding="utf-8"?>
<svg version="1.1" xmlns:xlink="http://www.w3.org/1999/xlink" width="35px" height="30px" xmlns="http://www.w3.org/2000/svg">
  <g transform="matrix(1 0 0 1 -724 -759 )">
    <path d="M 4.82421875 25.17578125  C 4.94140625 25.29296875  5 25.4427083333333  5 25.625  L 5 29.375  C 5 29.5572916666667  4.94140625 29.70703125  4.82421875 29.82421875  C 4.70703125 29.94140625  4.55729166666667 30  4.375 30  L 0.625 30  C 0.442708333333333 30  0.29296875 29.94140625  0.17578125 29.82421875  C 0.05859375 29.70703125  0 29.5572916666667  0 29.375  L 0 25.625  C 0 25.4427083333333  0.05859375 25.29296875  0.17578125 25.17578125  C 0.29296875 25.05859375  0.442708333333333 25  0.625 25  L 4.375 25  C 4.55729166666667 25  4.70703125 25.05859375  4.82421875 25.17578125  Z M 12.32421875 22.67578125  C 12.44140625 22.79296875  12.5 22.9427083333333  12.5 23.125  L 12.5 29.375  C 12.5 29.5572916666667  12.44140625 29.70703125  12.32421875 29.82421875  C 12.20703125 29.94140625  12.0572916666667 30  11.875 30  L 8.125 30  C 7.94270833333333 30  7.79296875 29.94140625  7.67578125 29.82421875  C 7.55859375 29.70703125  7.5 29.5572916666667  7.5 29.375  L 7.5 23.125  C 7.5 22.9427083333333  7.55859375 22.79296875  7.67578125 22.67578125  C 7.79296875 22.55859375  7.94270833333333 22.5  8.125 22.5  L 11.875 22.5  C 12.0572916666667 22.5  12.20703125 22.55859375  12.32421875 22.67578125  Z M 19.82421875 17.67578125  C 19.94140625 17.79296875  20 17.9427083333333  20 18.125  L 20 29.375  C 20 29.5572916666667  19.94140625 29.70703125  19.82421875 29.82421875  C 19.70703125 29.94140625  19.5572916666667 30  19.375 30  L 15.625 30  C 15.4427083333333 30  15.29296875 29.94140625  15.17578125 29.82421875  C 15.05859375 29.70703125  15 29.5572916666667  15 29.375  L 15 18.125  C 15 17.9427083333333  15.05859375 17.79296875  15.17578125 17.67578125  C 15.29296875 17.55859375  15.4427083333333 17.5  15.625 17.5  L 19.375 17.5  C 19.5572916666667 17.5  19.70703125 17.55859375  19.82421875 17.67578125  Z M 27.32421875 10.17578125  C 27.44140625 10.29296875  27.5 10.4427083333333  27 10.625  L 27 29.375  C 27.5 29.5572916666667  27.44140625 29.70703125  27.32421875 29.82421875  C 27.20703125 29.94140625  27.0572916666667 30  26.875 30  L 23.125 30  C 22.9427083333333 30  22.79296875 29.94140625  22.67578125 29.82421875  C 22.55859375 29.70703125  22.5 29.5572916666667  22 29.375  L 22 10.625  C 22.5 10.4427083333333  22.55859375 10.29296875  22.67578125 10.17578125  C 22.79296875 10.05859375  22.9427083333333 10  23.125 10  L 26.875 10  C 27.0572916666667 10  27.20703125 10.05859375  27.32421875 10.17578125  Z M 34.82421875 0.17578125  C 34.94140625 0.29296875  35 0.442708333333329  35 0.625000000000001  L 35 29.375  C 35 29.5572916666667  34.94140625 29.70703125  34.82421875 29.82421875  C 34.70703125 29.94140625  34.5572916666667 30  34.375 30  L 30.625 30  C 30.4427083333333 30  30.29296875 29.94140625  30.17578125 29.82421875  C 30.05859375 29.70703125  30 29.5572916666667  30 29.375  L 30 0.625000000000001  C 30 0.442708333333329  30.05859375 0.29296875  30.17578125 0.17578125  C 30.29296875 0.05859375  30.4427083333333 0  30.625 0  L 34.375 0  C 34.5572916666667 0  34.70703125 0.05859375  34.82421875 0.17578125  Z " fill-rule="nonzero" fill="#000000" stroke="none" transform="matrix(1 0 0 1 724 759 )" />
  </g>
</svg>