<?xml version="1.0" encoding="utf-8"?>
<svg version="1.1" xmlns:xlink="http://www.w3.org/1999/xlink" width="25px" height="25px" xmlns="http://www.w3.org/2000/svg">
  <g transform="matrix(1 0 0 1 -691 -4710 )">
    <path d="M 703.5 4710  C 710.5 4710  716 4715.5  716 4722.5  C 716 4729.5  710.5 4735  703.5 4735  C 696.5 4735  691 4729.5  691 4722.5  C 691 4715.5  696.5 4710  703.5 4710  Z " fill-rule="nonzero" fill="#5b8ff9" stroke="none" />
    <path d="M 703.5 4710.5  C 710.22 4710.5  715.5 4715.78  715.5 4722.5  C 715.5 4729.22  710.22 4734.5  703.5 4734.5  C 696.78 4734.5  691.5 4729.22  691.5 4722.5  C 691.5 4715.78  696.78 4710.5  703.5 4710.5  Z " stroke-width="1" stroke="#5b8ff9" fill="none" />
  </g>
</svg>