<?xml version="1.0" encoding="utf-8"?>
<svg version="1.1" xmlns:xlink="http://www.w3.org/1999/xlink" width="27px" height="25px" xmlns="http://www.w3.org/2000/svg">
  <g transform="matrix(1 0 0 1 -1109 -162 )">
    <path d="M 11.5453125 15.0624645088018  C 12.2484375 14.3526405451448  12.6 13.4961196289987  12.6 12.4929017603634  C 12.6 11.4896838917282  12.2484375 10.6331629755821  11.5453125 9.92333901192504  C 10.8421875 9.21351504826803  9.99375 8.85860306643952  9 8.85860306643952  C 8.00625 8.85860306643952  7.1578125 9.21351504826803  6.4546875 9.92333901192504  C 5.7515625 10.6331629755821  5.4 11.4896838917282  5.4 12.4929017603634  C 5.4 13.4961196289987  5.7515625 14.3526405451448  6.4546875 15.0624645088018  C 7.1578125 15.7722884724588  8.00625 16.1272004542873  9 16.1272004542873  C 9.99375 16.1272004542873  10.8421875 15.7722884724588  11.5453125 15.0624645088018  Z M 22.87265625 21.0462805224304  C 23.22421875 20.6913685406019  23.4 20.2631080825289  23.4 19.7614991482112  C 23.4 19.269354533409  23.221875 18.8434601552148  22.865625 18.4838160136286  C 22.509375 18.1241718720424  22.0875 17.9443498012493  21.6 17.9443498012493  C 21.1125 17.9443498012493  20.690625 18.1241718720424  20.334375 18.4838160136286  C 19.978125 18.8434601552148  19.8 19.269354533409  19.8 19.7614991482112  C 19.8 20.2631080825289  19.97578125 20.6913685406019  20.32734375 21.0462805224304  C 20.67890625 21.4011925042589  21.103125 21.5786484951732  21.6 21.5786484951732  C 22.096875 21.5786484951732  22.52109375 21.4011925042589  22.87265625 21.0462805224304  Z M 22.87265625 6.50908574673481  C 23.22421875 6.1541737649063  23.4 5.72591330683324  23.4 5.22430437251562  C 23.4 4.73215975771342  23.221875 4.30626537951921  22.865625 3.94662123793299  C 22.509375 3.58697709634677  22.0875 3.40715502555366  21.6 3.40715502555366  C 21.1125 3.40715502555366  20.690625 3.58697709634677  20.334375 3.94662123793299  C 19.978125 4.30626537951921  19.8 4.73215975771342  19.8 5.22430437251562  C 19.8 5.72591330683324  19.97578125 6.1541737649063  20.32734375 6.50908574673481  C 20.67890625 6.86399772856332  21.103125 7.04145371947757  21.6 7.04145371947757  C 22.096875 7.04145371947757  22.52109375 6.86399772856332  22.87265625 6.50908574673481  Z M 17.9015625 10.9241908006814  C 17.9671875 11.0046375165626  18 11.096914631838  18 11.2010221465077  L 18 13.8273708120386  C 18 13.9220140071929  17.9671875 14.0142911224683  17.9015625 14.1042021578648  C 17.8359375 14.1941131932614  17.7609375 14.2438008707174  17.6765625 14.2532651902328  L 15.496875 14.5939806927882  C 15.39375 14.9252318758281  15.24375 15.2848760174143  15.046875 15.6729131175468  C 15.365625 16.1272004542873  15.7875 16.6713988264244  16.3125 17.305508233958  C 16.378125 17.4096157486277  16.4109375 17.5042589437819  16.4109375 17.5894378194208  C 16.4109375 17.7030096536059  16.378125 17.7929206890025  16.3125 17.8591709256104  C 16.096875 18.1431005110733  15.71015625 18.5666288093886  15.15234375 19.1297558205565  C 14.59453125 19.6928828317244  14.2265625 19.9744463373084  14.0484375 19.9744463373084  C 13.9453125 19.9744463373084  13.846875 19.9413212190044  13.753125 19.8750709823964  L 12.1359375 18.5973878478137  C 11.7890625 18.7772099186069  11.428125 18.923906871096  11.053125 19.0374787052811  C 10.95 20.0596252129472  10.8421875 20.7931099753928  10.7296875 21.2379329926178  C 10.6640625 21.4650766609881  10.5234375 21.5786484951732  10.3078125 21.5786484951732  L 7.6921875 21.5786484951732  C 7.5890625 21.5786484951732  7.4953125 21.5431572969903  7.4109375 21.4721749006246  C 7.3265625 21.4011925042589  7.2796875 21.318379708499  7.2703125 21.2237365133447  L 6.946875 19.0516751845542  C 6.628125 18.9570319894  6.2765625 18.8103350369108  5.8921875 18.6115843270869  L 4.2328125 19.8750709823964  C 4.1671875 19.9413212190044  4.0734375 19.9744463373084  3.9515625 19.9744463373084  C 3.8484375 19.9744463373084  3.75 19.9365890592466  3.65625 19.8608745031232  C 2.30625 18.6021200075715  1.63125 17.8449744463373  1.63125 17.5894378194208  C 1.63125 17.5042589437819  1.6640625 17.4143479083854  1.7296875 17.3197047132311  C 1.8234375 17.1872042400151  2.015625 16.9363997728563  2.30625 16.5672913117547  C 2.596875 16.198182850653  2.8171875 15.9095211054325  2.9671875 15.7013060760931  C 2.7515625 15.2848760174143  2.5875 14.8968389172818  2.475 14.5371947756956  L 0.3375 14.1964792731403  C 0.24375 14.1870149536248  0.1640625 14.1420594359266  0.0984375 14.0616127200454  C 0.0328125 13.9811660041643  0 13.8888888888889  0 13.7847813742192  L 0 11.1584327086882  C 0 11.063789513534  0.0328125 10.9715123982586  0.0984375 10.881601362862  C 0.1640625 10.7916903274655  0.2390625 10.7420026500095  0.3234375 10.732538330494  L 2.503125 10.3918228279387  C 2.60625 10.0605716448987  2.75625 9.70092750331251  2.953125 9.31289040318001  C 2.634375 8.85860306643952  2.2125 8.31440469430248  1.6875 7.68029528676888  C 1.621875 7.57618777209918  1.5890625 7.48154457694492  1.5890625 7.39636570130608  C 1.5890625 7.28279386712095  1.621875 7.18815067196668  1.6875 7.11243611584327  C 1.89375 6.82850653038047  2.278125 6.40734431194397  2.840625 5.84894946053379  C 3.403125 5.2905546091236  3.7734375 5.01135718341851  3.9515625 5.01135718341851  C 4.0546875 5.01135718341851  4.153125 5.04448230172251  4.246875 5.1107325383305  L 5.8640625 6.38841567291312  C 6.1828125 6.21805792163543  6.54375 6.0666288093886  6.946875 5.93412833617263  C 7.05 4.91198182850653  7.1578125 4.18322922581866  7.2703125 3.74787052810903  C 7.3359375 3.52072685973878  7.4765625 3.40715502555366  7.6921875 3.40715502555366  L 10.3078125 3.40715502555366  C 10.4109375 3.40715502555366  10.5046875 3.44264622373651  10.5890625 3.51362862010222  C 10.6734375 3.58461101646791  10.7203125 3.6674238122279  10.7296875 3.76206700738217  L 11.053125 5.93412833617263  C 11.371875 6.0287715313269  11.7234375 6.17546848381601  12.1078125 6.37421919363998  L 13.7671875 5.1107325383305  C 13.8421875 5.04448230172251  13.9359375 5.01135718341851  14.0484375 5.01135718341851  C 14.1515625 5.01135718341851  14.25 5.04921446148022  14.34375 5.12492901760364  C 15.69375 6.3836835131554  16.36875 7.14082907438955  16.36875 7.39636570130608  C 16.36875 7.47208025742949  16.3359375 7.56199129282604  16.2703125 7.66609880749574  C 16.1578125 7.81752791974257  15.9609375 8.07306454665909  15.6796875 8.43270868824532  C 15.3984375 8.79235282983153  15.1875 9.07628241529434  15.046875 9.28449744463373  C 15.2625 9.73878478137422  15.421875 10.1268218815067  15.525 10.4486087450312  L 17.6625 10.7751277683135  C 17.75625 10.7940564073443  17.8359375 10.8437440848003  17.9015625 10.9241908006814  Z M 24.9046875 18.3276547416241  C 26.3015625 18.4696195343555  27 18.6163164868446  27 18.7677455990914  L 27 20.7552526973311  C 27 20.9066818095779  26.3015625 21.053378762067  24.9046875 21.1953435547984  C 24.7921875 21.4508801817149  24.6515625 21.696952489116  24.4828125 21.9335604770017  C 24.9609375 23.0030285822449  25.2 23.6560666288094  25.2 23.8926746166951  C 25.2 23.9305318947568  25.18125 23.9636570130608  25.14375 23.992049971607  C 24 24.6640166572023  23.41875 25  23.4 25  C 23.325 25  23.109375 24.7775884913875  22.753125 24.3327654741624  C 22.396875 23.8879424569373  22.153125 23.5661555934128  22.021875 23.3674048835889  C 21.834375 23.3863335226197  21.69375 23.3957978421352  21.6 23.3957978421352  C 21.50625 23.3957978421352  21.365625 23.3863335226197  21.178125 23.3674048835889  C 21.046875 23.5661555934128  20.803125 23.8879424569373  20.446875 24.3327654741624  C 20.090625 24.7775884913875  19.875 25  19.8 25  C 19.78125 25  19.2 24.6640166572023  18.05625 23.992049971607  C 18.01875 23.9636570130608  18 23.9305318947568  18 23.8926746166951  C 18 23.6560666288094  18.2390625 23.0030285822449  18.7171875 21.9335604770017  C 18.5484375 21.696952489116  18.4078125 21.4508801817149  18.2953125 21.1953435547984  C 16.8984375 21.053378762067  16.2 20.9066818095779  16.2 20.7552526973311  L 16.2 18.7677455990914  C 16.2 18.6163164868446  16.8984375 18.4696195343555  18.2953125 18.3276547416241  C 18.4171875 18.0531894756767  18.5578125 17.8071171682756  18.7171875 17.5894378194208  C 18.2390625 16.5199697141775  18 15.8669316676131  18 15.6303236797274  C 18 15.5924664016657  18.01875 15.5593412833617  18.05625 15.5309483248154  C 18.09375 15.5120196857846  18.2578125 15.4173764906303  18.5484375 15.2470187393526  C 18.8390625 15.076660988075  19.115625 14.9157675563127  19.378125 14.7643384440659  C 19.640625 14.612909331819  19.78125 14.5371947756956  19.8 14.5371947756956  C 19.875 14.5371947756956  20.090625 14.7572402044293  20.446875 15.1973310618966  C 20.803125 15.637421919364  21.046875 15.9568427030097  21.178125 16.1555934128336  C 21.365625 16.1366647738028  21.50625 16.1272004542873  21.6 16.1272004542873  C 21.69375 16.1272004542873  21.834375 16.1366647738028  22.021875 16.1555934128336  C 22.5 15.4836267272383  22.93125 14.9536248343744  23.315625 14.5655877342419  L 23.4 14.5371947756956  C 23.4375 14.5371947756956  24.01875 14.8684459587356  25.14375 15.5309483248154  C 25.18125 15.5593412833617  25.2 15.5924664016657  25.2 15.6303236797274  C 25.2 15.8669316676131  24.9609375 16.5199697141775  24.4828125 17.5894378194208  C 24.6421875 17.8071171682756  24.7828125 18.0531894756767  24.9046875 18.3276547416241  Z M 24.9046875 3.79045996592845  C 26.3015625 3.93242475865985  27 4.07912171114897  27 4.2305508233958  L 27 6.21805792163543  C 27 6.36948703388226  26.3015625 6.51618398637138  24.9046875 6.65814877910278  C 24.7921875 6.91368540601931  24.6515625 7.1597577134204  24.4828125 7.39636570130608  C 24.9609375 8.46583380654931  25.2 9.11887185311376  25.2 9.35547984099943  C 25.2 9.39333711906114  25.18125 9.42646223736513  25.14375 9.45485519591141  C 24 10.1268218815067  23.41875 10.4628052243044  23.4 10.4628052243044  C 23.325 10.4628052243044  23.109375 10.2403937156918  22.753125 9.79557069846678  C 22.396875 9.35074768124172  22.153125 9.02896081771721  22.021875 8.83021010789324  C 21.834375 8.8491387469241  21.69375 8.85860306643952  21.6 8.85860306643952  C 21.50625 8.85860306643952  21.365625 8.8491387469241  21.178125 8.83021010789324  C 21.046875 9.02896081771721  20.803125 9.35074768124172  20.446875 9.79557069846678  C 20.090625 10.2403937156918  19.875 10.4628052243044  19.8 10.4628052243044  C 19.78125 10.4628052243044  19.2 10.1268218815067  18.05625 9.45485519591141  C 18.01875 9.42646223736513  18 9.39333711906114  18 9.35547984099943  C 18 9.11887185311376  18.2390625 8.46583380654931  18.7171875 7.39636570130608  C 18.5484375 7.1597577134204  18.4078125 6.91368540601931  18.2953125 6.65814877910278  C 16.8984375 6.51618398637138  16.2 6.36948703388226  16.2 6.21805792163543  L 16.2 4.2305508233958  C 16.2 4.07912171114897  16.8984375 3.93242475865985  18.2953125 3.79045996592845  C 18.4171875 3.51599469998107  18.5578125 3.26992239257997  18.7171875 3.05224304372516  C 18.2390625 1.98277493848192  18 1.32973689191747  18 1.0931289040318  C 18 1.05527162597009  18.01875 1.0221465076661  18.05625 0.993753549119819  C 18.09375 0.974824910088962  18.2578125 0.880181714934697  18.5484375 0.709823963657014  C 18.8390625 0.53946621237933  19.115625 0.37857278061707  19.378125 0.227143668370244  C 19.640625 0.0757145561234129  19.78125 0  19.8 0  C 19.875 0  20.090625 0.220045428733673  20.446875 0.660136286201021  C 20.803125 1.10022714366837  21.046875 1.41964792731403  21.178125 1.61839863713799  C 21.365625 1.59946999810713  21.50625 1.59000567859171  21.6 1.59000567859171  C 21.69375 1.59000567859171  21.834375 1.59946999810713  22.021875 1.61839863713799  C 22.5 0.946431951542681  22.93125 0.416430058678779  23.315625 0.0283929585462805  L 23.4 0  C 23.4375 0  24.01875 0.331251183039938  25.14375 0.993753549119819  C 25.18125 1.0221465076661  25.2 1.05527162597009  25.2 1.0931289040318  C 25.2 1.32973689191747  24.9609375 1.98277493848192  24.4828125 3.05224304372516  C 24.6421875 3.26992239257997  24.7828125 3.51599469998107  24.9046875 3.79045996592845  Z " fill-rule="nonzero" fill="#d2cdcd" stroke="none" transform="matrix(1 0 0 1 1109 162 )" />
  </g>
</svg>