<?xml version="1.0" encoding="utf-8"?>
<svg version="1.1" xmlns:xlink="http://www.w3.org/1999/xlink" width="25px" height="25px" xmlns="http://www.w3.org/2000/svg">
  <g transform="matrix(1 0 0 1 -171 -780 )">
    <path d="M 183.5 780.5  C 190.22 780.5  195.5 785.78  195.5 792.5  C 195.5 799.22  190.22 804.5  183.5 804.5  C 176.78 804.5  171.5 799.22  171.5 792.5  C 171.5 785.78  176.78 780.5  183.5 780.5  Z " fill-rule="nonzero" fill="#ffffff" stroke="none" fill-opacity="0" />
    <path d="M 183.5 780.5  C 190.22 780.5  195.5 785.78  195.5 792.5  C 195.5 799.22  190.22 804.5  183.5 804.5  C 176.78 804.5  171.5 799.22  171.5 792.5  C 171.5 785.78  176.78 780.5  183.5 780.5  Z " stroke-width="1" stroke-dasharray="3,1" stroke="#797979" fill="none" stroke-dashoffset="0.5" />
  </g>
</svg>