<?xml version="1.0" encoding="utf-8"?>
<svg version="1.1" xmlns:xlink="http://www.w3.org/1999/xlink" width="25px" height="25px" xmlns="http://www.w3.org/2000/svg">
  <g transform="matrix(1 0 0 1 -687 -2535 )">
    <path d="M 699.5 2535  C 706.5 2535  712 2540.5  712 2547.5  C 712 2554.5  706.5 2560  699.5 2560  C 692.5 2560  687 2554.5  687 2547.5  C 687 2540.5  692.5 2535  699.5 2535  Z " fill-rule="nonzero" fill="#420080" stroke="none" />
    <path d="M 699.5 2535.5  C 706.22 2535.5  711.5 2540.78  711.5 2547.5  C 711.5 2554.22  706.22 2559.5  699.5 2559.5  C 692.78 2559.5  687.5 2554.22  687.5 2547.5  C 687.5 2540.78  692.78 2535.5  699.5 2535.5  Z " stroke-width="1" stroke="#027db4" fill="none" />
  </g>
</svg>