<?xml version="1.0" encoding="utf-8"?>
<svg version="1.1" xmlns:xlink="http://www.w3.org/1999/xlink" width="35px" height="13px" xmlns="http://www.w3.org/2000/svg">
  <g transform="matrix(1 0 0 1 -730 -1135 )">
    <path d="M 34.62890625 5.5859375  C 34.8763020833333 5.84322916666667  35 6.14791666666667  35 6.5  C 35 6.85208333333333  34.8763020833333 7.15677083333333  34.62890625 7.4140625  L 29.62890625 12.6140625  C 29.3815104166667 12.8713541666667  29.0885416666667 13  28.75 13  C 28.4114583333333 13  28.1184895833333 12.8713541666667  27.87109375 12.6140625  C 27.6236979166667 12.3567708333333  27.5 12.0520833333333  27.5 11.7  L 27.5 9  L 7.5 9  L 7.5 11.7  C 7.5 12.0520833333333  7.37630208333333 12.3567708333333  7.12890625 12.6140625  C 6.88151041666667 12.8713541666667  6.58854166666667 13  6.25 13  C 5.91145833333333 13  5.61848958333333 12.8713541666667  5.37109375 12.6140625  L 0.37109375 7.4140625  C 0.123697916666667 7.15677083333333  0 6.85208333333333  0 6.5  C 0 6.14791666666667  0.123697916666667 5.84322916666667  0.37109375 5.5859375  L 5.37109375 0.3859375  C 5.61848958333333 0.128645833333332  5.91145833333333 0  6.25 0  C 6.58854166666667 0  6.88151041666667 0.128645833333332  7.12890625 0.3859375  C 7.37630208333333 0.643229166666666  7.5 0.947916666666666  7.5 1.3  L 7.5 4  L 27.5 4  L 27.5 1.3  C 27.5 0.947916666666666  27.6236979166667 0.643229166666666  27.87109375 0.3859375  C 28.1184895833333 0.128645833333332  28.4114583333333 0  28.75 0  C 29.0885416666667 0  29.3815104166667 0.128645833333332  29.62890625 0.3859375  L 34.62890625 5.5859375  Z " fill-rule="nonzero" fill="#aaa9a9" stroke="none" transform="matrix(1 0 0 1 730 1135 )" />
  </g>
</svg>