<?xml version="1.0" encoding="utf-8"?>
<svg version="1.1" xmlns:xlink="http://www.w3.org/1999/xlink" width="12px" height="12px" viewBox="3170 1070.5  12 12" xmlns="http://www.w3.org/2000/svg">
  <path d="M 3176 1070.5  C 3179.36 1070.5  3182 1073.14  3182 1076.5  C 3182 1079.86  3179.36 1082.5  3176 1082.5  C 3172.64 1082.5  3170 1079.86  3170 1076.5  C 3170 1073.14  3172.64 1070.5  3176 1070.5  Z " fill-rule="nonzero" fill="#ffffff" stroke="none" />
  <path d="M 3176 1071  C 3179.08 1071  3181.5 1073.42  3181.5 1076.5  C 3181.5 1079.58  3179.08 1082  3176 1082  C 3172.92 1082  3170.5 1079.58  3170.5 1076.5  C 3170.5 1073.42  3172.92 1071  3176 1071  Z " stroke-width="1" stroke="#797979" fill="none" />
  <path d="M 3176 1079.5  C 3174.32 1079.5  3173 1078.18  3173 1076.5  C 3173 1074.82  3174.32 1073.5  3176 1073.5  C 3177.68 1073.5  3179 1074.82  3179 1076.5  C 3179 1078.18  3177.68 1079.5  3176 1079.5  " fill-rule="nonzero" fill="#797979" stroke="none" />
</svg>