<?xml version="1.0" encoding="utf-8"?>
<svg version="1.1" xmlns:xlink="http://www.w3.org/1999/xlink" width="170px" height="170px" xmlns="http://www.w3.org/2000/svg">
  <g transform="matrix(1 0 0 1 -2001 -1442 )">
    <path d="M 2086 1446.5  C 2131.08 1446.5  2166.5 1481.92  2166.5 1527  C 2166.5 1572.08  2131.08 1607.5  2086 1607.5  C 2040.92 1607.5  2005.5 1572.08  2005.5 1527  C 2005.5 1481.92  2040.92 1446.5  2086 1446.5  Z " fill-rule="nonzero" fill="#ffffff" stroke="none" fill-opacity="0" />
    <path d="M 2086 1444.5  C 2132.2 1444.5  2168.5 1480.8  2168.5 1527  C 2168.5 1573.2  2132.2 1609.5  2086 1609.5  C 2039.8 1609.5  2003.5 1573.2  2003.5 1527  C 2003.5 1480.8  2039.8 1444.5  2086 1444.5  Z " stroke-width="5" stroke-dasharray="45,20,10,20,10,20" stroke="#ffffff" fill="none" stroke-dashoffset="0.5" />
  </g>
</svg>