<?xml version="1.0" encoding="utf-8"?>
<svg version="1.1" xmlns:xlink="http://www.w3.org/1999/xlink" width="12px" height="12px" xmlns="http://www.w3.org/2000/svg">
  <defs>
    <mask fill="white" id="clip216">
      <path d="M 12 9.88235294117644  L 12 2.11764705882351  C 12 0.931764705882317  11.0682352941176 0  9.88235294117647 0  L 5.0420168067227 4.73949579831928  C 3.85613445378151 4.73949579831928  5.04201680672267 3.55361344537814  5.0420168067227 4.73949579831928  L 0 9.88235294117643  C 0 11.0682352941176  0.931764705882365 11.9999999999999  2.11764705882351 12  L 9.88235294117646 12  C 11.0682352941176 12  12 11.0682352941176  12 9.88235294117644  Z " fill-rule="evenodd" />
    </mask>
  </defs>
  <g transform="matrix(1 0 0 1 -721 -580 )">
    <path d="M 12 9.88235294117644  L 12 2.11764705882351  C 12 0.931764705882317  11.0682352941176 0  9.88235294117647 0  L 5.0420168067227 4.73949579831928  C 3.85613445378151 4.73949579831928  5.04201680672267 3.55361344537814  5.0420168067227 4.73949579831928  L 0 9.88235294117643  C 0 11.0682352941176  0.931764705882365 11.9999999999999  2.11764705882351 12  L 9.88235294117646 12  C 11.0682352941176 12  12 11.0682352941176  12 9.88235294117644  Z " fill-rule="nonzero" fill="#999999" stroke="none" transform="matrix(1 0 0 1 721 580 )" />
    <path d="M 12 9.88235294117644  L 12 2.11764705882351  C 12 0.931764705882317  11.0682352941176 0  9.88235294117647 0  L 5.0420168067227 4.73949579831928  C 3.85613445378151 4.73949579831928  5.04201680672267 3.55361344537814  5.0420168067227 4.73949579831928  L 0 9.88235294117643  C 0 11.0682352941176  0.931764705882365 11.9999999999999  2.11764705882351 12  L 9.88235294117646 12  C 11.0682352941176 12  12 11.0682352941176  12 9.88235294117644  Z " stroke-width="2" stroke="#999999" fill="none" transform="matrix(1 0 0 1 721 580 )" mask="url(#clip216)" />
  </g>
</svg>