<?xml version="1.0" encoding="utf-8"?>
<svg version="1.1" xmlns:xlink="http://www.w3.org/1999/xlink" width="26px" height="26px" xmlns="http://www.w3.org/2000/svg">
  <g transform="matrix(1 0 0 1 -715 -573 )">
    <path d="M 728 573  C 735.28 573  741 578.72  741 586  C 741 593.28  735.28 599  728 599  C 720.72 599  715 593.28  715 586  C 715 578.72  720.72 573  728 573  Z " fill-rule="nonzero" fill="#ffffff" stroke="none" />
    <path d="M 728 573.5  C 735 573.5  740.5 579  740.5 586  C 740.5 593  735 598.5  728 598.5  C 721 598.5  715.5 593  715.5 586  C 715.5 579  721 573.5  728 573.5  Z " stroke-width="1" stroke="#797979" fill="none" />
  </g>
</svg>