<?xml version="1.0" encoding="utf-8"?>
<svg version="1.1" xmlns:xlink="http://www.w3.org/1999/xlink" width="13px" height="13px" xmlns="http://www.w3.org/2000/svg">
  <g transform="matrix(1 0 0 1 -183 -525 )">
    <path d="M 189.5 525  C 193.14 525  196 527.86  196 531.5  C 196 535.14  193.14 538  189.5 538  C 185.86 538  183 535.14  183 531.5  C 183 527.86  185.86 525  189.5 525  Z " fill-rule="nonzero" fill="#ffffff" stroke="none" />
    <path d="M 189.5 525.5  C 192.86 525.5  195.5 528.14  195.5 531.5  C 195.5 534.86  192.86 537.5  189.5 537.5  C 186.14 537.5  183.5 534.86  183.5 531.5  C 183.5 528.14  186.14 525.5  189.5 525.5  Z " stroke-width="1" stroke="#ffffff" fill="none" />
  </g>
</svg>