<?xml version="1.0" encoding="utf-8"?>
<svg version="1.1" xmlns:xlink="http://www.w3.org/1999/xlink" width="16px" height="25px" xmlns="http://www.w3.org/2000/svg">
  <g transform="matrix(1 0 0 1 -30 -112 )">
    <path d="M 10.828125 11.279296875  C 11.609375 10.4654947916667  12 9.48350694444444  12 8.33333333333333  C 12 7.18315972222222  11.609375 6.201171875  10.828125 5.38736979166667  C 10.046875 4.57356770833333  9.10416666666667 4.16666666666667  8 4.16666666666667  C 6.89583333333333 4.16666666666667  5.953125 4.57356770833333  5.171875 5.38736979166667  C 4.390625 6.201171875  4 7.18315972222222  4 8.33333333333333  C 4 9.48350694444444  4.390625 10.4654947916667  5.171875 11.279296875  C 5.953125 12.0930989583333  6.89583333333333 12.5  8 12.5  C 9.10416666666667 12.5  10.046875 12.0930989583333  10.828125 11.279296875  Z M 13.65625 2.44140625  C 15.21875 4.06901041666667  16 6.03298611111111  16 8.33333333333333  C 16 9.51605902777778  15.828125 10.4871961805556  15.484375 11.2467447916667  L 9.796875 23.8444010416667  C 9.63020833333333 24.2024739583333  9.3828125 24.4845920138889  9.0546875 24.6907552083333  C 8.7265625 24.8969184027778  8.375 25  8 25  C 7.625 25  7.2734375 24.8969184027778  6.9453125 24.6907552083333  C 6.6171875 24.4845920138889  6.375 24.2024739583333  6.21875 23.8444010416667  L 0.515625 11.2467447916667  C 0.171875 10.4871961805556  0 9.51605902777778  0 8.33333333333333  C 0 6.03298611111111  0.78125 4.06901041666667  2.34375 2.44140625  C 3.90625 0.813802083333334  5.79166666666667 0  8 0  C 10.2083333333333 0  12.09375 0.813802083333334  13.65625 2.44140625  Z " fill-rule="nonzero" fill="#000000" stroke="none" transform="matrix(1 0 0 1 30 112 )" />
  </g>
</svg>