<?xml version="1.0" encoding="utf-8"?>
<svg version="1.1" xmlns:xlink="http://www.w3.org/1999/xlink" width="35px" height="35px" xmlns="http://www.w3.org/2000/svg">
  <g transform="matrix(1 0 0 1 -1416 -669 )">
    <path d="M 33.6100260416667 10.7096354166667  C 34.5366753472222 12.8667534722222  35 15.1302083333333  35 17.5  C 35 19.8697916666667  34.5366753472222 22.1332465277778  33.6100260416667 24.2903645833333  C 32.6833767361111 26.4474826388889  31.4377170138889 28.3083767361111  29.873046875 29.873046875  C 28.3083767361111 31.4377170138889  26.4474826388889 32.6833767361111  24.2903645833333 33.6100260416667  C 22.1332465277778 34.5366753472222  19.8697916666667 35  17.5 35  C 14.8871527777778 35  12.4034288194444 34.4493272569444  10.048828125 33.3479817708333  C 7.69422743055556 32.2466362847222  5.68901909722222 30.693359375  4.033203125 28.6881510416667  C 3.92686631944444 28.5362413194444  3.87749565972222 28.3653428819444  3.88509114583333 28.1754557291667  C 3.89268663194444 27.9855685763889  3.95724826388889 27.8298611111111  4.07877604166667 27.7083333333333  L 7.20052083333333 24.5638020833333  C 7.35243055555556 24.4270833333333  7.54231770833333 24.3587239583333  7.77018229166667 24.3587239583333  C 8.01323784722222 24.3891059027778  8.18793402777778 24.4802517361111  8.29427083333333 24.6321614583333  C 9.40321180555556 26.0753038194444  10.7628038194444 27.1918402777778  12.373046875 27.9817708333333  C 13.9832899305556 28.7717013888889  15.6922743055556 29.1666666666667  17.5 29.1666666666667  C 19.0798611111111 29.1666666666667  20.5875651041667 28.8590494791667  22.0231119791667 28.2438151041667  C 23.4586588541667 27.6285807291667  24.7005208333333 26.796875  25.7486979166667 25.7486979166667  C 26.796875 24.7005208333333  27.6285807291667 23.4586588541667  28.2438151041667 22.0231119791667  C 28.8590494791667 20.5875651041667  29.1666666666667 19.0798611111111  29.1666666666667 17.5  C 29.1666666666667 15.9201388888889  28.8590494791667 14.4124348958333  28.2438151041667 12.9768880208333  C 27.6285807291667 11.5413411458333  26.796875 10.2994791666667  25.7486979166667 9.25130208333333  C 24.7005208333333 8.203125  23.4586588541667 7.37141927083333  22.0231119791667 6.75618489583333  C 20.5875651041667 6.14095052083333  19.0798611111111 5.83333333333333  17.5 5.83333333333333  C 16.0112847222222 5.83333333333333  14.5833333333333 6.10297309027778  13.2161458333333 6.64225260416667  C 11.8489583333333 7.18153211805555  10.6336805555556 7.95247395833333  9.5703125 8.955078125  L 12.6920572916667 12.099609375  C 13.1629774305556 12.5553385416667  13.2693142361111 13.0794270833333  13.0110677083333 13.671875  C 12.7528211805556 14.2795138888889  12.3046875 14.5833333333333  11.6666666666667 15  L 1.45833333333333 15  C 1.06336805555556 14.5833333333333  0.721571180555556 14.4390190972222  0.432942708333333 14.150390625  C 0.144314236111111 13.8617621527778  0 13.5199652777778  0 13.125  L 0 2.91666666666667  C 0 2.27864583333333  0.303819444444444 1.83051215277778  0.911458333333333 1.572265625  C 1.50390625 1.31401909722222  2.02799479166667 1.42035590277778  2.48372395833333 1.89127604166667  L 5.44596354166667 4.83072916666667  C 7.07139756944445 3.29644097222222  8.92849392361111 2.10774739583333  11.0172526041667 1.2646484375  C 13.1060112847222 0.421549479166668  15.2669270833333 0  17.5 0  C 19.8697916666667 0  22.1332465277778 0.463324652777777  24.2903645833333 1.38997395833333  C 26.4474826388889 2.31662326388889  28.3083767361111 3.56228298611111  29.873046875 5.126953125  C 31.4377170138889 6.69162326388889  32.6833767361111 8.55251736111111  33.6100260416667 10.7096354166667  Z M 20.2115885416667 10.4134114583333  C 20.3483072916667 10.5501302083333  20.4166666666667 10.7248263888889  20 10.9375  L 20 21.1458333333333  C 20.4166666666667 21.3585069444444  20.3483072916667 21.533203125  20.2115885416667 21.669921875  C 20.0748697916667 21.806640625  19.9001736111111 21.875  19.6875 21.875  L 12.3958333333333 21.875  C 12.1831597222222 21.875  12.0084635416667 21.806640625  11.8717447916667 21.669921875  C 11.7350260416667 21.533203125  11.6666666666667 21.3585069444444  11.6666666666667 21.1458333333333  L 11.6666666666667 19.6875  C 11.6666666666667 19.4748263888889  11.7350260416667 19.3001302083333  11.8717447916667 19.1634114583333  C 12.0084635416667 19.0266927083333  12.1831597222222 18.9583333333333  12.3958333333333 18.9583333333333  L 17.5 18.9583333333333  L 17.5 10.9375  C 17.5 10.7248263888889  17.568359375 10.5501302083333  17.705078125 10.4134114583333  C 17.841796875 10.2766927083333  18.0164930555556 10.2083333333333  18.2291666666667 10.2083333333333  L 19.6875 10.2083333333333  C 19.9001736111111 10.2083333333333  20.0748697916667 10.2766927083333  20.2115885416667 10.4134114583333  Z " fill-rule="nonzero" fill="#aaaaaa" stroke="none" transform="matrix(1 0 0 1 1416 669 )" />
  </g>
</svg>