<?xml version="1.0" encoding="utf-8"?>
<svg version="1.1" xmlns:xlink="http://www.w3.org/1999/xlink" width="28px" height="28px" xmlns="http://www.w3.org/2000/svg">
  <g transform="matrix(1 0 0 1 -320 -238 )">
    <path d="M 7.53846153846154 21  C 7.53846153846154 21.1458333333333  7.48798076923077 21.2748397435897  7.38701923076923 21.3870192307692  L 3.07932692307692 25.6947115384615  C 2.95592948717949 25.7956730769231  2.82692307692308 25.8461538461538  2.69230769230769 25.8461538461538  C 2.55769230769231 25.8461538461538  2.4286858974359 25.7956730769231  2.30528846153846 25.6947115384615  C 2.20432692307692 25.5825320512821  2.15384615384615 25.4535256410256  2.15384615384615 25.3076923076923  C 2.15384615384615 25.161858974359  2.20432692307692 25.0328525641026  2.30528846153846 24.9206730769231  L 6.61298076923077 20.6129807692308  C 6.72516025641026 20.5120192307692  6.85416666666667 20.4615384615385  7 20.4615384615385  C 7.14583333333333 20.4615384615385  7.27483974358974 20.5120192307692  7.38701923076923 20.6129807692308  C 7.48798076923077 20.7251602564103  7.53846153846154 20.8541666666667  7.53846153846154 21  Z M 10.0793269230769 21.6899038461538  C 10.1802884615385 21.7908653846154  10.2307692307692 21.9198717948718  10.2307692307692 22.0769230769231  L 10.2307692307692 27.4615384615385  C 10.2307692307692 27.6185897435897  10.1802884615385 27.7475961538462  10.0793269230769 27.8485576923077  C 9.97836538461538 27.9495192307692  9.84935897435897 28  9.69230769230769 28  C 9.53525641025641 28  9.40625 27.9495192307692  9.30528846153846 27.8485576923077  C 9.20432692307692 27.7475961538462  9.15384615384615 27.6185897435897  9.15384615384615 27.4615384615385  L 9.15384615384615 22.0769230769231  C 9.15384615384615 21.9198717948718  9.20432692307692 21.7908653846154  9.30528846153846 21.6899038461538  C 9.40625 21.5889423076923  9.53525641025641 21.5384615384615  9.69230769230769 21.5384615384615  C 9.84935897435897 21.5384615384615  9.97836538461538 21.5889423076923  10.0793269230769 21.6899038461538  Z M 6.31009615384615 17.9206730769231  C 6.41105769230769 18.0216346153846  6.46153846153846 18.150641025641  6.46153846153846 18.3076923076923  C 6.46153846153846 18.4647435897436  6.41105769230769 18.59375  6.31009615384615 18.6947115384615  C 6.20913461538462 18.7956730769231  6.08012820512821 18.8461538461538  5.92307692307692 18.8461538461538  L 0.538461538461539 18.8461538461538  C 0.381410256410256 18.8461538461538  0.252403846153846 18.7956730769231  0.151442307692308 18.6947115384615  C 0.0504807692307692 18.59375  0 18.4647435897436  0 18.3076923076923  C 0 18.150641025641  0.0504807692307692 18.0216346153846  0.151442307692308 17.9206730769231  C 0.252403846153846 17.8197115384615  0.381410256410256 17.7692307692308  0.538461538461539 17.7692307692308  L 5.92307692307692 17.7692307692308  C 6.08012820512821 17.7692307692308  6.20913461538462 17.8197115384615  6.31009615384615 17.9206730769231  Z M 26.3173076923077 17.0288461538462  C 27.2596153846154 17.9935897435897  27.7307692307692 19.1378205128205  27.7307692307692 20.4615384615385  C 27.7307692307692 21.8076923076923  27.2540064102564 22.9463141025641  26.3004807692308 23.8774038461538  L 23.8269230769231 26.3341346153846  C 22.8958333333333 27.2652243589744  21.7572115384615 27.7307692307692  20.4110576923077 27.7307692307692  C 19.0536858974359 27.7307692307692  17.9094551282051 27.2540064102564  16.9783653846154 26.3004807692308  L 11.3581730769231 20.6634615384615  C 11.1225961538462 20.4278846153846  10.8870192307692 20.1137820512821  10.6514423076923 19.7211538461538  L 14.6730769230769 19.4182692307692  L 19.2668269230769 24.0288461538462  C 19.5697115384615 24.3317307692308  19.9511217948718 24.4859775641026  20.4110576923077 24.4915865384615  C 20.8709935897436 24.4971955128205  21.2524038461538 24.3485576923077  21.5552884615385 24.0456730769231  L 24.0288461538462 21.5889423076923  C 24.3429487179487 21.2748397435897  24.5 20.8990384615385  24.5 20.4615384615385  C 24.5 20.0128205128205  24.3429487179487 19.6314102564103  24.0288461538462 19.3173076923077  L 19.4182692307692 14.6899038461538  L 19.7211538461538 10.6682692307692  C 20.1137820512821 10.9038461538462  20.4278846153846 11.1394230769231  20.6634615384615 11.375  L 26.3173076923077 17.0288461538462  Z M 16.6418269230769 7.33653846153846  C 16.8774038461538 7.57211538461538  17.1129807692308 7.88621794871795  17.3485576923077 8.27884615384615  L 13.3269230769231 8.58173076923077  L 8.73317307692308 3.97115384615385  C 8.41907051282051 3.65705128205128  8.03766025641026 3.5  7.58894230769231 3.5  C 7.15144230769231 3.5  6.77003205128205 3.65144230769231  6.44471153846154 3.95432692307692  L 3.97115384615385 6.41105769230769  C 3.65705128205128 6.72516025641026  3.5 7.10096153846154  3.5 7.53846153846154  C 3.5 7.98717948717948  3.65705128205128 8.36858974358974  3.97115384615385 8.68269230769231  L 8.58173076923077 13.2932692307692  L 8.27884615384615 17.3317307692308  C 7.88621794871795 17.0961538461538  7.57211538461538 16.8605769230769  7.33653846153846 16.625  L 1.68269230769231 10.9711538461538  C 0.740384615384615 10.0064102564103  0.269230769230769 8.86217948717948  0.269230769230769 7.53846153846154  C 0.269230769230769 6.19230769230769  0.74599358974359 5.0536858974359  1.69951923076923 4.12259615384615  L 4.17307692307692 1.66586538461538  C 5.10416666666667 0.734775641025639  6.24278846153846 0.269230769230768  7.58894230769231 0.269230769230768  C 8.9463141025641 0.269230769230768  10.0905448717949 0.745993589743589  11.0216346153846 1.69951923076923  L 16.6418269230769 7.33653846153846  Z M 27.8485576923077 9.30528846153846  C 27.9495192307692 9.40625  28 9.53525641025641  28 9.69230769230769  C 28 9.84935897435897  27.9495192307692 9.97836538461538  27.8485576923077 10.0793269230769  C 27.7475961538462 10.1802884615385  27.6185897435897 10.2307692307692  27.4615384615385 10.2307692307692  L 22.0769230769231 10.2307692307692  C 21.9198717948718 10.2307692307692  21.7908653846154 10.1802884615385  21.6899038461538 10.0793269230769  C 21.5889423076923 9.97836538461538  21.5384615384615 9.84935897435897  21.5384615384615 9.69230769230769  C 21.5384615384615 9.53525641025641  21.5889423076923 9.40625  21.6899038461538 9.30528846153846  C 21.7908653846154 9.20432692307692  21.9198717948718 9.15384615384615  22.0769230769231 9.15384615384615  L 27.4615384615385 9.15384615384615  C 27.6185897435897 9.15384615384615  27.7475961538462 9.20432692307692  27.8485576923077 9.30528846153846  Z M 18.6947115384615 0.151442307692308  C 18.7956730769231 0.252403846153848  18.8461538461538 0.381410256410255  18.8461538461538 0.53846153846154  L 18.8461538461538 5.92307692307692  C 18.8461538461538 6.08012820512821  18.7956730769231 6.20913461538462  18.6947115384615 6.31009615384615  C 18.59375 6.41105769230769  18.4647435897436 6.46153846153846  18.3076923076923 6.46153846153846  C 18.150641025641 6.46153846153846  18.0216346153846 6.41105769230769  17.9206730769231 6.31009615384615  C 17.8197115384615 6.20913461538462  17.7692307692308 6.08012820512821  17.7692307692308 5.92307692307692  L 17.7692307692308 0.53846153846154  C 17.7692307692308 0.381410256410255  17.8197115384615 0.252403846153848  17.9206730769231 0.151442307692308  C 18.0216346153846 0.0504807692307683  18.150641025641 0  18.3076923076923 0  C 18.4647435897436 0  18.59375 0.0504807692307683  18.6947115384615 0.151442307692308  Z M 25.8461538461538 2.69230769230769  C 25.8461538461538 2.83814102564102  25.7956730769231 2.96714743589743  25.6947115384615 3.07932692307692  L 21.3870192307692 7.38701923076923  C 21.2636217948718 7.48798076923077  21.1346153846154 7.53846153846154  21 7.53846153846154  C 20.8653846153846 7.53846153846154  20.7363782051282 7.48798076923077  20.6129807692308 7.38701923076923  C 20.5120192307692 7.27483974358974  20.4615384615385 7.14583333333333  20.4615384615385 7  C 20.4615384615385 6.85416666666667  20.5120192307692 6.72516025641026  20.6129807692308 6.61298076923077  L 24.9206730769231 2.30528846153846  C 25.0328525641026 2.20432692307692  25.161858974359 2.15384615384615  25.3076923076923 2.15384615384615  C 25.4535256410256 2.15384615384615  25.5825320512821 2.20432692307692  25.6947115384615 2.30528846153846  C 25.7956730769231 2.41746794871795  25.8461538461538 2.54647435897436  25.8461538461538 2.69230769230769  Z " fill-rule="nonzero" fill="#000000" stroke="none" transform="matrix(1 0 0 1 320 238 )" />
  </g>
</svg>