<?xml version="1.0" encoding="utf-8"?>
<svg version="1.1" xmlns:xlink="http://www.w3.org/1999/xlink" width="130px" height="113px" xmlns="http://www.w3.org/2000/svg">
  <g transform="matrix(1 0 0 1 -90 -424 )">
    <path d="M 25.13671875 79.1722301136364  C 26.9503348214286 77.1658380681818  27.8571428571429 74.7447916666667  27.8571428571429 71.9090909090909  C 27.8571428571429 69.0733901515151  26.9503348214286 66.65234375  25.13671875 64.6459517045455  C 23.3231026785714 62.6395596590909  21.1346726190476 61.6363636363636  18.5714285714286 61.6363636363636  C 16.0081845238095 61.6363636363636  13.8197544642857 62.6395596590909  12.0061383928571 64.6459517045455  C 10.1925223214286 66.65234375  9.28571428571428 69.0733901515151  9.28571428571428 71.9090909090909  C 9.28571428571428 74.7447916666667  10.1925223214286 77.1658380681818  12.0061383928571 79.1722301136364  C 13.8197544642857 81.1786221590909  16.0081845238095 82.1818181818182  18.5714285714286 82.1818181818182  C 21.1346726190476 82.1818181818182  23.3231026785714 81.1786221590909  25.13671875 79.1722301136364  Z M 39.0652901785714 43.2176846590909  C 40.87890625 41.2112926136364  41.7857142857143 38.7902462121212  41.7857142857143 35.9545454545455  C 41.7857142857143 33.1188446969697  40.87890625 30.6977982954545  39.0652901785714 28.69140625  C 37.2516741071429 26.6850142045455  35.0632440476191 25.6818181818182  32.5 25.6818181818182  C 29.936755952381 25.6818181818182  27.7483258928571 26.6850142045455  25.9347098214286 28.69140625  C 24.12109375 30.6977982954545  23.2142857142857 33.1188446969697  23.2142857142857 35.9545454545455  C 23.2142857142857 38.7902462121212  24.12109375 41.2112926136364  25.9347098214286 43.2176846590909  C 27.7483258928571 45.2240767045455  29.936755952381 46.2272727272727  32.5 46.2272727272727  C 35.0632440476191 46.2272727272727  37.2516741071429 45.2240767045455  39.0652901785714 43.2176846590909  Z M 78.0580357142857 81.8607954545455  C 76.9940476190476 78.8110795454545  75.2529761904762 76.3766571969697  72.8348214285714 74.5575284090909  L 80.1618303571429 43.8998579545455  C 80.4520089285714 42.508759469697  80.2706473214286 41.2112926136364  79.6177455357143 40.0074573863636  C 78.96484375 38.8036221590909  78.0338541666667 38.0144412878788  76.8247767857143 37.6399147727273  C 75.6156994047619 37.2653882575758  74.4549851190476 37.4392755681818  73.3426339285714 38.1615767045455  C 72.2302827380952 38.8838778409091  71.5048363095238 39.9405776515151  71.1662946428571 41.3316761363636  L 63.8392857142857 71.9893465909091  C 60.9375 72.256865530303  58.3500744047619 73.4205729166667  56.0770089285714 75.48046875  C 53.803943452381 77.5403645833333  52.280505952381 80.1754261363636  51.5066964285714 83.3856534090909  C 50.5394345238095 87.5054450757576  51.0230654761905 91.4112215909091  52.9575892857143 95.1029829545455  C 54.8921130952381 98.7947443181818  57.7213541666667 101.175662878788  61.4453125 102.245738636364  C 65.1692708333333 103.315814393939  68.6997767857143 102.780776515152  72.0368303571429 100.640625  C 75.3738839285714 98.5004734848485  77.5260416666667 95.3705018939394  78.4933035714286 91.2507102272727  C 79.2671130952381 88.0404829545455  79.1220238095238 84.9105113636364  78.0580357142857 81.8607954545455  Z M 117.993861607143 79.1722301136364  C 119.807477678571 77.1658380681818  120.714285714286 74.7447916666667  120.714285714286 71.9090909090909  C 120.714285714286 69.0733901515151  119.807477678571 66.65234375  117.993861607143 64.6459517045455  C 116.180245535714 62.6395596590909  113.99181547619 61.6363636363636  111.428571428571 61.6363636363636  C 108.865327380952 61.6363636363636  106.676897321429 62.6395596590909  104.86328125 64.6459517045455  C 103.049665178571 66.65234375  102.142857142857 69.0733901515151  102.142857142857 71.9090909090909  C 102.142857142857 74.7447916666667  103.049665178571 77.1658380681818  104.86328125 79.1722301136364  C 106.676897321429 81.1786221590909  108.865327380952 82.1818181818182  111.428571428571 82.1818181818182  C 113.99181547619 82.1818181818182  116.180245535714 81.1786221590909  117.993861607143 79.1722301136364  Z M 71.5652901785714 27.80859375  C 73.37890625 25.8022017045455  74.2857142857143 23.3811553030303  74.2857142857143 20.5454545454545  C 74.2857142857143 17.7097537878788  73.37890625 15.2887073863636  71.5652901785714 13.2823153409091  C 69.7516741071429 11.2759232954545  67.5632440476191 10.2727272727273  65 10.2727272727273  C 62.436755952381 10.2727272727273  60.2483258928571 11.2759232954545  58.4347098214286 13.2823153409091  C 56.62109375 15.2887073863636  55.7142857142857 17.7097537878788  55.7142857142857 20.5454545454545  C 55.7142857142857 23.3811553030303  56.62109375 25.8022017045455  58.4347098214286 27.80859375  C 60.2483258928571 29.8149857954545  62.436755952381 30.8181818181818  65 30.8181818181818  C 67.5632440476191 30.8181818181818  69.7516741071429 29.8149857954545  71.5652901785714 27.80859375  Z M 104.065290178571 43.2176846590909  C 105.87890625 41.2112926136364  106.785714285714 38.7902462121212  106.785714285714 35.9545454545455  C 106.785714285714 33.1188446969697  105.87890625 30.6977982954545  104.065290178571 28.69140625  C 102.251674107143 26.6850142045455  100.063244047619 25.6818181818182  97.5 25.6818181818182  C 94.936755952381 25.6818181818182  92.7483258928571 26.6850142045455  90.9347098214286 28.69140625  C 89.12109375 30.6977982954545  88.2142857142857 33.1188446969697  88.2142857142857 35.9545454545455  C 88.2142857142857 38.7902462121212  89.12109375 41.2112926136364  90.9347098214286 43.2176846590909  C 92.7483258928571 45.2240767045455  94.936755952381 46.2272727272727  97.5 46.2272727272727  C 100.063244047619 46.2272727272727  102.251674107143 45.2240767045455  104.065290178571 43.2176846590909  Z M 124.849330357143 43.9801136363636  C 128.283110119048 52.8617424242424  130 62.1714015151515  130 71.9090909090909  C 130 85.8735795454545  126.590401785714 98.7947443181818  119.771205357143 110.672585227273  C 118.852306547619 112.224195075758  117.54650297619 113  115.853794642857 113  L 14.1462053571429 113  C 12.4534970238095 113  11.147693452381 112.224195075758  10.2287946428571 110.672585227273  C 3.40959821428571 98.8482481060606  0 85.9270833333333  0 71.9090909090909  C 0 62.1714015151515  1.71688988095238 52.8617424242424  5.15066964285714 43.9801136363636  C 8.58444940476191 35.0984848484848  13.203125 27.4474431818182  19.0066964285714 21.0269886363636  C 24.8102678571429 14.6065340909091  31.7261904761905 9.49692234848484  39.7544642857143 5.69815340909091  C 47.7827380952381 1.89938446969696  56.1979166666667 0  65 0  C 73.8020833333333 0  82.2172619047619 1.89938446969696  90.2455357142857 5.69815340909091  C 98.2738095238095 9.49692234848484  105.189732142857 14.6065340909091  110.993303571429 21.0269886363636  C 116.796875 27.4474431818182  121.415550595238 35.0984848484848  124.849330357143 43.9801136363636  Z " fill-rule="nonzero" fill="#000000" stroke="none" transform="matrix(1 0 0 1 90 424 )" />
  </g>
</svg>