<?xml version="1.0" encoding="utf-8"?>
<svg version="1.1" xmlns:xlink="http://www.w3.org/1999/xlink" width="140px" height="107px" xmlns="http://www.w3.org/2000/svg">
  <g transform="matrix(1 0 0 1 -93 -640 )">
    <path d="M 93 640  L 233 640  L 233 747  L 93 747  L 93 640  " fill-rule="nonzero" fill="#cccccc" stroke="none" />
    <path d="M 100 647  L 226 647  L 226 740  L 100 740  L 100 647  " fill-rule="nonzero" fill="#ffffff" stroke="none" />
    <path d="M 173.825 672.1  C 169.331 672.1  165.8 668.569  165.8 664.075  C 165.8 659.581  169.331 656.05  173.825 656.05  C 178.319 656.05  181.85 659.581  181.85 664.075  C 181.85 668.569  178.319 672.1  173.825 672.1  " fill-rule="nonzero" fill="#cccccc" stroke="none" />
    <path d="M 103 738  L 103 689.6  L 133.25 667.6  L 175.6 697.645714285714  L 199.8 680.8  L 224 697.645714285714  L 224 738  L 103 738  " fill-rule="nonzero" fill="#169bd5" stroke="none" />
  </g>
</svg>