<?xml version="1.0" encoding="utf-8"?>
<svg version="1.1" xmlns:xlink="http://www.w3.org/1999/xlink" width="258px" height="201px" xmlns="http://www.w3.org/2000/svg">
  <g transform="matrix(1 0 0 1 -270 -305 )">
    <path d="M 141.216904276986 190.409677419355  C 134.82382892057 197.469892473118  130.751527494908 201  129 201  C 127.248472505092 201  123.17617107943 197.469892473118  116.783095723014 190.409677419355  C 110.390020366599 183.349462365591  107.193482688391 178.858781362007  107.193482688391 176.937634408602  C 107.193482688391 173.863799283154  109.930244399185 171.270250896057  115.403767820774 169.156989247312  C 120.877291242363 167.043727598566  125.409368635438 165.987096774194  129 165.987096774194  C 132.590631364562 165.987096774194  137.122708757637 167.043727598566  142.596232179226 169.156989247312  C 148.069755600815 171.270250896057  150.806517311609 173.863799283154  150.806517311609 176.937634408602  C 150.806517311609 178.858781362007  147.609979633401 183.349462365591  141.216904276986 190.409677419355  Z M 176.751018329939 151.14623655914  C 170.13900203666 158.350537634409  166.044806517312 161.952688172043  164.468431771894 161.952688172043  C 164.293279022403 161.952688172043  162.541751527495 160.751971326165  159.213849287169 158.350537634409  C 155.885947046843 155.949103942652  151.441446028513 153.547670250896  145.880346232179 151.14623655914  C 140.319246435845 148.744802867384  134.692464358452 147.544086021505  129 147.544086021505  C 123.307535641548 147.544086021505  117.680753564155 148.744802867384  112.119653767821 151.14623655914  C 106.558553971487 153.547670250896  102.135947046843 155.949103942652  98.85183299389 158.350537634409  C 95.5677189409369 160.751971326165  93.7942973523422 161.952688172043  93.5315682281059 161.952688172043  C 91.9551934826884 161.952688172043  87.8609979633401 158.350537634409  81.2489816700611 151.14623655914  C 74.6369653767821 143.941935483871  71.3309572301426 139.475268817204  71.3309572301426 137.74623655914  C 71.3309572301426 136.497491039427  71.7688391038697 135.392831541219  72.6446028513238 134.432258064516  C 79.4755600814664 127.035842293907  88.0580448065173 121.224372759857  98.3920570264766 116.997849462366  C 108.726069246436 112.771326164875  118.928716904277 110.658064516129  129 110.658064516129  C 139.071283095723 110.658064516129  149.273930753564 112.771326164875  159.607942973523 116.997849462366  C 169.941955193483 121.224372759857  178.524439918534 127.035842293907  185.355397148676 134.432258064516  C 186.23116089613 135.392831541219  186.669042769857 136.497491039427  186.669042769857 137.74623655914  C 186.669042769857 139.475268817204  183.363034623218 143.941935483871  176.751018329939 151.14623655914  Z M 212.41649694501 111.954838709677  C 205.848268839104 119.159139784946  201.819755600815 122.761290322581  200.330957230143 122.761290322581  C 199.367617107943 122.761290322581  198.360488798371 122.3770609319  197.309572301426 121.608602150538  C 185.399185336049 111.522580645161  174.364562118126 104.102150537634  164.205702647658 99.347311827957  C 154.046843177189 94.5924731182796  142.311608961303 92.2150537634409  129 92.2150537634409  C 121.55600814664 92.2150537634409  114.090122199593 93.2716845878136  106.602342158859 95.3849462365591  C 99.1145621181263 97.4982078853047  92.5901221995927 100.043727598566  87.0290224032587 103.021505376344  C 81.4679226069247 105.999283154122  76.4979633401222 108.9770609319  72.1191446028513 111.954838709677  C 67.7403258655805 114.932616487455  64.2810590631365 117.478136200717  61.7413441955193 119.591397849462  C 59.2016293279022 121.704659498208  57.8441955193483 122.761290322581  57.6690427698574 122.761290322581  C 56.1802443991853 122.761290322581  52.1517311608961 119.159139784946  45.5835030549898 111.954838709677  C 39.0152749490835 104.750537634409  35.7311608961303 100.283870967742  35.7311608961303 98.5548387096774  C 35.7311608961303 97.4021505376344  36.1690427698574 96.3455197132617  37.0448065173116 95.3849462365591  C 48.6048879837067 82.705376344086  62.6171079429735 72.8594982078853  79.081466395112 65.847311827957  C 95.5458248472505 58.8351254480287  112.18533604888 55.3290322580645  129 55.3290322580645  C 145.81466395112 55.3290322580645  162.454175152749 58.8351254480287  178.918533604888 65.847311827957  C 195.382892057027 72.8594982078853  209.395112016293 82.705376344086  220.955193482688 95.3849462365591  C 221.830957230143 96.3455197132617  222.26883910387 97.4021505376344  222.26883910387 98.5548387096774  C 222.26883910387 100.283870967742  218.984725050917 104.750537634409  212.41649694501 111.954838709677  Z M 248.081975560081 72.9075268817204  C 241.469959266802 80.1118279569893  237.419551934827 83.7139784946236  235.930753564155 83.7139784946236  C 234.967413441955 83.7139784946236  234.004073319756 83.2817204301075  233.040733197556 82.4172043010753  C 217.364562118126 67.3362007168459  201.097250509165 55.9774193548387  184.238798370672 48.3408602150538  C 167.380346232179 40.7043010752688  148.967413441955 36.8860215053763  129 36.8860215053763  C 109.032586558045 36.8860215053763  90.6196537678208 40.7043010752688  73.7612016293279 48.3408602150538  C 56.902749490835 55.9774193548387  40.6354378818737 67.3362007168459  24.959266802444 82.4172043010753  C 23.9959266802444 83.2817204301075  23.0325865580448 83.7139784946236  22.0692464358452 83.7139784946236  C 20.5804480651731 83.7139784946236  16.5300407331976 80.1118279569893  9.91802443991853 72.9075268817204  C 3.30600814663951 65.7032258064516  0 61.2365591397849  0 59.5075268817204  C 0 58.2587813620072  0.437881873727088 57.1541218637993  1.31364562118126 56.1935483870968  C 17.6904276985743 38.3268817204301  37.1761710794297 24.494623655914  59.7708757637474 14.6967741935484  C 82.3655804480652 4.89892473118279  105.441955193483 0  129 0  C 152.558044806517 0  175.634419551935 4.89892473118279  198.229124236253 14.6967741935484  C 220.82382892057 24.494623655914  240.309572301426 38.3268817204301  256.686354378819 56.1935483870968  C 257.562118126273 57.1541218637993  258 58.2587813620072  258 59.5075268817204  C 258 61.2365591397849  254.693991853361 65.7032258064516  248.081975560081 72.9075268817204  Z " fill-rule="nonzero" fill="#000000" stroke="none" transform="matrix(1 0 0 1 270 305 )" />
  </g>
</svg>