<?xml version="1.0" encoding="utf-8"?>
<svg version="1.1" xmlns:xlink="http://www.w3.org/1999/xlink" width="35px" height="31px" xmlns="http://www.w3.org/2000/svg">
  <g transform="matrix(1 0 0 1 -139 -843 )">
    <path d="M 4.42563657407407 0.7568359375  C 4.93200231481481 1.26139322916667  5.18518518518519 1.87022569444444  5.18518518518519 2.58333333333333  C 5.18518518518519 3.55208333333333  4.75308641975309 4.29210069444444  4 4.80338541666667  L 4 30.3541666666667  C 3.88888888888889 30.5290798611111  3.82474922839506 30.6804470486111  3.69646990740741 30.8082682291667  C 3.56819058641975 30.9360894097222  3.41628086419753 31  3.24074074074074 31  L 1.94444444444444 31  C 1.76890432098765 31  1.61699459876543 30.9360894097222  1.48871527777778 30.8082682291667  C 1.36043595679012 30.6804470486111  1.2962962962963 30.5290798611111  1.2962962962963 30.3541666666667  L 1.2962962962963 4.80338541666667  C 0.432098765432099 4.29210069444444  0 3.55208333333333  0 2.58333333333333  C 0 1.87022569444444  0.25318287037037 1.26139322916667  0.759548611111111 0.7568359375  C 1.26591435185185 0.252278645833334  1.87692901234568 0  2.59259259259259 0  C 3.30825617283951 0  3.91927083333333 0.252278645833334  4.42563657407407 0.7568359375  Z M 34.615162037037 2.966796875  C 34.8717206790123 3.22243923611111  35 3.52517361111111  35 3.875  L 35 19.2740885416667  C 35 19.6104600694444  34.9156057098765 19.8694661458333  34.7468171296296 20.0511067708333  C 34.5780285493827 20.2327473958333  34.3113425925926 20.4177517361111  33.9467592592593 20.6061197916667  C 31.0435956790123 22.1668836805556  28.5522762345679 22.947265625  26.4728009259259 22.947265625  C 25.649112654321 22.947265625  24.8152970679012 22.7992621527778  23.9713541666667 22.5032552083333  C 23.1274112654321 22.2072482638889  22.3948688271605 21.8843315972222  21.7737268518519 21.5345052083333  C 21.1525848765432 21.1846788194444  20.3727816358025 20.8617621527778  19.4343171296296 20.5657552083333  C 18.4958526234568 20.2697482638889  17.5337577160494 20.1217447916667  16.5480324074074 20.1217447916667  C 13.9554398148148 20.1217447916667  10.8227237654321 21.1039496527778  7.14988425925926 23.068359375  C 6.92033179012346 23.189453125  6.69753086419753 23.25  6.48148148148148 23.25  C 6.1304012345679 23.25  5.82658179012346 23.1221788194444  5.57002314814815 22.8665364583333  C 5.31346450617284 22.6108940972222  5.18518518518519 22.3081597222222  5.18518518518519 21.9583333333333  L 5.18518518518519 6.98307291666667  C 5.18518518518519 6.55251736111111  5.39448302469136 6.18250868055555  5.8130787037037 5.873046875  C 6.09664351851852 5.68467881944444  6.63001543209877 5.39539930555555  7.41319444444444 5.00520833333333  C 10.5999228395062 3.390625  13.4423225308642 2.58333333333333  15.9403935185185 2.58333333333333  C 17.3852237654321 2.58333333333333  18.7355324074074 2.77842881944444  19.9913194444444 3.16861979166667  C 21.2471064814815 3.55881076388889  22.7256944444444 4.15082465277777  24.4270833333333 4.94466145833333  C 24.940200617284 5.20030381944444  25.5343364197531 5.328125  26.2094907407407 5.328125  C 26.9386574074074 5.328125  27.7319637345679 5.18684895833333  28.5894097222222 4.904296875  C 29.4468557098765 4.62174479166667  30.189525462963 4.30555555555555  30.8174189814815 3.95572916666667  C 31.4453125 3.60590277777777  32.0394483024691 3.28971354166667  32.5998263888889 3.00716145833333  C 33.1602044753086 2.724609375  33.5281635802469 2.58333333333333  33.7037037037037 2.58333333333333  C 34.0547839506173 2.58333333333333  34.3586033950617 2.71115451388889  34.615162037037 2.966796875  Z " fill-rule="nonzero" fill="#ffffff" stroke="none" transform="matrix(1 0 0 1 139 843 )" />
  </g>
</svg>