<?xml version="1.0" encoding="utf-8"?>
<svg version="1.1" xmlns:xlink="http://www.w3.org/1999/xlink" width="300px" height="43px" xmlns="http://www.w3.org/2000/svg">
  <defs>
    <mask fill="white" id="clip212">
      <path d="M 50 43  L 0 43  L 0 8  L 46.2616822429906 8  L 51.2307692307692 7.32926829268291  L 56.7692307692308 0.0769230769230944  L 63.2307692307692 7.32926829268291  L 70.5607476635514 8  L 300 8  L 300 43  L 80 43  L 65.8878504672897 43  L 50 43  Z " fill-rule="evenodd" />
    </mask>
  </defs>
  <g transform="matrix(1 0 0 1 -150 -330 )">
    <path d="M 50 43  L 0 43  L 0 8  L 46.2616822429906 8  L 51.2307692307692 7.32926829268291  L 56.7692307692308 0.0769230769230944  L 63.2307692307692 7.32926829268291  L 70.5607476635514 8  L 300 8  L 300 43  L 80 43  L 65.8878504672897 43  L 50 43  Z " fill-rule="nonzero" fill="#ffffff" stroke="none" transform="matrix(1 0 0 1 150 330 )" />
    <path d="M 50 43  L 0 43  L 0 8  L 46.2616822429906 8  L 51.2307692307692 7.32926829268291  L 56.7692307692308 0.0769230769230944  L 63.2307692307692 7.32926829268291  L 70.5607476635514 8  L 300 8  L 300 43  L 80 43  L 65.8878504672897 43  L 50 43  Z " stroke-width="2" stroke="#d7d7d7" fill="none" transform="matrix(1 0 0 1 150 330 )" mask="url(#clip212)" />
  </g>
</svg>