<?xml version="1.0" encoding="utf-8"?>
<svg version="1.1" xmlns:xlink="http://www.w3.org/1999/xlink" width="19px" height="20px" xmlns="http://www.w3.org/2000/svg">
  <g transform="matrix(1 0 0 1 -504 -345 )">
    <path d="M 12.3532986111111 0.3125  C 12.5622106481481 0.52083333333333  12.6666666666667 0.76754385964912  12.6666666666667 1.05263157894737  L 12.6666666666667 18.9473684210526  C 12.6666666666667 19.2324561403509  12.5622106481481 19.4791666666667  12.3532986111111 19.6875  C 12.1443865740741 19.8958333333333  11.8969907407407 20  11.6111111111111 20  C 11.3252314814815 20  11.0778356481481 19.8958333333333  10.8689236111111 19.6875  L 5.37673611111111 14.2105263157895  L 1.05555555555556 14.2105263157895  C 0.769675925925926 14.2105263157895  0.522280092592593 14.1063596491228  0.313368055555556 13.8980263157895  C 0.104456018518519 13.6896929824561  0 13.4429824561404  0 13.1578947368421  L 0 6.84210526315789  C 0 6.55701754385965  0.104456018518519 6.31030701754386  0.313368055555556 6.10197368421053  C 0.522280092592593 5.89364035087719  0.769675925925926 5.78947368421053  1.05555555555556 5.78947368421053  L 5.37673611111111 5.78947368421053  L 10.8689236111111 0.3125  C 11.0778356481481 0.104166666666665  11.3252314814815 0  11.6111111111111 0  C 11.8969907407407 0  12.1443865740741 0.104166666666665  12.3532986111111 0.3125  Z M 18.2990451388889 7.66447368421053  C 18.7663483796296 8.38815789473684  19 9.16666666666666  19 10  C 19 10.8333333333333  18.7663483796296 11.609100877193  18.2990451388889 12.3273026315789  C 17.8317418981481 13.0455043859649  17.2132523148148 13.5581140350877  16.4435763888889 13.8651315789474  C 16.3336226851852 13.9199561403509  16.1961805555556 13.9473684210526  16.03125 13.9473684210526  C 15.7453703703704 13.9473684210526  15.497974537037 13.8459429824561  15.2890625 13.6430921052632  C 15.080150462963 13.4402412280702  14.9756944444444 13.1907894736842  14.9756944444444 12.8947368421053  C 14.9756944444444 12.6644736842105  15.0416666666667 12.4698464912281  15.1736111111111 12.3108552631579  C 15.3055555555556 12.1518640350877  15.4649884259259 12.0148026315789  15.6519097222222 11.8996710526316  C 15.8388310185185 11.7845394736842  16.0257523148148 11.6584429824561  16.2126736111111 11.5213815789474  C 16.3995949074074 11.3843201754386  16.5590277777778 11.186951754386  16.6909722222222 10.9292763157895  C 16.8229166666667 10.671600877193  16.8888888888889 10.3618421052632  16.8888888888889 10  C 16.8888888888889 9.63815789473684  16.8229166666667 9.32839912280702  16.6909722222222 9.07072368421053  C 16.5590277777778 8.81304824561403  16.3995949074074 8.6156798245614  16.2126736111111 8.47861842105263  C 16.0257523148148 8.34155701754386  15.8388310185185 8.21546052631579  15.6519097222222 8.10032894736842  C 15.4649884259259 7.98519736842105  15.3055555555556 7.84813596491228  15.1736111111111 7.68914473684211  C 15.0416666666667 7.53015350877193  14.9756944444444 7.33552631578947  14.9756944444444 7.10526315789474  C 14.9756944444444 6.80921052631579  15.080150462963 6.55975877192982  15.2890625 6.35690789473684  C 15.497974537037 6.15405701754386  15.7453703703704 6.05263157894737  16.03125 6.05263157894737  C 16.1961805555556 6.05263157894737  16.3336226851852 6.08004385964912  16.4435763888889 6.13486842105263  C 17.2132523148148 6.43092105263158  17.8317418981481 6.94078947368421  18.2990451388889 7.66447368421053  Z " fill-rule="nonzero" fill="#d7d7d7" stroke="none" transform="matrix(1 0 0 1 504 345 )" />
  </g>
</svg>