<?xml version="1.0" encoding="utf-8"?>
<svg version="1.1" xmlns:xlink="http://www.w3.org/1999/xlink" width="34px" height="20px" xmlns="http://www.w3.org/2000/svg">
  <g transform="matrix(1 0 0 1 -460 -345 )">
    <path d="M 33.6593186372746 2.06185567010309  C 33.8864395457582 2.29095074455899  34 2.55441008018327  34 2.85223367697595  C 34 3.15005727376861  33.8864395457582 3.41351660939289  33.6593186372746 3.6426116838488  L 17.7835671342685 19.6563573883161  C 17.5564462257849 19.885452462772  17.2952571810287 20  17 20  C 16.7047428189713 20  16.4435537742151 19.885452462772  16.2164328657315 19.6563573883161  L 0.340681362725451 3.6426116838488  C 0.113560454241817 3.41351660939289  0 3.15005727376861  0 2.85223367697595  C 0 2.55441008018327  0.113560454241817 2.29095074455899  0.340681362725451 2.06185567010309  L 2.04408817635271 0.34364261168385  C 2.27120908483634 0.114547537227947  2.53239812959252 0  2.82765531062124 0  C 3.12291249164997 0  3.38410153640615 0.114547537227947  3.61122244488978 0.34364261168385  L 17 13.8487972508591  L 30.3887775551102 0.34364261168385  C 30.6158984635939 0.114547537227947  30.87708750835 0  31.1723446893788 0  C 31.4676018704075 0  31.7287909151637 0.114547537227947  31.9559118236473 0.34364261168385  L 33.6593186372746 2.06185567010309  Z " fill-rule="nonzero" fill="#d7d7d7" stroke="none" transform="matrix(1 0 0 1 460 345 )" />
  </g>
</svg>