<?xml version="1.0" encoding="utf-8"?>
<svg version="1.1" xmlns:xlink="http://www.w3.org/1999/xlink" width="35px" height="37px" xmlns="http://www.w3.org/2000/svg">
  <g transform="matrix(1 0 0 1 -90 -1026 )">
    <path d="M 22.7560763888889 0.578125  C 23.1409143518518 0.963541666666661  23.3333333333333 1.41995614035087  23 1.94736842105263  L 23 35.0526315789474  C 23.3333333333333 35.5800438596491  23.1409143518518 36.0364583333333  22.7560763888889 36.421875  C 22.3712384259259 36.8072916666667  21.9155092592593 37  21.3888888888889 37  C 20.8622685185185 37  20.4065393518519 36.8072916666667  20.0217013888889 36.421875  L 9.90451388888889 26.2894736842105  L 1.94444444444444 26.2894736842105  C 1.41782407407407 26.2894736842105  0.962094907407407 26.0967653508772  0.577256944444444 25.7113486842105  C 0.192418981481481 25.3259320175439  0 24.8695175438597  0 24.3421052631579  L 0 12.6578947368421  C 0 12.1304824561403  0.192418981481481 11.6740679824561  0.577256944444444 11.2886513157895  C 0.962094907407407 10.9032346491228  1.41782407407407 10.7105263157895  1.94444444444444 10.7105263157895  L 9.90451388888889 10.7105263157895  L 20.0217013888889 0.578125  C 20.4065393518519 0.192708333333331  20.8622685185185 0  21.3888888888889 0  C 21.9155092592593 0  22.3712384259259 0.192708333333331  22.7560763888889 0.578125  Z M 33.7087673611111 14.1792763157895  C 34.5695891203704 15.5180921052632  35 16.9583333333333  35 18.5  C 35 20.0416666666667  34.5695891203704 21.476836622807  33.7087673611111 22.8055098684211  C 32.8479456018519 24.1341831140351  31.7086226851852 25.0825109649123  30.2907986111111 25.6504934210526  C 30.0882523148148 25.7519188596491  29.8350694444445 25.8026315789474  29.53125 25.8026315789474  C 29.0046296296296 25.8026315789474  28.548900462963 25.6149945175439  28.1640625 25.2397203947368  C 27.779224537037 24.8644462719298  27.5868055555556 24.4029605263158  27.5868055555556 23.8552631578947  C 27.5868055555556 23.4292763157895  27.7083333333333 23.0692160087719  27.9513888888889 22.7750822368421  C 28.1944444444444 22.4809484649123  28.4881365740741 22.2273848684211  28.8324652777778 22.0143914473684  C 29.1767939814815 21.8013980263158  29.5211226851852 21.5681195175439  29.8654513888889 21.3145559210526  C 30.2097800925926 21.0609923245614  30.5034722222222 20.695860745614  30.7465277777778 20.2191611842105  C 30.9895833333333 19.742461622807  31.1111111111111 19.1694078947368  31.1111111111111 18.5  C 31.1111111111111 17.8305921052632  30.9895833333333 17.257538377193  30.7465277777778 16.7808388157895  C 30.5034722222222 16.304139254386  30.2097800925926 15.9390076754386  29.8654513888889 15.6854440789474  C 29.5211226851852 15.4318804824561  29.1767939814815 15.1986019736842  28.8324652777778 14.9856085526316  C 28.4881365740741 14.7726151315789  28.1944444444444 14.5190515350877  27.9513888888889 14.2249177631579  C 27.7083333333333 13.9307839912281  27.5868055555556 13.5707236842105  27.5868055555556 13.1447368421053  C 27.5868055555556 12.5970394736842  27.779224537037 12.1355537280702  28.1640625 11.7602796052632  C 28.548900462963 11.3850054824561  29.0046296296296 11.1973684210526  29.53125 11.1973684210526  C 29.8350694444445 11.1973684210526  30.0882523148148 11.2480811403509  30.2907986111111 11.3495065789474  C 31.7086226851852 11.8972039473684  32.8479456018519 12.8404605263158  33.7087673611111 14.1792763157895  Z " fill-rule="nonzero" fill="#d7d7d7" stroke="none" transform="matrix(1 0 0 1 90 1026 )" />
  </g>
</svg>