<?xml version="1.0" encoding="utf-8"?>
<svg version="1.1" xmlns:xlink="http://www.w3.org/1999/xlink" width="35px" height="28px" xmlns="http://www.w3.org/2000/svg">
  <g transform="matrix(1 0 0 1 -273 -1022 )">
    <path d="M 16.322869955157 21  L 17.4215246636771 21  L 19.6973094170404 18.6931818181818  L 16.7152466367713 15.6704545454545  L 14.4394618834081 17.9772727272727  L 14.4394618834081 19.0909090909091  L 16.322869955157 19.0909090909091  L 16.322869955157 21  Z M 26.0341928251121 7.33806818181818  C 26.2565396113602 7.11268939393939  26.2630792227205 6.89393939393939  26.0538116591928 6.68181818181818  C 25.8445440956652 6.46969696969697  25.6287369207773 6.47632575757576  25.4063901345291 6.70170454545455  L 18.539798206278 13.6619318181818  C 18.3174514200299 13.8873106060606  18.3109118086697 14.1060606060606  18.5201793721973 14.3181818181818  C 18.729446935725 14.530303030303  18.9452541106129 14.5236742424242  19.167600896861 14.2982954545455  L 26.0341928251121 7.33806818181818  Z M 27.2309417040359 17.9176136363636  C 27.4925261584454 18.0236742424242  27.6233183856502 18.2159090909091  27.6233183856502 18.4943181818182  L 27.6233183856502 22.2727272727273  C 27.6233183856502 23.8503787878788  27.07072122571 25.1993371212121  25.9655269058296 26.3196022727273  C 24.8603325859492 27.4398674242424  23.5295216741405 28  21.9730941704036 28  L 5.65022421524664 28  C 4.09379671150972 28  2.76298579970105 27.4398674242424  1.65779147982063 26.3196022727273  C 0.552597159940209 25.1993371212121  0 23.8503787878788  0 22.2727272727273  L 0 5.72727272727273  C 0 4.14962121212121  0.552597159940209 2.80066287878788  1.65779147982063 1.68039772727273  C 2.76298579970105 0.560132575757573  4.09379671150972 0  5.65022421524664 0  L 21.9730941704036 0  C 22.7970852017937 0  23.5622197309417 0.165719696969695  24.2684977578475 0.49715909090909  C 24.4646860986547 0.589962121212119  24.582399103139 0.742424242424242  24.6216367713004 0.954545454545454  C 24.6608744394619 1.17992424242424  24.6020179372197 1.37215909090909  24.445067264574 1.53125  L 23.4837443946188 2.50568181818182  C 23.3006352765321 2.69128787878788  23.0913677130045 2.74431818181818  22.8559417040359 2.66477272727273  C 22.5551195814649 2.58522727272727  22.2608370702541 2.54545454545455  21.9730941704036 3  L 5.65022421524664 3  C 4.78699551569507 2.54545454545455  4.04801943198804 2.85700757575757  3.43329596412556 3.48011363636364  C 2.81857249626308 4.1032196969697  2.51121076233184 4.85227272727273  3 5.72727272727273  L 3 22.2727272727273  C 2.51121076233184 23.1477272727273  2.81857249626308 23.8967803030303  3.43329596412556 24.5198863636364  C 4.04801943198804 25.1429924242424  4.78699551569507 25.4545454545455  5.65022421524664 25  L 21.9730941704036 25  C 22.8363228699552 25.4545454545455  23.5752989536622 25.1429924242424  24.1900224215247 24.5198863636364  C 24.8047458893871 23.8967803030303  25.1121076233184 23.1477272727273  25.1121076233184 22.2727272727273  L 25.1121076233184 19.7670454545455  C 25.1121076233184 19.594696969697  25.1709641255605 19.4488636363636  25.2886771300448 19.3295454545455  L 26.5442825112108 18.0568181818182  C 26.7404708520179 17.8579545454545  26.9693572496263 17.811553030303  27.2309417040359 17.9176136363636  Z M 12.5560538116592 17.1818181818182  L 25.7399103139013 3.81818181818182  L 31.390134529148 9.54545454545455  L 18.2062780269058 22.9090909090909  L 12.5560538116592 22.9090909090909  L 12.5560538116592 17.1818181818182  Z M 35 5.09090909090909  C 35 5.62121212121212  34.8168908819133 6.0719696969697  34.4506726457399 6.44318181818182  L 32.6457399103139 8.27272727272727  L 26.9955156950673 2.54545454545455  L 28.8004484304933 0.71590909090909  C 29.1666666666667 0.344696969696967  29.6113602391629 0.159090909090911  30.1345291479821 0.159090909090911  C 30.6576980568012 0.159090909090911  31.1023916292975 0.344696969696967  31.4686098654709 0.71590909090909  L 34.4506726457399 3.73863636363636  C 34.8168908819133 4.10984848484848  35 4.56060606060606  35 5.09090909090909  Z " fill-rule="nonzero" fill="#aaaaaa" stroke="none" transform="matrix(1 0 0 1 273 1022 )" />
  </g>
</svg>