<?xml version="1.0" encoding="utf-8"?>
<svg version="1.1" xmlns:xlink="http://www.w3.org/1999/xlink" width="16px" height="16px" xmlns="http://www.w3.org/2000/svg">
  <g transform="matrix(1 0 0 1 -346 -44 )">
    <path d="M 354 44  C 358.48 44  362 47.52  362 52  C 362 56.48  358.48 60  354 60  C 349.52 60  346 56.48  346 52  C 346 47.52  349.52 44  354 44  Z " fill-rule="nonzero" fill="#ffffff" stroke="none" fill-opacity="0" />
    <path d="M 354 44.5  C 358.2 44.5  361.5 47.8  361.5 52  C 361.5 56.2  358.2 59.5  354 59.5  C 349.8 59.5  346.5 56.2  346.5 52  C 346.5 47.8  349.8 44.5  354 44.5  Z " stroke-width="1" stroke="#ffffff" fill="none" />
  </g>
</svg>