<?xml version="1.0" encoding="utf-8"?>
<svg version="1.1" xmlns:xlink="http://www.w3.org/1999/xlink" width="16px" height="16px" xmlns="http://www.w3.org/2000/svg">
  <g transform="matrix(1 0 0 1 -346 -425 )">
    <path d="M 354 425  C 358.48 425  362 428.52  362 433  C 362 437.48  358.48 441  354 441  C 349.52 441  346 437.48  346 433  C 346 428.52  349.52 425  354 425  Z " fill-rule="nonzero" fill="#ffffff" stroke="none" />
    <path d="M 354 425.5  C 358.2 425.5  361.5 428.8  361.5 433  C 361.5 437.2  358.2 440.5  354 440.5  C 349.8 440.5  346.5 437.2  346.5 433  C 346.5 428.8  349.8 425.5  354 425.5  Z " stroke-width="1" stroke="#aaaaaa" fill="none" />
  </g>
</svg>