<?xml version="1.0" encoding="utf-8"?>
<svg version="1.1" xmlns:xlink="http://www.w3.org/1999/xlink" width="4px" height="3px" xmlns="http://www.w3.org/2000/svg">
  <defs>
    <mask fill="white" id="clip697">
      <path d="M 3.5 0.5  C 3.5 0.5  3.5 2.5  3.5 2.5  C 3.5 2.5  0.5 0.5  0.5 0.5  C 0.5 0.5  3.5 0.5  3.5 0.5  Z " fill-rule="evenodd" />
    </mask>
  </defs>
  <g transform="matrix(1 0 0 1 -1115 -939 )">
    <path d="M 3.5 0.5  C 3.5 0.5  3.5 2.5  3.5 2.5  C 3.5 2.5  0.5 0.5  0.5 0.5  C 0.5 0.5  3.5 0.5  3.5 0.5  Z " fill-rule="nonzero" fill="#ffffff" stroke="none" fill-opacity="0" transform="matrix(1 0 0 1 1115 939 )" />
    <path d="M 3.5 0.5  C 3.5 0.5  3.5 2.5  3.5 2.5  C 3.5 2.5  0.5 0.5  0.5 0.5  C 0.5 0.5  3.5 0.5  3.5 0.5  Z " stroke-width="2" stroke-dasharray="1,1" stroke="#999999" fill="none" transform="matrix(1 0 0 1 1115 939 )" mask="url(#clip697)" />
  </g>
</svg>