<?xml version="1.0" encoding="utf-8"?>
<svg version="1.1" xmlns:xlink="http://www.w3.org/1999/xlink" width="18px" height="15px" xmlns="http://www.w3.org/2000/svg">
  <g transform="matrix(1 0 0 1 -1539 -120 )">
    <path d="M 17.6907216494845 7.15430861723447  C 17.8969072164948 7.25450901803607  18 7.36973947895792  18 7.5  C 18 7.63026052104208  17.8969072164948 7.74549098196393  17.6907216494845 7.84569138276553  L 3.27835051546392 14.8496993987976  C 3.07216494845361 14.9498997995992  2.83505154639175 15  2.56701030927835 15  C 2.29896907216495 15  2.06185567010309 14.9498997995992  1.85567010309278 14.8496993987976  L 0.309278350515464 14.0981963927856  C 0.103092783505155 13.997995991984  0 13.8827655310621  0 13.75250501002  C 0 13.622244488978  0.103092783505155 13.5070140280561  0.309278350515464 13.4068136272545  L 12.4639175257732 7.5  L 0.309278350515464 1.59318637274549  C 0.103092783505155 1.49298597194389  0 1.37775551102204  0 1.24749498997996  C 0 1.11723446893787  0.103092783505155 1.00200400801603  0.309278350515464 0.901803607214428  L 1.85567010309278 0.150300601202405  C 2.06185567010309 0.0501002004008011  2.29896907216495 0  2.56701030927835 0  C 2.83505154639175 0  3.07216494845361 0.0501002004008011  3.27835051546392 0.150300601202405  L 17.6907216494845 7.15430861723447  Z " fill-rule="nonzero" fill="#000000" stroke="none" transform="matrix(1 0 0 1 1539 120 )" />
  </g>
</svg>