<?xml version="1.0" encoding="utf-8"?>
<svg version="1.1" xmlns:xlink="http://www.w3.org/1999/xlink" width="18px" height="15px" xmlns="http://www.w3.org/2000/svg">
  <g transform="matrix(1 0 0 1 -1258 -120 )">
    <path d="M 17.6907216494845 0.901803607214428  C 17.8969072164948 1.00200400801603  18 1.11723446893787  18 1.24749498997996  C 18 1.37775551102204  17.8969072164948 1.49298597194389  17.6907216494845 1.59318637274549  L 5.5360824742268 7.5  L 17.6907216494845 13.4068136272545  C 17.8969072164948 13.5070140280561  18 13.622244488978  18 13.75250501002  C 18 13.8827655310621  17.8969072164948 13.997995991984  17.6907216494845 14.0981963927856  L 16.1443298969072 14.8496993987976  C 15.9381443298969 14.9498997995992  15.7010309278351 15  15.4329896907216 15  C 15.1649484536083 15  14.9278350515464 14.9498997995992  14.7216494845361 14.8496993987976  L 0.309278350515464 7.84569138276553  C 0.103092783505155 7.74549098196393  0 7.63026052104208  0 7.5  C 0 7.36973947895792  0.103092783505155 7.25450901803607  0.309278350515464 7.15430861723447  L 14.7216494845361 0.150300601202405  C 14.9278350515464 0.0501002004008011  15.1649484536083 0  15.4329896907216 0  C 15.7010309278351 0  15.9381443298969 0.0501002004008011  16.1443298969072 0.150300601202405  L 17.6907216494845 0.901803607214428  Z " fill-rule="nonzero" fill="#000000" stroke="none" transform="matrix(1 0 0 1 1258 120 )" />
  </g>
</svg>