<?xml version="1.0" encoding="utf-8"?>
<svg version="1.1" xmlns:xlink="http://www.w3.org/1999/xlink" width="141px" height="141px" xmlns="http://www.w3.org/2000/svg">
  <g transform="matrix(1 0 0 1 -1226 -206 )">
    <path d="M 119.241273729333 33.5220588235294  C 120.853031230863 31.9093137254902  121.658909981629 29.9509803921569  121.658909981629 27.6470588235294  C 121.658909981629 25.343137254902  120.853031230863 23.3848039215686  119.241273729333 21.7720588235294  C 117.629516227802 20.1593137254902  115.6723821188 19.3529411764706  113.369871402327 19.3529411764706  C 111.067360685854 19.3529411764706  109.110226576852 20.1593137254902  107.498469075321 21.7720588235294  C 105.886711573791 23.3848039215686  105.080832823025 25.343137254902  105.080832823025 27.6470588235294  C 105.080832823025 29.9509803921569  105.886711573791 31.9093137254902  107.498469075321 33.5220588235294  C 109.110226576852 35.1348039215686  111.067360685854 35.9411764705882  113.369871402327 35.9411764705882  C 115.6723821188 35.9411764705882  117.629516227802 35.1348039215686  119.241273729333 33.5220588235294  Z M 140.136558481323 0.820772058823534  C 140.712186160441 1.36795343137254  141 2.01593137254901  141 2.76470588235295  C 141 17.1066176470588  138.827005511329 29.5045955882353  134.481016533987 39.9586397058824  C 130.135027556644 50.4126838235294  122.838946723821 60.7947303921569  112.592774035517 71.1047794117647  C 107.93018983466 75.7126225490196  102.317819963258 80.78125  95.7556644213105 86.3106617647059  L 94.0287813839559 119.055147058824  C 93.9136558481323 119.976715686275  93.4531537048377 120.725490196078  92.6472749540723 121.301470588235  L 59.4911206368647 140.654411764706  C 59.0881812614819 140.884803921569  58.6276791181874 141  58.109614206981 141  C 57.4188609920392 141  56.7568891610533 140.740808823529  56.1236987140233 140.222426470588  L 50.5976729944887 134.693014705882  C 49.849357011635 133.886642156863  49.6191059399878 132.965073529412  49.9069197795468 131.928308823529  L 57.2461726883037 108.082720588235  L 32.9834660134721 83.8051470588235  L 9.15248009797918 91.1488970588235  C 8.97979179424372 91.2064950980392  8.72075933864054 91.235294117647  8.37538273116963 91.235294117647  C 7.56950398040417 91.235294117647  6.90753214941825 90.9761029411765  6.38946723821188 90.4577205882353  L 0.863441518677281 84.9283088235294  C -0.115125535823638 83.8339460784314  -0.259032455603184 82.7107843137255  0.431720759338641 81.5588235294118  L 19.7728107777097 48.3823529411765  C 20.3484384568279 47.5759803921569  21.0967544396816 47.1151960784314  22.0177587262707 47  L 54.7421922841396 45.2720588235294  C 60.2682180036742 38.7058823529412  65.3337415799143 33.0900735294118  69.9387630128598 28.4246323529412  C 80.7605633802817 17.6537990196078  91.0642988364973 10.2236519607843  100.849969381506 6.13419117647058  C 110.635639926516 2.04473039215686  123.040416411513 0  138.064298836497 0  C 138.870177587263 0  139.560930802205 0.273590686274501  140.136558481323 0.820772058823534  Z " fill-rule="nonzero" fill="#000000" stroke="none" transform="matrix(1 0 0 1 1226 206 )" />
  </g>
</svg>