<?xml version="1.0" encoding="utf-8"?>
<svg version="1.1" xmlns:xlink="http://www.w3.org/1999/xlink" width="25px" height="9px" xmlns="http://www.w3.org/2000/svg">
  <g transform="matrix(1 0 0 1 -1805 -693 )">
    <path d="M 24.7349330357143 3.8671875  C 24.9116443452381 4.0453125  25 4.25625  25 4.5  C 25 4.74375  24.9116443452381 4.9546875  24.7349330357143 5.1328125  L 21.1635044642857 8.7328125  C 20.9867931547619 8.9109375  20.7775297619048 9  20.5357142857143 9  C 20.2938988095238 9  20.0846354166667 8.9109375  19.9079241071429 8.7328125  C 19.7312127976191 8.5546875  19.6428571428571 8.34375  19.6428571428571 8.1  L 19.6428571428571 6.3  L 5.35714285714286 6.3  L 5.35714285714286 8.1  C 5.35714285714286 8.34375  5.26878720238095 8.5546875  5.09207589285714 8.7328125  C 4.91536458333333 8.9109375  4.70610119047619 9  4.46428571428571 9  C 4.22247023809524 9  4.01320684523809 8.9109375  3.83649553571429 8.7328125  L 0.265066964285714 5.1328125  C 0.0883556547619048 4.9546875  0 4.74375  0 4.5  C 0 4.25625  0.0883556547619048 4.0453125  0.265066964285714 3.8671875  L 3.83649553571429 0.2671875  C 4.01320684523809 0.0890624999999989  4.22247023809524 0  4.46428571428571 0  C 4.70610119047619 0  4.91536458333333 0.0890624999999989  5.09207589285714 0.2671875  C 5.26878720238095 0.4453125  5.35714285714286 0.65625  5.35714285714286 0.9  L 5.35714285714286 2.7  L 19.6428571428571 2.7  L 19.6428571428571 0.9  C 19.6428571428571 0.65625  19.7312127976191 0.4453125  19.9079241071429 0.2671875  C 20.0846354166667 0.0890624999999989  20.2938988095238 0  20.5357142857143 0  C 20.7775297619048 0  20.9867931547619 0.0890624999999989  21.1635044642857 0.2671875  L 24.7349330357143 3.8671875  Z " fill-rule="nonzero" fill="#808080" stroke="none" transform="matrix(1 0 0 1 1805 693 )" />
  </g>
</svg>