<?xml version="1.0" encoding="utf-8"?>
<svg version="1.1" xmlns:xlink="http://www.w3.org/1999/xlink" width="25px" height="7px" xmlns="http://www.w3.org/2000/svg">
  <g transform="matrix(1 0 0 1 -1806 -898 )">
    <path d="M 24.7349330357143 3.0078125  C 24.9116443452381 3.14635416666667  25 3.31041666666667  25 3.5  C 25 3.68958333333333  24.9116443452381 3.85364583333333  24.7349330357143 3.9921875  L 21.1635044642857 6.7921875  C 20.9867931547619 6.93072916666666  20.7775297619048 7  20.5357142857143 7  C 20.2938988095238 7  20.0846354166667 6.93072916666666  19.9079241071429 6.7921875  C 19.7312127976191 6.65364583333333  19.6428571428571 6.48958333333333  19.6428571428571 6.3  L 19.6428571428571 4.9  L 5.35714285714286 4.9  L 5.35714285714286 6.3  C 5.35714285714286 6.48958333333333  5.26878720238095 6.65364583333333  5.09207589285714 6.7921875  C 4.91536458333333 6.93072916666666  4.70610119047619 7  4.46428571428571 7  C 4.22247023809524 7  4.01320684523809 6.93072916666666  3.83649553571429 6.7921875  L 0.265066964285714 3.9921875  C 0.0883556547619048 3.85364583333333  0 3.68958333333333  0 3.5  C 0 3.31041666666667  0.0883556547619048 3.14635416666667  0.265066964285714 3.0078125  L 3.83649553571429 0.2078125  C 4.01320684523809 0.0692708333333325  4.22247023809524 0  4.46428571428571 0  C 4.70610119047619 0  4.91536458333333 0.0692708333333325  5.09207589285714 0.2078125  C 5.26878720238095 0.346354166666666  5.35714285714286 0.510416666666666  5.35714285714286 0.7  L 5.35714285714286 2.1  L 19.6428571428571 2.1  L 19.6428571428571 0.7  C 19.6428571428571 0.510416666666666  19.7312127976191 0.346354166666666  19.9079241071429 0.2078125  C 20.0846354166667 0.0692708333333325  20.2938988095238 0  20.5357142857143 0  C 20.7775297619048 0  20.9867931547619 0.0692708333333325  21.1635044642857 0.2078125  L 24.7349330357143 3.0078125  Z " fill-rule="nonzero" fill="#808080" stroke="none" transform="matrix(1 0 0 1 1806 898 )" />
  </g>
</svg>