<?xml version="1.0" encoding="utf-8"?>
<svg version="1.1" xmlns:xlink="http://www.w3.org/1999/xlink" width="11px" height="25px" xmlns="http://www.w3.org/2000/svg">
  <g transform="matrix(1 0 0 1 -1812 -581 )">
    <path d="M 10.8714285714286 5.70023148148148  C 10.9952380952381 5.8545524691358  11.0190476190476 6.02334104938272  10.9428571428571 6.20659722222222  C 10.8571428571429 6.38985339506173  10.7190476190476 6.48148148148148  10.5285714285714 6.48148148148148  L 7.32857142857143 6.48148148148148  L 7.32857142857143 24.537037037037  C 7.32857142857143 24.6720679012346  7.28571428571429 24.7829861111111  7.2 24.8697916666667  C 7.11428571428571 24.9565972222222  7.0047619047619 25  6.87142857142857 25  L 4.12857142857143 25  C 3.9952380952381 25  3.88571428571429 24.9565972222222  3.8 24.8697916666667  C 3.71428571428571 24.7829861111111  3.67142857142857 24.6720679012346  3.67142857142857 24.537037037037  L 3.67142857142857 6.48148148148148  L 0.471428571428571 6.48148148148148  C 0.271428571428571 6.48148148148148  0.133333333333333 6.38985339506173  0.0571428571428571 6.20659722222222  C -0.0190476190476191 6.02334104938272  0.00476190476190475 5.8545524691358  0.128571428571429 5.70023148148148  L 5.12857142857143 0.144675925925927  C 5.22380952380952 0.0482253086419748  5.33333333333333 0  5.45714285714286 0  C 5.59047619047619 0  5.7047619047619 0.0482253086419748  5.8 0.144675925925927  L 10.8714285714286 5.70023148148148  Z " fill-rule="nonzero" fill="#808080" stroke="none" transform="matrix(1 0 0 1 1812 581 )" />
  </g>
</svg>